<svg xmlns="http://www.w3.org/2000/svg">
<defs>
<font id="Champagne&Limousines-Bold" horiz-adv-x="916" >
  <font-face 
    font-family="Champagne & Limousines"
    font-weight="500"
    font-stretch="normal"
    units-per-em="2048"
    panose-1="2 11 6 2 2 2 2 2 2 4"
    ascent="1638"
    descent="-410"
    x-height="885"
    cap-height="1421"
    bbox="-600 -444 2545 1841"
    underline-thickness="150"
    underline-position="-142"
    unicode-range="U+0020-U+F002"
  />
<missing-glyph horiz-adv-x="2620" 
d="M1041 1359l546 -0.00195312l308 -392l-64 -302c84 28 126 72.667 126 134c-13.333 16 -20 32 -20 48c0 52 46.667 78 140 78c69.333 0 139.333 -46.667 210 -140c45.333 -37.333 131.333 -74.666 258 -111.999c0 -18.667 -6.66699 -28 -20 -28
c0 -9.33301 2 -16.666 6 -21.999c-4 -22.667 -22.667 -37 -56 -43c-12 -2 -26 -3 -42 -3c-29.333 0 -65.333 3.33301 -108 10c16 -13.333 61.333 -20 136 -20c14 2.66699 26.333 4 37 4s19.667 -1.33301 27 -4c0 -36 -68 -64 -204 -84l-126 8
c76 -37.333 139.333 -56 190 -56h42v-8c-34.667 -46.667 -98 -70 -190 -70c-46.667 0 -100 12 -160 36c0 -29.333 53.333 -62 160 -98c0 -18.667 -25.333 -30.667 -76 -36c-29.333 0 -92.666 21.333 -190 64c0 -22.667 23.333 -53.334 70 -92.001c-3.33301 -2 -9 -3 -17 -3
c-24 0 -69.667 10.333 -137 31l22 -62l-28 -8c-25.333 0 -70 35.333 -134 106l-62 -294h-742l-84 294c-49.333 -62.667 -89.333 -98 -120 -106l-28 8l14 62c-57.333 -28 -101.333 -42 -132 -42l-14 22c42 25.333 63 50.666 63 75.999
c0 2.66699 -0.333008 5.33398 -1 8.00098c-85.333 -42.667 -148 -64 -188 -64c-46.667 5.33301 -70 17.333 -70 36c102.667 34.667 154 66.334 154 95.001v3c-48 -24 -99.333 -36 -154 -36h-28c-73.333 0 -127.333 23.333 -162 70v8h42c50.667 0 95 5.66699 133 17
s57 24.333 57 39l-140 -8c-126.667 22.667 -190 50.667 -190 84l14 8l50 -8c31.333 -1.33301 58.333 -2 81 -2c44.667 0 71.667 2.66699 81 8l-156 11c-46.667 3.33301 -72 14.333 -76 33l6 20l-20 8v28c149.333 41.333 247.333 90 294 146

<glyph glyph-name=".notdef" horiz-adv-x="2620" 
d="M1041 1359l546 -0.00195312l308 -392l-64 -302c84 28 126 72.667 126 134c-13.333 16 -20 32 -20 48c0 52 46.667 78 140 78c69.333 0 139.333 -46.667 210 -140c45.333 -37.333 131.333 -74.666 258 -111.999c0 -18.667 -6.66699 -28 -20 -28
c0 -9.33301 2 -16.666 6 -21.999c-4 -22.667 -22.667 -37 -56 -43c-12 -2 -26 -3 -42 -3c-29.333 0 -65.333 3.33301 -108 10c16 -13.333 61.333 -20 136 -20c14 2.66699 26.333 4 37 4s19.667 -1.33301 27 -4c0 -36 -68 -64 -204 -84l-126 8
c76 -37.333 139.333 -56 190 -56h42v-8c-34.667 -46.667 -98 -70 -190 -70c-46.667 0 -100 12 -160 36c0 -29.333 53.333 -62 160 -98c0 -18.667 -25.333 -30.667 -76 -36c-29.333 0 -92.666 21.333 -190 64c0 -22.667 23.333 -53.334 70 -92.001c-3.33301 -2 -9 -3 -17 -3
c-24 0 -69.667 10.333 -137 31l22 -62l-28 -8c-25.333 0 -70 35.333 -134 106l-62 -294h-742l-84 294c-49.333 -62.667 -89.333 -98 -120 -106l-28 8l14 62c-57.333 -28 -101.333 -42 -132 -42l-14 22c42 25.333 63 50.666 63 75.999
c0 2.66699 -0.333008 5.33398 -1 8.00098c-85.333 -42.667 -148 -64 -188 -64c-46.667 5.33301 -70 17.333 -70 36c102.667 34.667 154 66.334 154 95.001v3c-48 -24 -99.333 -36 -154 -36h-28c-73.333 0 -127.333 23.333 -162 70v8h42c50.667 0 95 5.66699 133 17
s57 24.333 57 39l-140 -8c-126.667 22.667 -190 50.667 -190 84l14 8l50 -8c31.333 -1.33301 58.333 -2 81 -2c44.667 0 71.667 2.66699 81 8l-156 11c-46.667 3.33301 -72 14.333 -76 33l6 20l-20 8v28c149.333 41.333 247.333 90 294 146
c49.333 70.667 107.333 106 174 106c93.333 0 140 -26 140 -78c0 -16 -6.66699 -32 -20 -48c14.667 -89.333 52 -134 112 -134l-70 302zM1288 777.998c0 26 16.666 51.335 49.999 76.002c11.333 -24.667 25.666 -84 42.999 -178c3.33301 -20 5 -40.667 5 -62
c0 -77.333 -24.333 -160.666 -73 -249.999c76.667 67.333 136 133.666 178 198.999c34 53.333 51 105 51 155c0 11.333 -0.666992 22.666 -2 33.999c-9.33301 60.667 -18.666 106.667 -27.999 138c-9.33301 32 -17.666 67.667 -24.999 107l-163 -59
c-10.667 -6 -22.667 -11.667 -36 -17v3c-4 46.667 -14.333 71 -31 73c-35.333 -24.667 -94 -56.667 -176 -96c31.333 -9.33301 47 -24 47 -44v-252c0 -4 -3.66699 -8.33301 -11 -13s-20.333 -11.667 -39 -21c32 -48 65 -72 99 -72c15.333 0 31 5 47 15
c50 30.667 90 50.667 120 60c-30 7.33301 -46.833 15.166 -50.5 23.499s-5.5 14.5 -5.5 18.5v162z" />
    <glyph glyph-name="space" unicode=" " horiz-adv-x="508" 
 />
    <glyph glyph-name="space" unicode="&#xa0;" horiz-adv-x="508" 
 />
    <glyph glyph-name="exclam" unicode="!" horiz-adv-x="327" 
d="M240 172.5c21.333 -21 32 -46.5 32 -76.5s-10.667 -55.5 -32 -76.5s-46.666 -31.5 -75.999 -31.5c-30 0 -55.667 10.5 -77 31.5s-32 46.5 -32 76.5s10.667 55.5 32 76.5s47 31.5 77 31.5c29.333 0 54.666 -10.5 75.999 -31.5zM232 1421v-1087h-141v1087h141z" />
    <glyph glyph-name="quotedbl" unicode="&#x22;" horiz-adv-x="450" 
d="M55 846v573h141v-573h-141zM255 846v573h140v-573h-140z" />
    <glyph glyph-name="numbersign" unicode="#" horiz-adv-x="1100" 
d="M298 584l25 196h-274l18 140h273l55 443h141l-54 -443h194l55 443h141l-54 -443h273l-17 -140h-274l-24 -196h274l-18 -140h-274l-55 -444h-141l55 444h-195l-55 -444h-141l55 444h-273l18 140h272zM464 780l-24 -196h194l25 196h-195z" />
    <glyph glyph-name="dollar" unicode="$" horiz-adv-x="1109" 
d="M631 708l-0.000976562 -479c24.667 4 56 25 94 63c46.667 46.667 70 103.667 70 171c0 66 -23.333 122.333 -70 169c-39.333 40 -70.666 65.333 -93.999 76zM489.999 1193c-3.33301 0 -15.667 -11.333 -37 -34c-28 -27.333 -42 -61 -42 -101
c0 -39.333 13.667 -73 41 -101c22 -21.333 34.667 -33 38 -35v271zM489.998 767c-49.333 21.333 -94.332 52.3291 -134.999 92.9961c-54.667 54 -82 120 -82 198c0 76 27.333 141.667 82 197c46 46.667 91 72.334 135 77.001v142h141v-145
c38.667 -7.33301 79 -31.666 121 -72.999c30 -29.333 54.667 -73.666 74 -132.999l-124 -50c-18 69.333 -41.667 107.333 -71 114v-331c68 -26 131.333 -68.333 190 -127c74 -74 111 -162.667 111 -266c0 -104.667 -37 -193.667 -111 -267
c-62 -63.333 -125.333 -98.666 -190 -105.999v-123h-141v121c-70 5.33301 -137.667 41.333 -203 108c-58.667 58.667 -95.667 136.667 -111 234l132 50c9.33301 -85.333 34.666 -148 75.999 -188c40 -40.667 75.333 -62.667 106 -66v541z" />
    <glyph glyph-name="percent" unicode="%" horiz-adv-x="1096" 
d="M1013 1155l-815 -1165l-115 80l815 1164zM455.5 1028c44.333 -44.667 66.5 -98.667 66.5 -162c0 -62.667 -22.167 -116.334 -66.5 -161.001s-98.166 -67 -161.499 -67s-117.166 22.333 -161.499 67s-66.5 98.334 -66.5 161.001c0 63.333 22.167 117.333 66.5 162
s98.166 67 161.499 67s117.166 -22.333 161.499 -67zM294 957c-25.333 0 -46.666 -8.83301 -63.999 -26.5s-26 -39.167 -26 -64.5c0 -24.667 8.66699 -45.834 26 -63.501s38.666 -26.5 63.999 -26.5c24.667 0 45.834 8.83301 63.501 26.5s26.5 38.834 26.5 63.501
c0 25.333 -8.83301 46.833 -26.5 64.5s-38.834 26.5 -63.501 26.5zM963.5 518.5c44.333 -44.333 66.5 -98.166 66.5 -161.499c0 -62.667 -22.167 -116.167 -66.5 -160.5s-97.833 -66.5 -160.5 -66.5c-63.333 0 -117.166 22.167 -161.499 66.5s-66.5 97.833 -66.5 160.5
c0 63.333 22.167 117.166 66.5 161.499s98.166 66.5 161.499 66.5c62.667 0 116.167 -22.167 160.5 -66.5zM803 448c-25.333 0 -46.666 -8.83301 -63.999 -26.5s-26 -39.167 -26 -64.5c0 -24.667 8.66699 -45.667 26 -63s38.666 -26 63.999 -26c24.667 0 46 8.66699 64 26
s27 38.333 27 63c0 25.333 -9.16699 46.833 -27.5 64.5s-39.5 26.5 -63.5 26.5z" />
    <glyph glyph-name="ampersand" unicode="&#x26;" horiz-adv-x="1030" 
d="M705 295c4.66699 -2 7.33691 -3.00391 8.00391 -3.00391l-5 3c-30 16.667 -66.333 47 -109 91c-24.667 23.333 -41.334 37.333 -50.001 42c-7.33301 4 -15 6 -23 6c-4.66699 0 -9.33398 -0.333008 -14.001 -1c-10.667 -3.33301 -19 -10 -25 -20c-4 -8 -6 -15.333 -6 -22
c0 -4 0.333008 -8.33301 1 -13c3.33301 -11.333 9.33301 -19.333 18 -24c6 -3.33301 15.667 -5 29 -5c8.66699 0 32.334 3 71.001 9l-14 -133c-31.333 -8.66699 -55.333 -13 -72 -13c-28 0 -55.333 7 -82 21c-42 24 -69.333 60 -82 108c-4.66699 17.333 -7 34 -7 50
c0 30.667 8 60.334 24 89.001c26 43.333 63 71.666 111 84.999c16.667 4.66699 33 7 49 7c30.667 0 60 -8 88 -24c25.333 -14 57 -41 95 -81c30.667 -27.333 52.667 -45 66 -53c12 -6.66699 24 -10 36 -10c7.33301 0 14.666 1 21.999 3c21.333 6 37.666 18.333 48.999 37
c6.66699 12.667 10 25 10 37c0 6.66699 -1.33301 13.667 -4 21c-5.33301 20.667 -17.333 36.667 -36 48c-10.667 6 -23.334 9 -38.001 9c-10.667 0 -36 -5.66699 -76 -17l-2 142c34.667 10 61 15 79 15c36 0 71 -10 105 -30c51.333 -29.333 85 -72.666 101 -129.999
c5.33301 -20 8 -39.333 8 -58c0 -36 -9.33301 -70.667 -28 -104c-29.333 -52 -73.333 -86 -132 -102c-17.333 -4.66699 -26.333 -7 -27 -7c-15.333 -51.333 -49.333 -103.333 -102 -156c-84.667 -85.333 -187 -128 -307 -128c-119.333 0 -221.5 42.5 -306.5 127.5
s-127.5 187.5 -127.5 307.5c0 119.333 41.667 223.333 125 312c56.667 60.667 103.334 97.334 140.001 110.001c-87.333 97.333 -131 190.333 -131 279c0 86.667 31.167 161.334 93.5 224.001s137.5 94 225.5 94c88.667 0 164 -31.333 226 -94
c35.333 -33.333 62.666 -80.666 81.999 -141.999l-126 -50c-16.667 43.333 -34.667 75 -54 95c-35.333 34.667 -78 52 -128 52c-49.333 0 -91.5 -17.333 -126.5 -52s-52.5 -77 -52.5 -127s17.667 -93.833 53 -131.5s68 -62.167 98 -73.5s79 -17.333 147 -18v-135l-89 -2
c-115.333 -22 -201.5 -64 -258.5 -126s-85.5 -133.667 -85.5 -215s28.667 -150.833 86 -208.5s127 -86.5 209 -86.5c80.667 0 150 28.667 208 86c33.333 34 54.333 62.333 63 85z" />
    <glyph glyph-name="quotesingle" unicode="'" horiz-adv-x="251" 
d="M55 846v573h141v-573h-141z" />
    <glyph glyph-name="parenleft" unicode="(" horiz-adv-x="681" 
d="M626 1488c-114.667 -69.333 -204 -146.666 -268 -231.999c-91.333 -124.667 -137 -297.667 -137 -519c0 -14 0.333008 -28.667 1 -44c-0.666992 -14.667 -1 -29 -1 -43c0 -222 45.667 -395.333 137 -520c64 -85.333 153.333 -162.666 268 -231.999h-210
c-56.667 39.333 -107 84.666 -151 135.999c-140 161.333 -210 381 -210 659s70 497.667 210 659c44 51.333 94.333 96.666 151 135.999h210z" />
    <glyph glyph-name="parenright" unicode=")" horiz-adv-x="681" 
d="M266 1488c56 -39.333 106 -84.666 150 -135.999c140 -161.333 210 -381 210 -659s-70 -497.667 -210 -659c-44 -51.333 -94 -96.666 -150 -135.999h-211c115.333 69.333 204.666 146.666 267.999 231.999c92 124.667 138 298 138 520c0 14 -0.333008 28.333 -1 43
c0.666992 15.333 1 30 1 44c0 221.333 -46 394.333 -138 519c-63.333 85.333 -152.666 162.666 -267.999 231.999h211z" />
    <glyph glyph-name="asterisk" unicode="*" horiz-adv-x="700" 
d="M420 1268l124 86l81 -116l-153 -106l153 -106l-81 -116l-124 87v-151h-139v152l-125 -88l-81 116l153 106l-153 106l81 116l125 -87v152h139v-151z" />
    <glyph glyph-name="plus" unicode="+" horiz-adv-x="1098" 
d="M479 464h-394v140h394v394h140v-394h394v-140h-394v-394h-140v394z" />
    <glyph glyph-name="comma" unicode="," horiz-adv-x="419" 
d="M321 205l-188 -391h-133l104 391h217z" />
    <glyph glyph-name="hyphen" unicode="-" horiz-adv-x="640" 
d="M48 604h544v-140h-544v140z" />
    <glyph glyph-name="hyphen" unicode="&#xad;" horiz-adv-x="640" 
d="M48 604h544v-140h-544v140z" />
    <glyph glyph-name="period" unicode="." horiz-adv-x="327" 
d="M240 172.5c21.333 -21 32 -46.5 32 -76.5s-10.667 -55.5 -32 -76.5s-46.666 -31.5 -75.999 -31.5c-30 0 -55.667 10.5 -77 31.5s-32 46.5 -32 76.5s10.667 55.5 32 76.5s47 31.5 77 31.5c29.333 0 54.666 -10.5 75.999 -31.5z" />
    <glyph glyph-name="slash" unicode="/" horiz-adv-x="697" 
d="M591 1421h158l-644 -1421h-157z" />
    <glyph glyph-name="zero" unicode="0" horiz-adv-x="1095" 
d="M901 699c0 185.333 -35.167 327.833 -105.5 427.5s-152.833 149.5 -247.5 149.5c-95.333 0 -178 -49.833 -248 -149.5s-105 -242.167 -105 -427.5c0 -186 35 -328.667 105 -428s152.667 -149 248 -149c94.667 0 177.167 49.667 247.5 149s105.5 242 105.5 428zM1045 699
c0 -221.333 -47.833 -397.166 -143.5 -527.499s-213.167 -195.5 -352.5 -195.5c-140 0 -258.167 65.167 -354.5 195.5s-144.5 306.166 -144.5 527.499c0 220.667 48.167 396.167 144.5 526.5s214.5 195.5 354.5 195.5c139.333 0 256.833 -65.167 352.5 -195.5
s143.5 -305.833 143.5 -526.5z" />
    <glyph glyph-name="one" unicode="1" horiz-adv-x="1106" 
d="M626 1421v-1280h295v-141h-736v141h301v1038l-110 -72l-113 82l320 232h43z" />
    <glyph glyph-name="two" unicode="2" horiz-adv-x="1132" 
d="M170 0c376.667 574.667 578 884.834 604 930.501s39 87.5 39 125.5c0 19.333 -2.33301 39 -7 59c-14 62 -47.333 109.667 -100 143c-37.333 22 -76.333 33 -117 33c-18 0 -36 -2 -54 -6c-60.667 -14 -107.334 -47.333 -140.001 -100
c-18.667 -29.333 -31.667 -68.666 -39 -117.999l-140 21c6 68 24 125.667 54 173c56 87.333 133.333 142 232 164c30 7.33301 59.333 11 88 11c69.333 0 134.333 -19.333 195 -58c86.667 -54.667 141.334 -131.334 164.001 -230.001c8 -35.333 12 -69.333 12 -102
c0 -58.667 -16 -116.834 -48 -174.501s-189.667 -301.167 -473 -730.5h521v-141h-791z" />
    <glyph glyph-name="three" unicode="3" horiz-adv-x="1104" 
d="M502 758l-92.001 2v139c70 0.666992 119.833 6.83398 149.5 18.501s61.834 36 96.501 73s52 80.167 52 129.5s-17.167 91 -51.5 125s-75.833 51 -124.5 51s-90.667 -17 -126 -51c-18.667 -20 -36.667 -52.333 -54 -97l-130 52c19.333 63.333 46.666 112 81.999 146
c63.333 62.667 139.333 94 228 94c89.333 0 165.333 -31.5 228 -94.5s94 -138.167 94 -225.5c0 -89.333 -41.667 -182.333 -125 -279c32 -10.667 76.667 -46.667 134 -108c83.333 -89.333 125 -194 125 -314c0 -120.667 -42.667 -223.667 -128 -309s-188.333 -128 -309 -128
c-120 0 -223 42.667 -309 128c-67.333 68.667 -109.333 157.667 -126 267l140 50c10 -94.667 39.667 -166.667 89 -216c57.333 -56.667 126 -85 206 -85c81.333 0 150.5 28.5 207.5 85.5s85.5 126.167 85.5 207.5s-28.167 152.666 -84.5 213.999s-142.166 103 -257.499 125z
" />
    <glyph glyph-name="four" unicode="4" horiz-adv-x="1126" 
d="M720 1060l-340 -571h340v571zM861 1421v-932h129v-140h-129v-349h-141v349h-584l640 1072h85z" />
    <glyph glyph-name="five" unicode="5" horiz-adv-x="1107" 
d="M319 1018l36.002 5.99805c38 7.33301 75 11 111 11c66.667 0 130 -10.667 190 -32c135.333 -46 236.333 -131.333 303 -256c41.333 -78 62 -157.667 62 -239c0 -51.333 -7.66699 -102.333 -23 -153c-42 -135.333 -125.333 -236.666 -250 -303.999
c-76.667 -40.667 -155.334 -61 -236.001 -61c-51.333 0 -103.333 8.33301 -156 25c-108.667 33.333 -199 99.333 -271 198l100 109c58.667 -87.333 130 -143.666 214 -168.999c38 -12 74.667 -18 110 -18c58 0 115 14.667 171 44c90 48 150 121 180 219
c12 37.333 18 74.333 18 111c0 58 -15 114.667 -45 170c-48 90 -121.333 152.333 -220 187c-42.667 14.667 -89.334 22 -140.001 22c-69.333 0 -152 -15 -248 -45l-90 79l161 445v54h488v-140h-369z" />
    <glyph glyph-name="six" unicode="6" horiz-adv-x="1103" 
d="M287 390c0 -72.667 25.833 -134.667 77.5 -186s113.834 -77 186.501 -77s134.834 25.667 186.501 77s77.5 113.333 77.5 186c0 73.333 -25.833 135.833 -77.5 187.5s-113.834 77.5 -186.501 77.5s-134.834 -25.833 -186.501 -77.5s-77.5 -114.167 -77.5 -187.5zM384 766
c18 22.667 73.667 34 167 34c113.333 0 209.833 -39.833 289.5 -119.5s119.5 -176.5 119.5 -290.5c0 -112.667 -39.833 -209 -119.5 -289s-176.167 -120 -289.5 -120c-112 0 -208.167 40 -288.5 120s-120.5 176.333 -120.5 289v16c6 140.667 48.5 291.667 127.5 453
s169.833 317.333 272.5 468c18 26.667 38 58 60 94h176c-38 -64.667 -68.667 -113.667 -92 -147c-115.333 -164.667 -216 -334 -302 -508z" />
    <glyph glyph-name="seven" unicode="7" horiz-adv-x="1102" 
d="M800 905.5c-118 -168.333 -213.5 -329.001 -286.5 -482.001s-112.833 -294.167 -119.5 -423.5h-143c6.66699 162.667 49.667 324.667 129 486s169.333 316 270 464s158.667 258.333 174 331h-706v140h864c-3.33301 -175.333 -64 -347.166 -182 -515.499z" />
    <glyph glyph-name="eight" unicode="8" horiz-adv-x="1097" 
d="M547 127h4c10.667 -0.666992 21.334 -1 32.001 -1c80.667 0 149.667 28.5 207 85.5s86 126.167 86 207.5s-28 152.333 -84 213c-55.333 60.667 -136.333 101.667 -243 123c-107.333 -21.333 -189 -62.333 -245 -123c-55.333 -60.667 -83 -131.667 -83 -213
s28.5 -150.5 85.5 -207.5s125.833 -85.5 206.5 -85.5c11.333 0 22.666 0.333008 33.999 1zM549 -17c-11.333 -0.666992 -23.335 -1 -36.002 -1c-120 0 -222.667 42.667 -308 128s-128 188.333 -128 309c0 120 41.667 224.667 125 314c57.333 61.333 102 97.333 134 108
c0.666992 -0.666992 1.33398 -1 2.00098 -1s1 0.333008 1 1c0 5.33301 -19 28.333 -57 69c-47.333 50.667 -71 120.667 -71 210c0 87.333 31.167 162.5 93.5 225.5s138.5 94.5 228.5 94.5h31c89.333 0 165.333 -31.5 228 -94.5s94 -138.167 94 -225.5
c0 -89.333 -23.667 -159.333 -71 -210c-38.667 -40.667 -58 -63.667 -58 -69c0 -0.666992 0.333008 -1 1 -1s1.33398 0.333008 2.00098 1c32 -10.667 77 -46.667 135 -108c82.667 -89.333 124 -194 124 -314c0 -120.667 -42.333 -223.667 -127 -309s-187.667 -128 -309 -128
c-12 0 -23.333 0.333008 -34 1zM544.998 1295c-4 0.666992 -8.00098 1 -12.001 1c-48.667 0 -90.334 -17 -125.001 -51s-52 -75.667 -52 -125s17.333 -92.5 52 -129.5s66.334 -61.167 95.001 -72.5c15.333 -5.33301 30.666 -9.33301 45.999 -12
c14.667 2.66699 29.334 6.66699 44.001 12c28.667 11.333 60.334 35.5 95.001 72.5s52 80.167 52 129.5s-17.167 91 -51.5 125s-75.833 51 -124.5 51c-3.33301 0 -7.33301 -0.333008 -12 -1h-7z" />
    <glyph glyph-name="nine" unicode="9" horiz-adv-x="1103" 
d="M815 1012c0 73.333 -25.833 135.5 -77.5 186.5s-114.167 76.5 -187.5 76.5c-72 0 -133.833 -25.5 -185.5 -76.5s-77.5 -113.167 -77.5 -186.5c0 -72.667 25.833 -134.834 77.5 -186.501s113.5 -77.5 185.5 -77.5c73.333 0 135.833 25.833 187.5 77.5
s77.5 113.834 77.5 186.501zM718 636c-18 -22.667 -74 -33.999 -168 -33.999c-112.667 0 -208.834 40 -288.501 120s-119.5 176.667 -119.5 290c0 112.667 39.833 209 119.5 289s175.834 120 288.501 120s209.167 -40 289.5 -120s120.5 -176.333 120.5 -289v-16
c-6 -140.667 -48.667 -291.667 -128 -453s-170 -317.333 -272 -468c-18.667 -26.667 -39 -58 -61 -94h-175c37.333 64.667 68 113.667 92 147c115.333 165.333 216 334.666 302 507.999z" />
    <glyph glyph-name="colon" unicode=":" horiz-adv-x="327" 
d="M240 172.5c21.333 -21 32 -46.5 32 -76.5s-10.667 -55.5 -32 -76.5s-46.666 -31.5 -75.999 -31.5c-30 0 -55.667 10.5 -77 31.5s-32 46.5 -32 76.5s10.667 55.5 32 76.5s47 31.5 77 31.5c29.333 0 54.666 -10.5 75.999 -31.5zM240 765c21.333 -20.667 32 -46 32 -76
s-10.667 -55.5 -32 -76.5s-46.666 -31.5 -75.999 -31.5c-30 0 -55.667 10.5 -77 31.5s-32 46.5 -32 76.5s10.667 55.333 32 76s47 31 77 31c29.333 0 54.666 -10.333 75.999 -31z" />
    <glyph glyph-name="semicolon" unicode=";" horiz-adv-x="376" 
d="M321 205l-188 -391h-133l104 391h217zM225 765c21.333 -20.667 32 -46 32 -76s-10.667 -55.5 -32 -76.5s-46.666 -31.5 -75.999 -31.5c-30 0 -55.667 10.5 -77 31.5s-32 46.5 -32 76.5s10.667 55.333 32 76s47 31 77 31c29.333 0 54.666 -10.333 75.999 -31z" />
    <glyph glyph-name="semicolon" unicode="&#x37e;" horiz-adv-x="376" 
d="M321 205l-188 -391h-133l104 391h217zM225 765c21.333 -20.667 32 -46 32 -76s-10.667 -55.5 -32 -76.5s-46.666 -31.5 -75.999 -31.5c-30 0 -55.667 10.5 -77 31.5s-32 46.5 -32 76.5s10.667 55.333 32 76s47 31 77 31c29.333 0 54.666 -10.333 75.999 -31z" />
    <glyph glyph-name="less" unicode="&#x3c;" horiz-adv-x="1140" 
d="M402 629l650 -300v-160l-963 460l963 460v-160z" />
    <glyph glyph-name="equal" unicode="=" horiz-adv-x="1098" 
d="M85 741h928v-141h-928v141zM89 469h920v-141h-920v141z" />
    <glyph glyph-name="greater" unicode="&#x3e;" horiz-adv-x="1140" 
d="M89 929v160l963 -460l-963 -460v160l650 300z" />
    <glyph glyph-name="question" unicode="?" horiz-adv-x="830" 
d="M330 238c-36.667 38.667 -60 87.333 -70 146c-4 18.667 -6 37.667 -6 57c0 61.333 18.667 118.333 56 171c30 42.667 87 97.667 171 165c68.667 62.667 113 108.667 133 138c29.333 40 44 83.333 44 130c0 13.333 -1.33301 27.333 -4 42
c-11.333 63.333 -43.333 113.333 -96 150c-42 28.667 -85.667 43 -131 43c-14 0 -28 -1.33301 -42 -4c-61.333 -10.667 -110.333 -42.334 -147 -95.001c-30 -42.667 -45 -85 -45 -127c0 -10 3.66699 -34 11 -72l-148 11c-6 30.667 -9 53.667 -9 69
c0 64.667 24 131.334 72 200.001c58 84.667 138.333 136 241 154c24 4 47.333 6 70 6c74.667 0 144.667 -22.333 210 -67c84 -59.333 135 -140.666 153 -243.999c4 -23.333 6 -46 6 -68c0 -74 -22.333 -144 -67 -210c-37.333 -52.667 -102.666 -116.334 -195.999 -191.001
c-56.667 -50.667 -93 -88 -109 -112c-20 -28 -30 -58.667 -30 -92c0 -10 0.666992 -20 2 -30c5.33301 -25.333 13.666 -45.333 24.999 -60zM461 172.499c21.333 -21 32 -46.5 32 -76.5s-10.667 -55.5 -32 -76.5s-46.666 -31.5 -75.999 -31.5s-54.833 10.5 -76.5 31.5
s-32.5 46.5 -32.5 76.5s10.833 55.5 32.5 76.5s47.167 31.5 76.5 31.5s54.666 -10.5 75.999 -31.5z" />
    <glyph glyph-name="at" unicode="@" horiz-adv-x="1341" 
d="M872 484v104c-8 34.667 -25.667 65.667 -53 93c-40.667 40.667 -89 61 -145 61c-57.333 0 -106 -20 -146 -60s-60 -89 -60 -147c0 -56 20 -104 60 -144s88.667 -60 146 -60c56 0 104.333 20 145 60c27.333 28 45 59 53 93zM870 256
c-38 -40 -103.999 -60.0029 -197.999 -60.0029s-174.333 33.333 -241 100s-100 146.334 -100 239.001c0 94.667 33.333 175.334 100 242.001s147 100 241 100s160 -20 198 -60v49h133v-575c3.33301 -7.33301 8 -11 14 -11c14 0 40.5 27.5 79.5 82.5s58.5 112.167 58.5 171.5
c0 133.333 -47.333 247.5 -142 342.5s-208.334 142.5 -341.001 142.5c-133.333 0 -247.166 -47.5 -341.499 -142.5s-141.5 -209.167 -141.5 -342.5c0 -132.667 47.167 -246.167 141.5 -340.5s208.166 -141.5 341.499 -141.5c91.333 0 164 17 218 51l94 -99
c-96 -56.667 -200 -85 -312 -85c-170 0 -315.333 60.333 -436 181s-181 265.334 -181 434.001c0 169.333 60.333 314.5 181 435.5s266 181.5 436 181.5s314.833 -60.5 434.5 -181.5s179.5 -266.167 179.5 -435.5c0 -78 -28.667 -161.667 -86 -251s-123.333 -134 -198 -134
c-9.33301 0 -18.333 0.666992 -27 2c-64.667 14 -99.667 52.333 -105 115v-10z" />
    <glyph glyph-name="A" unicode="A" horiz-adv-x="1162" 
d="M743 737l-161 444l-161 -444h322zM644 1421l516 -1421h-149l-217 597h-424l-221 -597h-150l522 1421h123z" />
    <glyph glyph-name="B" unicode="B" horiz-adv-x="1062" 
d="M535 141c91.333 0 169.5 32.5 234.5 97.5s97.5 143.833 97.5 236.5c0 92 -32.5 170.667 -97.5 236s-143.167 98 -234.5 98h-282v-668h282zM253 1282l-0.000976562 -332.002h312c46.667 4.66699 81.334 18.334 104.001 41.001c32.667 32.667 49 72.667 49 120
c0 46.667 -16.667 86.834 -50 120.501s-73.333 50.5 -120 50.5h-295zM870.999 810.998c92.667 -92.667 139 -204.668 139 -336.001s-46.333 -243.333 -139 -336c-77.333 -77.333 -172 -123.666 -284 -138.999h-475v1421h437c86.667 0 160.167 -30.333 220.5 -91
s90.5 -133.667 90.5 -219s-30.333 -158.333 -91 -219c24 -8.66699 58 -35.667 102 -81z" />
    <glyph glyph-name="C" unicode="C" horiz-adv-x="1379" 
d="M1210 291l106 -95c-156 -141.333 -327.667 -212 -515 -212c-201.333 0 -372.833 70.833 -514.5 212.5s-212.5 313.167 -212.5 514.5c0 200 70.833 371.167 212.5 513.5s313.167 213.5 514.5 213.5c187.333 0 359 -71.333 515 -214l-106 -94
c-124.667 110 -261 165 -409 165c-161.333 0 -299.166 -57 -413.499 -171s-171.5 -251.667 -171.5 -413c0 -162 57.167 -300.167 171.5 -414.5s252.166 -171.5 413.499 -171.5c148 0 284.333 55.333 409 166z" />
    <glyph glyph-name="D" unicode="D" horiz-adv-x="1212" 
d="M396 1421c232 -1.33301 412.667 -66.668 542 -196.001c141.333 -142.667 212 -314 212 -514c0 -201.333 -70.667 -373 -212 -515c-129.333 -129.333 -310 -194.666 -542 -195.999h-284v1421h284zM253 1278v-1135h142c186 0 332.333 51.333 439 154
c114 114 171 252 171 414c0 161.333 -57 299.333 -171 414c-106.667 102 -253 153 -439 153h-142z" />
    <glyph glyph-name="E" unicode="E" horiz-adv-x="967" 
d="M855 1421v-140h-602v-500h602v-141h-602v-499h602v-141h-743v1421h743z" />
    <glyph glyph-name="F" unicode="F" horiz-adv-x="822" 
d="M770 1421v-140h-517v-500h517v-141h-517v-640h-141v1421h658z" />
    <glyph glyph-name="G" unicode="G" horiz-adv-x="1391" 
d="M1295 187c-141.333 -135.333 -306 -203 -494 -203c-201.333 0 -372.833 70.833 -514.5 212.5s-212.5 313.167 -212.5 514.5c0 200 70.833 371.167 212.5 513.5s313.167 213.5 514.5 213.5c187.333 0 359 -71.333 515 -214l-106 -94c-124.667 110 -261 165 -409 165
c-161.333 0 -299.166 -57 -413.499 -171s-171.5 -251.667 -171.5 -413c0 -162 57.167 -300.167 171.5 -414.5s252.166 -171.5 413.499 -171.5c138.667 0 256.667 39.333 354 118v431h140v-487z" />
    <glyph glyph-name="H" unicode="H" horiz-adv-x="1101" 
d="M235 640v-640h-141v1421h141v-640h631v640h141v-1421h-141v640h-631z" />
    <glyph glyph-name="I" unicode="I" horiz-adv-x="385" 
d="M263 1421v-1421h-141v1421h141z" />
    <glyph glyph-name="J" unicode="J" horiz-adv-x="360" 
d="M246 6c0 -78 -26.5 -143.668 -79.5 -197.001s-128.833 -80 -227.5 -80v141c59.333 0 102.333 13 129 39c24.667 24.667 37 60.334 37 107.001v1405h141v-1415z" />
    <glyph glyph-name="K" unicode="K" horiz-adv-x="1056" 
d="M829 1421l-374 -541l615 -880h-171l-532 760l-114 -163v-597h-141v1421h141v-580l405 580h171z" />
    <glyph glyph-name="L" unicode="L" horiz-adv-x="822" 
d="M112 0v1421h141v-1280h517v-141h-658z" />
    <glyph glyph-name="M" unicode="M" horiz-adv-x="1456" 
d="M1363 1421v-1421h-141v1212l-420 -549l-73 -97l-74 96l-420 550v-1212h-141v1421h159l476 -622l475 622h159z" />
    <glyph glyph-name="N" unicode="N" horiz-adv-x="1358" 
d="M254 1421l854 -1196v1196h141v-1421h-166l-833 1167v-1167h-141v1421h145z" />
    <glyph glyph-name="O" unicode="O" horiz-adv-x="1581" 
d="M1305.5 1227.5c142.333 -142.333 213.5 -313.833 213.5 -514.5c0 -202 -71.167 -374 -213.5 -516s-314.166 -213 -515.499 -213c-200.667 0 -372.167 71 -514.5 213s-213.5 314 -213.5 516c0 200.667 71.167 372.167 213.5 514.5s313.833 213.5 514.5 213.5
c201.333 0 373.166 -71.167 515.499 -213.5zM790 1299c-161.333 0 -299.333 -57.333 -414 -172s-172 -252.667 -172 -414c0 -162 57.333 -300.5 172 -415.5s252.667 -172.5 414 -172.5c162 0 300.333 57.5 415 172.5s172 253.5 172 415.5
c0 161.333 -57.333 299.333 -172 414s-253 172 -415 172z" />
    <glyph glyph-name="P" unicode="P" horiz-adv-x="992" 
d="M253 470v-470h-141v1421h390c112.667 -14.667 207.667 -61 285 -139c92.667 -93.333 139 -205 139 -335c0 -132 -46.333 -244.5 -139 -337.5s-204.667 -139.5 -336 -139.5h-198zM253 1280v-668h198c92 0 170.667 32.667 236 98s98 144.333 98 237
c0 92 -32.667 170.5 -98 235.5s-144 97.5 -236 97.5h-198z" />
    <glyph glyph-name="Q" unicode="Q" horiz-adv-x="1581" 
d="M790 1299c-161.333 0 -299.333 -57.333 -414 -172s-172 -252.667 -172 -414c0 -162 57.333 -300.5 172 -415.5s252.667 -172.5 414 -172.5c162 0 300.333 57.5 415 172.5s172 253.5 172 415.5c0 161.333 -57.333 299.333 -172 414s-253 172 -415 172zM686 -4
c-162.667 14 -299.334 81.334 -410.001 202.001c-142.667 141.333 -214 313 -214 515c0 200.667 71.167 372.167 213.5 514.5s313.833 213.5 514.5 213.5c201.333 0 373.166 -71.167 515.499 -213.5s213.5 -313.833 213.5 -514.5c0 -202 -71 -373.667 -213 -515
c-102.667 -103.333 -186.667 -162 -252 -176l82 -48c45.333 -24 76.333 -38.667 93 -44c8.66699 -2 17.667 -3 27 -3c14 0 28.667 4 44 12c21.333 12 35.333 30.333 42 55c2.66699 8 5 25 7 51h141c-3.33301 -40.667 -7.66602 -70 -12.999 -88
c-17.333 -61.333 -53.666 -107.666 -108.999 -138.999c-35.333 -20.667 -72.333 -31 -111 -31c-22 0 -44 3.33301 -66 10c-36.667 9.33301 -87 34.666 -151 75.999c-54.667 29.333 -93 46.666 -115 51.999c-14 4 -27.333 6 -40 6c-23.333 0 -45.333 -6 -66 -18
c-34 -19.333 -56.333 -48 -67 -86c-2 -5.33301 -4 -19.333 -6 -42h-141c4 38.667 8 66 12 82c14 42.667 37 85.667 69 129z" />
    <glyph glyph-name="R" unicode="R" horiz-adv-x="996" 
d="M253 1280v-668h198c92 0 170.667 32.667 236 98s98 144.333 98 237c0 92 -32.667 170.5 -98 235.5s-144 97.5 -236 97.5h-198zM458 470h-205v-470h-141v1421h390c112.667 -14.667 207.667 -61 285 -139c92.667 -93.333 139 -205 139 -335
c0 -132 -46.333 -244.333 -139 -337c-64.667 -64 -124 -102.667 -178 -116l321 -494h-171z" />
    <glyph glyph-name="S" unicode="S" horiz-adv-x="976" 
d="M502 754c-100.667 33.333 -181.498 80.3311 -242.498 140.998s-91.5 135.667 -91.5 225c0 86.667 31.167 161.334 93.5 224.001s137.833 94 226.5 94c87.333 0 162.666 -31.333 225.999 -94c34 -33.333 61.333 -80.666 82 -141.999l-128 -50c-16 43.333 -34 75 -54 95
c-34.667 34.667 -76.667 52 -126 52s-91.5 -17.333 -126.5 -52s-52.5 -77 -52.5 -127s17.333 -92.333 52 -127c35.333 -35.333 84.666 -67.666 147.999 -96.999c112.667 -36 208 -93 286 -171c84 -84.667 126 -186.667 126 -306c0 -120 -42.333 -222.5 -127 -307.5
s-186.667 -127.5 -306 -127.5c-120.667 0 -223 42.667 -307 128c-68 68 -110 155.667 -126 263l135 48c10 -92.667 39.667 -163.667 89 -213c58 -57.333 127.667 -86 209 -86s150.833 28.833 208.5 86.5s86.5 127.167 86.5 208.5c0 80.667 -28.667 150 -86 208
c-53.333 53.333 -118.333 95.666 -195 126.999z" />
    <glyph glyph-name="T" unicode="T" horiz-adv-x="891" 
d="M516 1281v-1281h-140v1281h-344v140h827v-140h-343z" />
    <glyph glyph-name="U" unicode="U" horiz-adv-x="1174" 
d="M921 1421h141v-1009c-15.333 -112 -61.666 -207 -138.999 -285c-92.667 -92.667 -204.334 -139 -335.001 -139c-132 0 -244.333 46.333 -337 139s-139 204.667 -139 336v958h141v-958c0 -91.333 32.667 -169.833 98 -235.5s144.333 -98.5 237 -98.5
c92 0 170.5 32.833 235.5 98.5s97.5 144.167 97.5 235.5v958z" />
    <glyph glyph-name="V" unicode="V" horiz-adv-x="1180" 
d="M518 0l-518 1420h149l437 -1199l444 1200h149l-523 -1421h-138z" />
    <glyph glyph-name="W" unicode="W" horiz-adv-x="1659" 
d="M456 255l309 768h128l309 -766l312 1164h146l-381 -1421h-124l-325 805l-325 -805h-125l-380 1421h145z" />
    <glyph glyph-name="X" unicode="X" horiz-adv-x="1089" 
d="M15 0l449 778l-372 643h161l291 -504l291 504h162l-373 -643l450 -778h-161l-369 638l-369 -638h-160z" />
    <glyph glyph-name="Y" unicode="Y" horiz-adv-x="1185" 
d="M522 573l-490 848h161l399 -691l399 691h162l-490 -848v-573h-141v573z" />
    <glyph glyph-name="Z" unicode="Z" horiz-adv-x="1123" 
d="M823 1281h-620v140h863l-741 -1280h784v-141h-1025z" />
    <glyph glyph-name="bracketleft" unicode="[" horiz-adv-x="437" 
d="M196 26h186v-140h-327v1662h327v-140h-186v-1382z" />
    <glyph glyph-name="backslash" unicode="\" horiz-adv-x="697" 
d="M749 0h-157l-644 1421h158z" />
    <glyph glyph-name="bracketright" unicode="]" horiz-adv-x="437" 
d="M241 1408h-186v140h327v-1662h-327v140h186v1382z" />
    <glyph glyph-name="asciicircum" unicode="^" horiz-adv-x="919" 
d="M522 1421l298 -517h-162l-198 344l-199 -344h-163l299 517h125z" />
    <glyph glyph-name="underscore" unicode="_" horiz-adv-x="823" 
d="M-45 38h913v-140h-913v140z" />
    <glyph glyph-name="grave" unicode="`" horiz-adv-x="594" 
d="M325 1252l194 -223h-153l-291 223h250z" />
    <glyph glyph-name="a" unicode="a" horiz-adv-x="1148" 
d="M1059 0l-141 0.000976562v105c-92.667 -86 -208 -129 -346 -129c-137.333 0 -254.666 48.667 -351.999 146s-146 214.666 -146 351.999c0 138 48.667 255.5 146 352.5s214.666 145.5 351.999 145.5c138 0 253.333 -42.667 346 -128v53h141v-897zM918 402.001v143.999
c-12.667 66.667 -44.667 126 -96 178c-69.333 69.333 -152.666 104 -249.999 104s-180.5 -34.667 -249.5 -104s-103.5 -152.666 -103.5 -249.999s34.333 -180.333 103 -249s152 -103 250 -103c97.333 0 180.666 34.667 249.999 104c51.333 51.333 83.333 110 96 176z" />
    <glyph glyph-name="b" unicode="b" horiz-adv-x="1157" 
d="M99 1421l141 -0.000976562v-575c92.667 84 207.667 126 345 126s254.666 -48.5 351.999 -145.5s146 -214.5 146 -352.5c0 -137.333 -48.667 -254.666 -146 -351.999s-214.666 -146 -351.999 -146s-252.333 42.333 -345 127v-103h-141v1421zM240 549.999v-152.999
c12 -64 43.667 -121 95 -171c69.333 -69.333 152.666 -104 249.999 -104s180.5 34.333 249.5 103s103.5 151.667 103.5 249s-34.5 180.666 -103.5 249.999s-152.167 104 -249.5 104s-180.666 -34.667 -249.999 -104c-51.333 -51.333 -83 -109.333 -95 -174z" />
    <glyph glyph-name="c" unicode="c" horiz-adv-x="1033" 
d="M839 271l142 -52.999c-32.667 -44 -58.667 -75.667 -78 -95c-97.333 -98 -215 -147 -353 -147c-137.333 0 -254.666 48.667 -351.999 146s-146 215 -146 353c0 137.333 48.667 254.5 146 351.5s214.666 145.5 351.999 145.5c138 0 255.333 -48.667 352 -146
c20 -19.333 46.333 -51 79 -95l-142 -52c-17.333 21.333 -30.666 36.666 -39.999 45.999c-68.667 68.667 -151.667 103 -249 103s-180.333 -34.5 -249 -103.5s-103 -152.167 -103 -249.5c0 -98 34.333 -181.333 103 -250s151.667 -103 249 -103s180.666 34.667 249.999 104
c8.66699 8.66699 21.667 23.667 39 45z" />
    <glyph glyph-name="d" unicode="d" horiz-adv-x="1148" 
d="M1059 0l-141 0.000976562v105c-92.667 -86 -208 -129 -346 -129c-137.333 0 -254.666 48.667 -351.999 146s-146 214.666 -146 351.999c0 138 48.667 255.5 146 352.5s214.666 145.5 351.999 145.5c138 0 253.333 -42.667 346 -128v577h141v-1421zM918 402.001v143.999
c-12.667 66.667 -44.667 126 -96 178c-69.333 69.333 -152.666 104 -249.999 104s-180.5 -34.667 -249.5 -104s-103.5 -152.666 -103.5 -249.999s34.333 -180.333 103 -249s152 -103 250 -103c97.333 0 180.666 34.667 249.999 104c51.333 51.333 83.333 110 96 176z" />
    <glyph glyph-name="e" unicode="e" horiz-adv-x="1068" 
d="M226 627l643.999 0.000976562c-8 25.333 -31.333 57.666 -70 96.999c-69.333 69.333 -152.666 104 -249.999 104c-98 0 -181.333 -34.667 -250 -104c-41.333 -42 -66 -74.333 -74 -97zM194.999 485.001c1.33301 -104.667 36.335 -191.332 105.002 -259.999
s152 -103 250 -103c97.333 0 180.666 34.667 249.999 104c12 12 28 30.333 48 55l140 -49c-24.667 -41.333 -53.334 -77.666 -86.001 -108.999c-96.667 -98 -214 -147 -352 -147c-137.333 0 -254.666 48.667 -351.999 146s-146 214.666 -146 351.999
c0 138 48.667 255.5 146 352.5s214.666 145.5 351.999 145.5c138 0 255.667 -48.667 353 -146c86 -86.667 129 -200.334 129 -341.001h-837z" />
    <glyph glyph-name="f" unicode="f" horiz-adv-x="439" 
d="M247 756l-0.000976562 -755.999h-141v756h-84v141h84v195c4.66699 71.333 32 132.666 82 183.999c53.333 48.667 114.333 73 183 73c35.333 0 82.333 -10 141 -30l-46 -131c-40.667 17.333 -70 26 -88 26c-31.333 0 -61.666 -13 -90.999 -39
c-24.667 -24.667 -38 -55 -40 -91v-187h170v-141h-170z" />
    <glyph glyph-name="g" unicode="g" horiz-adv-x="1109" 
d="M895 550c-13.333 64.667 -45 122.666 -95 173.999c-69.333 69.333 -152.666 104 -249.999 104s-180.5 -34.667 -249.5 -104s-103.5 -152.666 -103.5 -249.999c0 -98 34.333 -181.333 103 -250s152 -103 250 -103c97.333 0 180.666 34.667 249.999 104
c49.333 49.333 81 106.333 95 171v154zM887 98.999c-86.667 -82 -199.001 -123 -337.001 -123c-137.333 0 -254.666 48.667 -351.999 146s-146 214.666 -146 351.999c0 138 48.667 255.333 146 352s214.666 145 351.999 145c138 0 253.333 -42.333 346 -127v53h141v-679
c0 -134 -47.667 -248.333 -143 -343c-97.333 -98 -214.666 -147 -351.999 -147s-255 49 -353 147c-19.333 19.333 -45.333 51 -78 95l142 53c16.667 -21.333 30 -36.333 40 -45c68.667 -69.333 151.667 -104 249 -104c96.667 0 176.167 26.833 238.5 80.5
s97.833 101.834 106.5 144.501z" />
    <glyph glyph-name="h" unicode="h" horiz-adv-x="896" 
d="M94 1421h141v-523c34 32.667 100.667 49 200 49c106.667 0 194 -34 262 -102s103 -153 105 -255v-590h-141v582c0 62 -22.333 114.833 -67 158.5s-97.667 65.5 -159 65.5s-114.333 -21.333 -159 -64c-20 -20 -33.667 -38 -41 -54v-688h-141v1421z" />
    <glyph glyph-name="i" unicode="i" horiz-adv-x="375" 
d="M257 897v-897h-140v897h140zM264 1160.5c21.333 -21 32 -46.167 32 -75.5c0 -30.667 -10.667 -56.5 -32 -77.5s-46.666 -31.5 -75.999 -31.5c-30 0 -55.667 10.5 -77 31.5s-32 46.833 -32 77.5c0 29.333 10.667 54.5 32 75.5s47 31.5 77 31.5
c29.333 0 54.666 -10.5 75.999 -31.5z" />
    <glyph glyph-name="j" unicode="j" horiz-adv-x="339" 
d="M-11 -57c68.667 8 103 37 103 87v867h140v-865c0 -138.667 -81 -214.667 -243 -228v139zM238 1160.5c21.333 -21 32 -46.167 32 -75.5c0 -30.667 -10.667 -56.5 -32 -77.5s-46.666 -31.5 -75.999 -31.5c-30 0 -55.667 10.5 -77 31.5s-32 46.833 -32 77.5
c0 29.333 10.667 54.5 32 75.5s47 31.5 77 31.5c29.333 0 54.666 -10.5 75.999 -31.5z" />
    <glyph glyph-name="k" unicode="k" horiz-adv-x="700" 
d="M604 897l-234 -289l344 -608h-168l-269 492l-37 -46v-446h-141v1252h141v-582l184 227h180z" />
    <glyph glyph-name="l" unicode="l" horiz-adv-x="361" 
d="M251 1421v-1421h-141v1421h141z" />
    <glyph glyph-name="m" unicode="m" horiz-adv-x="1174" 
d="M99 897l141 0.000976562c17.333 32.667 63.333 49 138 49c77.333 0 147 -29.333 209 -88c62 58.667 131.667 88 209 88s143.333 -27 198 -81c51.333 -52.667 78.333 -115.667 81 -189v-676h-141v707c-0.666992 13.333 -13.667 32.666 -39 57.999
c-28 26.667 -61 40 -99 40c-38.667 0 -71.667 -13.5 -99 -40.5s-41 -60.833 -41 -101.5v-663h-139v707c-2 13.333 -15.667 32.666 -41 57.999c-27.333 26.667 -60 40 -98 40s-70.667 -13.333 -98 -40c-24 -23.333 -37.333 -51.666 -40 -84.999v-680h-141v897z" />
    <glyph glyph-name="n" unicode="n" 
d="M240 672v-672h-141v897h141v-8c38.667 38.667 108.667 58 210 58c107.333 0 195 -34 263 -102s102.667 -153 104 -255v-590h-140v582c0 62 -22.5 114.833 -67.5 158.5s-98.167 65.5 -159.5 65.5s-114.333 -21.333 -159 -64c-24.667 -24.667 -41.667 -48 -51 -70z" />
    <glyph glyph-name="o" unicode="o" horiz-adv-x="1139" 
d="M570 972c138 0 255.333 -48.5 352 -145.5s145 -214.5 145 -352.5c0 -137.333 -48.333 -254.666 -145 -351.999s-214 -146 -352 -146c-137.333 0 -254.666 48.667 -351.999 146s-146 214.666 -146 351.999c0 138 48.667 255.5 146 352.5s214.666 145.5 351.999 145.5z
M320.5 724c-69 -69.333 -103.5 -152.666 -103.5 -249.999s34.333 -180.333 103 -249s152 -103 250 -103c97.333 0 180.5 34.333 249.5 103s103.5 151.667 103.5 249s-34.5 180.666 -103.5 249.999s-152.167 104 -249.5 104s-180.5 -34.667 -249.5 -104z" />
    <glyph glyph-name="p" unicode="p" horiz-adv-x="1136" 
d="M92 897l140.999 -0.00195312v-51c92.667 83.333 207.667 125 345 125s254.666 -48.333 351.999 -145s146 -214 146 -352c0 -137.333 -48.667 -254.666 -146 -351.999s-214.666 -146 -351.999 -146s-235 29.333 -293 88c-37.333 37.333 -57.666 56 -60.999 56
c-0.666992 0 -1 -0.333008 -1 -1c0 -1.33301 3.33301 -6.66602 10 -15.999v-421h-141v1215zM232.999 549.998v-152.999c12 -64.667 43.667 -122 95 -172c69.333 -69.333 152.666 -104 249.999 -104s180.5 34.333 249.5 103s103.5 152 103.5 250
c0 97.333 -34.5 180.666 -103.5 249.999s-152.167 104 -249.5 104s-180.666 -34.667 -249.999 -104c-51.333 -51.333 -83 -109.333 -95 -174z" />
    <glyph glyph-name="q" unicode="q" horiz-adv-x="1133" 
d="M1045 -318l-141 0.000976562v423c-92.667 -86 -208 -129 -346 -129c-137.333 0 -254.666 48.667 -351.999 146s-146 214.666 -146 351.999c0 138 48.667 255.333 146 352s214.666 145 351.999 145c138 0 253.333 -42.333 346 -127v53h141v-1215zM904 402.001v143.999
c-12.667 66.667 -44.667 126 -96 178c-69.333 69.333 -152.666 104 -249.999 104s-180.5 -34.667 -249.5 -104s-103.5 -152.666 -103.5 -249.999c0 -98 34.333 -181.333 103 -250s152 -103 250 -103c97.333 0 180.666 34.667 249.999 104
c51.333 51.333 83.333 110.333 96 177z" />
    <glyph glyph-name="r" unicode="r" horiz-adv-x="475" 
d="M475 775c-64.667 -12.667 -116 -38.333 -154 -77c-66.667 -66 -101 -144.667 -103 -236v-462h-141v897h141v-95c50 50 110 86 180 108z" />
    <glyph glyph-name="s" unicode="s" horiz-adv-x="687" 
d="M329 452c-66.667 36 -113.669 67.6689 -141.002 95.002c-45.333 45.333 -68 100 -68 164c0 63.333 22.667 117.833 68 163.5s100 68.5 164 68.5s117.333 -21.333 160 -64c41.333 -41.333 62 -89 62 -143v-26l-124 -50c-8.66699 63.333 -20.834 103 -36.501 119
s-36.167 24 -61.5 24s-47 -9.16699 -65 -27.5s-27 -39.833 -27 -64.5c0 -25.333 9 -47 27 -65c12.667 -13.333 40.334 -33.333 83.001 -60c74.667 -40.667 128.334 -77.334 161.001 -110.001c54 -54.667 81 -120 81 -196c0 -78 -27 -144.333 -81 -199s-119.667 -82 -197 -82
s-143.166 27.333 -197.499 82s-81.5 123.334 -81.5 206.001l140 36c0 -68 13.667 -115.667 41 -143s60 -41 98 -41s70.833 13.667 98.5 41s41.5 60.666 41.5 99.999c0 37.333 -14 69.666 -42 96.999c-16 16 -50.333 41 -103 75z" />
    <glyph glyph-name="t" unicode="t" horiz-adv-x="544" 
d="M202 897v355h140v-355h170v-141h-170v-756h-140v756h-170v141h170z" />
    <glyph glyph-name="u" unicode="u" 
d="M463 -12c-113.333 0 -203.834 33.832 -271.501 101.499s-102.5 153.167 -104.5 256.5v552h141v-545c0 -61.333 22.333 -114 67 -158c44.667 -44.667 100.334 -67 167.001 -67c61.333 0 114.333 22 159 66s67 97 67 159v545h141v-552
c-2 -103.333 -37 -188.666 -105 -255.999c-67.333 -68 -154.333 -102 -261 -102z" />
    <glyph glyph-name="v" unicode="v" horiz-adv-x="876" 
d="M877 897l-370 -897h-141l-366 897h158l279 -663l282 663h158z" />
    <glyph glyph-name="w" unicode="w" horiz-adv-x="1136" 
d="M155 897l189 -634l150 492h148l146 -492l194 634h155l-276 -897h-146l-148 491l-151 -491h-145l-271 897h155z" />
    <glyph glyph-name="x" unicode="x" horiz-adv-x="726" 
d="M723 0h-162l-198 343l-199 -343h-163l282 488l-283 409h167l195 -272l195 272h168l-283 -410z" />
    <glyph glyph-name="y" unicode="y" horiz-adv-x="849" 
d="M488 156l-220 -473h-156l235 504l-332 710h156l253 -538l255 538h156l-346 -741h-1z" />
    <glyph glyph-name="z" unicode="z" horiz-adv-x="805" 
d="M492 745h-407v140h650l-431 -744h440v-141h-682z" />
    <glyph glyph-name="braceleft" unicode="{" horiz-adv-x="691" 
d="M55 698c28.667 -2.66699 45.333 -3.99902 50 -3.99902c28.667 0 57.334 8 86.001 24c53.333 30.667 88 75 104 133c9.33301 34.667 14 71.334 14 110.001c0 22.667 -1.33301 77.334 -4 164.001c-8 38.667 -12 76 -12 112c0 39.333 5 76.666 15 111.999
c18.667 70 60.667 123.333 126 160c42 23.333 85.667 35 131 35c12.667 0 36.334 -2.66699 71.001 -8v-140c-38 4.66699 -61 7 -69 7c-21.333 0 -42 -5.66699 -62 -17c-30.667 -16.667 -50.667 -41.667 -60 -75c-6.66699 -26 -10 -55.667 -10 -89
c0 -15.333 0.333008 -30.333 1 -45c9.33301 -41.333 14 -115 14 -221c0 -48.667 -6.33301 -96.334 -19 -143.001c-26.667 -95.333 -70.667 -160 -132 -194c61.333 -34.667 105.333 -99.334 132 -194.001c12.667 -46.667 19 -94 19 -142
c0 -106.667 -4.66699 -180.667 -14 -222c-0.666992 -14.667 -1 -29.667 -1 -45c0 -34 3.33301 -64 10 -90c8.66699 -32.667 28.667 -57.334 60 -74.001c20.667 -11.333 42 -17 64 -17c6.66699 0 29 2.33301 67 7v-142c-35.333 -4 -59 -6 -71 -6
c-45.333 0 -89 11.667 -131 35c-65.333 36.667 -107.333 90.334 -126 161.001c-10 34.667 -15 71.667 -15 111c0 36.667 4 74.667 12 114c2.66699 22 4 75.667 4 161c0 39.333 -4.66699 76.333 -14 111c-16 57.333 -50.667 101.333 -104 132
c-28.667 16 -57.334 24 -86.001 24c-4.66699 0 -21.334 -1.33301 -50.001 -4v159z" />
    <glyph glyph-name="bar" unicode="|" horiz-adv-x="251" 
d="M196 1548v-1667h-141v1667h141z" />
    <glyph glyph-name="braceright" unicode="}" horiz-adv-x="691" 
d="M636 539c-28.667 2.66699 -45.3369 3.99902 -50.0039 3.99902c-28 0 -56.667 -8 -86 -24c-53.333 -30.667 -88 -74.667 -104 -132c-9.33301 -34.667 -14 -71.667 -14 -111c0 -85.333 1.33301 -139 4 -161c8 -39.333 12 -77.333 12 -114
c0 -39.333 -4.66699 -76.333 -14 -111c-19.333 -70.667 -61.666 -124.334 -126.999 -161.001c-42 -23.333 -85.667 -35 -131 -35c-12 0 -35.667 2 -71 6v142c38 -4.66699 60.667 -7 68 -7c22 0 43.333 5.66699 64 17c30.667 16.667 50.334 41.334 59.001 74.001
c7.33301 26 11 56 11 90c0 15.333 -0.333008 30.333 -1 45c-10 41.333 -15 115.333 -15 222c0 48 6.66699 95.333 20 142c26.667 94.667 70.334 159.334 131.001 194.001c-60.667 34 -104.334 98.667 -131.001 194c-13.333 46.667 -20 94.334 -20 143.001
c0 106 5 179.667 15 221c0.666992 14.667 1 29.667 1 45c0 33.333 -3.66699 63 -11 89c-9.33301 33.333 -29 58.333 -59 75c-20 11.333 -41 17 -63 17c-7.33301 0 -30.333 -2.33301 -69 -7v140c34.667 5.33301 58.334 8 71.001 8c45.333 0 89 -11.667 131 -35
c65.333 -36.667 107.666 -90 126.999 -160c9.33301 -35.333 14 -72.666 14 -111.999c0 -36 -3.66699 -73.333 -11 -112c-3.33301 -86.667 -5 -141.334 -5 -164.001c0 -38.667 4.66699 -75.334 14 -110.001c16.667 -58 51.334 -102.333 104.001 -133
c29.333 -16 58 -24 86 -24c4.66699 0 21.334 1.33301 50.001 4v-159z" />
    <glyph glyph-name="asciitilde" unicode="~" horiz-adv-x="1088" 
d="M559 790c101.333 -59.333 173.667 -89 217 -89c4.66699 0 8.66699 0.666992 12 2c34 10 58 32 72 66c6.66699 17.333 10 48 10 92l143 -24c-3.33301 -49.333 -11 -89.666 -23 -120.999c-30.667 -72 -81.667 -119.667 -153 -143c-17.333 -6 -36.333 -9 -57 -9
c-64.667 0 -148.667 29.333 -252 88c-102.667 58.667 -174.667 88 -216 88c-6 0 -11 -0.333008 -15 -1c-32 -10 -55 -32 -69 -66c-7.33301 -18 -11 -48.333 -11 -91l-142 23c2.66699 49.333 10 89.666 22 120.999c30 71.333 81 119.333 153 144
c17.333 5.33301 36.333 8 57 8c65.333 0 149.333 -29.333 252 -88z" />
    <glyph glyph-name="exclamdown" unicode="&#xa1;" horiz-adv-x="327" 
d="M87 1222.5c-21.333 21 -32 46.5 -32 76.5s10.667 55.5 32 76.5s46.666 31.5 75.999 31.5c30 0 55.667 -10.5 77 -31.5s32 -46.5 32 -76.5s-10.667 -55.5 -32 -76.5s-47 -31.5 -77 -31.5c-29.333 0 -54.666 10.5 -75.999 31.5zM95 -26v1087h141v-1087h-141z" />
    <glyph glyph-name="cent" unicode="&#xa2;" horiz-adv-x="1125" 
d="M623 663c50.667 0.666992 102.332 27.002 154.999 79.002c6 6 17.667 19.667 35 41l136 -49c-32.667 -44 -57 -74.333 -73 -91c-79.333 -79.333 -163.666 -119.333 -252.999 -120v-131h-140v141c-63.333 11.333 -125.333 48 -186 110c-80.667 80 -121 176.333 -121 289
c0 113.333 40.333 210.333 121 291c60.667 61.333 122.667 97.666 186 108.999v142h140v-131c89.333 -0.666992 173.666 -40.667 252.999 -120c16 -16.667 40.333 -46.334 73 -89.001l-136 -51c-17.333 21.333 -29.333 35.333 -36 42
c-51.333 51.333 -102.666 77.333 -153.999 78v-540zM482.998 1188c-21.333 -5.33301 -50.666 -26.334 -87.999 -63.001c-52.667 -53.333 -79 -117.666 -79 -192.999c0 -74 26.333 -137.333 79 -190c37.333 -38 66.666 -59.333 87.999 -64v510z" />
    <glyph glyph-name="sterling" unicode="&#xa3;" horiz-adv-x="1119" 
d="M359 470l-198.004 -0.00390625v141h166c-6.66699 24.667 -23 62.334 -49 113.001c-64.667 105.333 -101 206.333 -109 303c-2 12 -3 24 -3 36c0 86 28.667 163.333 86 232c63.333 76 146 118.667 248 128h34c86.667 0 164.334 -28.333 233.001 -85
c76.667 -65.333 120 -148 130 -248c1.33301 -14 2 -27.333 2 -40c0 -40 -11 -85.333 -33 -136l-131 43c14 41.333 21 75 21 101c0 7.33301 -0.333008 14.333 -1 21c-5.33301 61.333 -31.666 111.333 -78.999 150c-42 35.333 -89 53 -141 53
c-7.33301 0 -14.333 -0.333008 -21 -1c-61.333 -5.33301 -111.666 -31.333 -150.999 -78c-34.667 -42 -52 -88.667 -52 -140c0 -8 0.333008 -15.667 1 -23c5.33301 -60 26 -128 62 -204c50 -80 83.333 -155 100 -225h175v-141h-148l-1 -1
c1.33301 -13.333 2 -26.666 2 -39.999c0 -123.333 -25 -214.666 -75 -273.999h107c42.667 0 85.334 -4.66699 128.001 -14c54 -12 105 -18 153 -18c42.667 0 93.667 7.33301 153 22l27 -139c-68.667 -16 -128.667 -24 -180 -24c-52.667 0 -106.667 6.33301 -162 19
c-53.333 11.333 -100 17 -140 17c-34.667 0 -64.334 -4 -89.001 -12c-57.333 -21.333 -120.666 -49.333 -189.999 -84l-110 131c84.667 74.667 135.667 122.334 153 143.001c55.333 66 83 141.667 83 227c0 12 -0.333008 23.667 -1 35v12z" />
    <glyph glyph-name="currency" unicode="&#xa4;" horiz-adv-x="1129" 
d="M352 1315c52 42.667 122.667 64 212 64c90 0 160.667 -21.333 212 -64l120 121l100 -100l-120 -120c43.333 -52 65 -122.667 65 -212c0 -90 -21.667 -161 -65 -213l121 -121l-101 -98l-120 119c-51.333 -42.667 -122 -64 -212 -64c-89.333 0 -160.333 21.333 -213 64
l-119 -120l-100 99l120 121c-42.667 52 -64 123 -64 213c0 89.333 21.333 160 64 212l-120 120l100 100zM706 1192c-40.667 31.333 -88.001 47.002 -142.001 47.002s-101 -15.667 -141 -47c-9.33301 -6.66699 -17.666 -13.667 -24.999 -21
c-8.66699 -8.66699 -16.334 -17.334 -23.001 -26.001c-31.333 -40.667 -47 -87.667 -47 -141c0 -54.667 15.667 -101.667 47 -141c6.66699 -9.33301 14.334 -18 23.001 -26c8 -8.66699 16.333 -16.334 25 -23.001c40 -30.667 87 -46 141 -46s101 15.333 141 46
c9.33301 6.66699 18.333 14.334 27 23.001c7.33301 7.33301 14.333 15.666 21 24.999c31.333 40 47 87.333 47 142c0 53.333 -15.667 100.333 -47 141c-6.66699 9.33301 -13.667 18 -21 26c-8 7.33301 -16.667 14.333 -26 21z" />
    <glyph glyph-name="yen" unicode="&#xa5;" horiz-adv-x="1139" 
d="M499 564h-301v140h225l-414 717h161l399 -693l399 693h162l-415 -717h226v-140h-301v-37h301v-141h-301v-386h-141v386h-301v141h301v37z" />
    <glyph glyph-name="brokenbar" unicode="&#xa6;" horiz-adv-x="251" 
d="M196 1421v-753h-141v753h141zM196 436v-754h-141v754h141z" />
    <glyph glyph-name="section" unicode="&#xa7;" horiz-adv-x="1100" 
d="M814 384c24 21.333 36 72.999 36 154.999c0 80.667 -28.667 150 -86 208c-53.333 52.667 -118.333 94.667 -195 126c-100.667 34 -180.667 80.667 -240 140c-27.333 26.667 -41 40.334 -41 41.001c-24.667 -20 -37 -70.667 -37 -152s29 -151 87 -209
c52 -52.667 116.667 -94.667 194 -126c100.667 -34 180.667 -80.667 240 -140c27.333 -26.667 41.333 -41 42 -43zM236 1203c-0.666992 4 -0.99707 16 -0.99707 36c0 86.667 31.167 161.334 93.5 224.001s137.833 94 226.5 94c87.333 0 162.666 -31 225.999 -93
c34 -33.333 61 -80.666 81 -141.999l-127 -51c-16 44 -34 76 -54 96c-34.667 34 -76.667 51 -126 51s-91.5 -17.333 -126.5 -52s-52.5 -77 -52.5 -127c0 -49.333 17.333 -91.333 52 -126c35.333 -35.333 84.666 -68 147.999 -98c112.667 -36 208 -92.667 286 -170
c84 -84.667 126 -186.667 126 -306c0 -120.667 -28 -209.334 -84 -266.001c-22.667 -22 -36 -34.333 -40 -37c0.666992 -4 1 -15.667 1 -35c0 -86.667 -31 -161.334 -93 -224.001s-137.333 -94 -226 -94c-88 0 -163.333 31 -226 93c-34.667 33.333 -61.667 81 -81 143
l126 50c16.667 -44 34.667 -76 54 -96c35.333 -34 77.666 -51 126.999 -51s91.5 17.333 126.5 52s52.5 77 52.5 127c0 49.333 -17.333 91.333 -52 126c-36 36 -85.667 68.667 -149 98c-112 36 -207 93 -285 171c-84.667 84 -127 186 -127 306s28.333 208 85 264
c22 22.667 35 35 39 37z" />
    <glyph glyph-name="dieresis" unicode="&#xa8;" horiz-adv-x="621" 
d="M260 1285.5c21.333 -21 32 -46.167 32 -75.5c0 -30.667 -10.667 -56.5 -32 -77.5s-46.666 -31.5 -75.999 -31.5c-30 0 -55.667 10.5 -77 31.5s-32 46.833 -32 77.5c0 29.333 10.667 54.5 32 75.5s47 31.5 77 31.5c29.333 0 54.666 -10.5 75.999 -31.5zM514 1285.5
c21.333 -21 32 -46.167 32 -75.5c0 -30.667 -10.667 -56.5 -32 -77.5s-46.666 -31.5 -75.999 -31.5c-30 0 -55.667 10.5 -77 31.5s-32 46.833 -32 77.5c0 29.333 10.667 54.5 32 75.5s47 31.5 77 31.5c29.333 0 54.666 -10.5 75.999 -31.5z" />
    <glyph glyph-name="copyright" unicode="&#xa9;" horiz-adv-x="1096" 
d="M721 453l131 -49.999c-33.333 -44 -55.666 -72.333 -66.999 -85c-63.333 -62.667 -139 -94 -227 -94s-163.333 31.167 -226 93.5s-94 137.833 -94 226.5c0 88 31.333 163.167 94 225.5s138 93.5 226 93.5s163.667 -31.333 227 -94c12 -13.333 34.333 -42 67 -86l-131 -48
l-34 39c-36 35.333 -79 53 -129 53c-50.667 0 -94 -17.833 -130 -53.5s-54 -78.834 -54 -129.501s18 -94 54 -130s79.333 -54 130 -54c50 0 93 18 129 54c5.33301 4.66699 16.666 17.667 33.999 39zM935.5 931.501c107 -107 160.5 -236.167 160.5 -387.5
c0 -152 -53.5 -281.5 -160.5 -388.5s-236.167 -160.5 -387.5 -160.5s-280.5 53.5 -387.5 160.5s-160.5 236.5 -160.5 388.5c0 151.333 53.5 280.5 160.5 387.5s236.167 160.5 387.5 160.5s280.5 -53.5 387.5 -160.5zM548 954.001c-113.333 0 -210 -40 -290 -120
s-120 -176.667 -120 -290s40 -210.166 120 -290.499s176.667 -120.5 290 -120.5c114 0 210.833 40.167 290.5 120.5s119.5 177.166 119.5 290.499s-39.833 210 -119.5 290s-176.5 120 -290.5 120z" />
    <glyph glyph-name="ordfeminine" unicode="&#xaa;" horiz-adv-x="600" 
d="M545 900l-123 0.000976562v5c-11.333 -10.667 -51 -16 -119 -16c-70 0 -128.833 26.667 -176.5 80s-71.5 116.666 -71.5 189.999s23.833 136.833 71.5 190.5s106.5 80.5 176.5 80.5s109.667 -12 119 -36h123v-494zM422 1126v65c-4 25.333 -15.667 48.333 -35 69
c-23.333 26.667 -51.333 40 -84 40c-33.333 0 -62.166 -13.5 -86.499 -40.5s-36.5 -60.5 -36.5 -100.5s12.167 -73.333 36.5 -100s53.166 -40 86.499 -40c32.667 0 60.667 13.333 84 40c19.333 20 31 42.333 35 67z" />
    <glyph glyph-name="guillemotleft" unicode="&#xab;" horiz-adv-x="864" 
d="M347 440l461 488v-201l-266 -287l266 -286v-202zM55 440l456 489v-202l-268 -287l268 -286v-203z" />
    <glyph glyph-name="logicalnot" unicode="&#xac;" horiz-adv-x="1102" 
d="M967 236h-141v326h-691v140h832v-466z" />
    <glyph glyph-name="registered" unicode="&#xae;" horiz-adv-x="1002" 
d="M379 1279l150 -0.000976562c58.667 -7.33301 108.334 -31.333 149.001 -72c47.333 -47.333 71 -105 71 -173c0 -68.667 -23.667 -127 -71 -175c-34.667 -33.333 -52.667 -50 -54 -50l61 -93c5.33301 3.33301 19.666 16.333 42.999 39c62.667 62.667 94 138 94 226
c0 88.667 -31.333 164.334 -94 227.001s-138 94 -226 94c-44 0 -85 -7.66699 -123 -23zM443 1156v-243h61c33.333 0 61.833 11.833 85.5 35.5s35.5 52.167 35.5 85.5s-11.833 62 -35.5 86s-52.167 36 -85.5 36h-61zM443 663.999c18.667 -2.66699 38.333 -4 59 -4
c39.333 0 62 1 68 3l-80 124h-47v-123zM319.999 1247c-16 -11.333 -31.333 -24.332 -46 -38.999c-62.667 -62.667 -94 -138.334 -94 -227.001c0 -88 31.667 -163.667 95 -227c14 -14 29 -26.667 45 -38v531zM501.999 535c-124 0 -229.501 43.5 -316.501 130.5
s-130.5 192.167 -130.5 315.5s43.5 228.666 130.5 315.999s192.5 131 316.5 131c122.667 0 227.5 -43.5 314.5 -130.5s130.5 -192.5 130.5 -316.5c0 -123.333 -43.333 -228.666 -130 -315.999c-31.333 -30.667 -74.166 -60 -128.499 -88s-116.5 -42 -186.5 -42z" />
    <glyph glyph-name="macron" unicode="&#xaf;" horiz-adv-x="714" 
d="M75 1219h564v-141h-564v141z" />
    <glyph glyph-name="degree" unicode="&#xb0;" horiz-adv-x="434" 
d="M339.5 1315.5c33.667 -34.333 50.5 -74.833 50.5 -121.5c0 -48 -16.833 -89 -50.5 -123s-74.5 -51 -122.5 -51s-88.833 17 -122.5 51s-50.5 75 -50.5 123c0 46.667 16.833 87.167 50.5 121.5s74.5 51.5 122.5 51.5s88.833 -17.167 122.5 -51.5zM217 1240
c-12.667 0 -23.667 -4.5 -33 -13.5s-14 -19.833 -14 -32.5c0 -13.333 4.66699 -24.666 14 -33.999s20.333 -14 33 -14s23.667 4.66699 33 14s14 20.666 14 33.999c0 12.667 -4.5 23.5 -13.5 32.5s-20.167 13.5 -33.5 13.5z" />
    <glyph glyph-name="plusminus" unicode="&#xb1;" horiz-adv-x="1098" 
d="M479 141v323h-394v140h394v394h140v-394h394v-140h-394v-323h394v-141h-928v141h394z" />
    <glyph glyph-name="uni00B2" unicode="&#xb2;" horiz-adv-x="500" 
d="M5 669c210 320.667 320.833 491.002 332.5 511.002s17.5 36.667 17.5 50c0 7.33301 -1 14.666 -3 21.999c-5.33301 22 -17 39 -35 51c-13.333 7.33301 -27 11 -41 11c-6.66699 0 -13 -0.666992 -19 -2c-21.333 -4.66699 -38 -16.667 -50 -36
c-6.66699 -10 -12.667 -36 -18 -78l-135 19c5.33301 60.667 17 105 35 133c32.667 51.333 78 84 136 98c18 3.33301 35 5 51 5c42 0 80.333 -11.333 115 -34c52 -32 84.333 -77.333 97 -136c5.33301 -20 8 -39.333 8 -58c0 -35.333 -8.83301 -68.833 -26.5 -100.5
s-86.167 -137.834 -205.5 -318.501h232v-137h-491z" />
    <glyph glyph-name="uni00B3" unicode="&#xb3;" horiz-adv-x="517" 
d="M232 1049l-77 2.99902v134c53.333 0.666992 85.333 3.16699 96 7.5s22.167 13.166 34.5 26.499s18.5 28 18.5 44c0 15.333 -5.16699 28.333 -15.5 39s-23.166 16 -38.499 16c-14.667 0 -27.667 -5.66699 -39 -17c-6.66699 -6 -17.334 -28.667 -32.001 -68l-125 50
c18 56.667 37.333 95.667 58 117c38.667 37.333 84.667 56 138 56s99 -19 137 -57s57 -83.333 57 -136s-12.333 -94 -37 -124l33 -47c47.333 -51.333 71 -111.333 71 -180c0 -69.333 -24.5 -128.666 -73.5 -177.999s-108.5 -74 -178.5 -74c-68.667 0 -128 24.667 -178 74
c-38.667 40 -64 99.667 -76 179l135 49c8 -67.333 21.333 -110.666 40 -129.999c22 -22 48.333 -33 79 -33c32 0 58.833 11 80.5 33s32.5 48.667 32.5 80c0 32 -11.333 60.5 -34 85.5s-58 41.833 -106 50.5z" />
    <glyph glyph-name="acute" unicode="&#xb4;" horiz-adv-x="594" 
d="M520 1252l-293 -223h-152l194 223h251z" />
    <glyph glyph-name="mu" unicode="&#xb5;" horiz-adv-x="853" 
d="M636 49c-38 -38 -110.332 -57.001 -216.999 -57.001c-99.333 0 -166 16.667 -200 50v-360h-141v1215h141v-645c7.33301 -16.667 21 -35 41 -55c44 -42.667 97 -64 159 -64c61.333 0 114.666 22 159.999 66c28.667 28.667 47.667 59.334 57 92.001v606h139v-897h-139v49z
" />
    <glyph glyph-name="paragraph" unicode="&#xb6;" horiz-adv-x="1097" 
d="M789 1359v-1677h-140v866h-97c-131.333 0 -243.333 46.333 -336 139s-139 205 -139 337c0 130.667 46.333 242.334 139 335.001c77.333 77.333 172 123.666 284 138.999h39v1h480v-1817h-139v1677h-91z" />
    <glyph glyph-name="periodcentered" unicode="&#xb7;" horiz-adv-x="304" 
d="M220 779c19.333 -18.667 29 -41.334 29 -68.001c0 -27.333 -9.66699 -50.333 -29 -69s-42 -28 -68 -28c-26.667 0 -49.5 9.33301 -68.5 28s-28.5 41.667 -28.5 69c0 26.667 9.5 49.334 28.5 68.001s41.833 28 68.5 28c26 0 48.667 -9.33301 68 -28z" />
    <glyph glyph-name="periodcentered" unicode="&#x2219;" horiz-adv-x="304" 
d="M220 779c19.333 -18.667 29 -41.334 29 -68.001c0 -27.333 -9.66699 -50.333 -29 -69s-42 -28 -68 -28c-26.667 0 -49.5 9.33301 -68.5 28s-28.5 41.667 -28.5 69c0 26.667 9.5 49.334 28.5 68.001s41.833 28 68.5 28c26 0 48.667 -9.33301 68 -28z" />
    <glyph glyph-name="cedilla" unicode="&#xb8;" horiz-adv-x="495" 
d="M361 72l-68.999 -56c40 0 72.333 -9.66699 97 -29c33.333 -26 50 -58 50 -96v-10c-6.66699 -54 -35.667 -97 -87 -129c-32 -20 -71 -30 -117 -30c-28.667 0 -60.334 4 -95.001 12l25 98c30 -6.66699 55 -10 75 -10c14.667 0 26.667 1.66699 36 5
c19.333 6.66699 29 19 29 37v9c-4 22 -18 35 -42 39c-6 0.666992 -12.333 1 -19 1c-21.333 0 -47.333 -4.33301 -78 -13l-70 68l98 104h167z" />
    <glyph glyph-name="uni00B9" unicode="&#xb9;" horiz-adv-x="445" 
d="M156 798v424l-23 -15l-112 83l272 196v-688h147v-137h-435v137h151z" />
    <glyph glyph-name="ordmasculine" unicode="&#xba;" horiz-adv-x="579" 
d="M290 1019c35.333 2.66699 62.333 15.334 81 38.001c22 27.333 33 61.333 33 102s-11 75 -33 103c-18.667 22.667 -45.667 35.334 -81 38.001c-35.333 -2.66699 -62.333 -15.334 -81 -38.001c-22 -28 -33 -62.333 -33 -103s11 -74.667 33 -102
c18.667 -22.667 45.667 -35.334 81 -38.001zM280 889c-64 0 -117.5 26.833 -160.5 80.5s-64.5 116.834 -64.5 189.501s21.5 136 64.5 190s96.5 81 160.5 81h19c64 0 117.5 -27 160.5 -81s64.5 -117.333 64.5 -190s-21.5 -135.834 -64.5 -189.501s-96.5 -80.5 -160.5 -80.5
h-19z" />
    <glyph glyph-name="guillemotright" unicode="&#xbb;" horiz-adv-x="864" 
d="M55 -48v202l266 286l-266 287v201l462 -488zM353 -49v203l266 286l-266 287v202l455 -489z" />
    <glyph glyph-name="onequarter" unicode="&#xbc;" horiz-adv-x="1631" 
d="M1260 935v-623h65v-137h-65v-175h-137v175h-318zM1123 443l-78 -131h78v131zM351 798v424l-23 -15l-112 83l272 196v-688h147v-137h-435v137h151zM1625 1421l-1422 -1421h-198l1420 1421h200z" />
    <glyph glyph-name="onehalf" unicode="&#xbd;" horiz-adv-x="1631" 
d="M351 798v424l-23 -15l-112 83l272 196v-688h147v-137h-435v137h151zM1625 1421l-1422 -1421h-198l1420 1421h200zM914 0c210.667 321.333 321.667 492.002 333 512.002s17 36.667 17 50c0 6 -1 13.333 -3 22c-4.66699 22 -16.334 38.667 -35.001 50
c-13.333 8 -27 12 -41 12c-6 0 -12.333 -1 -19 -3c-22 -4.66699 -38.667 -16.334 -50 -35.001c-6.66699 -10.667 -12.667 -37 -18 -79l-136 20c6 60.667 18 105 36 133c32.667 50.667 78 82.667 136 96c17.333 4.66699 34.333 7 51 7c41.333 0 80 -11.667 116 -35
c51.333 -32 83.333 -77 96 -135c4.66699 -20 7 -39.667 7 -59c0 -34.667 -8.66699 -67.834 -26 -99.501s-85.666 -138.167 -204.999 -319.5h231v-137h-490z" />
    <glyph glyph-name="threequarters" unicode="&#xbe;" horiz-adv-x="1631" 
d="M1625 1421l-1422 -1421h-198l1420 1421h200zM1260 935v-623h65v-137h-65v-175h-137v175h-318zM1123 443l-78 -131h78v131zM398 1021l-76.002 3v133c52.667 0.666992 84.334 3.16699 95.001 7.5s22.334 13.166 35.001 26.499s19 28 19 44c0 15.333 -5.33301 28.333 -16 39
s-23.667 16 -39 16c-14.667 0 -27.667 -5.33301 -39 -16c-6 -6.66699 -16.667 -29.334 -32 -68.001l-125 50c18 56 37.667 94.667 59 116c38 37.333 83.667 56 137 56c54 0 100 -19 138 -57s57 -83.333 57 -136s-12.667 -94 -38 -124l34 -47
c47.333 -51.333 71 -111.333 71 -180c0 -69.333 -24.667 -128.5 -74 -177.5s-108.666 -73.5 -177.999 -73.5c-68.667 0 -128 24.333 -178 73c-39.333 40 -65 100 -77 180l135 48c8 -67.333 21.667 -110.666 41 -129.999c22 -21.333 48.333 -32 79 -32
c31.333 0 58 10.833 80 32.5s33 48.167 33 79.5c0 32.667 -11.333 61.334 -34 86.001s-58.334 41.667 -107.001 51z" />
    <glyph glyph-name="questiondown" unicode="&#xbf;" horiz-adv-x="830" 
d="M490 1203c46 -50.667 74.002 -105.333 84.002 -164c3.33301 -19.333 5 -38.666 5 -57.999c0 -60.667 -18.667 -117.667 -56 -171c-30 -42.667 -86.667 -97.667 -170 -165c-68.667 -62.667 -113.334 -108.667 -134.001 -138c-28.667 -40 -43 -83 -43 -129
c0 -14 1 -28 3 -42c11.333 -63.333 43.333 -113.666 96 -150.999c42 -28 86 -42 132 -42c13.333 0 27 1 41 3c62 11.333 111.333 43 148 95c30 42.667 45 85 45 127c0 10 -4 34 -12 72l148 -10c6 -30.667 9 -54 9 -70c0 -64 -24 -130.333 -72 -199
c-58 -84.667 -138.333 -136.334 -241 -155.001c-24 -4 -47.333 -6 -70 -6c-74.667 0 -144.334 22.333 -209.001 67c-84.667 60 -136 141.333 -154 244c-4 23.333 -6 46.333 -6 69c0 73.333 22.333 143.333 67 210c38 52.667 103.667 116 197 190
c56 51.333 92 88.666 108 111.999c20 28.667 30 59.334 30 92.001c0 10 -0.666992 20 -2 30c-4.66699 25.333 -17.667 51.666 -39 78.999zM372.002 1249.5c-21.333 21 -32 46.5 -32 76.5s10.667 55.5 32 76.5s46.666 31.5 75.999 31.5c30 0 55.667 -10.5 77 -31.5
s32 -46.5 32 -76.5s-10.667 -55.5 -32 -76.5s-47 -31.5 -77 -31.5c-29.333 0 -54.666 10.5 -75.999 31.5z" />
    <glyph glyph-name="Agrave" unicode="&#xc0;" horiz-adv-x="1162" 
d="M743 737l-161 444l-161 -444h322zM644 1421l516 -1421h-149l-217 597h-424l-221 -597h-150l522 1421h123zM549 1699l194 -223h-153l-291 223h250z" />
    <glyph glyph-name="Aacute" unicode="&#xc1;" horiz-adv-x="1162" 
d="M743 737l-161 444l-161 -444h322zM644 1421l516 -1421h-149l-217 597h-424l-221 -597h-150l522 1421h123zM861 1699l-293 -223h-152l194 223h251z" />
    <glyph glyph-name="Acircumflex" unicode="&#xc2;" horiz-adv-x="1162" 
d="M743 737l-161 444l-161 -444h322zM644 1421l516 -1421h-149l-217 597h-424l-221 -597h-150l522 1421h123zM633 1731l268 -263h-178l-147 112l-138 -112h-176l256 263h115z" />
    <glyph glyph-name="Atilde" unicode="&#xc3;" horiz-adv-x="1162" 
d="M743 737l-161 444l-161 -444h322zM644 1421l516 -1421h-149l-217 597h-424l-221 -597h-150l522 1421h123zM497 1657c-2 -2 -3.66602 -4.66699 -4.99902 -8c-2 -6 -3 -31.667 -3 -77l-127 28c1.33301 44.667 5 75.667 11 93c14.667 44.667 40.667 74.667 78 90
c10.667 5.33301 23 8 37 8c33.333 0 73 -16.667 119 -50c28.667 -21.333 47.667 -33.333 57 -36v2c0 1.33301 0.333008 3.33301 1 6c1.33301 6 2 31.667 2 77l129 -25c-2.66699 -45.333 -7 -77 -13 -95c-14.667 -44 -40.667 -74.333 -78 -91c-12 -4 -24 -6 -36 -6
c-32.667 0 -72.334 16.667 -119.001 50c-25.333 18.667 -43 30 -53 34z" />
    <glyph glyph-name="Adieresis" unicode="&#xc4;" horiz-adv-x="1162" 
d="M743 737l-161 444l-161 -444h322zM644 1421l516 -1421h-149l-217 597h-424l-221 -597h-150l522 1421h123zM529 1732.5c21.333 -21 32 -46.167 32 -75.5c0 -30.667 -10.667 -56.5 -32 -77.5s-46.666 -31.5 -75.999 -31.5c-30 0 -55.667 10.5 -77 31.5s-32 46.833 -32 77.5
c0 29.333 10.667 54.5 32 75.5s47 31.5 77 31.5c29.333 0 54.666 -10.5 75.999 -31.5zM783 1732.5c21.333 -21 32 -46.167 32 -75.5c0 -30.667 -10.667 -56.5 -32 -77.5s-46.666 -31.5 -75.999 -31.5c-30 0 -55.667 10.5 -77 31.5s-32 46.833 -32 77.5
c0 29.333 10.667 54.5 32 75.5s47 31.5 77 31.5c29.333 0 54.666 -10.5 75.999 -31.5z" />
    <glyph glyph-name="Aring" unicode="&#xc5;" horiz-adv-x="1162" 
d="M743 737l-161 444l-161 -444h322zM644 1421l516 -1421h-149l-217 597h-424l-221 -597h-150l522 1421h123zM676.5 1685.5c26.333 -27 39.5 -59.165 39.5 -96.498c0 -36.667 -13.167 -68.334 -39.5 -95.001s-58.166 -40 -95.499 -40c-38 0 -70.333 13.167 -97 39.5
s-40 58.166 -40 95.499c0 38 13.333 70.333 40 97s59 40 97 40c37.333 0 69.166 -13.5 95.499 -40.5zM581 1607c-5.33301 0 -9.66602 -1.66699 -12.999 -5s-5 -7.66602 -5 -12.999c0 -4 1.66699 -7.66699 5 -11s7.66602 -5 12.999 -5c3.33301 0 6.83301 1.66699 10.5 5
s5.5 7 5.5 11c0 5.33301 -1.83301 9.66602 -5.5 12.999s-7.16699 5 -10.5 5z" />
    <glyph glyph-name="AE" unicode="&#xc6;" horiz-adv-x="1470" 
d="M1415 781v-141h-602v-499h602v-141h-742v520h-235l-232 -520h-151l618 1421h742v-140h-602v-500h602zM673 660v417l-180 -417h180z" />
    <glyph glyph-name="Ccedilla" unicode="&#xc7;" horiz-adv-x="1379" 
d="M572 19c-106 34 -200.999 93.335 -284.999 178.002c-142 141.333 -213 312.666 -213 513.999c0 200 70.833 371.167 212.5 513.5s313.167 213.5 514.5 213.5c187.333 0 359 -71.333 515 -214l-106 -94c-124.667 110 -261 165 -409 165
c-161.333 0 -299.166 -57 -413.499 -171s-171.5 -251.667 -171.5 -413c0 -162 57.167 -300.167 171.5 -414.5s252.166 -171.5 413.499 -171.5c148 0 284.333 55.333 409 166l106 -95c-150.667 -136.667 -316 -207.334 -496 -212.001c31.333 -25.333 47 -56.333 47 -93v-10
c-6.66699 -54 -35.667 -97 -87 -129c-32 -20 -71 -30 -117 -30c-28.667 0 -60.334 4 -95.001 12l25 98c30 -6.66699 55 -10 75 -10c14.667 0 26.667 1.66699 36 5c19.333 6.66699 29 19 29 37v9c-4 22 -18 35 -42 39c-6 0.666992 -12.333 1 -19 1
c-21.333 0 -47.333 -4.33301 -78 -13l-70 68z" />
    <glyph glyph-name="Egrave" unicode="&#xc8;" horiz-adv-x="967" 
d="M855 1421v-140h-602v-500h602v-141h-602v-499h602v-141h-743v1421h743zM453 1776l194 -223h-153l-291 223h250z" />
    <glyph glyph-name="Eacute" unicode="&#xc9;" horiz-adv-x="967" 
d="M855 1421v-140h-602v-500h602v-141h-602v-499h602v-141h-743v1421h743zM765 1776l-292 -223h-153l194 223h251z" />
    <glyph glyph-name="Ecircumflex" unicode="&#xca;" horiz-adv-x="967" 
d="M855 1421v-140h-602v-500h602v-141h-602v-499h602v-141h-743v1421h743zM536 1807l268 -262h-177l-147 112l-138 -112h-177l256 262h115z" />
    <glyph glyph-name="Edieresis" unicode="&#xcb;" horiz-adv-x="967" 
d="M855 1421v-140h-602v-500h602v-141h-602v-499h602v-141h-743v1421h743zM433 1809.5c21.333 -21 32 -46.167 32 -75.5c0 -30.667 -10.667 -56.5 -32 -77.5s-46.666 -31.5 -75.999 -31.5c-30 0 -55.667 10.5 -77 31.5s-32 46.833 -32 77.5c0 29.333 10.667 54.5 32 75.5
s47 31.5 77 31.5c29.333 0 54.666 -10.5 75.999 -31.5zM687 1809.5c21.333 -21 32 -46.167 32 -75.5c0 -30.667 -10.667 -56.5 -32 -77.5s-46.333 -31.5 -75 -31.5c-30 0 -55.667 10.5 -77 31.5s-32 46.833 -32 77.5c0 29.333 10.667 54.5 32 75.5s47 31.5 77 31.5
c28.667 0 53.667 -10.5 75 -31.5z" />
    <glyph glyph-name="Igrave" unicode="&#xcc;" horiz-adv-x="477" 
d="M319 1421v-1421h-141v1421h141zM218 1776l194 -223h-153l-291 223h250z" />
    <glyph glyph-name="Iacute" unicode="&#xcd;" horiz-adv-x="477" 
d="M299 1421v-1421h-141v1421h141zM510 1776l-293 -223h-152l194 223h251z" />
    <glyph glyph-name="Icircumflex" unicode="&#xce;" horiz-adv-x="458" 
d="M299 1421v-1421h-141v1421h141zM281 1807l268 -262h-177l-147 112l-138 -112h-177l256 262h115z" />
    <glyph glyph-name="Idieresis" unicode="&#xcf;" horiz-adv-x="371" 
d="M256 1421v-1421h-141v1421h141zM135 1809.5c21.333 -21 32 -46.167 32 -75.5c0 -30.667 -10.667 -56.5 -32 -77.5s-46.666 -31.5 -75.999 -31.5c-30 0 -55.667 10.5 -77 31.5s-32 46.833 -32 77.5c0 29.333 10.667 54.5 32 75.5s47 31.5 77 31.5
c29.333 0 54.666 -10.5 75.999 -31.5zM389 1809.5c21.333 -21 32 -46.167 32 -75.5c0 -30.667 -10.667 -56.5 -32 -77.5s-46.666 -31.5 -75.999 -31.5c-30 0 -55.667 10.5 -77 31.5s-32 46.833 -32 77.5c0 29.333 10.667 54.5 32 75.5s47 31.5 77 31.5
c29.333 0 54.666 -10.5 75.999 -31.5z" />
    <glyph glyph-name="Eth" unicode="&#xd0;" horiz-adv-x="1258" 
d="M284 640v-497h141c186.667 0 333.334 51.333 440.001 154c114 114 171 252 171 414c0 161.333 -57 299.333 -171 414c-106.667 102 -253.334 153 -440.001 153h-141v-497h472v-141h-472zM143 781v639.998h283c232.667 -1.33301 413.334 -66.666 542.001 -195.999
c142 -142.667 213 -314 213 -514c0 -201.333 -71 -373 -213 -515c-128.667 -129.333 -309.334 -194.666 -542.001 -195.999h-283v640h-123v141h123z" />
    <glyph glyph-name="Ntilde" unicode="&#xd1;" horiz-adv-x="1358" 
d="M254 1421l854 -1196v1196h141v-1421h-166l-833 1167v-1167h-141v1421h145zM597 1580c-2 -2 -3.33398 -4.66406 -4.00098 -7.99707c-2 -6 -3 -31.333 -3 -76l-127 27c0.666992 44.667 4.33398 76 11.001 94c14 44 40 74 78 90c10.667 4.66699 22.667 7 36 7
c33.333 0 73 -16.667 119 -50c28.667 -20.667 47.667 -32.334 57 -35.001v2c0 1.33301 0.333008 3.33301 1 6c2 5.33301 3 30.666 3 75.999l128 -25c-2 -44.667 -6 -76.334 -12 -95.001c-14.667 -44 -41 -74 -79 -90c-12 -4 -23.667 -6 -35 -6
c-33.333 0 -73.333 16.333 -120 49c-25.333 18.667 -43 30 -53 34z" />
    <glyph glyph-name="Ograve" unicode="&#xd2;" horiz-adv-x="1581" 
d="M1305.5 1227.5c142.333 -142.333 213.5 -313.833 213.5 -514.5c0 -202 -71.167 -374 -213.5 -516s-314.166 -213 -515.499 -213c-200.667 0 -372.167 71 -514.5 213s-213.5 314 -213.5 516c0 200.667 71.167 372.167 213.5 514.5s313.833 213.5 514.5 213.5
c201.333 0 373.166 -71.167 515.499 -213.5zM790 1299c-161.333 0 -299.333 -57.333 -414 -172s-172 -252.667 -172 -414c0 -162 57.333 -300.5 172 -415.5s252.667 -172.5 414 -172.5c162 0 300.333 57.5 415 172.5s172 253.5 172 415.5
c0 161.333 -57.333 299.333 -172 414s-253 172 -415 172zM760 1776l194 -223h-153l-291 223h250z" />
    <glyph glyph-name="Oacute" unicode="&#xd3;" horiz-adv-x="1581" 
d="M1305.5 1227.5c142.333 -142.333 213.5 -313.833 213.5 -514.5c0 -202 -71.167 -374 -213.5 -516s-314.166 -213 -515.499 -213c-200.667 0 -372.167 71 -514.5 213s-213.5 314 -213.5 516c0 200.667 71.167 372.167 213.5 514.5s313.833 213.5 514.5 213.5
c201.333 0 373.166 -71.167 515.499 -213.5zM790 1299c-161.333 0 -299.333 -57.333 -414 -172s-172 -252.667 -172 -414c0 -162 57.333 -300.5 172 -415.5s252.667 -172.5 414 -172.5c162 0 300.333 57.5 415 172.5s172 253.5 172 415.5
c0 161.333 -57.333 299.333 -172 414s-253 172 -415 172zM1072 1776l-292 -223h-153l195 223h250z" />
    <glyph glyph-name="Ocircumflex" unicode="&#xd4;" horiz-adv-x="1581" 
d="M1305.5 1227.5c142.333 -142.333 213.5 -313.833 213.5 -514.5c0 -202 -71.167 -374 -213.5 -516s-314.166 -213 -515.499 -213c-200.667 0 -372.167 71 -514.5 213s-213.5 314 -213.5 516c0 200.667 71.167 372.167 213.5 514.5s313.833 213.5 514.5 213.5
c201.333 0 373.166 -71.167 515.499 -213.5zM790 1299c-161.333 0 -299.333 -57.333 -414 -172s-172 -252.667 -172 -414c0 -162 57.333 -300.5 172 -415.5s252.667 -172.5 414 -172.5c162 0 300.333 57.5 415 172.5s172 253.5 172 415.5
c0 161.333 -57.333 299.333 -172 414s-253 172 -415 172zM843 1807l268 -262h-177l-147 112l-138 -112h-177l257 262h114z" />
    <glyph glyph-name="Otilde" unicode="&#xd5;" horiz-adv-x="1581" 
d="M1305.5 1227.5c142.333 -142.333 213.5 -313.833 213.5 -514.5c0 -202 -71.167 -374 -213.5 -516s-314.166 -213 -515.499 -213c-200.667 0 -372.167 71 -514.5 213s-213.5 314 -213.5 516c0 200.667 71.167 372.167 213.5 514.5s313.833 213.5 514.5 213.5
c201.333 0 373.166 -71.167 515.499 -213.5zM790 1299c-161.333 0 -299.333 -57.333 -414 -172s-172 -252.667 -172 -414c0 -162 57.333 -300.5 172 -415.5s252.667 -172.5 414 -172.5c162 0 300.333 57.5 415 172.5s172 253.5 172 415.5
c0 161.333 -57.333 299.333 -172 414s-253 172 -415 172zM708 1657c-2 -2 -3.66602 -4.66699 -4.99902 -8c-2 -6 -3 -31.667 -3 -77l-127 28c1.33301 44.667 5 75.667 11 93c14.667 44.667 40.667 74.667 78 90c10.667 5.33301 23 8 37 8c33.333 0 73 -16.667 119 -50
c28.667 -21.333 47.667 -33.333 57 -36v2c0 1.33301 0.333008 3.33301 1 6c1.33301 6 2 31.667 2 77l129 -25c-2.66699 -45.333 -7 -77 -13 -95c-14.667 -44 -40.667 -74.333 -78 -91c-12 -4 -24 -6 -36 -6c-32.667 0 -72.334 16.667 -119.001 50
c-25.333 18.667 -43 30 -53 34z" />
    <glyph glyph-name="Odieresis" unicode="&#xd6;" horiz-adv-x="1581" 
d="M1305.5 1227.5c142.333 -142.333 213.5 -313.833 213.5 -514.5c0 -202 -71.167 -374 -213.5 -516s-314.166 -213 -515.499 -213c-200.667 0 -372.167 71 -514.5 213s-213.5 314 -213.5 516c0 200.667 71.167 372.167 213.5 514.5s313.833 213.5 514.5 213.5
c201.333 0 373.166 -71.167 515.499 -213.5zM790 1299c-161.333 0 -299.333 -57.333 -414 -172s-172 -252.667 -172 -414c0 -162 57.333 -300.5 172 -415.5s252.667 -172.5 414 -172.5c162 0 300.333 57.5 415 172.5s172 253.5 172 415.5
c0 161.333 -57.333 299.333 -172 414s-253 172 -415 172zM740 1809.5c21.333 -21 32 -46.167 32 -75.5c0 -30.667 -10.667 -56.5 -32 -77.5s-46.666 -31.5 -75.999 -31.5s-54.833 10.5 -76.5 31.5s-32.5 46.833 -32.5 77.5c0 29.333 10.833 54.5 32.5 75.5
s47.167 31.5 76.5 31.5s54.666 -10.5 75.999 -31.5zM994 1809.5c21.333 -21 32 -46.167 32 -75.5c0 -30.667 -10.667 -56.5 -32 -77.5s-46.333 -31.5 -75 -31.5c-30 0 -55.667 10.5 -77 31.5s-32 46.833 -32 77.5c0 29.333 10.667 54.5 32 75.5s47 31.5 77 31.5
c28.667 0 53.667 -10.5 75 -31.5z" />
    <glyph glyph-name="multiply" unicode="&#xd7;" horiz-adv-x="1133" 
d="M566 434l-278 -277l-100 98l279 279l-279 279l100 98l278 -277l278 277l100 -98l-278 -279l278 -279l-100 -98z" />
    <glyph glyph-name="Oslash" unicode="&#xd8;" horiz-adv-x="1653" 
d="M1009 1272c-44 18 -105 27 -183 27c-161.333 0 -299.333 -57.333 -414 -172s-172 -252.667 -172 -414c0 -162 57.333 -300.333 172 -415c41.333 -42 76 -71 104 -87zM643 152c44.667 -18 105.667 -26.999 183 -26.999c162 0 300.333 57.5 415 172.5s172 253.5 172 415.5
c0 161.333 -57.333 299.666 -172 414.999c-42 41.333 -76.667 69.333 -104 84zM1197 1342c43.333 -23.333 91.667 -61.3311 145 -113.998c142 -142.667 213 -314.334 213 -515.001c0 -202 -71.167 -374 -213.5 -516s-314.166 -213 -515.499 -213
c-96.667 0 -177.667 13 -243 39l-74 -158l-127 60l74 158c-43.333 23.333 -91.333 61.666 -144 114.999c-142.667 141.333 -214 313 -214 515c0 200.667 71.167 372.167 213.5 514.5s313.833 213.5 514.5 213.5c97.333 0 178.666 -13 243.999 -39l74 156l127 -58z" />
    <glyph glyph-name="Ugrave" unicode="&#xd9;" horiz-adv-x="1174" 
d="M921 1421h141v-1009c-15.333 -112 -61.666 -207 -138.999 -285c-92.667 -92.667 -204.334 -139 -335.001 -139c-132 0 -244.333 46.333 -337 139s-139 204.667 -139 336v958h141v-958c0 -91.333 32.667 -169.833 98 -235.5s144.333 -98.5 237 -98.5
c92 0 170.5 32.833 235.5 98.5s97.5 144.167 97.5 235.5v958zM557 1776l194 -223h-153l-291 223h250z" />
    <glyph glyph-name="Uacute" unicode="&#xda;" horiz-adv-x="1174" 
d="M921 1421h141v-1009c-15.333 -112 -61.666 -207 -138.999 -285c-92.667 -92.667 -204.334 -139 -335.001 -139c-132 0 -244.333 46.333 -337 139s-139 204.667 -139 336v958h141v-958c0 -91.333 32.667 -169.833 98 -235.5s144.333 -98.5 237 -98.5
c92 0 170.5 32.833 235.5 98.5s97.5 144.167 97.5 235.5v958zM869 1776l-293 -223h-152l194 223h251z" />
    <glyph glyph-name="Ucircumflex" unicode="&#xdb;" horiz-adv-x="1174" 
d="M921 1421h141v-1009c-15.333 -112 -61.666 -207 -138.999 -285c-92.667 -92.667 -204.334 -139 -335.001 -139c-132 0 -244.333 46.333 -337 139s-139 204.667 -139 336v958h141v-958c0 -91.333 32.667 -169.833 98 -235.5s144.333 -98.5 237 -98.5
c92 0 170.5 32.833 235.5 98.5s97.5 144.167 97.5 235.5v958zM640 1807l268 -262h-178l-147 112l-138 -112h-176l256 262h115z" />
    <glyph glyph-name="Udieresis" unicode="&#xdc;" horiz-adv-x="1174" 
d="M921 1421h141v-1009c-15.333 -112 -61.666 -207 -138.999 -285c-92.667 -92.667 -204.334 -139 -335.001 -139c-132 0 -244.333 46.333 -337 139s-139 204.667 -139 336v958h141v-958c0 -91.333 32.667 -169.833 98 -235.5s144.333 -98.5 237 -98.5
c92 0 170.5 32.833 235.5 98.5s97.5 144.167 97.5 235.5v958zM537 1809.5c21.333 -21 32 -46.167 32 -75.5c0 -30.667 -10.667 -56.5 -32 -77.5s-46.666 -31.5 -75.999 -31.5c-30 0 -55.667 10.5 -77 31.5s-32 46.833 -32 77.5c0 29.333 10.667 54.5 32 75.5
s47 31.5 77 31.5c29.333 0 54.666 -10.5 75.999 -31.5zM791 1809.5c21.333 -21 32 -46.167 32 -75.5c0 -30.667 -10.667 -56.5 -32 -77.5s-46.666 -31.5 -75.999 -31.5c-30 0 -55.667 10.5 -77 31.5s-32 46.833 -32 77.5c0 29.333 10.667 54.5 32 75.5s47 31.5 77 31.5
c29.333 0 54.666 -10.5 75.999 -31.5z" />
    <glyph glyph-name="Yacute" unicode="&#xdd;" horiz-adv-x="1185" 
d="M522 573l-490 848h161l399 -691l399 691h162l-490 -848v-573h-141v573zM874 1776l-293 -223h-152l194 223h251z" />
    <glyph glyph-name="Thorn" unicode="&#xde;" horiz-adv-x="979" 
d="M239 1186h249c112.667 -15.333 207.667 -61.666 285 -138.999c92.667 -92.667 139 -204.334 139 -335.001c0 -132 -46.333 -244.333 -139 -337s-204.667 -139 -336 -139h-198v-236h-141v1421h141v-235zM239 377h198c92 0 170.667 32.667 236 98s98 144.333 98 237
c0 92 -32.667 170.5 -98 235.5s-144 97.5 -236 97.5h-198v-668z" />
    <glyph glyph-name="germandbls" unicode="&#xdf;" horiz-adv-x="1009" 
d="M253 132l60 73c70 -55.333 137.667 -83 203 -83c12 0 23.667 0.333008 35 1c81.333 9.33301 147.333 45.666 198 108.999c42.667 52 64 111 64 177c0 12 -0.666992 24.333 -2 37c-8.66699 80.667 -44.5 148.667 -107.5 204s-125 85.833 -186 91.5s-94.5 29.5 -100.5 71.5
c-1.33301 4 -2 9 -2 15c0 34.667 20 62.334 60 83.001c27.333 14.667 57 43 89 85c25.333 33.333 38 69.666 38 108.999c0 6.66699 -0.666992 14 -2 22c-5.33301 50 -27 90 -65 120c-32 25.333 -68 38 -108 38c-6.66699 0 -14 -0.333008 -22 -1
c-48 -5.33301 -87.667 -26.666 -119 -63.999c-16.667 -21.333 -27.667 -42.333 -33 -63v-1025zM253 71v-70.999h-141v1180c10 48.667 30.333 91.667 61 129c56 68.667 128 108 216 118c13.333 1.33301 26.333 2 39 2c74 0 140.333 -23.333 199 -70
c68.667 -56.667 107.667 -128.334 117 -215.001c2 -16 3 -31.667 3 -47c0 -68 -17.333 -125 -52 -171l-45 -73c33.333 -6.66699 82.333 -37.667 147 -93c92 -80 144.333 -179.333 157 -298c2 -18 3 -35.667 3 -53c0 -98.667 -32 -188 -96 -268
c-76 -94 -174 -147.667 -294 -161c-17.333 -2 -34.333 -3 -51 -3c-88 0 -175.667 31.333 -263 94z" />
    <glyph glyph-name="agrave" unicode="&#xe0;" horiz-adv-x="1148" 
d="M1059 0l-141 0.000976562v105c-92.667 -86 -208 -129 -346 -129c-137.333 0 -254.666 48.667 -351.999 146s-146 214.666 -146 351.999c0 138 48.667 255.5 146 352.5s214.666 145.5 351.999 145.5c138 0 253.333 -42.667 346 -128v53h141v-897zM918 402.001v143.999
c-12.667 66.667 -44.667 126 -96 178c-69.333 69.333 -152.666 104 -249.999 104s-180.5 -34.667 -249.5 -104s-103.5 -152.666 -103.5 -249.999s34.333 -180.333 103 -249s152 -103 250 -103c97.333 0 180.666 34.667 249.999 104c51.333 51.333 83.333 110 96 176z
M520 1252l194 -223h-153l-291 223h250z" />
    <glyph glyph-name="aacute" unicode="&#xe1;" horiz-adv-x="1148" 
d="M1059 0l-141 0.000976562v105c-92.667 -86 -208 -129 -346 -129c-137.333 0 -254.666 48.667 -351.999 146s-146 214.666 -146 351.999c0 138 48.667 255.5 146 352.5s214.666 145.5 351.999 145.5c138 0 253.333 -42.667 346 -128v53h141v-897zM918 402.001v143.999
c-12.667 66.667 -44.667 126 -96 178c-69.333 69.333 -152.666 104 -249.999 104s-180.5 -34.667 -249.5 -104s-103.5 -152.666 -103.5 -249.999s34.333 -180.333 103 -249s152 -103 250 -103c97.333 0 180.666 34.667 249.999 104c51.333 51.333 83.333 110 96 176z
M863 1252l-293 -223h-152l194 223h251z" />
    <glyph glyph-name="acircumflex" unicode="&#xe2;" horiz-adv-x="1148" 
d="M1059 0l-141 0.000976562v105c-92.667 -86 -208 -129 -346 -129c-137.333 0 -254.666 48.667 -351.999 146s-146 214.666 -146 351.999c0 138 48.667 255.5 146 352.5s214.666 145.5 351.999 145.5c138 0 253.333 -42.667 346 -128v53h141v-897zM918 402.001v143.999
c-12.667 66.667 -44.667 126 -96 178c-69.333 69.333 -152.666 104 -249.999 104s-180.5 -34.667 -249.5 -104s-103.5 -152.666 -103.5 -249.999s34.333 -180.333 103 -249s152 -103 250 -103c97.333 0 180.666 34.667 249.999 104c51.333 51.333 83.333 110 96 176z
M618 1283l268 -263h-178l-147 113l-138 -113h-176l256 263h115z" />
    <glyph glyph-name="atilde" unicode="&#xe3;" horiz-adv-x="1148" 
d="M1059 0l-141 0.000976562v105c-92.667 -86 -208 -129 -346 -129c-137.333 0 -254.666 48.667 -351.999 146s-146 214.666 -146 351.999c0 138 48.667 255.5 146 352.5s214.666 145.5 351.999 145.5c138 0 253.333 -42.667 346 -128v53h141v-897zM918 402.001v143.999
c-12.667 66.667 -44.667 126 -96 178c-69.333 69.333 -152.666 104 -249.999 104s-180.5 -34.667 -249.5 -104s-103.5 -152.666 -103.5 -249.999s34.333 -180.333 103 -249s152 -103 250 -103c97.333 0 180.666 34.667 249.999 104c51.333 51.333 83.333 110 96 176z
M484 1133c-2 -2 -3.66602 -4.66699 -4.99902 -8c-2 -6 -3 -31.667 -3 -77l-127 28c1.33301 44.667 5 75.667 11 93c14.667 44.667 40.667 74.667 78 90c10.667 5.33301 23 8 37 8c33.333 0 73 -16.667 119 -50c28.667 -21.333 47.667 -33.333 57 -36v2
c0 1.33301 0.333008 3.33301 1 6c1.33301 6 2 31.667 2 77l129 -25c-2.66699 -45.333 -7 -77 -13 -95c-14.667 -44 -40.667 -74.333 -78 -91c-12 -4 -24 -6 -36 -6c-32.667 0 -72.334 16.667 -119.001 50c-25.333 18.667 -43 30 -53 34z" />
    <glyph glyph-name="adieresis" unicode="&#xe4;" horiz-adv-x="1148" 
d="M1059 0l-141 0.000976562v105c-92.667 -86 -208 -129 -346 -129c-137.333 0 -254.666 48.667 -351.999 146s-146 214.666 -146 351.999c0 138 48.667 255.5 146 352.5s214.666 145.5 351.999 145.5c138 0 253.333 -42.667 346 -128v53h141v-897zM918 402.001v143.999
c-12.667 66.667 -44.667 126 -96 178c-69.333 69.333 -152.666 104 -249.999 104s-180.5 -34.667 -249.5 -104s-103.5 -152.666 -103.5 -249.999s34.333 -180.333 103 -249s152 -103 250 -103c97.333 0 180.666 34.667 249.999 104c51.333 51.333 83.333 110 96 176z
M515 1285.5c21.333 -21 32 -46.167 32 -75.5c0 -30.667 -10.667 -56.5 -32 -77.5s-46.333 -31.5 -75 -31.5c-30 0 -55.667 10.5 -77 31.5s-32 46.833 -32 77.5c0 29.333 10.667 54.5 32 75.5s47 31.5 77 31.5c28.667 0 53.667 -10.5 75 -31.5zM770 1285.5
c21.333 -21 32 -46.167 32 -75.5c0 -30.667 -10.667 -56.5 -32 -77.5s-46.666 -31.5 -75.999 -31.5c-30 0 -55.667 10.5 -77 31.5s-32 46.833 -32 77.5c0 29.333 10.667 54.5 32 75.5s47 31.5 77 31.5c29.333 0 54.666 -10.5 75.999 -31.5z" />
    <glyph glyph-name="aring" unicode="&#xe5;" horiz-adv-x="1148" 
d="M1059 0l-141 0.000976562v105c-92.667 -86 -208 -129 -346 -129c-137.333 0 -254.666 48.667 -351.999 146s-146 214.666 -146 351.999c0 138 48.667 255.5 146 352.5s214.666 145.5 351.999 145.5c138 0 253.333 -42.667 346 -128v53h141v-897zM918 402.001v143.999
c-12.667 66.667 -44.667 126 -96 178c-69.333 69.333 -152.666 104 -249.999 104s-180.5 -34.667 -249.5 -104s-103.5 -152.666 -103.5 -249.999s34.333 -180.333 103 -249s152 -103 250 -103c97.333 0 180.666 34.667 249.999 104c51.333 51.333 83.333 110 96 176z
M662.5 1238c26.333 -26.667 39.5 -58.667 39.5 -96s-13.167 -69.166 -39.5 -95.499s-58.166 -39.5 -95.499 -39.5c-38 0 -70.333 13.167 -97 39.5s-40 58.166 -40 95.499s13.333 69.333 40 96s59 40 97 40c37.333 0 69.166 -13.333 95.499 -40zM567 1160
c-5.33301 0 -9.66602 -1.66699 -12.999 -5s-5 -7.66602 -5 -12.999c0 -4 1.66699 -7.66699 5 -11s7.66602 -5 12.999 -5c4 0 7.66699 1.66699 11 5s5 7 5 11c0 5.33301 -1.66699 9.66602 -5 12.999s-7 5 -11 5z" />
    <glyph glyph-name="ae" unicode="&#xe6;" horiz-adv-x="1970" 
d="M918 402v143.999c-12.667 66.667 -44.667 126 -96 178c-69.333 69.333 -152.666 104 -249.999 104s-180.5 -34.667 -249.5 -104s-103.5 -152.666 -103.5 -249.999s34.333 -180.333 103 -249s152 -103 250 -103c97.333 0 180.666 34.667 249.999 104
c51.333 51.333 83.333 110 96 176zM1090 626.999l643.997 0.000976562c-8 25.333 -31.667 57.666 -71 96.999c-69.333 69.333 -152.666 104 -249.999 104s-180.666 -34.667 -249.999 -104c-41.333 -42 -65.666 -74.333 -72.999 -97zM1059 125l0.00292969 -124.997h-141v105
c-92.667 -86 -208 -129 -346 -129c-137.333 0 -254.666 48.667 -351.999 146s-146 214.666 -146 351.999c0 138 48.667 255.5 146 352.5s214.666 145.5 351.999 145.5c138 0 253.333 -42.667 346 -128v53h141v-74c0.666992 1.33301 1.66699 2.66602 3 3.99902
c97.333 96.667 214.333 145 351 145c138 0 255.667 -48.667 353 -146c86.667 -86.667 130 -200.334 130 -341.001h-837c0.666992 -104.667 35.5 -191.334 104.5 -260.001s152.167 -103 249.5 -103s180.666 34.667 249.999 104c12 12 28.333 30.333 49 55l140 -49
c-24.667 -41.333 -53.334 -77.666 -86.001 -108.999c-96.667 -98 -214.334 -147 -353.001 -147c-136.667 0 -253.667 48.667 -351 146z" />
    <glyph glyph-name="ccedilla" unicode="&#xe7;" horiz-adv-x="1033" 
d="M379 5c-66.667 24 -126.998 63 -180.998 117c-97.333 97.333 -146 215 -146 353c0 137.333 48.667 254.5 146 351.5s214.666 145.5 351.999 145.5c138 0 255.333 -48.667 352 -146c20 -19.333 46.333 -51 79 -95l-142 -52c-17.333 21.333 -30.666 36.666 -39.999 45.999
c-68.667 68.667 -151.667 103 -249 103s-180.333 -34.5 -249 -103.5s-103 -152.167 -103 -249.5c0 -98 34.333 -181.333 103 -250s151.667 -103 249 -103s180.666 34.667 249.999 104c8.66699 8.66699 21.667 23.667 39 45l142 -53c-32.667 -44 -58.667 -75.667 -78 -95
c-74.667 -75.333 -161.667 -121.666 -261 -138.999c30.667 -25.333 46 -56.333 46 -93v-10c-6.66699 -54 -35.667 -97 -87 -129c-32 -20 -71 -30 -117 -30c-28.667 0 -60.334 4 -95.001 12l25 98c30 -6.66699 55 -10 75 -10c14.667 0 26.667 1.66699 36 5
c19.333 6.66699 29 19 29 37v9c-4 22 -18 35 -42 39c-6 0.666992 -12.333 1 -19 1c-21.333 0 -47.333 -4.33301 -78 -13l-70 68z" />
    <glyph glyph-name="egrave" unicode="&#xe8;" horiz-adv-x="1068" 
d="M226 627l643.999 0.000976562c-8 25.333 -31.333 57.666 -70 96.999c-69.333 69.333 -152.666 104 -249.999 104c-98 0 -181.333 -34.667 -250 -104c-41.333 -42 -66 -74.333 -74 -97zM194.999 485.001c1.33301 -104.667 36.335 -191.332 105.002 -259.999
s152 -103 250 -103c97.333 0 180.666 34.667 249.999 104c12 12 28 30.333 48 55l140 -49c-24.667 -41.333 -53.334 -77.666 -86.001 -108.999c-96.667 -98 -214 -147 -352 -147c-137.333 0 -254.666 48.667 -351.999 146s-146 214.666 -146 351.999
c0 138 48.667 255.5 146 352.5s214.666 145.5 351.999 145.5c138 0 255.667 -48.667 353 -146c86 -86.667 129 -200.334 129 -341.001h-837zM496.001 1252l194 -223h-153l-291 223h250z" />
    <glyph glyph-name="eacute" unicode="&#xe9;" horiz-adv-x="1068" 
d="M226 627l643.999 0.000976562c-8 25.333 -31.333 57.666 -70 96.999c-69.333 69.333 -152.666 104 -249.999 104c-98 0 -181.333 -34.667 -250 -104c-41.333 -42 -66 -74.333 -74 -97zM194.999 485.001c1.33301 -104.667 36.335 -191.332 105.002 -259.999
s152 -103 250 -103c97.333 0 180.666 34.667 249.999 104c12 12 28 30.333 48 55l140 -49c-24.667 -41.333 -53.334 -77.666 -86.001 -108.999c-96.667 -98 -214 -147 -352 -147c-137.333 0 -254.666 48.667 -351.999 146s-146 214.666 -146 351.999
c0 138 48.667 255.5 146 352.5s214.666 145.5 351.999 145.5c138 0 255.667 -48.667 353 -146c86 -86.667 129 -200.334 129 -341.001h-837zM838.001 1252l-292 -223h-152l194 223h250z" />
    <glyph glyph-name="ecircumflex" unicode="&#xea;" horiz-adv-x="1068" 
d="M226 627l643.999 0.000976562c-8 25.333 -31.333 57.666 -70 96.999c-69.333 69.333 -152.666 104 -249.999 104c-98 0 -181.333 -34.667 -250 -104c-41.333 -42 -66 -74.333 -74 -97zM194.999 485.001c1.33301 -104.667 36.335 -191.332 105.002 -259.999
s152 -103 250 -103c97.333 0 180.666 34.667 249.999 104c12 12 28 30.333 48 55l140 -49c-24.667 -41.333 -53.334 -77.666 -86.001 -108.999c-96.667 -98 -214 -147 -352 -147c-137.333 0 -254.666 48.667 -351.999 146s-146 214.666 -146 351.999
c0 138 48.667 255.5 146 352.5s214.666 145.5 351.999 145.5c138 0 255.667 -48.667 353 -146c86 -86.667 129 -200.334 129 -341.001h-837zM594.001 1283l267 -263h-177l-147 113l-138 -113h-177l257 263h115z" />
    <glyph glyph-name="edieresis" unicode="&#xeb;" horiz-adv-x="1068" 
d="M226 627l643.999 0.000976562c-8 25.333 -31.333 57.666 -70 96.999c-69.333 69.333 -152.666 104 -249.999 104c-98 0 -181.333 -34.667 -250 -104c-41.333 -42 -66 -74.333 -74 -97zM194.999 485.001c1.33301 -104.667 36.335 -191.332 105.002 -259.999
s152 -103 250 -103c97.333 0 180.666 34.667 249.999 104c12 12 28 30.333 48 55l140 -49c-24.667 -41.333 -53.334 -77.666 -86.001 -108.999c-96.667 -98 -214 -147 -352 -147c-137.333 0 -254.666 48.667 -351.999 146s-146 214.666 -146 351.999
c0 138 48.667 255.5 146 352.5s214.666 145.5 351.999 145.5c138 0 255.667 -48.667 353 -146c86 -86.667 129 -200.334 129 -341.001h-837zM491.001 1285.5c21.333 -21 32 -46.167 32 -75.5c0 -30.667 -10.667 -56.5 -32 -77.5s-46.666 -31.5 -75.999 -31.5
c-30 0 -55.667 10.5 -77 31.5s-32 46.833 -32 77.5c0 29.333 10.667 54.5 32 75.5s47 31.5 77 31.5c29.333 0 54.666 -10.5 75.999 -31.5zM745.001 1285.5c21.333 -21 32 -46.167 32 -75.5c0 -30.667 -10.667 -56.5 -32 -77.5s-46.333 -31.5 -75 -31.5
c-30 0 -55.667 10.5 -77 31.5s-32 46.833 -32 77.5c0 29.333 10.667 54.5 32 75.5s47 31.5 77 31.5c28.667 0 53.667 -10.5 75 -31.5z" />
    <glyph glyph-name="igrave" unicode="&#xec;" horiz-adv-x="522" 
d="M341 897v-897h-140v897h140zM241 1252l194 -223h-153l-291 223h250z" />
    <glyph glyph-name="iacute" unicode="&#xed;" horiz-adv-x="522" 
d="M321 897v-897h-140v897h140zM533 1252l-293 -223h-152l194 223h251z" />
    <glyph glyph-name="icircumflex" unicode="&#xee;" horiz-adv-x="503" 
d="M320 897v-897h-140v897h140zM303 1283l268 -263h-177l-147 113l-138 -113h-177l256 263h115z" />
    <glyph glyph-name="idieresis" unicode="&#xef;" horiz-adv-x="416" 
d="M279 897v-897h-140v897h140zM158 1285.5c21.333 -21 32 -46.167 32 -75.5c0 -30.667 -10.667 -56.5 -32 -77.5s-46.666 -31.5 -75.999 -31.5c-30 0 -55.667 10.5 -77 31.5s-32 46.833 -32 77.5c0 29.333 10.667 54.5 32 75.5s47 31.5 77 31.5
c29.333 0 54.666 -10.5 75.999 -31.5zM412 1285.5c21.333 -21 32 -46.167 32 -75.5c0 -30.667 -10.667 -56.5 -32 -77.5s-46.666 -31.5 -75.999 -31.5c-30 0 -55.667 10.5 -77 31.5s-32 46.833 -32 77.5c0 29.333 10.667 54.5 32 75.5s47 31.5 77 31.5
c29.333 0 54.666 -10.5 75.999 -31.5z" />
    <glyph glyph-name="eth" unicode="&#xf0;" horiz-adv-x="1139" 
d="M217 474c0 -97.333 34.333 -180.333 103 -249s152 -103 250 -103c97.333 0 180.5 34.333 249.5 103s103.5 151.667 103.5 249s-34.5 180.666 -103.5 249.999s-152.167 104 -249.5 104s-180.5 -34.667 -249.5 -104s-103.5 -152.666 -103.5 -249.999zM922 827
c96.667 -97.333 145 -215 145 -353c0 -137.333 -48.333 -254.666 -145 -351.999s-214 -146 -352 -146c-137.333 0 -254.666 48.667 -351.999 146s-146 214.666 -146 351.999c0 138 48.667 255.5 146 352.5s214.666 145.5 351.999 145.5l-96 87l-124 -124h-200l224 224
l-222 220h198l123 -121l118 118h200l-218 -217z" />
    <glyph glyph-name="ntilde" unicode="&#xf1;" 
d="M240 672v-672h-141v897h141v-8c38.667 38.667 108.667 58 210 58c107.333 0 195 -34 263 -102s102.667 -153 104 -255v-590h-140v582c0 62 -22.5 114.833 -67.5 158.5s-98.167 65.5 -159.5 65.5s-114.333 -21.333 -159 -64c-24.667 -24.667 -41.667 -48 -51 -70z
M375 1133c-2 -2 -3.33301 -4.66699 -4 -8c-2 -6 -3 -31.667 -3 -77l-127 28c1.33301 44.667 5 75.667 11 93c14.667 44.667 40.667 74.667 78 90c10.667 5.33301 23 8 37 8c33.333 0 73 -16.667 119 -50c28.667 -21.333 47.334 -33.333 56.001 -36c0 1.33301 0.666992 4 2 8
c1.33301 6 2 31.667 2 77l129 -25c-2.66699 -45.333 -7 -77 -13 -95c-14.667 -44 -40.667 -74.333 -78 -91c-12 -4 -24 -6 -36 -6c-32.667 0 -72.334 16.667 -119.001 50c-26 18.667 -44 30 -54 34z" />
    <glyph glyph-name="ograve" unicode="&#xf2;" horiz-adv-x="1139" 
d="M570 972c138 0 255.333 -48.5 352 -145.5s145 -214.5 145 -352.5c0 -137.333 -48.333 -254.666 -145 -351.999s-214 -146 -352 -146c-137.333 0 -254.666 48.667 -351.999 146s-146 214.666 -146 351.999c0 138 48.667 255.5 146 352.5s214.666 145.5 351.999 145.5z
M320.5 724c-69 -69.333 -103.5 -152.666 -103.5 -249.999s34.333 -180.333 103 -249s152 -103 250 -103c97.333 0 180.5 34.333 249.5 103s103.5 151.667 103.5 249s-34.5 180.666 -103.5 249.999s-152.167 104 -249.5 104s-180.5 -34.667 -249.5 -104zM539 1252l194 -223
h-153l-291 223h250z" />
    <glyph glyph-name="oacute" unicode="&#xf3;" horiz-adv-x="1139" 
d="M570 972c138 0 255.333 -48.5 352 -145.5s145 -214.5 145 -352.5c0 -137.333 -48.333 -254.666 -145 -351.999s-214 -146 -352 -146c-137.333 0 -254.666 48.667 -351.999 146s-146 214.666 -146 351.999c0 138 48.667 255.5 146 352.5s214.666 145.5 351.999 145.5z
M320.5 724c-69 -69.333 -103.5 -152.666 -103.5 -249.999s34.333 -180.333 103 -249s152 -103 250 -103c97.333 0 180.5 34.333 249.5 103s103.5 151.667 103.5 249s-34.5 180.666 -103.5 249.999s-152.167 104 -249.5 104s-180.5 -34.667 -249.5 -104zM851 1252l-293 -223
h-152l194 223h251z" />
    <glyph glyph-name="ocircumflex" unicode="&#xf4;" horiz-adv-x="1139" 
d="M570 972c138 0 255.333 -48.5 352 -145.5s145 -214.5 145 -352.5c0 -137.333 -48.333 -254.666 -145 -351.999s-214 -146 -352 -146c-137.333 0 -254.666 48.667 -351.999 146s-146 214.666 -146 351.999c0 138 48.667 255.5 146 352.5s214.666 145.5 351.999 145.5z
M320.5 724c-69 -69.333 -103.5 -152.666 -103.5 -249.999s34.333 -180.333 103 -249s152 -103 250 -103c97.333 0 180.5 34.333 249.5 103s103.5 151.667 103.5 249s-34.5 180.666 -103.5 249.999s-152.167 104 -249.5 104s-180.5 -34.667 -249.5 -104zM623 1283l268 -263
h-178l-147 113l-138 -113h-176l256 263h115z" />
    <glyph glyph-name="otilde" unicode="&#xf5;" horiz-adv-x="1139" 
d="M570 972c138 0 255.333 -48.5 352 -145.5s145 -214.5 145 -352.5c0 -137.333 -48.333 -254.666 -145 -351.999s-214 -146 -352 -146c-137.333 0 -254.666 48.667 -351.999 146s-146 214.666 -146 351.999c0 138 48.667 255.5 146 352.5s214.666 145.5 351.999 145.5z
M320.5 724c-69 -69.333 -103.5 -152.666 -103.5 -249.999s34.333 -180.333 103 -249s152 -103 250 -103c97.333 0 180.5 34.333 249.5 103s103.5 151.667 103.5 249s-34.5 180.666 -103.5 249.999s-152.167 104 -249.5 104s-180.5 -34.667 -249.5 -104zM487 1133
c-2 -2 -3.33203 -4.66699 -3.99902 -8c-2 -6 -3 -31.667 -3 -77l-127 28c1.33301 44.667 5 75.667 11 93c14.667 44.667 40.667 74.667 78 90c10.667 5.33301 23 8 37 8c33.333 0 73 -16.667 119 -50c28 -21.333 46.667 -33.333 56 -36c0 1.33301 0.666992 4 2 8
c1.33301 6 2 31.667 2 77l129 -25c-2.66699 -45.333 -7 -77 -13 -95c-14.667 -44 -40.667 -74.333 -78 -91c-12 -4 -24 -6 -36 -6c-32.667 0 -72.334 16.667 -119.001 50c-26 18.667 -44 30 -54 34z" />
    <glyph glyph-name="odieresis" unicode="&#xf6;" horiz-adv-x="1139" 
d="M570 972c138 0 255.333 -48.5 352 -145.5s145 -214.5 145 -352.5c0 -137.333 -48.333 -254.666 -145 -351.999s-214 -146 -352 -146c-137.333 0 -254.666 48.667 -351.999 146s-146 214.666 -146 351.999c0 138 48.667 255.5 146 352.5s214.666 145.5 351.999 145.5z
M320.5 724c-69 -69.333 -103.5 -152.666 -103.5 -249.999s34.333 -180.333 103 -249s152 -103 250 -103c97.333 0 180.5 34.333 249.5 103s103.5 151.667 103.5 249s-34.5 180.666 -103.5 249.999s-152.167 104 -249.5 104s-180.5 -34.667 -249.5 -104zM519 1285.5
c21.333 -21 32 -46.167 32 -75.5c0 -30.667 -10.667 -56.5 -32 -77.5s-46.666 -31.5 -75.999 -31.5c-30 0 -55.667 10.5 -77 31.5s-32 46.833 -32 77.5c0 29.333 10.667 54.5 32 75.5s47 31.5 77 31.5c29.333 0 54.666 -10.5 75.999 -31.5zM773 1285.5
c21.333 -21 32 -46.167 32 -75.5c0 -30.667 -10.667 -56.5 -32 -77.5s-46.666 -31.5 -75.999 -31.5s-54.833 10.5 -76.5 31.5s-32.5 46.833 -32.5 77.5c0 29.333 10.833 54.5 32.5 75.5s47.167 31.5 76.5 31.5s54.666 -10.5 75.999 -31.5z" />
    <glyph glyph-name="divide" unicode="&#xf7;" horiz-adv-x="1098" 
d="M85 464v140h928v-140h-928zM626 315c21.333 -20.667 32 -46.334 32 -77.001c0 -30 -10.667 -55.333 -32 -76s-46.666 -31 -75.999 -31c-30 0 -55.667 10.333 -77 31s-32 46 -32 76c0 30.667 10.667 56.334 32 77.001s47 31 77 31c29.333 0 54.666 -10.333 75.999 -31z
M626 907.5c21.333 -21 32 -46.5 32 -76.5s-10.667 -55.5 -32 -76.5s-46.666 -31.5 -75.999 -31.5c-30 0 -55.667 10.5 -77 31.5s-32 46.5 -32 76.5s10.667 55.5 32 76.5s47 31.5 77 31.5c29.333 0 54.666 -10.5 75.999 -31.5z" />
    <glyph glyph-name="oslash" unicode="&#xf8;" horiz-adv-x="1105" 
d="M788 741l-349 -602.999c22.667 -10 60.667 -15 114 -15c97.333 0 180.5 34.167 249.5 102.5s103.5 151.5 103.5 249.5c0 97.333 -34.333 180.666 -103 249.999c-8 8 -13 13.333 -15 16zM319 208.001l348.001 604c-23.333 10.667 -61.333 16 -114 16
c-98 0 -181.333 -34.5 -250 -103.5s-103 -152.167 -103 -249.5c0 -98 34.333 -181 103 -249c9.33301 -9.33301 14.666 -15.333 15.999 -18zM246.001 82.001c-8.66699 6 -23.666 19.667 -44.999 41c-97.333 97.333 -146 214.666 -146 351.999c0 138 48.667 255.5 146 352.5
s214.666 145.5 351.999 145.5c77.333 0 140 -11.333 188 -34l103 181l124 -65l-107 -186c8 -6 23 -20 45 -42c96 -96.667 144 -214 144 -352c0 -137.333 -48.333 -254.666 -145 -351.999s-214 -146 -352 -146c-78 0 -140.333 11.333 -187 34l-105 -180l-125 59z" />
    <glyph glyph-name="ugrave" unicode="&#xf9;" 
d="M463 -12c-113.333 0 -203.834 33.832 -271.501 101.499s-102.5 153.167 -104.5 256.5v552h141v-545c0 -61.333 22.333 -114 67 -158c44.667 -44.667 100.334 -67 167.001 -67c61.333 0 114.333 22 159 66s67 97 67 159v545h141v-552
c-2 -103.333 -37 -188.666 -105 -255.999c-67.333 -68 -154.333 -102 -261 -102zM426.999 1252l194 -223h-153l-291 223h250z" />
    <glyph glyph-name="uacute" unicode="&#xfa;" 
d="M463 -12c-113.333 0 -203.834 33.832 -271.501 101.499s-102.5 153.167 -104.5 256.5v552h141v-545c0 -61.333 22.333 -114 67 -158c44.667 -44.667 100.334 -67 167.001 -67c61.333 0 114.333 22 159 66s67 97 67 159v545h141v-552
c-2 -103.333 -37 -188.666 -105 -255.999c-67.333 -68 -154.333 -102 -261 -102zM738.999 1252l-292 -223h-153l194 223h251z" />
    <glyph glyph-name="ucircumflex" unicode="&#xfb;" 
d="M463 -12c-113.333 0 -203.834 33.832 -271.501 101.499s-102.5 153.167 -104.5 256.5v552h141v-545c0 -61.333 22.333 -114 67 -158c44.667 -44.667 100.334 -67 167.001 -67c61.333 0 114.333 22 159 66s67 97 67 159v545h141v-552
c-2 -103.333 -37 -188.666 -105 -255.999c-67.333 -68 -154.333 -102 -261 -102zM510.999 1283l268 -263h-177l-147 113l-138 -113h-177l256 263h115z" />
    <glyph glyph-name="udieresis" unicode="&#xfc;" 
d="M463 -12c-113.333 0 -203.834 33.832 -271.501 101.499s-102.5 153.167 -104.5 256.5v552h141v-545c0 -61.333 22.333 -114 67 -158c44.667 -44.667 100.334 -67 167.001 -67c61.333 0 114.333 22 159 66s67 97 67 159v545h141v-552
c-2 -103.333 -37 -188.666 -105 -255.999c-67.333 -68 -154.333 -102 -261 -102zM406.999 1285.5c21.333 -21 32 -46.167 32 -75.5c0 -30.667 -10.667 -56.5 -32 -77.5s-46.666 -31.5 -75.999 -31.5c-30 0 -55.667 10.5 -77 31.5s-32 46.833 -32 77.5
c0 29.333 10.667 54.5 32 75.5s47 31.5 77 31.5c29.333 0 54.666 -10.5 75.999 -31.5zM660.999 1285.5c21.333 -21 32 -46.167 32 -75.5c0 -30.667 -10.667 -56.5 -32 -77.5s-46.333 -31.5 -75 -31.5c-30 0 -55.667 10.5 -77 31.5s-32 46.833 -32 77.5
c0 29.333 10.667 54.5 32 75.5s47 31.5 77 31.5c28.667 0 53.667 -10.5 75 -31.5z" />
    <glyph glyph-name="yacute" unicode="&#xfd;" horiz-adv-x="849" 
d="M488 156l-220 -473h-156l235 504l-332 710h156l253 -538l255 538h156l-346 -741h-1zM706 1252l-292 -223h-152l194 223h250z" />
    <glyph glyph-name="thorn" unicode="&#xfe;" horiz-adv-x="1136" 
d="M233 550v-152.999c12 -64.667 43.667 -122 95 -172c69.333 -69.333 152.666 -104 249.999 -104s180.5 34.333 249.5 103s103.5 152 103.5 250c0 97.333 -34.5 180.666 -103.5 249.999s-152.167 104 -249.5 104s-180.666 -34.667 -249.999 -104
c-51.333 -51.333 -83 -109.333 -95 -174zM92 1424l141 -0.000976562v-578c92.667 83.333 207.667 125 345 125s254.666 -48.333 351.999 -145s146 -214 146 -352c0 -137.333 -48.667 -254.666 -146 -351.999s-214.666 -146 -351.999 -146s-235 29.333 -293 88
c-24.667 24.667 -42 41 -52 49v-431h-141v1742z" />
    <glyph glyph-name="ydieresis" unicode="&#xff;" horiz-adv-x="849" 
d="M488 156l-220 -473h-156l235 504l-332 710h156l253 -538l255 538h156l-346 -741h-1zM374 1285.5c21.333 -21 32 -46.167 32 -75.5c0 -30.667 -10.667 -56.5 -32 -77.5s-46.333 -31.5 -75 -31.5c-30 0 -55.667 10.5 -77 31.5s-32 46.833 -32 77.5
c0 29.333 10.667 54.5 32 75.5s47 31.5 77 31.5c28.667 0 53.667 -10.5 75 -31.5zM629 1285.5c21.333 -21 32 -46.167 32 -75.5c0 -30.667 -10.667 -56.5 -32 -77.5s-46.666 -31.5 -75.999 -31.5c-30 0 -55.667 10.5 -77 31.5s-32 46.833 -32 77.5
c0 29.333 10.667 54.5 32 75.5s47 31.5 77 31.5c29.333 0 54.666 -10.5 75.999 -31.5z" />
    <glyph glyph-name="Amacron" unicode="&#x100;" horiz-adv-x="1162" 
d="M743 737l-161 444l-161 -444h322zM644 1421l516 -1421h-149l-217 597h-424l-221 -597h-150l522 1421h123zM298 1648h564v-124h-564v124z" />
    <glyph glyph-name="amacron" unicode="&#x101;" horiz-adv-x="1148" 
d="M1059 0l-141 0.000976562v105c-92.667 -86 -208 -129 -346 -129c-137.333 0 -254.666 48.667 -351.999 146s-146 214.666 -146 351.999c0 138 48.667 255.5 146 352.5s214.666 145.5 351.999 145.5c138 0 253.333 -42.667 346 -128v53h141v-897zM918 402.001v143.999
c-12.667 66.667 -44.667 126 -96 178c-69.333 69.333 -152.666 104 -249.999 104s-180.5 -34.667 -249.5 -104s-103.5 -152.666 -103.5 -249.999s34.333 -180.333 103 -249s152 -103 250 -103c97.333 0 180.666 34.667 249.999 104c51.333 51.333 83.333 110 96 176z
M284 1201h564v-124h-564v124z" />
    <glyph glyph-name="Abreve" unicode="&#x102;" horiz-adv-x="1162" 
d="M743 737l-161 444l-161 -444h322zM644 1421l516 -1421h-149l-217 597h-424l-221 -597h-150l522 1421h123zM471 1742c6 -41.333 17.334 -70.001 34.001 -86.001c20.667 -21.333 46 -32 76 -32c29.333 0 54.333 10.667 75 32c17.333 16 28.666 44.667 33.999 86h124
c-7.33301 -77.333 -30.666 -135.666 -69.999 -174.999c-44.667 -45.333 -99 -68 -163 -68c-64.667 0 -119.334 22.667 -164.001 68c-42.667 42.667 -66 101 -70 175h124z" />
    <glyph glyph-name="abreve" unicode="&#x103;" horiz-adv-x="1148" 
d="M1059 0l-141 0.000976562v105c-92.667 -86 -208 -129 -346 -129c-137.333 0 -254.666 48.667 -351.999 146s-146 214.666 -146 351.999c0 138 48.667 255.5 146 352.5s214.666 145.5 351.999 145.5c138 0 253.333 -42.667 346 -128v53h141v-897zM918 402.001v143.999
c-12.667 66.667 -44.667 126 -96 178c-69.333 69.333 -152.666 104 -249.999 104s-180.5 -34.667 -249.5 -104s-103.5 -152.666 -103.5 -249.999s34.333 -180.333 103 -249s152 -103 250 -103c97.333 0 180.666 34.667 249.999 104c51.333 51.333 83.333 110 96 176z
M456 1295c6.66699 -41.333 18.332 -70 34.999 -86c20.667 -21.333 46 -32 76 -32c28.667 0 53.667 10.667 75 32c16.667 16 27.667 44.667 33 86h125c-7.33301 -78 -30.666 -136.667 -69.999 -176c-44.667 -45.333 -99 -68 -163 -68c-65.333 0 -120.333 22.667 -165 68
c-42 43.333 -65 102 -69 176h123z" />
    <glyph glyph-name="Aogonek" unicode="&#x104;" horiz-adv-x="1162" 
d="M743 737l-161 444l-161 -444h322zM977 95l-183.001 502h-424l-221 -597h-150l522 1421h123l516 -1421h-97c-27.333 -9.33301 -47.333 -19.666 -60 -30.999c-12 -10 -18.333 -22 -19 -36v-5c0 -13.333 4.66699 -25.333 14 -36s21.333 -16.334 36 -17.001h1
c14 0 40.333 12.667 79 38l38 -107l-21 -16c-26 -22.667 -57.667 -34 -95 -34h-13c-46 3.33301 -84.333 22.666 -115 57.999c-28 32.667 -42 69.334 -42 110.001c0 6 0.333008 11.667 1 17c4 47.333 24 86.333 60 117c28.667 24 45.334 36.333 50.001 37z" />
    <glyph glyph-name="aogonek" unicode="&#x105;" horiz-adv-x="1148" 
d="M918 402v143.999c-12.667 66.667 -44.667 126 -96 178c-69.333 69.333 -152.666 104 -249.999 104s-180.5 -34.667 -249.5 -104s-103.5 -152.666 -103.5 -249.999s34.333 -180.333 103 -249s152 -103 250 -103c97.333 0 180.666 34.667 249.999 104
c51.333 51.333 83.333 110 96 176zM804 25.999c-68.667 -33.333 -146.001 -49.998 -232.001 -49.998c-137.333 0 -254.666 48.667 -351.999 146s-146 214.666 -146 351.999c0 138 48.667 255.5 146 352.5s214.666 145.5 351.999 145.5c138 0 253.333 -42.667 346 -128v53
h141v-897h-85c-33.333 -12 -55 -22.333 -65 -31c-11.333 -10 -17.333 -22 -18 -36v-5c0 -13.333 4.33301 -25.333 13 -36c9.33301 -10.667 21.333 -16.334 36 -17.001h1c14.667 0 41.334 12.667 80.001 38l38 -107l-22 -16c-26 -22.667 -57.667 -34 -95 -34h-12
c-46 3.33301 -84.667 22.666 -116 57.999c-27.333 32.667 -41 69.334 -41 110.001c0 6 0.333008 11.667 1 17c2.66699 32.667 12.667 61 30 85zM917.999 96.001v9c-4 -3.33301 -8 -7 -12 -11c4 1.33301 8 2 12 2z" />
    <glyph glyph-name="Cacute" unicode="&#x106;" horiz-adv-x="1379" 
d="M1210 291l106 -95c-156 -141.333 -327.667 -212 -515 -212c-201.333 0 -372.833 70.833 -514.5 212.5s-212.5 313.167 -212.5 514.5c0 200 70.833 371.167 212.5 513.5s313.167 213.5 514.5 213.5c187.333 0 359 -71.333 515 -214l-106 -94
c-124.667 110 -261 165 -409 165c-161.333 0 -299.166 -57 -413.499 -171s-171.5 -251.667 -171.5 -413c0 -162 57.167 -300.167 171.5 -414.5s252.166 -171.5 413.499 -171.5c148 0 284.333 55.333 409 166zM1065 1776l-293 -223h-152l194 223h251z" />
    <glyph glyph-name="cacute" unicode="&#x107;" horiz-adv-x="1033" 
d="M839 271l142 -52.999c-32.667 -44 -58.667 -75.667 -78 -95c-97.333 -98 -215 -147 -353 -147c-137.333 0 -254.666 48.667 -351.999 146s-146 215 -146 353c0 137.333 48.667 254.5 146 351.5s214.666 145.5 351.999 145.5c138 0 255.333 -48.667 352 -146
c20 -19.333 46.333 -51 79 -95l-142 -52c-17.333 21.333 -30.666 36.666 -39.999 45.999c-68.667 68.667 -151.667 103 -249 103s-180.333 -34.5 -249 -103.5s-103 -152.167 -103 -249.5c0 -98 34.333 -181.333 103 -250s151.667 -103 249 -103s180.666 34.667 249.999 104
c8.66699 8.66699 21.667 23.667 39 45zM837 1252l-293 -223h-152l194 223h251z" />
    <glyph glyph-name="Ccircumflex" unicode="&#x108;" horiz-adv-x="1379" 
d="M1210 291l106 -95c-156 -141.333 -327.667 -212 -515 -212c-201.333 0 -372.833 70.833 -514.5 212.5s-212.5 313.167 -212.5 514.5c0 200 70.833 371.167 212.5 513.5s313.167 213.5 514.5 213.5c187.333 0 359 -71.333 515 -214l-106 -94
c-124.667 110 -261 165 -409 165c-161.333 0 -299.166 -57 -413.499 -171s-171.5 -251.667 -171.5 -413c0 -162 57.167 -300.167 171.5 -414.5s252.166 -171.5 413.499 -171.5c148 0 284.333 55.333 409 166zM836 1807l268 -262h-177l-147 112l-138 -112h-177l256 262h115z
" />
    <glyph glyph-name="ccircumflex" unicode="&#x109;" horiz-adv-x="1033" 
d="M839 271l142 -52.999c-32.667 -44 -58.667 -75.667 -78 -95c-97.333 -98 -215 -147 -353 -147c-137.333 0 -254.666 48.667 -351.999 146s-146 215 -146 353c0 137.333 48.667 254.5 146 351.5s214.666 145.5 351.999 145.5c138 0 255.333 -48.667 352 -146
c20 -19.333 46.333 -51 79 -95l-142 -52c-17.333 21.333 -30.666 36.666 -39.999 45.999c-68.667 68.667 -151.667 103 -249 103s-180.333 -34.5 -249 -103.5s-103 -152.167 -103 -249.5c0 -98 34.333 -181.333 103 -250s151.667 -103 249 -103s180.666 34.667 249.999 104
c8.66699 8.66699 21.667 23.667 39 45zM608 1283l268 -263h-178l-147 113l-138 -113h-176l256 263h115z" />
    <glyph glyph-name="Cdotaccent" unicode="&#x10a;" horiz-adv-x="1379" 
d="M1210 291l106 -95c-156 -141.333 -327.667 -212 -515 -212c-201.333 0 -372.833 70.833 -514.5 212.5s-212.5 313.167 -212.5 514.5c0 200 70.833 371.167 212.5 513.5s313.167 213.5 514.5 213.5c187.333 0 359 -71.333 515 -214l-106 -94
c-124.667 110 -261 165 -409 165c-161.333 0 -299.166 -57 -413.499 -171s-171.5 -251.667 -171.5 -413c0 -162 57.167 -300.167 171.5 -414.5s252.166 -171.5 413.499 -171.5c148 0 284.333 55.333 409 166zM851.5 1790c19 -18.667 28.5 -41.334 28.5 -68.001
c0 -27.333 -9.5 -50.333 -28.5 -69s-41.5 -28 -67.5 -28c-26.667 0 -49.667 9.33301 -69 28s-29 41.667 -29 69c0 26.667 9.66699 49.334 29 68.001s42.333 28 69 28c26 0 48.5 -9.33301 67.5 -28z" />
    <glyph glyph-name="cdotaccent" unicode="&#x10b;" horiz-adv-x="1033" 
d="M839 271l142 -52.999c-32.667 -44 -58.667 -75.667 -78 -95c-97.333 -98 -215 -147 -353 -147c-137.333 0 -254.666 48.667 -351.999 146s-146 215 -146 353c0 137.333 48.667 254.5 146 351.5s214.666 145.5 351.999 145.5c138 0 255.333 -48.667 352 -146
c20 -19.333 46.333 -51 79 -95l-142 -52c-17.333 21.333 -30.666 36.666 -39.999 45.999c-68.667 68.667 -151.667 103 -249 103s-180.333 -34.5 -249 -103.5s-103 -152.167 -103 -249.5c0 -98 34.333 -181.333 103 -250s151.667 -103 249 -103s180.666 34.667 249.999 104
c8.66699 8.66699 21.667 23.667 39 45zM623 1266c19.333 -18.667 29 -41.667 29 -69c0 -26.667 -9.66699 -49.334 -29 -68.001s-42 -28 -68 -28c-26.667 0 -49.5 9.33301 -68.5 28s-28.5 41.334 -28.5 68.001c0 27.333 9.5 50.333 28.5 69s41.833 28 68.5 28
c26 0 48.667 -9.33301 68 -28z" />
    <glyph glyph-name="Ccaron" unicode="&#x10c;" horiz-adv-x="1379" 
d="M1210 291l106 -95c-156 -141.333 -327.667 -212 -515 -212c-201.333 0 -372.833 70.833 -514.5 212.5s-212.5 313.167 -212.5 514.5c0 200 70.833 371.167 212.5 513.5s313.167 213.5 514.5 213.5c187.333 0 359 -71.333 515 -214l-106 -94
c-124.667 110 -261 165 -409 165c-161.333 0 -299.166 -57 -413.499 -171s-171.5 -251.667 -171.5 -413c0 -162 57.167 -300.167 171.5 -414.5s252.166 -171.5 413.499 -171.5c148 0 284.333 55.333 409 166zM721 1545l-256 262h177l138 -112l147 112h177l-268 -262h-115z
" />
    <glyph glyph-name="ccaron" unicode="&#x10d;" horiz-adv-x="1033" 
d="M839 271l142 -52.999c-32.667 -44 -58.667 -75.667 -78 -95c-97.333 -98 -215 -147 -353 -147c-137.333 0 -254.666 48.667 -351.999 146s-146 215 -146 353c0 137.333 48.667 254.5 146 351.5s214.666 145.5 351.999 145.5c138 0 255.333 -48.667 352 -146
c20 -19.333 46.333 -51 79 -95l-142 -52c-17.333 21.333 -30.666 36.666 -39.999 45.999c-68.667 68.667 -151.667 103 -249 103s-180.333 -34.5 -249 -103.5s-103 -152.167 -103 -249.5c0 -98 34.333 -181.333 103 -250s151.667 -103 249 -103s180.666 34.667 249.999 104
c8.66699 8.66699 21.667 23.667 39 45zM493 1020l-256 263h176l138 -112l147 112h178l-268 -263h-115z" />
    <glyph glyph-name="Dcaron" unicode="&#x10e;" horiz-adv-x="1212" 
d="M396 1421c232 -1.33301 412.667 -66.668 542 -196.001c141.333 -142.667 212 -314 212 -514c0 -201.333 -70.667 -373 -212 -515c-129.333 -129.333 -310 -194.666 -542 -195.999h-284v1421h284zM253 1278v-1135h142c186 0 332.333 51.333 439 154
c114 114 171 252 171 414c0 161.333 -57 299.333 -171 414c-106.667 102 -253 153 -439 153h-142zM569 1545l-256 262h176l138 -112l147 112h178l-268 -262h-115z" />
    <glyph glyph-name="dcaron" unicode="&#x10f;" horiz-adv-x="1285" 
d="M1059 0l-141 0.000976562v105c-92.667 -86 -208 -129 -346 -129c-137.333 0 -254.666 48.667 -351.999 146s-146 214.666 -146 351.999c0 138 48.667 255.5 146 352.5s214.666 145.5 351.999 145.5c138 0 253.333 -42.667 346 -128v577h141v-1421zM918 402.001v143.999
c-12.667 66.667 -44.667 126 -96 178c-69.333 69.333 -152.666 104 -249.999 104s-180.5 -34.667 -249.5 -104s-103.5 -152.666 -103.5 -249.999s34.333 -180.333 103 -249s152 -103 250 -103c97.333 0 180.666 34.667 249.999 104c51.333 51.333 83.333 110 96 176z
M1114 1225l-12.998 20.999c-21.333 20.667 -32 46.334 -32 77.001s10.667 56.167 32 76.5s46.666 30.5 75.999 30.5s54.666 -10.167 75.999 -30.5s32 -45.833 32 -76.5c0 -16 -2.66699 -31.333 -8 -46l-93 -187h-121z" />
    <glyph glyph-name="Dcroat" unicode="&#x110;" horiz-adv-x="1279" 
d="M284 640v-497h141c186.667 0 333.334 51.333 440.001 154c114 114 171 252 171 414c0 161.333 -57 299.333 -171 414c-106.667 102 -253.334 153 -440.001 153h-141v-497h472v-141h-472zM143 781v639.998h283c232.667 -1.33301 413.334 -66.666 542.001 -195.999
c142 -142.667 213 -314 213 -514c0 -201.333 -71 -373 -213 -515c-128.667 -129.333 -309.334 -194.666 -542.001 -195.999h-283v640h-123v141h123z" />
    <glyph glyph-name="dcroat" unicode="&#x111;" horiz-adv-x="1166" 
d="M918 402v143.999c-12.667 66.667 -44.667 126 -96 178c-69.333 69.333 -152.666 104 -249.999 104s-180.5 -34.667 -249.5 -104s-103.5 -152.666 -103.5 -249.999s34.333 -180.333 103 -249s152 -103 250 -103c97.333 0 180.666 34.667 249.999 104
c51.333 51.333 83.333 110 96 176zM1059 1089v-1089h-141v105c-92.667 -86 -208 -129 -346 -129c-137.333 0 -254.666 48.667 -351.999 146s-146 214.666 -146 351.999c0 138 48.667 255.5 146 352.5s214.666 145.5 351.999 145.5c138 0 253.333 -42.667 346 -128v245h-294
v139h294v193h141v-193h109v-139h-109z" />
    <glyph glyph-name="Emacron" unicode="&#x112;" horiz-adv-x="967" 
d="M855 1421v-140h-602v-500h602v-141h-602v-499h602v-141h-743v1421h743zM201 1725h564v-124h-564v124z" />
    <glyph glyph-name="emacron" unicode="&#x113;" horiz-adv-x="1068" 
d="M226 627l643.999 0.000976562c-8 25.333 -31.333 57.666 -70 96.999c-69.333 69.333 -152.666 104 -249.999 104c-98 0 -181.333 -34.667 -250 -104c-41.333 -42 -66 -74.333 -74 -97zM194.999 485.001c1.33301 -104.667 36.335 -191.332 105.002 -259.999
s152 -103 250 -103c97.333 0 180.666 34.667 249.999 104c12 12 28 30.333 48 55l140 -49c-24.667 -41.333 -53.334 -77.666 -86.001 -108.999c-96.667 -98 -214 -147 -352 -147c-137.333 0 -254.666 48.667 -351.999 146s-146 214.666 -146 351.999
c0 138 48.667 255.5 146 352.5s214.666 145.5 351.999 145.5c138 0 255.667 -48.667 353 -146c86 -86.667 129 -200.334 129 -341.001h-837zM260.001 1201h564v-124h-564v124z" />
    <glyph glyph-name="Ebreve" unicode="&#x114;" horiz-adv-x="967" 
d="M855 1421v-140h-602v-500h602v-141h-602v-499h602v-141h-743v1421h743zM374 1819c6 -41.333 17.666 -70 34.999 -86c20.667 -21.333 46 -32 76 -32c28.667 0 53.334 10.667 74.001 32c17.333 16 28.666 44.667 33.999 86h125c-7.33301 -78 -30.666 -136.667 -69.999 -176
c-44.667 -45.333 -99 -68 -163 -68c-65.333 0 -120.333 22.667 -165 68c-42 43.333 -65.333 102 -70 176h124z" />
    <glyph glyph-name="ebreve" unicode="&#x115;" horiz-adv-x="1068" 
d="M226 627l643.999 0.000976562c-8 25.333 -31.333 57.666 -70 96.999c-69.333 69.333 -152.666 104 -249.999 104c-98 0 -181.333 -34.667 -250 -104c-41.333 -42 -66 -74.333 -74 -97zM194.999 485.001c1.33301 -104.667 36.335 -191.332 105.002 -259.999
s152 -103 250 -103c97.333 0 180.666 34.667 249.999 104c12 12 28 30.333 48 55l140 -49c-24.667 -41.333 -53.334 -77.666 -86.001 -108.999c-96.667 -98 -214 -147 -352 -147c-137.333 0 -254.666 48.667 -351.999 146s-146 214.666 -146 351.999
c0 138 48.667 255.5 146 352.5s214.666 145.5 351.999 145.5c138 0 255.667 -48.667 353 -146c86 -86.667 129 -200.334 129 -341.001h-837zM432.001 1295c6 -41.333 17.332 -70 33.999 -86c21.333 -21.333 47 -32 77 -32c28.667 0 53.334 10.667 74.001 32
c17.333 16 28.666 44.667 33.999 86h125c-7.33301 -78 -30.666 -136.667 -69.999 -176c-44.667 -45.333 -99 -68 -163 -68c-65.333 0 -120.333 22.667 -165 68c-42 43.333 -65.333 102 -70 176h124z" />
    <glyph glyph-name="Edotaccent" unicode="&#x116;" horiz-adv-x="967" 
d="M855 1421v-140h-602v-500h602v-141h-602v-499h602v-141h-743v1421h743zM551.5 1790c19 -18.667 28.5 -41.334 28.5 -68.001c0 -27.333 -9.5 -50.333 -28.5 -69s-41.5 -28 -67.5 -28c-26.667 0 -49.5 9.33301 -68.5 28s-28.5 41.667 -28.5 69
c0 26.667 9.5 49.334 28.5 68.001s41.833 28 68.5 28c26 0 48.5 -9.33301 67.5 -28z" />
    <glyph glyph-name="edotaccent" unicode="&#x117;" horiz-adv-x="1068" 
d="M226 627l643.999 0.000976562c-8 25.333 -31.333 57.666 -70 96.999c-69.333 69.333 -152.666 104 -249.999 104c-98 0 -181.333 -34.667 -250 -104c-41.333 -42 -66 -74.333 -74 -97zM194.999 485.001c1.33301 -104.667 36.335 -191.332 105.002 -259.999
s152 -103 250 -103c97.333 0 180.666 34.667 249.999 104c12 12 28 30.333 48 55l140 -49c-24.667 -41.333 -53.334 -77.666 -86.001 -108.999c-96.667 -98 -214 -147 -352 -147c-137.333 0 -254.666 48.667 -351.999 146s-146 214.666 -146 351.999
c0 138 48.667 255.5 146 352.5s214.666 145.5 351.999 145.5c138 0 255.667 -48.667 353 -146c86 -86.667 129 -200.334 129 -341.001h-837zM610.001 1266c19.333 -18.667 29 -41.667 29 -69c0 -26.667 -9.66699 -49.334 -29 -68.001s-42 -28 -68 -28
s-48.667 9.33301 -68 28s-29 41.334 -29 68.001c0 27.333 9.66699 50.333 29 69s42 28 68 28s48.667 -9.33301 68 -28z" />
    <glyph glyph-name="Eogonek" unicode="&#x118;" horiz-adv-x="973" 
d="M591 0h-479.002v1421h743v-140h-602v-500h602v-141h-602v-499h602v-141h-84c-26.667 -9.33301 -46.667 -19.666 -60 -30.999c-11.333 -10 -17.666 -22 -18.999 -36v-5c0 -13.333 4.66699 -25.333 14 -36s21.333 -16.334 36 -17.001h1c14.667 0 41.334 12.667 80.001 38
l38 -107l-22 -16c-26 -22.667 -57.667 -34 -95 -34h-13c-46 3.33301 -84.333 22.666 -115 57.999c-27.333 32.667 -41 69.334 -41 110.001c0 6 5.33301 31.333 16 76z" />
    <glyph glyph-name="eogonek" unicode="&#x119;" horiz-adv-x="1068" 
d="M226 627l643.999 0.000976562c-8 25.333 -31.333 57.666 -70 96.999c-69.333 69.333 -152.666 104 -249.999 104c-98 0 -181.333 -34.667 -250 -104c-41.333 -42 -66 -74.333 -74 -97zM549.999 -23.999c-137.333 0 -254.664 48.6689 -351.997 146.002
s-146 214.666 -146 351.999c0 138 48.667 255.5 146 352.5s214.666 145.5 351.999 145.5c138 0 255.667 -48.667 353 -146c86 -86.667 129 -200.334 129 -341.001h-837c1.33301 -104.667 36.333 -191.334 105 -260.001s152 -103 250 -103
c97.333 0 180.666 34.667 249.999 104c12 12 28 30.333 48 55l140 -49c-24.667 -41.333 -53.334 -77.666 -86.001 -108.999c-32 -32 -61.5 -56.333 -88.5 -73s-48.833 -28.334 -65.5 -35.001l-31 -12c-16.667 -7.33301 -28.334 -13.666 -35.001 -18.999
c-11.333 -10 -17.333 -22 -18 -36v-5c0 -13.333 4.33301 -25.333 13 -36c9.33301 -10.667 21.333 -16.334 36 -17.001h1c14.667 0 41.334 12.667 80.001 38l38 -107l-22 -16c-26 -22.667 -57.667 -34 -95 -34h-12c-46 3.33301 -84.667 22.666 -116 57.999
c-27.333 32.667 -41 69.334 -41 110.001c0 6 0.333008 11.667 1 17c0.666992 6.66699 1.66699 13.334 3 20.001z" />
    <glyph glyph-name="Ecaron" unicode="&#x11a;" horiz-adv-x="967" 
d="M855 1421v-140h-602v-500h602v-141h-602v-499h602v-141h-743v1421h743zM421 1545l-256 262h177l138 -112l147 112h177l-268 -262h-115z" />
    <glyph glyph-name="ecaron" unicode="&#x11b;" horiz-adv-x="1068" 
d="M226 627l643.999 0.000976562c-8 25.333 -31.333 57.666 -70 96.999c-69.333 69.333 -152.666 104 -249.999 104c-98 0 -181.333 -34.667 -250 -104c-41.333 -42 -66 -74.333 -74 -97zM194.999 485.001c1.33301 -104.667 36.335 -191.332 105.002 -259.999
s152 -103 250 -103c97.333 0 180.666 34.667 249.999 104c12 12 28 30.333 48 55l140 -49c-24.667 -41.333 -53.334 -77.666 -86.001 -108.999c-96.667 -98 -214 -147 -352 -147c-137.333 0 -254.666 48.667 -351.999 146s-146 214.666 -146 351.999
c0 138 48.667 255.5 146 352.5s214.666 145.5 351.999 145.5c138 0 255.667 -48.667 353 -146c86 -86.667 129 -200.334 129 -341.001h-837zM479.001 1020l-257 263h177l138 -112l147 112h177l-267 -263h-115z" />
    <glyph glyph-name="Gcircumflex" unicode="&#x11c;" horiz-adv-x="1391" 
d="M1295 187c-141.333 -135.333 -306 -203 -494 -203c-201.333 0 -372.833 70.833 -514.5 212.5s-212.5 313.167 -212.5 514.5c0 200 70.833 371.167 212.5 513.5s313.167 213.5 514.5 213.5c187.333 0 359 -71.333 515 -214l-106 -94c-124.667 110 -261 165 -409 165
c-161.333 0 -299.166 -57 -413.499 -171s-171.5 -251.667 -171.5 -413c0 -162 57.167 -300.167 171.5 -414.5s252.166 -171.5 413.499 -171.5c138.667 0 256.667 39.333 354 118v431h140v-487zM836 1807l268 -262h-177l-147 112l-138 -112h-177l256 262h115z" />
    <glyph glyph-name="gcircumflex" unicode="&#x11d;" horiz-adv-x="1109" 
d="M895 550c-13.333 64.667 -45 122.666 -95 173.999c-69.333 69.333 -152.666 104 -249.999 104s-180.5 -34.667 -249.5 -104s-103.5 -152.666 -103.5 -249.999c0 -98 34.333 -181.333 103 -250s152 -103 250 -103c97.333 0 180.666 34.667 249.999 104
c49.333 49.333 81 106.333 95 171v154zM887 98.999c-86.667 -82 -199.001 -123 -337.001 -123c-137.333 0 -254.666 48.667 -351.999 146s-146 214.666 -146 351.999c0 138 48.667 255.333 146 352s214.666 145 351.999 145c138 0 253.333 -42.333 346 -127v53h141v-679
c0 -134 -47.667 -248.333 -143 -343c-97.333 -98 -214.666 -147 -351.999 -147s-255 49 -353 147c-19.333 19.333 -45.333 51 -78 95l142 53c16.667 -21.333 30 -36.333 40 -45c68.667 -69.333 151.667 -104 249 -104c96.667 0 176.167 26.833 238.5 80.5
s97.833 101.834 106.5 144.501zM595.999 1283l268 -263h-178l-147 113l-138 -113h-176l256 263h115z" />
    <glyph glyph-name="Gbreve" unicode="&#x11e;" horiz-adv-x="1391" 
d="M1295 187c-141.333 -135.333 -306 -203 -494 -203c-201.333 0 -372.833 70.833 -514.5 212.5s-212.5 313.167 -212.5 514.5c0 200 70.833 371.167 212.5 513.5s313.167 213.5 514.5 213.5c187.333 0 359 -71.333 515 -214l-106 -94c-124.667 110 -261 165 -409 165
c-161.333 0 -299.166 -57 -413.499 -171s-171.5 -251.667 -171.5 -413c0 -162 57.167 -300.167 171.5 -414.5s252.166 -171.5 413.499 -171.5c138.667 0 256.667 39.333 354 118v431h140v-487zM674 1819c6 -41.333 17.332 -70 33.999 -86c21.333 -21.333 47 -32 77 -32
c28.667 0 53.334 10.667 74.001 32c17.333 16 28.666 44.667 33.999 86h125c-7.33301 -78 -30.666 -136.667 -69.999 -176c-44.667 -45.333 -99 -68 -163 -68c-65.333 0 -120.333 22.667 -165 68c-42 43.333 -65.333 102 -70 176h124z" />
    <glyph glyph-name="gbreve" unicode="&#x11f;" horiz-adv-x="1109" 
d="M895 550c-13.333 64.667 -45 122.666 -95 173.999c-69.333 69.333 -152.666 104 -249.999 104s-180.5 -34.667 -249.5 -104s-103.5 -152.666 -103.5 -249.999c0 -98 34.333 -181.333 103 -250s152 -103 250 -103c97.333 0 180.666 34.667 249.999 104
c49.333 49.333 81 106.333 95 171v154zM887 98.999c-86.667 -82 -199.001 -123 -337.001 -123c-137.333 0 -254.666 48.667 -351.999 146s-146 214.666 -146 351.999c0 138 48.667 255.333 146 352s214.666 145 351.999 145c138 0 253.333 -42.333 346 -127v53h141v-679
c0 -134 -47.667 -248.333 -143 -343c-97.333 -98 -214.666 -147 -351.999 -147s-255 49 -353 147c-19.333 19.333 -45.333 51 -78 95l142 53c16.667 -21.333 30 -36.333 40 -45c68.667 -69.333 151.667 -104 249 -104c96.667 0 176.167 26.833 238.5 80.5
s97.833 101.834 106.5 144.501zM433.999 1295c6.66699 -41.333 18.332 -70 34.999 -86c20.667 -21.333 46 -32 76 -32c28.667 0 53.667 10.667 75 32c16.667 16 27.667 44.667 33 86h125c-7.33301 -78 -30.666 -136.667 -69.999 -176c-44.667 -45.333 -99 -68 -163 -68
c-65.333 0 -120.333 22.667 -165 68c-42 43.333 -65 102 -69 176h123z" />
    <glyph glyph-name="Gdotaccent" unicode="&#x120;" horiz-adv-x="1391" 
d="M1295 187c-141.333 -135.333 -306 -203 -494 -203c-201.333 0 -372.833 70.833 -514.5 212.5s-212.5 313.167 -212.5 514.5c0 200 70.833 371.167 212.5 513.5s313.167 213.5 514.5 213.5c187.333 0 359 -71.333 515 -214l-106 -94c-124.667 110 -261 165 -409 165
c-161.333 0 -299.166 -57 -413.499 -171s-171.5 -251.667 -171.5 -413c0 -162 57.167 -300.167 171.5 -414.5s252.166 -171.5 413.499 -171.5c138.667 0 256.667 39.333 354 118v431h140v-487zM851.5 1790c19 -18.667 28.5 -41.334 28.5 -68.001
c0 -27.333 -9.5 -50.333 -28.5 -69s-41.5 -28 -67.5 -28c-26.667 0 -49.667 9.33301 -69 28s-29 41.667 -29 69c0 26.667 9.66699 49.334 29 68.001s42.333 28 69 28c26 0 48.5 -9.33301 67.5 -28z" />
    <glyph glyph-name="gdotaccent" unicode="&#x121;" horiz-adv-x="1109" 
d="M895 550c-13.333 64.667 -45 122.666 -95 173.999c-69.333 69.333 -152.666 104 -249.999 104s-180.5 -34.667 -249.5 -104s-103.5 -152.666 -103.5 -249.999c0 -98 34.333 -181.333 103 -250s152 -103 250 -103c97.333 0 180.666 34.667 249.999 104
c49.333 49.333 81 106.333 95 171v154zM887 98.999c-86.667 -82 -199.001 -123 -337.001 -123c-137.333 0 -254.666 48.667 -351.999 146s-146 214.666 -146 351.999c0 138 48.667 255.333 146 352s214.666 145 351.999 145c138 0 253.333 -42.333 346 -127v53h141v-679
c0 -134 -47.667 -248.333 -143 -343c-97.333 -98 -214.666 -147 -351.999 -147s-255 49 -353 147c-19.333 19.333 -45.333 51 -78 95l142 53c16.667 -21.333 30 -36.333 40 -45c68.667 -69.333 151.667 -104 249 -104c96.667 0 176.167 26.833 238.5 80.5
s97.833 101.834 106.5 144.501zM612.499 1266c19 -18.667 28.5 -41.667 28.5 -69c0 -26.667 -9.5 -49.334 -28.5 -68.001s-41.5 -28 -67.5 -28c-26.667 0 -49.5 9.33301 -68.5 28s-28.5 41.334 -28.5 68.001c0 27.333 9.5 50.333 28.5 69s41.833 28 68.5 28
c26 0 48.5 -9.33301 67.5 -28z" />
    <glyph glyph-name="Gcommaaccent" unicode="&#x122;" horiz-adv-x="1391" 
d="M629 3c-128.667 29.333 -242.666 94.001 -341.999 194.001c-142 141.333 -213 312.666 -213 513.999c0 200 70.833 371.167 212.5 513.5s313.167 213.5 514.5 213.5c187.333 0 359 -71.333 515 -214l-106 -94c-124.667 110 -261 165 -409 165
c-161.333 0 -299.166 -57 -413.499 -171s-171.5 -251.667 -171.5 -413c0 -162 57.167 -300.167 171.5 -414.5s252.166 -171.5 413.499 -171.5c138.667 0 256.667 39.333 354 118v431h140v-487c-119.333 -114.667 -255.333 -180.667 -408 -198l2 -2c33.333 -26 50 -58 50 -96
v-10c-6.66699 -54 -35.667 -97 -87 -129c-32 -20 -71 -30 -117 -30c-28.667 0 -60.334 4 -95.001 12l25 98c30 -6.66699 55 -10 75 -10c14.667 0 26.667 1.66699 36 5c19.333 6.66699 29 19 29 37v9c-4 22 -18 35 -42 39c-6 0.666992 -12.333 1 -19 1
c-21.333 0 -47.333 -4.33301 -78 -13l-70 68z" />
    <glyph glyph-name="gcommaaccent" unicode="&#x123;" horiz-adv-x="1109" 
d="M895 550c-13.333 64.667 -45 122.666 -95 173.999c-69.333 69.333 -152.666 104 -249.999 104s-180.5 -34.667 -249.5 -104s-103.5 -152.666 -103.5 -249.999c0 -98 34.333 -181.333 103 -250s152 -103 250 -103c97.333 0 180.666 34.667 249.999 104
c49.333 49.333 81 106.333 95 171v154zM903 122.999c-97.333 -98 -215.001 -146.998 -353.001 -146.998c-137.333 0 -254.666 48.667 -351.999 146s-146 214.666 -146 351.999c0 138 48.667 255.333 146 352s214.666 145 351.999 145c138 0 253.333 -42.333 346 -127v53h141
v-679c0 -134 -47.667 -248.333 -143 -343c-97.333 -98 -214.666 -147 -351.999 -147s-255 49 -353 147c-19.333 19.333 -45.333 51 -78 95l142 53c16.667 -21.333 30 -36.333 40 -45c68.667 -69.333 151.667 -104 249 -104c96.667 0 178.5 30.167 245.5 90.5
s105.5 113.166 115.5 158.499zM599.999 1204l14.001 -21c21.333 -20 32 -45.667 32 -77c0 -30 -10.667 -55.333 -32 -76s-47 -31 -77 -31c-28.667 0 -53.834 10.333 -75.501 31s-32.5 46 -32.5 76c0 16 3 31.667 9 47l93 187h120z" />
    <glyph glyph-name="Hcircumflex" unicode="&#x124;" horiz-adv-x="1101" 
d="M235 640v-640h-141v1421h141v-640h631v640h141v-1421h-141v640h-631zM604 1807l268 -262h-178l-147 112l-138 -112h-177l257 262h115z" />
    <glyph glyph-name="hcircumflex" unicode="&#x125;" horiz-adv-x="896" 
d="M94 1421h141v-523c34 32.667 100.667 49 200 49c106.667 0 194 -34 262 -102s103 -153 105 -255v-590h-141v582c0 62 -22.333 114.833 -67 158.5s-97.667 65.5 -159 65.5s-114.333 -21.333 -159 -64c-20 -20 -33.667 -38 -41 -54v-688h-141v1421zM501 1759l268 -262h-178
l-147 112l-138 -112h-176l256 262h115z" />
    <glyph glyph-name="Hbar" unicode="&#x126;" horiz-adv-x="1094" 
d="M1003 1090v-1090h-140v640h-632v-640h-140v1090h-80v139h80v192h140v-192h632v192h140v-192h80v-139h-80zM231 1090v-309h632v309h-632z" />
    <glyph glyph-name="hbar" unicode="&#x127;" horiz-adv-x="872" 
d="M80 1228v193h141v-193h186v-139h-186v-191c34 32.667 100.667 49 200 49c106.667 0 194 -34 262 -102s103 -153 105 -255v-590h-141v582c0 62 -22.333 114.833 -67 158.5s-97.667 65.5 -159 65.5s-114.333 -21.333 -159 -64c-20 -20 -33.667 -38 -41 -54v-688h-141v1089
h-96v139h96z" />
    <glyph glyph-name="Itilde" unicode="&#x128;" horiz-adv-x="375" 
d="M258 1421v-1421h-140v1421h140zM105 1657c-1.33301 -2 -2.66699 -4.66406 -4 -7.99707c-2 -6 -3 -31.333 -3 -76l-127 27c1.33301 44.667 5 75.667 11 93c14.667 44.667 40.667 75 78 91c10.667 4.66699 23 7 37 7c33.333 0 73 -16.667 119 -50
c28.667 -20.667 47.334 -32.334 56.001 -35.001v1c0 1.33301 0.666992 3.66602 2 6.99902c1.33301 5.33301 2 30.666 2 75.999l129 -25c-2.66699 -45.333 -7 -77 -13 -95c-14.667 -44 -40.667 -74.333 -78 -91c-12 -4 -24 -6 -36 -6c-32.667 0 -72.334 16.667 -119.001 50
c-26 18.667 -44 30 -54 34z" />
    <glyph glyph-name="itilde" unicode="&#x129;" horiz-adv-x="420" 
d="M279 897v-897h-139v897h139zM127 1133c-1.33301 -2 -2.66699 -4.66602 -4 -7.99902c-2 -6 -3 -31.667 -3 -77l-127 28c1.33301 44.667 5 75.667 11 93c14.667 44.667 40.667 74.667 78 90c10.667 5.33301 23 8 37 8c33.333 0 73 -16.667 119 -50
c28.667 -21.333 47.334 -33.333 56.001 -36v1c0 1.33301 0.666992 3.66602 2 6.99902c1.33301 6 2 31.667 2 77l129 -25c-2.66699 -45.333 -7 -77 -13 -95c-14.667 -44 -40.667 -74.333 -78 -91c-12 -4 -24 -6 -36 -6c-32.667 0 -72.334 16.667 -119.001 50
c-26 18.667 -44 30 -54 34z" />
    <glyph glyph-name="Imacron" unicode="&#x12a;" horiz-adv-x="367" 
d="M255 1421v-1421h-141v1421h141zM-98 1725h564v-124h-564v124z" />
    <glyph glyph-name="imacron" unicode="&#x12b;" horiz-adv-x="412" 
d="M276 897v-897h-140v897h140zM-76 1201h564v-124h-564v124z" />
    <glyph glyph-name="Ibreve" unicode="&#x12c;" horiz-adv-x="376" 
d="M259 1421v-1421h-141v1421h141zM79 1819c6 -41.333 17.332 -70 33.999 -86c20.667 -21.333 46.334 -32 77.001 -32c28.667 0 53.334 10.667 74.001 32c17.333 16 28.666 44.667 33.999 86h125c-8 -78 -31.667 -136.667 -71 -176c-44 -45.333 -98 -68 -162 -68
c-65.333 0 -120.333 22.667 -165 68c-42 43.333 -65.333 102 -70 176h124z" />
    <glyph glyph-name="ibreve" unicode="&#x12d;" horiz-adv-x="421" 
d="M280 897v-897h-140v897h140zM101 1295c6 -41.333 17.332 -70 33.999 -86c20.667 -21.333 46.334 -32 77.001 -32c28.667 0 53.334 10.667 74.001 32c17.333 16 28.666 44.667 33.999 86h125c-8 -78 -31.667 -136.667 -71 -176c-44 -45.333 -98 -68 -162 -68
c-65.333 0 -120.333 22.667 -165 68c-42 43.333 -65.333 102 -70 176h124z" />
    <glyph glyph-name="Iogonek" unicode="&#x12e;" horiz-adv-x="385" 
d="M112 97l-0.000976562 1324h141v-1421h-83c-27.333 -9.33301 -47.333 -19.666 -60 -30.999c-12 -10 -18.333 -22 -19 -36v-5c0 -13.333 4.33301 -25.333 13 -36c9.33301 -10.667 21.333 -16.334 36 -17.001h1c14.667 0 41.334 12.667 80.001 38l38 -107l-22 -16
c-26 -22.667 -57.667 -34 -95 -34h-12c-46 3.33301 -84.667 22.666 -116 57.999c-27.333 32.667 -41 69.334 -41 110.001c0 6 0.333008 11.667 1 17c4 47.333 23.667 86.333 59 117c30.667 26 57 39 79 39z" />
    <glyph glyph-name="iogonek" unicode="&#x12f;" horiz-adv-x="358" 
d="M247 1160.5c21.333 -21 32 -46.167 32 -75.5c0 -30.667 -10.667 -56.5 -32 -77.5s-46.666 -31.5 -75.999 -31.5c-30 0 -55.667 10.5 -77 31.5s-32 46.833 -32 77.5c0 29.333 10.667 54.5 32 75.5s47 31.5 77 31.5c29.333 0 54.666 -10.5 75.999 -31.5zM101 87
l0.000976562 809.999h140v-897h-45c-27.333 -9.33301 -47.333 -19.666 -60 -30.999c-12 -10 -18.333 -22 -19 -36v-5c0 -13.333 4.33301 -25.333 13 -36c9.33301 -10.667 21.666 -16.667 36.999 -18c14 0 40.667 13 80 39l38 -107l-22 -16c-26 -22.667 -57.667 -34 -95 -34
h-12c-46 3.33301 -84.667 22.666 -116 57.999c-27.333 32.667 -41 69.334 -41 110.001c0 6 0.333008 11.667 1 17c4 47.333 23.667 86.333 59 117c20.667 17.333 34.667 27 42 29z" />
    <glyph glyph-name="Idotaccent" unicode="&#x130;" horiz-adv-x="383" 
d="M263 1421v-1421h-141v1421h141zM260 1790c19.333 -18.667 29 -41.334 29 -68.001c0 -27.333 -9.66699 -50.333 -29 -69s-42 -28 -68 -28c-26.667 0 -49.5 9.33301 -68.5 28s-28.5 41.667 -28.5 69c0 26.667 9.5 49.334 28.5 68.001s41.833 28 68.5 28
c26 0 48.667 -9.33301 68 -28z" />
    <glyph glyph-name="dotlessi" unicode="&#x131;" horiz-adv-x="430" 
d="M285 897v-897h-140v897h140z" />
    <glyph glyph-name="IJ" unicode="&#x132;" horiz-adv-x="678" 
d="M263 1421v-1421h-141v1421h141zM564 6c0 -78 -26.5 -143.668 -79.5 -197.001s-128.833 -80 -227.5 -80v141c59.333 0 102.333 13 129 39c24.667 24.667 37 60.334 37 107.001v1405h141v-1415z" />
    <glyph glyph-name="ij" unicode="&#x133;" horiz-adv-x="647" 
d="M257 897v-897h-140v897h140zM264 1160.5c21.333 -21 32 -46.167 32 -75.5c0 -30.667 -10.667 -56.5 -32 -77.5s-46.666 -31.5 -75.999 -31.5c-30 0 -55.667 10.5 -77 31.5s-32 46.833 -32 77.5c0 29.333 10.667 54.5 32 75.5s47 31.5 77 31.5
c29.333 0 54.666 -10.5 75.999 -31.5zM297 -57c68.667 8 103 37 103 87v867h139v-865c0 -138.667 -80.667 -214.667 -242 -228v139zM546 1160.5c21.333 -21 32 -46.167 32 -75.5c0 -30.667 -10.667 -56.5 -32 -77.5s-46.666 -31.5 -75.999 -31.5
c-30 0 -55.667 10.5 -77 31.5s-32 46.833 -32 77.5c0 29.333 10.667 54.5 32 75.5s47 31.5 77 31.5c29.333 0 54.666 -10.5 75.999 -31.5z" />
    <glyph glyph-name="Jcircumflex" unicode="&#x134;" horiz-adv-x="440" 
d="M289 6c0 -78 -26.5 -143.668 -79.5 -197.001s-128.833 -80 -227.5 -80v141c59.333 0 102 13 128 39c25.333 24.667 38 60.334 38 107.001v1405h141v-1415zM285 1807l268 -262h-177l-147 112l-138 -112h-177l256 262h115z" />
    <glyph glyph-name="jcircumflex" unicode="&#x135;" horiz-adv-x="399" 
d="M29 -57c68 8 102 37 102 87v867h140v-865c0 -138.667 -80.667 -214.667 -242 -228v139zM136 1020l-256 263h177l138 -112l147 112h177l-268 -263h-115z" />
    <glyph glyph-name="kgreenlandic" unicode="&#x138;" horiz-adv-x="778" 
d="M656 897l-234 -289l344 -608h-168l-271 495l-131 -146v-349h-141v897h141v-327l280 327h180z" />
    <glyph glyph-name="Lacute" unicode="&#x139;" horiz-adv-x="822" 
d="M112 0v1421h141v-1280h517v-141h-658zM723 1776l-293 -223h-152l194 223h251z" />
    <glyph glyph-name="lacute" unicode="&#x13a;" horiz-adv-x="453" 
d="M286 1421v-1421h-141v1421h141zM450 1759l-293 -222h-152l194 222h251z" />
    <glyph glyph-name="Lcaron" unicode="&#x13d;" horiz-adv-x="822" 
d="M112 0v1421h141v-1280h517v-141h-658zM559 1225l1.00098 -0.00195312c0.666992 0 1 0.333008 1 1c0 2.66699 -5 9.33398 -15 20.001c-22 20.667 -33 46.334 -33 77.001s10.833 56.167 32.5 76.5s47.167 30.5 76.5 30.5s54.666 -10.167 75.999 -30.5s32 -45.833 32 -76.5
c0 -16 -2.66699 -31.333 -8 -46l-94 -187h-120z" />
    <glyph glyph-name="lcaron" unicode="&#x13e;" horiz-adv-x="490" 
d="M253 1421v-1421h-141v1421h141zM319 1225l1.00098 -0.00195312c0.666992 0 1 0.333008 1 1c0 2.66699 -5 9.33398 -15 20.001c-22 20.667 -33 46.334 -33 77.001s10.833 56.167 32.5 76.5s47.167 30.5 76.5 30.5s54.666 -10.167 75.999 -30.5s32 -45.833 32 -76.5
c0 -16 -2.66699 -31.333 -8 -46l-94 -187h-120z" />
    <glyph glyph-name="Ldot" unicode="&#x13f;" horiz-adv-x="822" 
d="M112 0v1421h141v-1280h517v-141h-658zM703 779c19.333 -18.667 29 -41.334 29 -68.001c0 -27.333 -9.66699 -50.333 -29 -69s-41.666 -28 -66.999 -28c-26.667 0 -49.667 9.33301 -69 28s-29 41.667 -29 69c0 26.667 9.66699 49.334 29 68.001s42.333 28 69 28
c25.333 0 47.666 -9.33301 66.999 -28z" />
    <glyph glyph-name="ldot" unicode="&#x140;" horiz-adv-x="491" 
d="M240 1421v-1421h-141v1421h141zM436.5 779c19 -18.667 28.5 -41.334 28.5 -68.001c0 -27.333 -9.5 -50.333 -28.5 -69s-41.5 -28 -67.5 -28c-26.667 0 -49.5 9.33301 -68.5 28s-28.5 41.667 -28.5 69c0 26.667 9.5 49.334 28.5 68.001s41.833 28 68.5 28
c26 0 48.5 -9.33301 67.5 -28z" />
    <glyph glyph-name="Lslash" unicode="&#x141;" horiz-adv-x="902" 
d="M335 767l386 314v-172l-386 -314v-454h517v-141h-658v479l-194 -157v173l194 157v769h141v-654z" />
    <glyph glyph-name="lslash" unicode="&#x142;" horiz-adv-x="425" 
d="M142 731v690h141v-576l142 117v-173l-142 -116v-673h-141v558l-142 -116v173z" />
    <glyph glyph-name="Nacute" unicode="&#x143;" horiz-adv-x="1358" 
d="M254 1421l854 -1196v1196h141v-1421h-166l-833 1167v-1167h-141v1421h145zM961 1699l-293 -223h-152l194 223h251z" />
    <glyph glyph-name="nacute" unicode="&#x144;" 
d="M240 672v-672h-141v897h141v-8c38.667 38.667 108.667 58 210 58c107.333 0 195 -34 263 -102s102.667 -153 104 -255v-590h-140v582c0 62 -22.5 114.833 -67.5 158.5s-98.167 65.5 -159.5 65.5s-114.333 -21.333 -159 -64c-24.667 -24.667 -41.667 -48 -51 -70z
M754 1252l-292 -223h-152l194 223h250z" />
    <glyph glyph-name="Ncaron" unicode="&#x147;" horiz-adv-x="1358" 
d="M254 1421l854 -1196v1196h141v-1421h-166l-833 1167v-1167h-141v1421h145zM617 1468l-256 263h176l138 -113l147 113h178l-268 -263h-115z" />
    <glyph glyph-name="ncaron" unicode="&#x148;" 
d="M240 672v-672h-141v897h141v-8c38.667 38.667 108.667 58 210 58c107.333 0 195 -34 263 -102s102.667 -153 104 -255v-590h-140v582c0 62 -22.5 114.833 -67.5 158.5s-98.167 65.5 -159.5 65.5s-114.333 -21.333 -159 -64c-24.667 -24.667 -41.667 -48 -51 -70z
M395 1020l-257 263h177l138 -112l147 112h177l-267 -263h-115z" />
    <glyph glyph-name="Eng" unicode="&#x14a;" horiz-adv-x="1189" 
d="M170 1426l769 -1080v1075h141v-1437c0 -78 -26.5 -143.667 -79.5 -197s-128.833 -80 -227.5 -80v141c59.333 0 102.333 13 129 39c24.667 24.667 37 60.334 37 107.001v108l-689 968v-1070h-141v1426h61z" />
    <glyph glyph-name="eng" unicode="&#x14b;" horiz-adv-x="922" 
d="M680 582c0 62 -22.5 114.832 -67.5 158.499s-98.167 65.5 -159.5 65.5s-114.333 -21.333 -159 -64c-24.667 -24.667 -41.667 -48 -51 -70v-672h-141v897h141v-8c38.667 38.667 108.667 58 210 58c107.333 0 195 -34 263 -102s102.667 -153 104 -255v-410h1v-196
c0 -78 -26.5 -143.667 -79.5 -197s-128.833 -80 -227.5 -80v141c59.333 0 102 13 128 39c25.333 24.667 38 60.334 38 107.001v588z" />
    <glyph glyph-name="Omacron" unicode="&#x14c;" horiz-adv-x="1581" 
d="M1305.5 1227.5c142.333 -142.333 213.5 -313.833 213.5 -514.5c0 -202 -71.167 -374 -213.5 -516s-314.166 -213 -515.499 -213c-200.667 0 -372.167 71 -514.5 213s-213.5 314 -213.5 516c0 200.667 71.167 372.167 213.5 514.5s313.833 213.5 514.5 213.5
c201.333 0 373.166 -71.167 515.499 -213.5zM790 1299c-161.333 0 -299.333 -57.333 -414 -172s-172 -252.667 -172 -414c0 -162 57.333 -300.5 172 -415.5s252.667 -172.5 414 -172.5c162 0 300.333 57.5 415 172.5s172 253.5 172 415.5
c0 161.333 -57.333 299.333 -172 414s-253 172 -415 172zM508 1725h565v-124h-565v124z" />
    <glyph glyph-name="omacron" unicode="&#x14d;" horiz-adv-x="1139" 
d="M570 972c138 0 255.333 -48.5 352 -145.5s145 -214.5 145 -352.5c0 -137.333 -48.333 -254.666 -145 -351.999s-214 -146 -352 -146c-137.333 0 -254.666 48.667 -351.999 146s-146 214.666 -146 351.999c0 138 48.667 255.5 146 352.5s214.666 145.5 351.999 145.5z
M320.5 724c-69 -69.333 -103.5 -152.666 -103.5 -249.999s34.333 -180.333 103 -249s152 -103 250 -103c97.333 0 180.5 34.333 249.5 103s103.5 151.667 103.5 249s-34.5 180.666 -103.5 249.999s-152.167 104 -249.5 104s-180.5 -34.667 -249.5 -104zM288 1201h564v-124
h-564v124z" />
    <glyph glyph-name="Obreve" unicode="&#x14e;" horiz-adv-x="1581" 
d="M1305.5 1227.5c142.333 -142.333 213.5 -313.833 213.5 -514.5c0 -202 -71.167 -374 -213.5 -516s-314.166 -213 -515.499 -213c-200.667 0 -372.167 71 -514.5 213s-213.5 314 -213.5 516c0 200.667 71.167 372.167 213.5 514.5s313.833 213.5 514.5 213.5
c201.333 0 373.166 -71.167 515.499 -213.5zM790 1299c-161.333 0 -299.333 -57.333 -414 -172s-172 -252.667 -172 -414c0 -162 57.333 -300.5 172 -415.5s252.667 -172.5 414 -172.5c162 0 300.333 57.5 415 172.5s172 253.5 172 415.5
c0 161.333 -57.333 299.333 -172 414s-253 172 -415 172zM681 1819c6 -41.333 17.666 -70 34.999 -86c20.667 -21.333 46 -32 76 -32c28.667 0 53.334 10.667 74.001 32c17.333 16 28.666 44.667 33.999 86h125c-7.33301 -78 -30.666 -136.667 -69.999 -176
c-44.667 -45.333 -99 -68 -163 -68c-65.333 0 -120.333 22.667 -165 68c-42 43.333 -65.333 102 -70 176h124z" />
    <glyph glyph-name="obreve" unicode="&#x14f;" horiz-adv-x="1139" 
d="M570 972c138 0 255.333 -48.5 352 -145.5s145 -214.5 145 -352.5c0 -137.333 -48.333 -254.666 -145 -351.999s-214 -146 -352 -146c-137.333 0 -254.666 48.667 -351.999 146s-146 214.666 -146 351.999c0 138 48.667 255.5 146 352.5s214.666 145.5 351.999 145.5z
M320.5 724c-69 -69.333 -103.5 -152.666 -103.5 -249.999s34.333 -180.333 103 -249s152 -103 250 -103c97.333 0 180.5 34.333 249.5 103s103.5 151.667 103.5 249s-34.5 180.666 -103.5 249.999s-152.167 104 -249.5 104s-180.5 -34.667 -249.5 -104zM461 1295
c6 -41.333 17.3311 -70 33.998 -86c20.667 -21.333 46.334 -32 77.001 -32c28.667 0 53.334 10.667 74.001 32c17.333 16 28.666 44.667 33.999 86h124c-7.33301 -78 -30.666 -136.667 -69.999 -176c-44.667 -45.333 -98.667 -68 -162 -68
c-65.333 0 -120.333 22.667 -165 68c-42.667 43.333 -66 102 -70 176h124z" />
    <glyph glyph-name="Ohungarumlaut" unicode="&#x150;" horiz-adv-x="1581" 
d="M1305.5 1227.5c142.333 -142.333 213.5 -313.833 213.5 -514.5c0 -202 -71.167 -374 -213.5 -516s-314.166 -213 -515.499 -213c-200.667 0 -372.167 71 -514.5 213s-213.5 314 -213.5 516c0 200.667 71.167 372.167 213.5 514.5s313.833 213.5 514.5 213.5
c201.333 0 373.166 -71.167 515.499 -213.5zM790 1299c-161.333 0 -299.333 -57.333 -414 -172s-172 -252.667 -172 -414c0 -162 57.333 -300.5 172 -415.5s252.667 -172.5 414 -172.5c162 0 300.333 57.5 415 172.5s172 253.5 172 415.5
c0 161.333 -57.333 299.333 -172 414s-253 172 -415 172zM994 1759l-292 -222h-153l195 222h250zM1248 1759l-291 -222h-154l194 222h251z" />
    <glyph glyph-name="ohungarumlaut" unicode="&#x151;" horiz-adv-x="1139" 
d="M570 972c138 0 255.333 -48.5 352 -145.5s145 -214.5 145 -352.5c0 -137.333 -48.333 -254.666 -145 -351.999s-214 -146 -352 -146c-137.333 0 -254.666 48.667 -351.999 146s-146 214.666 -146 351.999c0 138 48.667 255.5 146 352.5s214.666 145.5 351.999 145.5z
M320.5 724c-69 -69.333 -103.5 -152.666 -103.5 -249.999s34.333 -180.333 103 -249s152 -103 250 -103c97.333 0 180.5 34.333 249.5 103s103.5 151.667 103.5 249s-34.5 180.666 -103.5 249.999s-152.167 104 -249.5 104s-180.5 -34.667 -249.5 -104zM774 1235l-293 -222
h-152l194 222h251zM1027 1235l-291 -222h-153l194 222h250z" />
    <glyph glyph-name="OE" unicode="&#x152;" horiz-adv-x="2004" 
d="M1287 1281l45.001 -53.001c133.333 -134 203.666 -283 210.999 -447h373v-141h-374c-8 -163.333 -78 -310.666 -210 -441.999l-47 -57h631v-141h-878c-68 -10.667 -142 -16 -222 -16c-200.667 0 -372.167 71 -514.5 213s-213.5 314 -213.5 516
c0 200.667 71.167 372.167 213.5 514.5s313.833 213.5 514.5 213.5c80 0 154.333 -6.66699 223 -20h877v-140h-629zM1402 746.999c-8 147.333 -65 274.334 -171 381.001c-42 41.333 -86.667 75 -134 101c-23.333 12.667 -47.666 24 -72.999 34c-64 24 -133.333 36 -208 36
c-161.333 0 -299.333 -57.333 -414 -172s-172 -252.667 -172 -414c0 -162 57.333 -300.5 172 -415.5s252.667 -172.5 414 -172.5c74.667 0 144 12 208 36c25.333 9.33301 49.666 20.333 72.999 33c47.333 26.667 92 61.334 134 104.001c106 105.333 163 230.666 171 375.999
c0.666992 12 1 25 1 39c0 11.333 -0.333008 22.666 -1 33.999z" />
    <glyph glyph-name="oe" unicode="&#x153;" horiz-adv-x="1822" 
d="M211 474c0 -97.333 34.333 -180.333 103 -249s152 -103 250 -103c97.333 0 180.5 34.333 249.5 103s103.5 151.667 103.5 249s-34.5 180.666 -103.5 249.999s-152.167 104 -249.5 104s-180.5 -34.667 -249.5 -104s-103.5 -152.666 -103.5 -249.999zM1014 690
c11.333 -21.333 19.998 -42.332 25.998 -62.999h575c-8 25.333 -31.667 57.666 -71 96.999c-69.333 69.333 -152.666 104 -249.999 104s-180.666 -34.667 -249.999 -104c-15.333 -16 -25.333 -27.333 -30 -34zM1014 258.001c4.66699 -6 14.6689 -16.665 30.002 -31.998
c69.333 -69.333 152.666 -104 249.999 -104s180.666 34.667 249.999 104c12 12 28.333 30.333 49 55l138 -50c-24 -40 -52 -76 -84 -108c-98 -98 -215.667 -147 -353 -147s-259 53 -365 159c-105.333 -106 -227 -159 -365 -159c-137.333 0 -254.666 48.667 -351.999 146
s-146 214.666 -146 351.999c0 138 48.667 255.5 146 352.5s214.666 145.5 351.999 145.5c138 0 259.667 -52.667 365 -158c106 105.333 227.667 158 365 158s255 -48.667 353 -146c86 -86.667 131 -200.334 135 -341.001l-720 1
c-0.666992 -93.333 -16.667 -169.333 -48 -228z" />
    <glyph glyph-name="Racute" unicode="&#x154;" horiz-adv-x="996" 
d="M253 1280v-668h198c92 0 170.667 32.667 236 98s98 144.333 98 237c0 92 -32.667 170.5 -98 235.5s-144 97.5 -236 97.5h-198zM458 470h-205v-470h-141v1421h390c112.667 -14.667 207.667 -61 285 -139c92.667 -93.333 139 -205 139 -335
c0 -132 -46.333 -244.333 -139 -337c-64.667 -64 -124 -102.667 -178 -116l321 -494h-171zM817 1776l-292 -223h-152l194 223h250z" />
    <glyph glyph-name="racute" unicode="&#x155;" horiz-adv-x="475" 
d="M475 775c-64.667 -12.667 -116 -38.333 -154 -77c-66.667 -66 -101 -144.667 -103 -236v-462h-141v897h141v-95c50 50 110 86 180 108zM572 1252l-292 -223h-152l194 223h250z" />
    <glyph glyph-name="Rcaron" unicode="&#x158;" horiz-adv-x="996" 
d="M253 1280v-668h198c92 0 170.667 32.667 236 98s98 144.333 98 237c0 92 -32.667 170.5 -98 235.5s-144 97.5 -236 97.5h-198zM458 470h-205v-470h-141v1421h390c112.667 -14.667 207.667 -61 285 -139c92.667 -93.333 139 -205 139 -335
c0 -132 -46.333 -244.333 -139 -337c-64.667 -64 -124 -102.667 -178 -116l321 -494h-171zM458 1544l-257 263h177l138 -112l147 112h177l-267 -263h-115z" />
    <glyph glyph-name="rcaron" unicode="&#x159;" horiz-adv-x="475" 
d="M475 775c-64.667 -12.667 -116 -38.333 -154 -77c-66.667 -66 -101 -144.667 -103 -236v-462h-141v897h141v-95c50 50 110 86 180 108zM213 1020l-257 263h177l138 -112l147 112h177l-267 -263h-115z" />
    <glyph glyph-name="Sacute" unicode="&#x15a;" horiz-adv-x="976" 
d="M502 754c-100.667 33.333 -181.498 80.3311 -242.498 140.998s-91.5 135.667 -91.5 225c0 86.667 31.167 161.334 93.5 224.001s137.833 94 226.5 94c87.333 0 162.666 -31.333 225.999 -94c34 -33.333 61.333 -80.666 82 -141.999l-128 -50c-16 43.333 -34 75 -54 95
c-34.667 34.667 -76.667 52 -126 52s-91.5 -17.333 -126.5 -52s-52.5 -77 -52.5 -127s17.333 -92.333 52 -127c35.333 -35.333 84.666 -67.666 147.999 -96.999c112.667 -36 208 -93 286 -171c84 -84.667 126 -186.667 126 -306c0 -120 -42.333 -222.5 -127 -307.5
s-186.667 -127.5 -306 -127.5c-120.667 0 -223 42.667 -307 128c-68 68 -110 155.667 -126 263l135 48c10 -92.667 39.667 -163.667 89 -213c58 -57.333 127.667 -86 209 -86s150.833 28.833 208.5 86.5s86.5 127.167 86.5 208.5c0 80.667 -28.667 150 -86 208
c-53.333 53.333 -118.333 95.666 -195 126.999zM771.002 1776l-292 -223h-153l194 223h251z" />
    <glyph glyph-name="sacute" unicode="&#x15b;" horiz-adv-x="689" 
d="M329 452c-66.667 36 -113.669 67.6689 -141.002 95.002c-45.333 45.333 -68 100 -68 164c0 63.333 22.667 117.833 68 163.5s100 68.5 164 68.5s117.333 -21.333 160 -64c41.333 -41.333 62 -89 62 -143v-26l-124 -50c-8.66699 63.333 -20.834 103 -36.501 119
s-36.167 24 -61.5 24s-47 -9.16699 -65 -27.5s-27 -39.833 -27 -64.5c0 -25.333 9 -47 27 -65c12.667 -13.333 40.334 -33.333 83.001 -60c74.667 -40.667 128.334 -77.334 161.001 -110.001c54 -54.667 81 -120 81 -196c0 -78 -27 -144.333 -81 -199s-119.667 -82 -197 -82
s-143.166 27.333 -197.499 82s-81.5 123.334 -81.5 206.001l140 36c0 -68 13.667 -115.667 41 -143s60 -41 98 -41s70.833 13.667 98.5 41s41.5 60.666 41.5 99.999c0 37.333 -14 69.666 -42 96.999c-16 16 -50.333 41 -103 75zM614.998 1252l-293 -223h-152l194 223h251z
" />
    <glyph glyph-name="Scircumflex" unicode="&#x15c;" horiz-adv-x="976" 
d="M502 754c-100.667 33.333 -181.498 80.3311 -242.498 140.998s-91.5 135.667 -91.5 225c0 86.667 31.167 161.334 93.5 224.001s137.833 94 226.5 94c87.333 0 162.666 -31.333 225.999 -94c34 -33.333 61.333 -80.666 82 -141.999l-128 -50c-16 43.333 -34 75 -54 95
c-34.667 34.667 -76.667 52 -126 52s-91.5 -17.333 -126.5 -52s-52.5 -77 -52.5 -127s17.333 -92.333 52 -127c35.333 -35.333 84.666 -67.666 147.999 -96.999c112.667 -36 208 -93 286 -171c84 -84.667 126 -186.667 126 -306c0 -120 -42.333 -222.5 -127 -307.5
s-186.667 -127.5 -306 -127.5c-120.667 0 -223 42.667 -307 128c-68 68 -110 155.667 -126 263l135 48c10 -92.667 39.667 -163.667 89 -213c58 -57.333 127.667 -86 209 -86s150.833 28.833 208.5 86.5s86.5 127.167 86.5 208.5c0 80.667 -28.667 150 -86 208
c-53.333 53.333 -118.333 95.666 -195 126.999zM543.002 1807l268 -262h-177l-147 112l-138 -112h-177l256 262h115z" />
    <glyph glyph-name="scircumflex" unicode="&#x15d;" horiz-adv-x="769" 
d="M368 452c-66.667 36 -113.669 67.6689 -141.002 95.002c-45.333 45.333 -68 100 -68 164c0 63.333 22.667 117.833 68 163.5s100 68.5 164 68.5s117.333 -21.333 160 -64c41.333 -41.333 62 -89 62 -143v-26l-124 -50c-8.66699 63.333 -20.834 103 -36.501 119
s-36.167 24 -61.5 24s-47 -9.16699 -65 -27.5s-27 -39.833 -27 -64.5c0 -25.333 9.33301 -47 28 -65c12 -13.333 39.333 -33.333 82 -60c74.667 -40.667 128.334 -77.334 161.001 -110.001c54.667 -54.667 82 -120 82 -196c0 -78 -27.167 -144.333 -81.5 -199
s-120.166 -82 -197.499 -82s-143.166 27.333 -197.499 82s-81.5 123.334 -81.5 206.001l140 36c0 -68 13.667 -115.667 41 -143s60 -41 98 -41s70.833 13.667 98.5 41s41.5 60.666 41.5 99.999c0 37.333 -14 69.666 -42 96.999c-16 16 -50.333 41 -103 75zM425.998 1283
l268 -263h-177l-147 113l-138 -113h-177l256 263h115z" />
    <glyph glyph-name="Scedilla" unicode="&#x15e;" horiz-adv-x="976" 
d="M352 5c-64 20 -120.997 55.665 -170.997 106.998c-68 68 -110 155.667 -126 263l135 48c10 -92.667 39.667 -163.667 89 -213c58 -57.333 127.667 -86 209 -86s150.833 28.833 208.5 86.5s86.5 127.167 86.5 208.5c0 80.667 -28.667 150 -86 208
c-53.333 53.333 -118.333 95.666 -195 126.999c-100.667 33.333 -181.5 80.333 -242.5 141s-91.5 135.667 -91.5 225c0 86.667 31.167 161.334 93.5 224.001s137.833 94 226.5 94c87.333 0 162.666 -31.333 225.999 -94c34 -33.333 61.333 -80.666 82 -141.999l-128 -50
c-16 43.333 -34 75 -54 95c-34.667 34.667 -76.667 52 -126 52s-91.5 -17.333 -126.5 -52s-52.5 -77 -52.5 -127s17.333 -92.333 52 -127c35.333 -35.333 84.666 -67.666 147.999 -96.999c112.667 -36 208 -93 286 -171c84 -84.667 126 -186.667 126 -306
c0 -120 -42.333 -222.333 -127 -307c-58 -58.667 -124 -97 -198 -115l14 -10c33.333 -26 50 -58 50 -96v-10c-6.66699 -54 -35.667 -97 -87 -129c-32 -20 -71 -30 -117 -30c-28.667 0 -60.334 4 -95.001 12l25 98c30 -6.66699 55 -10 75 -10c14.667 0 26.667 1.66699 36 5
c19.333 6.66699 29 19 29 37v9c-4 22 -18 35 -42 39c-6 0.666992 -12.333 1 -19 1c-21.333 0 -47.333 -4.33301 -78 -13l-70 68z" />
    <glyph glyph-name="scedilla" unicode="&#x15f;" horiz-adv-x="687" 
d="M215 25c-28 13.333 -54.001 32.002 -78.001 56.002c-54.667 54.667 -82 123.334 -82 206.001l140 36c0 -68 13.667 -115.667 41 -143s60 -41 98 -41s70.833 13.667 98.5 41s41.5 60.666 41.5 99.999c0 37.333 -14 69.666 -42 96.999c-16 16 -50.333 41 -103 75
c-66.667 36 -113.667 67.667 -141 95c-45.333 45.333 -68 100 -68 164c0 63.333 22.667 117.833 68 163.5s100 68.5 164 68.5s117.333 -21.333 160 -64c41.333 -41.333 62 -89 62 -143v-26l-124 -50c-8.66699 63.333 -20.834 103 -36.501 119s-36.167 24 -61.5 24
s-47 -9.16699 -65 -27.5s-27 -39.833 -27 -64.5c0 -25.333 9 -47 27 -65c12.667 -13.333 40.334 -33.333 83.001 -60c74.667 -40.667 128.334 -77.334 161.001 -110.001c54 -54.667 81 -120 81 -196c0 -78 -27 -144.333 -81 -199c-35.333 -35.333 -75.333 -59.333 -120 -72
c16.667 -4.66699 31.334 -12 44.001 -22c33.333 -26 50 -58 50 -96v-10c-6.66699 -54 -35.667 -97 -87 -129c-32 -20 -71 -30 -117 -30c-28.667 0 -60.334 4 -95.001 12l25 98c30 -6.66699 55 -10 75 -10c14.667 0 26.667 1.66699 36 5c19.333 6.66699 29 19 29 37v9
c-4 22 -18 35 -42 39c-6 0.666992 -12.333 1 -19 1c-21.333 0 -47.333 -4.33301 -78 -13l-70 68z" />
    <glyph glyph-name="Scaron" unicode="&#x160;" horiz-adv-x="976" 
d="M502 754c-100.667 33.333 -181.498 80.3311 -242.498 140.998s-91.5 135.667 -91.5 225c0 86.667 31.167 161.334 93.5 224.001s137.833 94 226.5 94c87.333 0 162.666 -31.333 225.999 -94c34 -33.333 61.333 -80.666 82 -141.999l-128 -50c-16 43.333 -34 75 -54 95
c-34.667 34.667 -76.667 52 -126 52s-91.5 -17.333 -126.5 -52s-52.5 -77 -52.5 -127s17.333 -92.333 52 -127c35.333 -35.333 84.666 -67.666 147.999 -96.999c112.667 -36 208 -93 286 -171c84 -84.667 126 -186.667 126 -306c0 -120 -42.333 -222.5 -127 -307.5
s-186.667 -127.5 -306 -127.5c-120.667 0 -223 42.667 -307 128c-68 68 -110 155.667 -126 263l135 48c10 -92.667 39.667 -163.667 89 -213c58 -57.333 127.667 -86 209 -86s150.833 28.833 208.5 86.5s86.5 127.167 86.5 208.5c0 80.667 -28.667 150 -86 208
c-53.333 53.333 -118.333 95.666 -195 126.999zM428.002 1545l-256 262h177l138 -112l147 112h177l-268 -262h-115z" />
    <glyph glyph-name="scaron" unicode="&#x161;" horiz-adv-x="769" 
d="M368 452c-66.667 36 -113.669 67.6689 -141.002 95.002c-45.333 45.333 -68 100 -68 164c0 63.333 22.667 117.833 68 163.5s100 68.5 164 68.5s117.333 -21.333 160 -64c41.333 -41.333 62 -89 62 -143v-26l-124 -50c-8.66699 63.333 -20.834 103 -36.501 119
s-36.167 24 -61.5 24s-47 -9.16699 -65 -27.5s-27 -39.833 -27 -64.5c0 -25.333 9.33301 -47 28 -65c12 -13.333 39.333 -33.333 82 -60c74.667 -40.667 128.334 -77.334 161.001 -110.001c54.667 -54.667 82 -120 82 -196c0 -78 -27.167 -144.333 -81.5 -199
s-120.166 -82 -197.499 -82s-143.166 27.333 -197.499 82s-81.5 123.334 -81.5 206.001l140 36c0 -68 13.667 -115.667 41 -143s60 -41 98 -41s70.833 13.667 98.5 41s41.5 60.666 41.5 99.999c0 37.333 -14 69.666 -42 96.999c-16 16 -50.333 41 -103 75zM310.998 1020
l-256 263h177l138 -112l147 112h177l-268 -263h-115z" />
    <glyph glyph-name="Tcaron" unicode="&#x164;" horiz-adv-x="891" 
d="M516 1281v-1281h-140v1281h-344v140h827v-140h-343zM384 1545l-257 262h177l138 -112l147 112h177l-267 -262h-115z" />
    <glyph glyph-name="tcaron" unicode="&#x165;" horiz-adv-x="607" 
d="M202 897v355h140v-355h170v-141h-170v-756h-140v756h-170v141h170zM436 1197l0.999023 -0.00195312c0.666992 0 1 0.333008 1 1c0 2.66699 -5.33301 9.33398 -16 20.001c-21.333 20.667 -32 46.334 -32 77.001s10.667 56.167 32 76.5s47 30.5 77 30.5
c28.667 0 53.834 -10.167 75.501 -30.5s32.5 -45.833 32.5 -76.5c0 -16 -3 -31.333 -9 -46l-93 -187h-120z" />
    <glyph glyph-name="Tbar" unicode="&#x166;" horiz-adv-x="891" 
d="M377 781v500h-344v140h827v-140h-343v-500h249v-140h-249v-641h-140v641h-251v140h251z" />
    <glyph glyph-name="tbar" unicode="&#x167;" horiz-adv-x="544" 
d="M203 756h-170v141h170v355h140v-355h170v-141h-170v-165h170v-141h-170v-450h-140v450h-170v141h170v165z" />
    <glyph glyph-name="Utilde" unicode="&#x168;" horiz-adv-x="1174" 
d="M921 1421h141v-1009c-15.333 -112 -61.666 -207 -138.999 -285c-92.667 -92.667 -204.334 -139 -335.001 -139c-132 0 -244.333 46.333 -337 139s-139 204.667 -139 336v958h141v-958c0 -91.333 32.667 -169.833 98 -235.5s144.333 -98.5 237 -98.5
c92 0 170.5 32.833 235.5 98.5s97.5 144.167 97.5 235.5v958zM505 1657c-2 -2 -3.33105 -4.66504 -3.99805 -7.99805c-2 -6 -3 -31.333 -3 -76l-128 27c1.33301 44.667 5.33301 75.667 12 93c14 44.667 39.667 75 77 91c11.333 4.66699 23.666 7 36.999 7
c33.333 0 73 -16.667 119 -50c28.667 -20.667 47.667 -32.334 57 -35.001v2c0 1.33301 0.333008 3.33301 1 6c2 5.33301 3 30.666 3 75.999l128 -25c-2 -45.333 -6 -77 -12 -95c-14.667 -44 -41 -74.333 -79 -91c-12 -4 -23.667 -6 -35 -6c-33.333 0 -73.333 16.667 -120 50
c-24.667 18.667 -42.334 30 -53.001 34z" />
    <glyph glyph-name="utilde" unicode="&#x169;" 
d="M463 -12c-113.333 0 -203.834 33.832 -271.501 101.499s-102.5 153.167 -104.5 256.5v552h141v-545c0 -61.333 22.333 -114 67 -158c44.667 -44.667 100.334 -67 167.001 -67c61.333 0 114.333 22 159 66s67 97 67 159v545h141v-552
c-2 -103.333 -37 -188.666 -105 -255.999c-67.333 -68 -154.333 -102 -261 -102zM375.999 1133c-1.33301 -2 -2.66602 -4.66699 -3.99902 -8c-2 -6 -3 -31.667 -3 -77l-127 28c1.33301 44.667 5 75.667 11 93c14.667 44.667 40.667 74.667 78 90c10.667 5.33301 23 8 37 8
c32.667 0 72 -16.667 118 -50c28.667 -21.333 47.667 -33.333 57 -36v2c0 1.33301 0.333008 3.33301 1 6c2 6 3 31.667 3 77l129 -25c-2.66699 -45.333 -7 -77 -13 -95c-14.667 -44 -40.667 -74.333 -78 -91c-12 -4 -24 -6 -36 -6c-32.667 0 -72.334 16.667 -119.001 50
c-26 18.667 -44 30 -54 34z" />
    <glyph glyph-name="Umacron" unicode="&#x16a;" horiz-adv-x="1174" 
d="M921 1421h141v-1009c-15.333 -112 -61.666 -207 -138.999 -285c-92.667 -92.667 -204.334 -139 -335.001 -139c-132 0 -244.333 46.333 -337 139s-139 204.667 -139 336v958h141v-958c0 -91.333 32.667 -169.833 98 -235.5s144.333 -98.5 237 -98.5
c92 0 170.5 32.833 235.5 98.5s97.5 144.167 97.5 235.5v958zM305 1725h564v-124h-564v124z" />
    <glyph glyph-name="umacron" unicode="&#x16b;" 
d="M463 -12c-113.333 0 -203.834 33.832 -271.501 101.499s-102.5 153.167 -104.5 256.5v552h141v-545c0 -61.333 22.333 -114 67 -158c44.667 -44.667 100.334 -67 167.001 -67c61.333 0 114.333 22 159 66s67 97 67 159v545h141v-552
c-2 -103.333 -37 -188.666 -105 -255.999c-67.333 -68 -154.333 -102 -261 -102zM175.999 1201h564v-124h-564v124z" />
    <glyph glyph-name="Ubreve" unicode="&#x16c;" horiz-adv-x="1174" 
d="M921 1421h141v-1009c-15.333 -112 -61.666 -207 -138.999 -285c-92.667 -92.667 -204.334 -139 -335.001 -139c-132 0 -244.333 46.333 -337 139s-139 204.667 -139 336v958h141v-958c0 -91.333 32.667 -169.833 98 -235.5s144.333 -98.5 237 -98.5
c92 0 170.5 32.833 235.5 98.5s97.5 144.167 97.5 235.5v958zM478 1819c6 -41.333 17.334 -70 34.001 -86c20.667 -21.333 46 -32 76 -32c29.333 0 54.333 10.667 75 32c17.333 16 28.666 44.667 33.999 86h124c-7.33301 -78 -30.666 -136.667 -69.999 -176
c-44.667 -45.333 -99 -68 -163 -68c-64.667 0 -119.334 22.667 -164.001 68c-42.667 43.333 -66 102 -70 176h124z" />
    <glyph glyph-name="ubreve" unicode="&#x16d;" 
d="M463 -12c-113.333 0 -203.834 33.832 -271.501 101.499s-102.5 153.167 -104.5 256.5v552h141v-545c0 -61.333 22.333 -114 67 -158c44.667 -44.667 100.334 -67 167.001 -67c61.333 0 114.333 22 159 66s67 97 67 159v545h141v-552
c-2 -103.333 -37 -188.666 -105 -255.999c-67.333 -68 -154.333 -102 -261 -102zM348.999 1295c6 -41.333 17.666 -70 34.999 -86c20.667 -21.333 46 -32 76 -32c28.667 0 53.334 10.667 74.001 32c17.333 16 28.666 44.667 33.999 86h125
c-7.33301 -78 -30.666 -136.667 -69.999 -176c-44.667 -45.333 -99 -68 -163 -68c-65.333 0 -120.333 22.667 -165 68c-42 43.333 -65.333 102 -70 176h124z" />
    <glyph glyph-name="Uring" unicode="&#x16e;" horiz-adv-x="1174" 
d="M921 1421h141v-1009c-15.333 -112 -61.666 -207 -138.999 -285c-92.667 -92.667 -204.334 -139 -335.001 -139c-132 0 -244.333 46.333 -337 139s-139 204.667 -139 336v958h141v-958c0 -91.333 32.667 -169.833 98 -235.5s144.333 -98.5 237 -98.5
c92 0 170.5 32.833 235.5 98.5s97.5 144.167 97.5 235.5v958zM683.5 1762.5c26.333 -27 39.5 -59.167 39.5 -96.5s-13.167 -69.166 -39.5 -95.499s-58.166 -39.5 -95.499 -39.5c-38 0 -70.333 13.167 -97 39.5s-40 58.166 -40 95.499s13.333 69.5 40 96.5s59 40.5 97 40.5
c37.333 0 69.166 -13.5 95.499 -40.5zM588 1684c-5.33301 0 -9.66602 -1.66699 -12.999 -5s-5 -7.66602 -5 -12.999c0 -4 1.66699 -7.66699 5 -11s7.66602 -5 12.999 -5c3.33301 0 6.83301 1.66699 10.5 5s5.5 7 5.5 11c0 5.33301 -1.83301 9.66602 -5.5 12.999
s-7.16699 5 -10.5 5z" />
    <glyph glyph-name="uring" unicode="&#x16f;" 
d="M463 -12c-113.333 0 -203.834 33.832 -271.501 101.499s-102.5 153.167 -104.5 256.5v552h141v-545c0 -61.333 22.333 -114 67 -158c44.667 -44.667 100.334 -67 167.001 -67c61.333 0 114.333 22 159 66s67 97 67 159v545h141v-552
c-2 -103.333 -37 -188.666 -105 -255.999c-67.333 -68 -154.333 -102 -261 -102zM554.999 1238c26.667 -26.667 40 -58.667 40 -96s-13.333 -69.166 -40 -95.499s-58.667 -39.5 -96 -39.5s-69.5 13.167 -96.5 39.5s-40.5 58.166 -40.5 95.499s13.333 69.333 40 96
s59 40 97 40c37.333 0 69.333 -13.333 96 -40zM458.999 1160c-5.33301 0 -9.66602 -1.66699 -12.999 -5s-5 -7.66602 -5 -12.999c0 -4 1.66699 -7.66699 5 -11s7.66602 -5 12.999 -5c4 0 7.66699 1.66699 11 5s5 7 5 11c0 5.33301 -1.66699 9.66602 -5 12.999s-7 5 -11 5z
" />
    <glyph glyph-name="Uhungarumlaut" unicode="&#x170;" horiz-adv-x="1174" 
d="M921 1421h141v-1009c-15.333 -112 -61.666 -207 -138.999 -285c-92.667 -92.667 -204.334 -139 -335.001 -139c-132 0 -244.333 46.333 -337 139s-139 204.667 -139 336v958h141v-958c0 -91.333 32.667 -169.833 98 -235.5s144.333 -98.5 237 -98.5
c92 0 170.5 32.833 235.5 98.5s97.5 144.167 97.5 235.5v958zM704 1759l-292 -222h-152l194 222h250zM958 1759l-291 -222h-153l194 222h250z" />
    <glyph glyph-name="uhungarumlaut" unicode="&#x171;" 
d="M463 -12c-113.333 0 -203.834 33.832 -271.501 101.499s-102.5 153.167 -104.5 256.5v552h141v-545c0 -61.333 22.333 -114 67 -158c44.667 -44.667 100.334 -67 167.001 -67c61.333 0 114.333 22 159 66s67 97 67 159v545h141v-552
c-2 -103.333 -37 -188.666 -105 -255.999c-67.333 -68 -154.333 -102 -261 -102zM575.999 1235l-293 -222h-152l194 222h251zM828.999 1235l-291 -222h-153l194 222h250z" />
    <glyph glyph-name="Uogonek" unicode="&#x172;" horiz-adv-x="1174" 
d="M646 -11c-2 -0.666992 -21.333 -1.00195 -58 -1.00195c-132 0 -244.333 46.333 -337 139s-139 204.667 -139 336v958h141v-958c0 -91.333 32.667 -169.833 98 -235.5s144.333 -98.5 237 -98.5c92 0 170.5 32.833 235.5 98.5s97.5 144.167 97.5 235.5v958h141v-1009
c-15.333 -112 -61.666 -207 -138.999 -285c-47.333 -46.667 -97 -80.667 -149 -102c-3.33301 -4 -5 -11 -5 -21c0 -3.33301 0.333008 -6.33301 1 -9l1 -5c2 -12.667 8.66699 -23.667 20 -33c9.33301 -7.33301 19.333 -11 30 -11c0.666992 0 2.66699 0.333008 6 1h6
c12 2 34.667 19.333 68 52l59 -97l-20 -20c-20.667 -27.333 -49.334 -44 -86.001 -50l-12 -3c-8.66699 -1.33301 -16 -2 -22 -2c-36.667 0 -70.667 12.333 -102 37c-34 26 -55 59.333 -63 100c-1.33301 6.66699 -2 12.334 -2 17.001c-0.666992 6.66699 -1 13.334 -1 20.001z
" />
    <glyph glyph-name="uogonek" unicode="&#x173;" 
d="M359 -1c-66 14.667 -121.67 45.0029 -167.003 91.0029c-68 67.333 -103 152.666 -105 255.999v552h141v-545c0 -61.333 22.333 -114 67 -158c44.667 -44.667 100.334 -67 167.001 -67c61.333 0 114.333 22 159 66s67 97 67 159v545h141v-552
c-2 -103.333 -37 -188.666 -105 -255.999c-54.667 -54.667 -122 -87.334 -202 -98.001c-21.333 -8.66699 -35.666 -16.334 -42.999 -23.001c-11.333 -10 -17.333 -22 -18 -36v-5c0 -13.333 4.33301 -25.333 13 -36c9.33301 -10.667 21.333 -16.334 36 -17.001h1
c14.667 0 41.334 12.667 80.001 38l38 -107l-22 -16c-26 -22.667 -57.667 -34 -95 -34h-12c-46 3.33301 -84.667 22.666 -116 57.999c-27.333 32.667 -41 69.334 -41 110.001c0 6 0.333008 11.667 1 17c2 20.667 7 40 15 58z" />
    <glyph glyph-name="Wcircumflex" unicode="&#x174;" horiz-adv-x="1659" 
d="M883 1731l268 -263h-177l-147 112l-138 -112h-177l256 263h115zM456 255l309 768h128l309 -766l312 1164h146l-381 -1421h-124l-325 805l-325 -805h-125l-380 1421h145z" />
    <glyph glyph-name="wcircumflex" unicode="&#x175;" horiz-adv-x="1136" 
d="M155 897l189 -634l150 492h148l146 -492l194 634h155l-276 -897h-146l-148 491l-151 -491h-145l-271 897h155zM622 1283l267 -263h-177l-147 113l-138 -113h-177l257 263h115z" />
    <glyph glyph-name="Ycircumflex" unicode="&#x176;" horiz-adv-x="1185" 
d="M522 573l-490 848h161l399 -691l399 691h162l-490 -848v-573h-141v573zM646 1807l268 -262h-178l-147 112l-138 -112h-176l256 262h115z" />
    <glyph glyph-name="ycircumflex" unicode="&#x177;" horiz-adv-x="849" 
d="M488 156l-220 -473h-156l235 504l-332 710h156l253 -538l255 538h156l-346 -741h-1zM478 1283l267 -263h-177l-147 113l-138 -113h-177l257 263h115z" />
    <glyph glyph-name="Ydieresis" unicode="&#x178;" horiz-adv-x="1185" 
d="M522 573l-490 848h161l399 -691l399 691h162l-490 -848v-573h-141v573zM541 1809.5c21.333 -21 32 -46.167 32 -75.5c0 -30.667 -10.667 -56.5 -32 -77.5s-46.333 -31.5 -75 -31.5c-30 0 -55.667 10.5 -77 31.5s-32 46.833 -32 77.5c0 29.333 10.667 54.5 32 75.5
s47 31.5 77 31.5c28.667 0 53.667 -10.5 75 -31.5zM796 1809.5c21.333 -21 32 -46.167 32 -75.5c0 -30.667 -10.667 -56.5 -32 -77.5s-46.666 -31.5 -75.999 -31.5c-30 0 -55.667 10.5 -77 31.5s-32 46.833 -32 77.5c0 29.333 10.667 54.5 32 75.5s47 31.5 77 31.5
c29.333 0 54.666 -10.5 75.999 -31.5z" />
    <glyph glyph-name="Zacute" unicode="&#x179;" horiz-adv-x="1150" 
d="M823 1281h-716v140h959l-741 -1280h717v-141h-958zM856 1776l-292 -223h-152l194 223h250z" />
    <glyph glyph-name="zacute" unicode="&#x17a;" horiz-adv-x="805" 
d="M492 745h-407v140h650l-73 -124l-359 -620h441v-141h-682l72 125zM696 1252l-292 -223h-153l194 223h251z" />
    <glyph glyph-name="Zdotaccent" unicode="&#x17b;" horiz-adv-x="1150" 
d="M823 1281h-716v140h959l-741 -1280h717v-141h-958zM643 1790c19.333 -18.667 29 -41.334 29 -68.001c0 -27.333 -9.66699 -50.333 -29 -69s-42 -28 -68 -28c-26.667 0 -49.5 9.33301 -68.5 28s-28.5 41.667 -28.5 69c0 26.667 9.5 49.334 28.5 68.001s41.833 28 68.5 28
c26 0 48.667 -9.33301 68 -28z" />
    <glyph glyph-name="zdotaccent" unicode="&#x17c;" horiz-adv-x="805" 
d="M492 745h-407v140h650l-73 -124l-359 -620h441v-141h-682l72 125zM482.5 1266c19 -18.667 28.5 -41.667 28.5 -69c0 -26.667 -9.5 -49.334 -28.5 -68.001s-41.5 -28 -67.5 -28c-26.667 0 -49.5 9.33301 -68.5 28s-28.5 41.334 -28.5 68.001c0 27.333 9.5 50.333 28.5 69
s41.833 28 68.5 28c26 0 48.5 -9.33301 67.5 -28z" />
    <glyph glyph-name="Zcaron" unicode="&#x17d;" horiz-adv-x="1150" 
d="M823 1281h-716v140h959l-741 -1280h717v-141h-958zM513 1545l-257 262h177l138 -112l147 112h177l-267 -262h-115z" />
    <glyph glyph-name="zcaron" unicode="&#x17e;" horiz-adv-x="805" 
d="M492 745h-407v140h650l-73 -124l-359 -620h441v-141h-682l72 125zM352 1020l-256 263h177l138 -112l147 112h177l-268 -263h-115z" />
    <glyph glyph-name="AEacute" unicode="&#x1fc;" horiz-adv-x="1470" 
d="M1415 781v-141h-602v-499h602v-141h-742v520h-235l-232 -520h-151l618 1421h742v-140h-602v-500h602zM673 660v417l-180 -417h180zM1024 1776l-292 -223h-152l194 223h250z" />
    <glyph glyph-name="aeacute" unicode="&#x1fd;" horiz-adv-x="1970" 
d="M918 402v143.999c-12.667 66.667 -44.667 126 -96 178c-69.333 69.333 -152.666 104 -249.999 104s-180.5 -34.667 -249.5 -104s-103.5 -152.666 -103.5 -249.999s34.333 -180.333 103 -249s152 -103 250 -103c97.333 0 180.666 34.667 249.999 104
c51.333 51.333 83.333 110 96 176zM1090 626.999l643.997 0.000976562c-8 25.333 -31.667 57.666 -71 96.999c-69.333 69.333 -152.666 104 -249.999 104s-180.666 -34.667 -249.999 -104c-41.333 -42 -65.666 -74.333 -72.999 -97zM1059 125l0.00292969 -124.997h-141v105
c-92.667 -86 -208 -129 -346 -129c-137.333 0 -254.666 48.667 -351.999 146s-146 214.666 -146 351.999c0 138 48.667 255.5 146 352.5s214.666 145.5 351.999 145.5c138 0 253.333 -42.667 346 -128v53h141v-74c0.666992 1.33301 1.66699 2.66602 3 3.99902
c97.333 96.667 214.333 145 351 145c138 0 255.667 -48.667 353 -146c86.667 -86.667 130 -200.334 130 -341.001h-837c0.666992 -104.667 35.5 -191.334 104.5 -260.001s152.167 -103 249.5 -103s180.666 34.667 249.999 104c12 12 28.333 30.333 49 55l140 -49
c-24.667 -41.333 -53.334 -77.666 -86.001 -108.999c-96.667 -98 -214.334 -147 -353.001 -147c-136.667 0 -253.667 48.667 -351 146zM1281 1252l-292 -223h-152l194 223h250z" />
    <glyph glyph-name="Oslashacute" unicode="&#x1fe;" horiz-adv-x="1653" 
d="M1009 1272c-44 18 -105 27 -183 27c-161.333 0 -299.333 -57.333 -414 -172s-172 -252.667 -172 -414c0 -162 57.333 -300.333 172 -415c41.333 -42 76 -71 104 -87zM643 152c44.667 -18 105.667 -26.999 183 -26.999c162 0 300.333 57.5 415 172.5s172 253.5 172 415.5
c0 161.333 -57.333 299.666 -172 414.999c-42 41.333 -76.667 69.333 -104 84zM1197 1342c43.333 -23.333 91.667 -61.3311 145 -113.998c142 -142.667 213 -314.334 213 -515.001c0 -202 -71.167 -374 -213.5 -516s-314.166 -213 -515.499 -213
c-96.667 0 -177.667 13 -243 39l-74 -158l-127 60l74 158c-43.333 23.333 -91.333 61.666 -144 114.999c-142.667 141.333 -214 313 -214 515c0 200.667 71.167 372.167 213.5 514.5s313.833 213.5 514.5 213.5c97.333 0 178.666 -13 243.999 -39l74 156l127 -58zM1123 1776
l-293 -223h-152l194 223h251z" />
    <glyph glyph-name="oslashacute" unicode="&#x1ff;" horiz-adv-x="1105" 
d="M788 741l-349 -602.999c22.667 -10 60.667 -15 114 -15c97.333 0 180.5 34.167 249.5 102.5s103.5 151.5 103.5 249.5c0 97.333 -34.333 180.666 -103 249.999c-8 8 -13 13.333 -15 16zM319 208.001l348.001 604c-23.333 10.667 -61.333 16 -114 16
c-98 0 -181.333 -34.5 -250 -103.5s-103 -152.167 -103 -249.5c0 -98 34.333 -181 103 -249c9.33301 -9.33301 14.666 -15.333 15.999 -18zM246.001 82.001c-8.66699 6 -23.666 19.667 -44.999 41c-97.333 97.333 -146 214.666 -146 351.999c0 138 48.667 255.5 146 352.5
s214.666 145.5 351.999 145.5c77.333 0 140 -11.333 188 -34l103 181l124 -65l-107 -186c8 -6 23 -20 45 -42c96 -96.667 144 -214 144 -352c0 -137.333 -48.333 -254.666 -145 -351.999s-214 -146 -352 -146c-78 0 -140.333 11.333 -187 34l-105 -180l-125 59z
M849.002 1252l-293 -223h-152l194 223h251z" />
    <glyph glyph-name="circumflex" unicode="&#x2c6;" horiz-adv-x="789" 
d="M446 1283l268 -263h-177l-147 113l-138 -113h-177l256 263h115z" />
    <glyph glyph-name="caron" unicode="&#x2c7;" horiz-adv-x="789" 
d="M331 1020l-256 263h177l138 -112l147 112h177l-268 -263h-115z" />
    <glyph glyph-name="uni02C9" unicode="&#x2c9;" horiz-adv-x="714" 
d="M75 1201h564v-124h-564v124z" />
    <glyph glyph-name="breve" unicode="&#x2d8;" horiz-adv-x="617" 
d="M199 1295c6 -41.333 17.332 -70 33.999 -86c20.667 -21.333 46.334 -32 77.001 -32c28.667 0 53.334 10.667 74.001 32c17.333 16 28.666 44.667 33.999 86h125c-8 -78 -31.667 -136.667 -71 -176c-44 -45.333 -98 -68 -162 -68c-65.333 0 -120.333 22.667 -165 68
c-42 43.333 -65.333 102 -70 176h124z" />
    <glyph glyph-name="dotaccent" unicode="&#x2d9;" horiz-adv-x="344" 
d="M240 1266c19.333 -18.667 29 -41.667 29 -69c0 -26.667 -9.66699 -49.334 -29 -68.001s-42 -28 -68 -28c-26.667 0 -49.5 9.33301 -68.5 28s-28.5 41.334 -28.5 68.001c0 27.333 9.5 50.333 28.5 69s41.833 28 68.5 28c26 0 48.667 -9.33301 68 -28z" />
    <glyph glyph-name="ring" unicode="&#x2da;" horiz-adv-x="422" 
d="M307.5 1238c26.333 -26.667 39.5 -58.667 39.5 -96s-13.167 -69.166 -39.5 -95.499s-58.166 -39.5 -95.499 -39.5c-38 0 -70.333 13.167 -97 39.5s-40 58.166 -40 95.499s13.333 69.333 40 96s59 40 97 40c37.333 0 69.166 -13.333 95.499 -40zM212 1160
c-5.33301 0 -9.66602 -1.66699 -12.999 -5s-5 -7.66602 -5 -12.999c0 -4 1.66699 -7.66699 5 -11s7.66602 -5 12.999 -5c4 0 7.66699 1.66699 11 5s5 7 5 11c0 5.33301 -1.66699 9.66602 -5 12.999s-7 5 -11 5z" />
    <glyph glyph-name="ogonek" unicode="&#x2db;" horiz-adv-x="495" 
d="M352 20c-68 -21.333 -109.335 -38.332 -124.002 -50.999c-11.333 -10 -17.333 -22 -18 -36v-5c0 -13.333 4.33301 -25.333 13 -36c9.33301 -10.667 21.333 -16.334 36 -17.001h1c14.667 0 41.334 12.667 80.001 38l38 -107l-22 -16c-26 -22.667 -57.667 -34 -95 -34h-12
c-46 3.33301 -84.667 22.666 -116 57.999c-27.333 32.667 -41 69.334 -41 110.001c0 6 0.333008 11.667 1 17c4 47.333 23.667 86.333 59 117c30.667 26 64.334 39 101.001 39c6.66699 0 17.667 -1 33 -3z" />
    <glyph glyph-name="tilde" unicode="&#x2dc;" horiz-adv-x="584" 
d="M209 1133c-1.33301 -2 -2.66699 -4.66699 -4 -8c-2 -6 -3 -31.667 -3 -77l-127 28c1.33301 44.667 5 75.667 11 93c14.667 44.667 40.667 74.667 78 90c10.667 5.33301 23 8 37 8c33.333 0 73 -16.667 119 -50c28.667 -21.333 47.334 -33.333 56.001 -36
c0 1.33301 0.666992 4 2 8c1.33301 6 2 31.667 2 77l129 -25c-2.66699 -45.333 -7 -77 -13 -95c-14.667 -44 -40.667 -74.333 -78 -91c-12 -4 -24 -6 -36 -6c-32.667 0 -72.334 16.667 -119.001 50c-26 18.667 -44 30 -54 34z" />
    <glyph glyph-name="hungarumlaut" unicode="&#x2dd;" horiz-adv-x="788" 
d="M490 1235l-293 -222h-152l194 222h251zM743 1235l-291 -222h-153l194 222h250z" />
    <glyph glyph-name="Wgrave" unicode="&#x1e80;" horiz-adv-x="1659" 
d="M799 1699l194 -223h-153l-291 223h250zM456 255l309 768h128l309 -766l312 1164h146l-381 -1421h-124l-325 805l-325 -805h-125l-380 1421h145z" />
    <glyph glyph-name="wgrave" unicode="&#x1e81;" horiz-adv-x="1136" 
d="M155 897l189 -634l150 492h148l146 -492l194 634h155l-276 -897h-146l-148 491l-151 -491h-145l-271 897h155zM538 1252l194 -223h-153l-292 223h251z" />
    <glyph glyph-name="Wacute" unicode="&#x1e82;" horiz-adv-x="1659" 
d="M1111 1699l-292 -223h-153l194 223h251zM456 255l309 768h128l309 -766l312 1164h146l-381 -1421h-124l-325 805l-325 -805h-125l-380 1421h145z" />
    <glyph glyph-name="wacute" unicode="&#x1e83;" horiz-adv-x="1136" 
d="M155 897l189 -634l150 492h148l146 -492l194 634h155l-276 -897h-146l-148 491l-151 -491h-145l-271 897h155zM849 1252l-292 -223h-152l194 223h250z" />
    <glyph glyph-name="Wdieresis" unicode="&#x1e84;" horiz-adv-x="1659" 
d="M779 1732.5c21.333 -21 32 -46.167 32 -75.5c0 -30.667 -10.667 -56.5 -32 -77.5s-46.666 -31.5 -75.999 -31.5c-30 0 -55.667 10.5 -77 31.5s-32 46.833 -32 77.5c0 29.333 10.667 54.5 32 75.5s47 31.5 77 31.5c29.333 0 54.666 -10.5 75.999 -31.5zM1033 1732.5
c21.333 -21 32 -46.167 32 -75.5c0 -30.667 -10.667 -56.5 -32 -77.5s-46.333 -31.5 -75 -31.5c-30 0 -55.667 10.5 -77 31.5s-32 46.833 -32 77.5c0 29.333 10.667 54.5 32 75.5s47 31.5 77 31.5c28.667 0 53.667 -10.5 75 -31.5zM456 255l309 768h128l309 -766l312 1164
h146l-381 -1421h-124l-325 805l-325 -805h-125l-380 1421h145z" />
    <glyph glyph-name="wdieresis" unicode="&#x1e85;" horiz-adv-x="1136" 
d="M155 897l189 -634l150 492h148l146 -492l194 634h155l-276 -897h-146l-148 491l-151 -491h-145l-271 897h155zM517 1285.5c21.333 -21 32 -46.167 32 -75.5c0 -30.667 -10.667 -56.5 -32 -77.5s-46.666 -31.5 -75.999 -31.5s-54.666 10.5 -75.999 31.5
s-32 46.833 -32 77.5c0 29.333 10.667 54.5 32 75.5s46.666 31.5 75.999 31.5s54.666 -10.5 75.999 -31.5zM772 1285.5c21.333 -21 32 -46.167 32 -75.5c0 -30.667 -10.667 -56.5 -32 -77.5s-46.666 -31.5 -75.999 -31.5c-30 0 -55.667 10.5 -77 31.5s-32 46.833 -32 77.5
c0 29.333 10.667 54.5 32 75.5s47 31.5 77 31.5c29.333 0 54.666 -10.5 75.999 -31.5z" />
    <glyph glyph-name="Ygrave" unicode="&#x1ef2;" horiz-adv-x="1185" 
d="M522 573l-490 848h161l399 -691l399 691h162l-490 -848v-573h-141v573zM562 1776l194 -223h-153l-291 223h250z" />
    <glyph glyph-name="ygrave" unicode="&#x1ef3;" horiz-adv-x="849" 
d="M488 156l-220 -473h-156l235 504l-332 710h156l253 -538l255 538h156l-346 -741h-1zM395 1252l194 -223h-153l-292 223h251z" />
    <glyph glyph-name="endash" unicode="&#x2013;" horiz-adv-x="718" 
d="M0 604h718v-140h-718v140z" />
    <glyph glyph-name="emdash" unicode="&#x2014;" horiz-adv-x="1268" 
d="M0 604h1268v-140h-1268v140z" />
    <glyph glyph-name="afii00208" unicode="&#x2015;" horiz-adv-x="3061" 
d="M0 604h1870v-140h-1870v140z" />
    <glyph glyph-name="underscoredbl" unicode="&#x2017;" horiz-adv-x="823" 
d="M-45 -151h913v-140h-913v140zM-45 38h913v-140h-913v140z" />
    <glyph glyph-name="quoteleft" unicode="&#x2018;" horiz-adv-x="319" 
d="M219 1295l13.999 -20c21.333 -21.333 32 -47.333 32 -78c0 -30 -10.667 -55.333 -32 -76s-46.666 -31 -75.999 -31c-30 0 -55.667 10.333 -77 31s-32 46 -32 76c0 16 2.66699 31.667 8 47l94 186h120z" />
    <glyph glyph-name="quoteright" unicode="&#x2019;" horiz-adv-x="319" 
d="M99 1225l-12.998 20.999c-21.333 20.667 -32 46.334 -32 77.001s10.667 56.167 32 76.5s46.666 30.5 75.999 30.5s54.666 -10.167 75.999 -30.5s32 -45.833 32 -76.5c0 -16 -2.66699 -31.333 -8 -46l-93 -187h-121z" />
    <glyph glyph-name="quotesinglbase" unicode="&#x201a;" horiz-adv-x="319" 
d="M99 -3l-12.998 21c-21.333 20.667 -32 46 -32 76c0 30.667 10.667 56.334 32 77.001s46.666 31 75.999 31s54.666 -10.333 75.999 -31s32 -46.334 32 -77.001c0 -15.333 -2.66699 -30.333 -8 -45l-93 -187h-121z" />
    <glyph glyph-name="quotereversed" unicode="&#x201b;" horiz-adv-x="319" 
d="M270 1090l-120.999 0.000976562l-93 187c-5.33301 14.667 -8 30 -8 46c0 30.667 10.667 56.167 32 76.5s46.666 30.5 75.999 30.5s54.833 -10.167 76.5 -30.5s32.5 -45.833 32.5 -76.5s-11 -56.334 -33 -77.001l-13 -21z" />
    <glyph glyph-name="quotedblleft" unicode="&#x201c;" horiz-adv-x="552" 
d="M219 1295l13.999 -20c21.333 -21.333 32 -47.333 32 -78c0 -30 -10.667 -55.333 -32 -76s-46.666 -31 -75.999 -31c-30 0 -55.667 10.333 -77 31s-32 46 -32 76c0 16 2.66699 31.667 8 47l94 186h120zM452.999 1295l14 -20c21.333 -21.333 32 -47.333 32 -78
c0 -30 -10.667 -55.333 -32 -76s-47 -31 -77 -31s-55.5 10.5 -76.5 31.5s-31.5 46.167 -31.5 75.5c0 16 2.66699 31.667 8 47l93 186h121z" />
    <glyph glyph-name="quotedblright" unicode="&#x201d;" horiz-adv-x="552" 
d="M333 1224l-13.998 20.999c-20.667 20.667 -31 46.334 -31 77.001c0 30 10.667 55.5 32 76.5s46.666 31.5 75.999 31.5s54.666 -10.5 75.999 -31.5s32 -46.5 32 -76.5c0 -16 -2.66699 -31.333 -8 -46l-93 -186h-121zM99.002 1224l-14 20.999
c-20.667 20.667 -31 46.334 -31 77.001c0 30 10.667 55.5 32 76.5s47 31.5 77 31.5c29.333 0 54.5 -10.5 75.5 -31.5s31.5 -46.5 31.5 -76.5c0 -16 -2.66699 -31.333 -8 -46l-92 -186h-122z" />
    <glyph glyph-name="quotedblbase" unicode="&#x201e;" horiz-adv-x="552" 
d="M333 -6l-13.998 20.999c-20.667 20.667 -31 46.334 -31 77.001c0 30 10.667 55.5 32 76.5s46.666 31.5 75.999 31.5s54.666 -10.5 75.999 -31.5s32 -46.5 32 -76.5c0 -16 -2.66699 -31.333 -8 -46l-93 -186h-121zM99.002 -6.00098l-14 20.999
c-20.667 20.667 -31 46.334 -31 77.001c0 30 10.667 55.5 32 76.5s47 31.5 77 31.5c29.333 0 54.5 -10.5 75.5 -31.5s31.5 -46.5 31.5 -76.5c0 -16 -2.66699 -31.333 -8 -46l-92 -186h-122z" />
    <glyph glyph-name="dagger" unicode="&#x2020;" horiz-adv-x="733" 
d="M310 1418v185h113v-185h212v-113h-212v-1158h-113v1158h-212v113h212z" />
    <glyph glyph-name="daggerdbl" unicode="&#x2021;" horiz-adv-x="733" 
d="M310 1305h-212v113h212v185h113v-185h212v-113h-212v-348h212v-113h-212v-697h-113v697h-212v113h212v348z" />
    <glyph glyph-name="bullet" unicode="&#x2022;" horiz-adv-x="2620" 
d="M1041 1359l546 -0.00195312l308 -392l-64 -302c84 28 126 72.667 126 134c-13.333 16 -20 32 -20 48c0 52 46.667 78 140 78c69.333 0 139.333 -46.667 210 -140c45.333 -37.333 131.333 -74.666 258 -111.999c0 -18.667 -6.66699 -28 -20 -28
c0 -9.33301 2 -16.666 6 -21.999c-4 -22.667 -22.667 -37 -56 -43c-12 -2 -26 -3 -42 -3c-29.333 0 -65.333 3.33301 -108 10c16 -13.333 61.333 -20 136 -20c14 2.66699 26.333 4 37 4s19.667 -1.33301 27 -4c0 -36 -68 -64 -204 -84l-126 8
c76 -37.333 139.333 -56 190 -56h42v-8c-34.667 -46.667 -98 -70 -190 -70c-46.667 0 -100 12 -160 36c0 -29.333 53.333 -62 160 -98c0 -18.667 -25.333 -30.667 -76 -36c-29.333 0 -92.666 21.333 -190 64c0 -22.667 23.333 -53.334 70 -92.001c-3.33301 -2 -9 -3 -17 -3
c-24 0 -69.667 10.333 -137 31l22 -62l-28 -8c-25.333 0 -70 35.333 -134 106l-62 -294h-742l-84 294c-49.333 -62.667 -89.333 -98 -120 -106l-28 8l14 62c-57.333 -28 -101.333 -42 -132 -42l-14 22c42 25.333 63 50.666 63 75.999
c0 2.66699 -0.333008 5.33398 -1 8.00098c-85.333 -42.667 -148 -64 -188 -64c-46.667 5.33301 -70 17.333 -70 36c102.667 34.667 154 66.334 154 95.001v3c-48 -24 -99.333 -36 -154 -36h-28c-73.333 0 -127.333 23.333 -162 70v8h42c50.667 0 95 5.66699 133 17
s57 24.333 57 39l-140 -8c-126.667 22.667 -190 50.667 -190 84l14 8l50 -8c31.333 -1.33301 58.333 -2 81 -2c44.667 0 71.667 2.66699 81 8l-156 11c-46.667 3.33301 -72 14.333 -76 33l6 20l-20 8v28c149.333 41.333 247.333 90 294 146
c49.333 70.667 107.333 106 174 106c93.333 0 140 -26 140 -78c0 -16 -6.66699 -32 -20 -48c14.667 -89.333 52 -134 112 -134l-70 302zM1288 777.998c0 26 16.666 51.335 49.999 76.002c11.333 -24.667 25.666 -84 42.999 -178c3.33301 -20 5 -40.667 5 -62
c0 -77.333 -24.333 -160.666 -73 -249.999c76.667 67.333 136 133.666 178 198.999c34 53.333 51 105 51 155c0 11.333 -0.666992 22.666 -2 33.999c-9.33301 60.667 -18.666 106.667 -27.999 138c-9.33301 32 -17.666 67.667 -24.999 107l-163 -59
c-10.667 -6 -22.667 -11.667 -36 -17v3c-4 46.667 -14.333 71 -31 73c-35.333 -24.667 -94 -56.667 -176 -96c31.333 -9.33301 47 -24 47 -44v-252c0 -4 -3.66699 -8.33301 -11 -13s-20.333 -11.667 -39 -21c32 -48 65 -72 99 -72c15.333 0 31 5 47 15
c50 30.667 90 50.667 120 60c-30 7.33301 -46.833 15.166 -50.5 23.499s-5.5 14.5 -5.5 18.5v162z" />
    <glyph glyph-name="ellipsis" unicode="&#x2026;" horiz-adv-x="2051" 
d="M283 172.5c21.333 -21 32 -46.5 32 -76.5s-10.667 -55.5 -32 -76.5s-46.666 -31.5 -75.999 -31.5c-30 0 -55.667 10.5 -77 31.5s-32 46.5 -32 76.5s10.667 55.5 32 76.5s47 31.5 77 31.5c29.333 0 54.666 -10.5 75.999 -31.5zM938 172.5c21.333 -21 32 -46.5 32 -76.5
s-10.667 -55.5 -32 -76.5s-46.666 -31.5 -75.999 -31.5s-54.666 10.5 -75.999 31.5s-32 46.5 -32 76.5s10.667 55.5 32 76.5s46.666 31.5 75.999 31.5s54.666 -10.5 75.999 -31.5zM1594 172.5c21.333 -21 32 -46.5 32 -76.5s-10.667 -55.5 -32 -76.5
s-46.666 -31.5 -75.999 -31.5c-30 0 -55.667 10.5 -77 31.5s-32 46.5 -32 76.5s10.667 55.5 32 76.5s47 31.5 77 31.5c29.333 0 54.666 -10.5 75.999 -31.5z" />
    <glyph glyph-name="perthousand" unicode="&#x2030;" horiz-adv-x="1587" 
d="M1025 1155l-815 -1165l-115 80l815 1164zM467.5 1028c44.333 -44.667 66.5 -98.667 66.5 -162c0 -62.667 -22.167 -116.334 -66.5 -161.001s-98.166 -67 -161.499 -67s-117.166 22.333 -161.499 67s-66.5 98.334 -66.5 161.001c0 63.333 22.167 117.333 66.5 162
s98.166 67 161.499 67s117.166 -22.333 161.499 -67zM306 957c-25.333 0 -46.666 -8.83301 -63.999 -26.5s-26 -39.167 -26 -64.5c0 -24.667 8.66699 -45.834 26 -63.501s38.666 -26.5 63.999 -26.5c24.667 0 45.834 8.83301 63.501 26.5s26.5 38.834 26.5 63.501
c0 25.333 -8.83301 46.833 -26.5 64.5s-38.834 26.5 -63.501 26.5zM975.5 518.5c44.333 -44.333 66.5 -98.166 66.5 -161.499c0 -62.667 -22.167 -116.167 -66.5 -160.5s-97.833 -66.5 -160.5 -66.5c-63.333 0 -117.166 22.167 -161.499 66.5s-66.5 97.833 -66.5 160.5
c0 63.333 22.167 117.166 66.5 161.499s98.166 66.5 161.499 66.5c62.667 0 116.167 -22.167 160.5 -66.5zM815 448c-25.333 0 -46.666 -8.83301 -63.999 -26.5s-26 -39.167 -26 -64.5c0 -24.667 8.66699 -45.667 26 -63s38.666 -26 63.999 -26c24.667 0 46 8.66699 64 26
s27 38.333 27 63c0 25.333 -9.16699 46.833 -27.5 64.5s-39.5 26.5 -63.5 26.5zM1442.5 518.5c44.333 -44.333 66.5 -98.166 66.5 -161.499c0 -62.667 -22.167 -116.167 -66.5 -160.5s-98.166 -66.5 -161.499 -66.5s-117.166 22.167 -161.499 66.5s-66.5 97.833 -66.5 160.5
c0 63.333 22.167 117.166 66.5 161.499s98.166 66.5 161.499 66.5s117.166 -22.167 161.499 -66.5zM1281 448c-24.667 0 -45.834 -8.83301 -63.501 -26.5s-26.5 -39.167 -26.5 -64.5c0 -24.667 8.83301 -45.667 26.5 -63s38.834 -26 63.501 -26s45.834 8.66699 63.501 26
s26.5 38.333 26.5 63c0 25.333 -8.83301 46.833 -26.5 64.5s-38.834 26.5 -63.501 26.5z" />
    <glyph glyph-name="minute" unicode="&#x2032;" horiz-adv-x="387" 
d="M123 846v573h141v-573h-141z" />
    <glyph glyph-name="second" unicode="&#x2033;" horiz-adv-x="540" 
d="M123 846v573h141v-573h-141zM277 846v573h140v-573h-140z" />
    <glyph glyph-name="guilsinglleft" unicode="&#x2039;" horiz-adv-x="566" 
d="M55 440l456 489v-202l-268 -287l268 -286v-203z" />
    <glyph glyph-name="guilsinglright" unicode="&#x203a;" horiz-adv-x="566" 
d="M55 -49v203l267 286l-267 287v202l456 -489z" />
    <glyph glyph-name="exclamdbl" unicode="&#x203c;" horiz-adv-x="585" 
d="M240 172.5c21.333 -21 32 -46.5 32 -76.5s-10.667 -55.5 -32 -76.5s-46.666 -31.5 -75.999 -31.5c-30 0 -55.667 10.5 -77 31.5s-32 46.5 -32 76.5s10.667 55.5 32 76.5s47 31.5 77 31.5c29.333 0 54.666 -10.5 75.999 -31.5zM232 1421v-1187h-141v1187h141zM498 172.5
c21.333 -21 32 -46.5 32 -76.5s-10.667 -55.5 -32 -76.5s-46.666 -31.5 -75.999 -31.5c-30 0 -55.667 10.5 -77 31.5s-32 46.5 -32 76.5s10.667 55.5 32 76.5s47 31.5 77 31.5c29.333 0 54.666 -10.5 75.999 -31.5zM491 1421v-1187h-141v1187h141z" />
    <glyph glyph-name="uni203E" unicode="&#x203e;" horiz-adv-x="823" 
d="M-45 1612h913v-139h-913v139z" />
    <glyph glyph-name="fraction" unicode="&#x2044;" horiz-adv-x="421" 
d="M1020 1421l-1422 -1421h-198l1420 1421h200z" />
    <glyph glyph-name="fraction" unicode="&#x2215;" horiz-adv-x="421" 
d="M1020 1421l-1422 -1421h-198l1420 1421h200z" />
    <glyph glyph-name="uni207F" unicode="&#x207f;" horiz-adv-x="92" 
d="M196 1147v-672.999h-141v898h141v-9c38.667 38.667 108.667 58 210 58c107.333 0 195 -33.833 263 -101.5s102.667 -152.834 104 -255.501v-590h-140v582c0 62 -22.5 115 -67.5 159s-98.167 66 -159.5 66s-114.333 -21.667 -159 -65
c-24.667 -24.667 -41.667 -47.667 -51 -69z" />
    <glyph glyph-name="franc" unicode="&#x20a3;" horiz-adv-x="1104" 
d="M291 461v960h659v-140h-518v-500h518v-141h-518v-179h244v-140h-244v-321h-141v321h-137v140h137z" />
    <glyph glyph-name="lira" unicode="&#x20a4;" horiz-adv-x="1119" 
d="M289 704c-72 118.667 -112.006 226.333 -120.006 323c-2 12 -3 24 -3 36c0 86 28.667 163.333 86 232c63.333 76 146 118.667 248 128h34c86.667 0 164.334 -28.333 233.001 -85c76.667 -65.333 120 -148 130 -248c1.33301 -14 2 -27.333 2 -40
c0 -40 -11 -85.333 -33 -136l-131 43c14 41.333 21 75 21 101c0 7.33301 -0.333008 14.333 -1 21c-5.33301 61.333 -31.666 111.333 -78.999 150c-42 35.333 -89 53 -141 53c-7.33301 0 -14.333 -0.333008 -21 -1c-61.333 -5.33301 -111.666 -31.333 -150.999 -78
c-34.667 -42 -52 -88.667 -52 -140c0 -8 0.333008 -15.667 1 -23c5.33301 -60 26 -128 62 -204c30.667 -49.333 53.334 -93.333 68.001 -132h207v-140h-162c2 -8 4 -20.333 6 -37h156v-141h-148c-3.33301 -98.667 -28.333 -175.667 -75 -231h108
c42.667 0 85.334 -4.66699 128.001 -14c54 -12 105 -18 153 -18c42.667 0 93.667 7.33301 153 22l27 -139c-68.667 -16 -128.667 -24 -180 -24c-52.667 0 -106.667 6.33301 -162 19c-53.333 11.333 -100 17 -140 17c-34.667 0 -64.334 -4 -89.001 -12
c-57.333 -21.333 -120.666 -49.333 -189.999 -84l-110 131c84.667 74.667 135.667 122 153 142c54.667 66 82.334 129.667 83.001 191h-199v141h189c-1.33301 8 -4.33301 20.333 -9 37h-180v140h128z" />
    <glyph glyph-name="peseta" unicode="&#x20a7;" horiz-adv-x="1672" 
d="M1029 272l122 32c0 -68 13.667 -115.667 41 -143s60.333 -41 99 -41c38 0 70.667 13.667 98 41s41 60.333 41 99c0 38 -13.667 70.667 -41 98c-16 16 -50.333 41 -103 75c-67.333 36 -114.333 67.667 -141 95c-45.333 45.333 -68 100 -68 164c0 40 0.666992 61.333 2 64
h-50v-484zM281 1280v-668.001h175c81.333 0 151.333 32.5 210 97.5s88 144.167 88 237.5c0 92.667 -29.333 171.334 -88 236.001s-128.667 97 -210 97h-175zM1029 162.999l-0.000976562 -162.998h-141v756h-34c-16 -46.667 -47 -95 -93 -145
c-84 -94 -185.667 -141 -305 -141h-175v-470h-133v1421h355c102 -15.333 188.333 -62 259 -140c83.333 -92.667 125 -204 125 -334c0 -30.667 -0.333008 -47.334 -1 -50.001h2v355h141v-355h169c30.667 18 67.334 27 110.001 27c64.667 0 118 -21.333 160 -64
c41.333 -41.333 62 -89.333 62 -144v-25l-124 -50c-8.66699 62.667 -20.834 102 -36.501 118s-36.167 24 -61.5 24s-47 -9 -65 -27s-27 -39.333 -27 -64c0 -25.333 9.33301 -47 28 -65c12 -13.333 39.667 -33.333 83 -60c74.667 -40.667 128.334 -77.334 161.001 -110.001
c54 -55.333 81 -121 81 -197c0 -77.333 -27 -143.333 -81 -198s-119.667 -82 -197 -82s-143 27.333 -197 82c-30 30 -51.667 63.667 -65 101z" />
    <glyph glyph-name="Euro" unicode="&#x20ac;" horiz-adv-x="1106" 
d="M144 815l0.000976562 108.999c0 136.667 47.167 253.667 141.5 351s208.166 146 341.499 146c134 0 254.667 -56 362 -168l-99 -104c-81.333 84.667 -169 127 -263 127s-174.333 -34.333 -241 -103s-100 -151.667 -100 -249v-109h547l-28 -141h-519v-38h513l-29 -140
h-484v-22c0 -98 33.333 -181.167 100 -249.5s147 -102.5 241 -102.5s174 34.333 240 103c42 42.667 73 98 93 166h145c-26.667 -112 -72.334 -201.333 -137.001 -268c-93.333 -98 -207 -147 -341 -147c-133.333 0 -247.166 48.833 -341.499 146.5
s-141.5 214.834 -141.5 351.501v22h-144l27 140h117v38h-109l26 141h83z" />
    <glyph glyph-name="afii61248" unicode="&#x2105;" horiz-adv-x="1924" 
d="M648 897l121 -43.999c-28 -40 -49.667 -67.333 -65 -82c-74.667 -74.667 -165 -112 -271 -112c-104.667 0 -194.334 37.333 -269.001 112s-112 164.667 -112 270s37.333 195.166 112 269.499s164.334 111.5 269.001 111.5c106 0 196.333 -37.333 271 -112
c15.333 -15.333 37.333 -42.333 66 -81l-122 -44l-33 38c-50.667 50 -111.334 75 -182.001 75c-70 0 -130.167 -25.167 -180.5 -75.5s-75.5 -110.833 -75.5 -181.5c0 -71.333 25.167 -132 75.5 -182s110.5 -75 180.5 -75c70.667 0 131.334 25.333 182.001 76
c6.66699 6.66699 17.667 19 33 37zM1723 1421l-1422 -1421h-198l1420 1421h200zM1471 746.001c105.333 0 195.333 -37.333 270 -112s112 -165 112 -271c0 -104.667 -37.333 -194.334 -112 -269.001s-164.667 -112 -270 -112c-104.667 0 -194.334 37.333 -269.001 112
s-112 164.334 -112 269.001c0 106 37.333 196.333 112 271s164.334 112 269.001 112zM1289.5 545.501c-50.333 -50.333 -75.5 -111.166 -75.5 -182.499c0 -70.667 25 -131 75 -181s110.667 -75 182 -75c70.667 0 131.167 25 181.5 75s75.5 110.333 75.5 181
c0 71.333 -25.167 132.166 -75.5 182.499s-110.833 75.5 -181.5 75.5s-131.167 -25.167 -181.5 -75.5z" />
    <glyph glyph-name="afii61352" unicode="&#x2116;" horiz-adv-x="1596" 
d="M1226 1420c75.333 0 139.166 -26.167 191.499 -78.5s78.5 -116.5 78.5 -192.5c0 -74 -26.167 -137.5 -78.5 -190.5s-116.166 -79.5 -191.499 -79.5c-74 0 -137.5 26.5 -190.5 79.5s-79.5 116.5 -79.5 190.5c0 76 26.5 140.167 79.5 192.5s116.5 78.5 190.5 78.5z
M1123.5 1253c-28.333 -28.667 -42.5 -63.334 -42.5 -104.001c0 -39.333 14.167 -73.333 42.5 -102s62.5 -43 102.5 -43c40.667 0 75.167 14.333 103.5 43s42.5 62.667 42.5 102c0 40.667 -14.167 75.334 -42.5 104.001s-62.833 43 -103.5 43
c-40 0 -74.167 -14.333 -102.5 -43zM1477 844v-141h-501v141h501zM835 0l-594 997v-997h-141v1426h48l601 -1006v1001h141v-1421h-55z" />
    <glyph glyph-name="trademark" unicode="&#x2122;" horiz-adv-x="1144" 
d="M435 1320h-70v-513h-112v513h-155v108h433l210 -321l208 321h97v-621h-112v396l-193 -298l-195 298v-396h-111v513z" />
    <glyph glyph-name="Omega" unicode="&#x2126;" horiz-adv-x="1310" 
d="M591 141l0.00195312 -141h-536v141h228c1.33301 -0.666992 2.33301 -1 3 -1h1c0 4 -16.333 25 -49 63c-114.667 137.333 -172 302.666 -172 495.999c0 192.667 57.667 358 173 496s255.666 207 420.999 207s305.833 -69 421.5 -207s173.5 -303.333 173.5 -496
c0 -193.333 -57.333 -358.666 -172 -495.999c-32.667 -38.667 -49 -59.667 -49 -63c0.666992 0 1.66699 0.333008 3 1h207v-141h-525v141h16c97.333 26 178 78.333 242 157c90.667 110.667 136 244.334 136 401.001s-45 289.834 -135 399.501s-197.667 164.5 -323 164.5
c-124.667 0 -232 -54.833 -322 -164.5s-135 -242.834 -135 -399.501s45.667 -290.334 137 -401.001c63.333 -78.667 143.666 -131 240.999 -157h15z" />
    <glyph glyph-name="arrowleft" unicode="&#x2190;" horiz-adv-x="1974" 
d="M276 604h1675v-140h-1675l202 -216v-203l-456 489l456 489v-202z" />
    <glyph glyph-name="arrowup" unicode="&#x2191;" horiz-adv-x="1023" 
d="M582 1359v-1675h-141v1675l-216 -201h-203l489 456l490 -456h-203z" />
    <glyph glyph-name="arrowright" unicode="&#x2192;" horiz-adv-x="1974" 
d="M1496 821v202l455 -489l-455 -489v203l202 216h-1676v140h1676z" />
    <glyph glyph-name="arrowdown" unicode="&#x2193;" horiz-adv-x="1023" 
d="M798 128h203l-490 -456l-489 456h203l216 -202v1676h141v-1676z" />
    <glyph glyph-name="arrowboth" unicode="&#x2194;" horiz-adv-x="1985" 
d="M276 464l202 -216v-203l-456 489l456 489v-202l-202 -217h1434l-203 217v202l456 -489l-456 -489v203l202 216h-1433z" />
    <glyph glyph-name="arrowupdn" unicode="&#x2195;" horiz-adv-x="1023" 
d="M441 1360l-216 -202h-203l489 456l490 -456h-203l-216 202v-1434l216 202h203l-490 -456l-489 456h203l216 -202v1434z" />
    <glyph glyph-name="arrowupdnbse" unicode="&#x21a8;" horiz-adv-x="1023" 
d="M484 -303l-462 431h203l216 -202v1434l-216 -202h-203l489 456l490 -456h-203l-216 202v-1434l216 202h203l-463 -431h413v-141h-880v141h413z" />
    <glyph glyph-name="minus" unicode="&#x2212;" horiz-adv-x="1098" 
d="M85 464v140h928v-140h-928z" />
    <glyph glyph-name="infinity" unicode="&#x221e;" horiz-adv-x="1097" 
d="M899 709v3.99902c0.666992 7.33301 1 14 1 20c0 46 -16.333 85.333 -49 118s-72.334 49 -119.001 49s-88 -16 -124 -48c-34.667 -32 -58.334 -79 -71.001 -141c12.667 -62 36.334 -109.333 71.001 -142c36 -32 77.333 -48 124 -48s86.334 16.333 119.001 49
s49 72.334 49 119.001c0 6 -0.333008 12.667 -1 20zM1023 710.999c0.666992 -6 1 -13.3311 1 -21.998c0 -80.667 -28.5 -149.5 -85.5 -206.5s-125.833 -85.5 -206.5 -85.5c-80 0 -149.667 27.667 -209 83l-59 50v-1c-55.333 -31.333 -113.333 -47 -174 -47
c-60 0 -111.333 21.167 -154 63.5s-64 94.166 -64 155.499v19c0 61.333 21.333 113.333 64 156s94 64 154 64c60.667 0 118.667 -16 174 -48v-1l59 51c59.333 54.667 129 82 209 82c80.667 0 149.5 -28.333 206.5 -85s85.5 -125.334 85.5 -206.001
c0 -8 -0.333008 -15.333 -1 -22zM196 701.001c0 -26 9.16699 -48.334 27.5 -67.001s40.5 -28 66.5 -28c26.667 0 50.5 9.83301 71.5 29.5s34.167 37.167 39.5 52.5c3.33301 8.66699 5.66602 16.334 6.99902 23.001c-1.33301 6.66699 -3.66602 14 -6.99902 22
c-5.33301 16 -18.5 33.667 -39.5 53s-44.833 29 -71.5 29c-26 0 -48.167 -9.16699 -66.5 -27.5s-27.5 -40.833 -27.5 -67.5v-19z" />
    <glyph glyph-name="integral" unicode="&#x222b;" horiz-adv-x="543" 
d="M341 127c-6.66699 -181.333 -99 -272 -277 -272h-42v140h46c84 0 128.667 44 134 132v1122c14 180.667 106.667 271 278 271h41v-140h-46c-79.333 0 -124 -44.333 -134 -133v-1120z" />
    <glyph glyph-name="approxequal" unicode="&#x2248;" horiz-adv-x="1101" 
d="M565 920c101.333 -59.333 173.667 -89.001 217 -89.001c4.66699 0 8.66699 0.666992 12 2c34 9.33301 58 31 72 65c6.66699 18 10 48.667 10 92l143 -23c-3.33301 -49.333 -11 -89.666 -23 -120.999c-30.667 -72 -81.667 -120 -153 -144
c-17.333 -5.33301 -36.333 -8 -57 -8c-64.667 0 -148.667 29.333 -252 88c-102.667 58.667 -174.667 88 -216 88c-6 0 -11 -0.333008 -15 -1c-32 -10 -55 -32.333 -69 -67c-7.33301 -18 -11 -48 -11 -90l-142 23c2.66699 49.333 10 89.333 22 120c30 72 81 120 153 144
c17.333 6 36.333 9 57 9c65.333 0 149.333 -29.333 252 -88zM565.001 636.999c101.333 -59.333 173.667 -89 217 -89c4.66699 0 8.66699 0.333008 12 1c34 10 58 32 72 66c6.66699 18 10 48.667 10 92l143 -23c-3.33301 -49.333 -11 -90 -23 -122
c-30.667 -71.333 -81.667 -119 -153 -143c-17.333 -5.33301 -36.333 -8 -57 -8c-64.667 0 -148.667 29.333 -252 88c-102.667 58.667 -174.667 88 -216 88c-6 0 -11 -0.666992 -15 -2c-32 -10 -55 -32 -69 -66c-7.33301 -18 -11 -48.333 -11 -91l-142 23
c2.66699 50 10 90.333 22 121c30 72 81 120 153 144c17.333 5.33301 36.333 8 57 8c65.333 0 149.333 -29 252 -87z" />
    <glyph glyph-name="notequal" unicode="&#x2260;" horiz-adv-x="1098" 
d="M522 600h-437v141h564l150 165h174l-150 -165h190v-141h-317l-120 -131h433v-141h-560l-150 -165h-173l150 165h-187v141h314z" />
    <glyph glyph-name="equivalence" unicode="&#x2261;" horiz-adv-x="1098" 
d="M85 464v140h928v-140h-928zM85 752v140h928v-140h-928zM85 176v140h928v-140h-928z" />
    <glyph glyph-name="lessequal" unicode="&#x2264;" horiz-adv-x="1136" 
d="M398 629l650 -300v-160l-963 460l963 460v-160zM123 0v141h928v-141h-928z" />
    <glyph glyph-name="greaterequal" unicode="&#x2265;" horiz-adv-x="1136" 
d="M89 929v160l962 -460l-962 -460v160l650 300zM85 0v141h928v-141h-928z" />
    <glyph glyph-name="revlogicalnot" unicode="&#x2310;" horiz-adv-x="1102" 
d="M135 702h832v-140h-691v-326h-141v466z" />
    <glyph glyph-name="uniF001" unicode="&#xf001;" horiz-adv-x="720" 
d="M247 756l-0.000976562 -755.999h-141v756h-84v141h84v195c4.66699 71.333 32 132.666 82 183.999c53.333 48.667 114.333 73 183 73c35.333 0 82.333 -10 141 -30l-46 -131c-40.667 17.333 -70 26 -88 26c-31.333 0 -61.666 -13 -90.999 -39
c-24.667 -24.667 -38 -55 -40 -91v-187h170v-141h-170zM612.999 897.001v-897h-140v897h140zM618.999 1160.5c21.333 -21 32 -46.167 32 -75.5c0 -30.667 -10.667 -56.5 -32 -77.5s-46.333 -31.5 -75 -31.5c-30 0 -55.667 10.5 -77 31.5s-32 46.833 -32 77.5
c0 29.333 10.667 54.5 32 75.5s47 31.5 77 31.5c28.667 0 53.667 -10.5 75 -31.5z" />
    <glyph glyph-name="uniF001" unicode="&#xfb01;" horiz-adv-x="720" 
d="M247 756l-0.000976562 -755.999h-141v756h-84v141h84v195c4.66699 71.333 32 132.666 82 183.999c53.333 48.667 114.333 73 183 73c35.333 0 82.333 -10 141 -30l-46 -131c-40.667 17.333 -70 26 -88 26c-31.333 0 -61.666 -13 -90.999 -39
c-24.667 -24.667 -38 -55 -40 -91v-187h170v-141h-170zM612.999 897.001v-897h-140v897h140zM618.999 1160.5c21.333 -21 32 -46.167 32 -75.5c0 -30.667 -10.667 -56.5 -32 -77.5s-46.333 -31.5 -75 -31.5c-30 0 -55.667 10.5 -77 31.5s-32 46.833 -32 77.5
c0 29.333 10.667 54.5 32 75.5s47 31.5 77 31.5c28.667 0 53.667 -10.5 75 -31.5z" />
    <glyph glyph-name="uniF002" unicode="&#xf002;" horiz-adv-x="729" 
d="M476 1217l-10.001 -28.999c-40.667 17.333 -70 26 -88 26c-31.333 0 -61.666 -13 -90.999 -39c-24.667 -24.667 -38 -55 -40 -91v-187h170v-141h-170v-756h-141v756h-84v141h84v195c4.66699 71.333 32 132.666 82 183.999c53.333 48.667 114.333 73 183 73
c28 0 63 -6.33301 105 -19v91h141v-1421h-141v1217z" />
    <glyph glyph-name="uniF002" unicode="&#xfb02;" horiz-adv-x="729" 
d="M476 1217l-10.001 -28.999c-40.667 17.333 -70 26 -88 26c-31.333 0 -61.666 -13 -90.999 -39c-24.667 -24.667 -38 -55 -40 -91v-187h170v-141h-170v-756h-141v756h-84v141h84v195c4.66699 71.333 32 132.666 82 183.999c53.333 48.667 114.333 73 183 73
c28 0 63 -6.33301 105 -19v91h141v-1421h-141v1217z" />
    <glyph glyph-name=".null" horiz-adv-x="0" 
 />
    <glyph glyph-name="nonmarkingreturn" horiz-adv-x="508" 
 />
    </font>
</defs>
</svg>
