<?xml version="1.0" encoding="UTF-8" standalone="no"?>
<!-- Created with Inkscape (http://www.inkscape.org/) -->

<svg
   xmlns:dc="http://purl.org/dc/elements/1.1/"
   xmlns:cc="http://creativecommons.org/ns#"
   xmlns:rdf="http://www.w3.org/1999/02/22-rdf-syntax-ns#"
   xmlns:svg="http://www.w3.org/2000/svg"
   xmlns="http://www.w3.org/2000/svg"
   xmlns:sodipodi="http://sodipodi.sourceforge.net/DTD/sodipodi-0.dtd"
   xmlns:inkscape="http://www.inkscape.org/namespaces/inkscape"
   version="1.1"
   id="svg10"
   width="28.084053"
   height="35.417969"
   viewBox="0 0 28.084054 35.417969"
   sodipodi:docname="blood.svg"
   inkscape:version="0.92.1 r15371">
  <metadata
     id="metadata16">
    <rdf:RDF>
      <cc:Work
         rdf:about="">
        <dc:format>image/svg+xml</dc:format>
        <dc:type
           rdf:resource="http://purl.org/dc/dcmitype/StillImage" />
        <dc:title></dc:title>
      </cc:Work>
    </rdf:RDF>
  </metadata>
  <defs
     id="defs14" />
  <sodipodi:namedview
     pagecolor="#ffffff"
     bordercolor="#666666"
     borderopacity="1"
     objecttolerance="10"
     gridtolerance="10"
     guidetolerance="10"
     inkscape:pageopacity="0"
     inkscape:pageshadow="2"
     inkscape:window-width="1600"
     inkscape:window-height="838"
     id="namedview12"
     showgrid="false"
     fit-margin-top="0"
     fit-margin-left="0"
     fit-margin-right="0"
     fit-margin-bottom="0"
     inkscape:zoom="9.8333333"
     inkscape:cx="-2.2100503"
     inkscape:cy="23.347684"
     inkscape:window-x="-8"
     inkscape:window-y="-8"
     inkscape:window-maximized="1"
     inkscape:current-layer="svg10"
     inkscape:pagecheckerboard="true" />
  <path
     id="path845"
     style="fill:#fefefe"
     d="m 20.240228,0 c -0.02648,0.009246 -0.04557,0.0212368 -0.07422,0.0292969 -0.184555,0.0519291 -0.369692,0.10254835 -0.554688,0.15234376 -0.225716,0.0814198 -0.45466,0.15513679 -0.685545,0.22070309 -0.224069,0.076565 -0.441266,0.1683122 -0.664062,0.2480469 -0.210388,0.069026 -0.411433,0.1631356 -0.607422,0.265625 C 17.461986,1.0265877 17.285732,1.1652702 17.13476,1.3281249 16.966839,1.5032887 16.806828,1.6826858 16.66601,1.8808594 16.503602,2.066383 16.331487,2.2428493 16.126947,2.3828126 15.98788,2.5033955 15.850615,2.6260064 15.712885,2.7480469 c -0.221613,0.1963688 -0.422792,0.2560979 -0.585938,0.2402344 -0.113401,0.10175 -0.238293,0.1870979 -0.376953,0.2167968 -0.09318,0.019957 -0.190079,0.013141 -0.285156,0.019531 C 14.353421,3.1696724 14.231658,3.1312123 14.130854,3.0585938 14.056343,3.0049174 14.010562,2.926085 13.97265,2.8417969 13.815087,2.8221273 13.6361,2.7471282 13.453119,2.5898438 13.324173,2.4790056 13.201096,2.3612234 13.07226,2.25 12.935842,2.1176438 12.799141,1.9869308 12.658197,1.8593749 12.493892,1.7257971 12.331516,1.5870003 12.187494,1.4316406 12.091797,1.316733 12.138818,1.3721349 12.052728,1.2636719 11.979695,1.1716565 11.943029,1.0857417 11.906244,0.99999995 11.740844,0.93116325 11.578457,0.85276515 11.41601,0.77734375 11.251104,0.68506305 11.071827,0.62554515 10.894525,0.56249995 10.716765,0.50250255 10.541242,0.43927325 10.357416,0.40039065 10.177987,0.36564275 9.99661,0.35569125 9.814447,0.34765625 9.580145,0.34166695 9.347628,0.30322335 9.115228,0.27539065 8.845963,0.24314265 8.664085,0.14539205 8.552728,0.0234375 5.528588,0.43628995 3.30383,1.2032902 1.873041,2.3203126 1.848831,2.3585596 1.822391,2.3948396 1.798821,2.4335938 1.651609,2.6869473 1.486882,2.9303414 1.353509,3.1914063 1.203839,3.4661471 1.064285,3.7459723 0.931634,4.0292968 0.821523,4.3032931 0.676579,4.5623969 0.570306,4.8378906 0.484016,5.0793403 0.36865,5.3084256 0.275384,5.5468749 0.204304,5.7636663 0.133349,5.9804456 0.09179,6.2050781 0.05704,6.4355291 0.04442,6.666833 0.0039,6.8964843 0.0025,6.9037043 0.0015,6.9108423 0,6.9179683 0.325702,9.6421787 2.381842,13.132887 6.191406,17.402344 c 3.927334,4.401445 5.357714,6.719699 4.859375,7.876953 -1.580966,3.671354 -1.558704,6.861149 0.05859,8.478516 0.913693,0.913693 2.496149,1.660156 3.517578,1.660156 4.333379,0 5.939728,-4.63198 3.544922,-10.222656 -0.545694,-1.273923 0.721334,-3.25154 4.859375,-7.589844 2.321748,-2.434109 3.996797,-4.641204 5.052734,-6.613281 2e-6,-0.158868 6e-6,-0.318148 0,-0.476563 -4e-6,-0.217863 2.5e-5,-0.434481 0,-0.6523433 -3.3e-5,-0.253164 1.81e-4,-0.506602 0,-0.7597665 -2.53e-4,-0.2968086 -3.72e-4,-0.593818 -0.002,-0.890625 -0.0014,-0.3034687 -0.0024,-0.60676 -0.0098,-0.9101563 C 28.06508,7.039254 28.05825,6.7750682 28.0214,6.5136714 27.986767,6.2854777 27.930514,6.0617535 27.84765,5.8457031 27.76406,5.5943796 27.666218,5.3481853 27.591791,5.09375 27.50997,4.8676421 27.417087,4.6497549 27.294916,4.4414062 27.173428,4.2161605 27.057945,3.9870373 26.970697,3.7460938 26.85944,3.5235014 26.742672,3.3038851 26.646478,3.0742188 26.502028,2.8011764 26.356055,2.5303363 26.234369,2.2460938 26.194039,2.1674089 26.15351,2.0886016 26.113275,2.0097656 26.00527,1.9615324 25.893692,1.8936121 25.781244,1.7773437 25.715644,1.7095187 25.653579,1.6371615 25.578119,1.5800781 25.44976,1.4829774 25.364238,1.3818208 25.302728,1.2812499 23.942661,0.70359085 22.27071,0.26639095 20.240228,0 Z m -5.570312,1.09375 c 0.0046,0.00991 0.0066,0.021696 0.01172,0.03125 0.0037,0.00686 -0.0014,-0.015672 -0.002,-0.023437 -0.0029,-0.00508 -0.0069,-0.00306 -0.0098,-0.00781 z m 6.029297,1.4277344 c 1.132004,-0.055641 2.183647,0.5204042 3.273437,1.7246093 1.409176,1.5571217 1.859944,2.8677332 1.16211,4.6210939 1.31e-4,0.2088204 0.0053,0.4187742 -0.0098,0.6269532 -0.02099,0.232842 -0.07599,0.4595109 -0.140625,0.6835942 -0.02896,0.09004 -0.05214,0.182004 -0.07617,0.273437 -0.09273,0.352751 -0.282228,0.538161 -0.472656,0.591797 -0.03784,0.115668 -0.09445,0.237377 -0.195313,0.363281 -0.125902,0.157162 -0.270693,0.300167 -0.412109,0.44336 -0.152798,0.133222 -0.282426,0.28423 -0.404297,0.445312 -0.149157,0.181274 -0.296244,0.364573 -0.451172,0.541016 -0.121415,0.150193 -0.274925,0.279579 -0.367187,0.451172 -0.110038,0.226753 -0.221601,0.451617 -0.347656,0.669922 -0.1504,0.221223 -0.283586,0.454078 -0.423829,0.68164 -0.156047,0.255167 -0.366246,0.466404 -0.589843,0.66211 -0.176894,0.147732 -0.348572,0.302046 -0.507813,0.46875 -0.165691,0.135418 -0.296448,0.299042 -0.433594,0.460937 -0.142045,0.178042 -0.298281,0.34346 -0.447265,0.515625 -0.113499,0.151618 -0.24581,0.287261 -0.353516,0.443359 -0.143029,0.178752 -0.272507,0.367167 -0.40625,0.552735 -0.152805,0.194713 -0.31684,0.380102 -0.472656,0.572265 -0.177621,0.193169 -0.345796,0.395427 -0.517578,0.59375 -0.130363,0.182559 -0.303718,0.327366 -0.433594,0.509766 -0.151395,0.226656 -0.32657,0.435881 -0.505859,0.640625 -0.199757,0.215455 -0.392397,0.436335 -0.595703,0.648438 -0.128808,0.14412 -0.270413,0.273407 -0.376953,0.435546 -0.12356,0.178699 -0.251543,0.354808 -0.357422,0.544922 -0.110521,0.1672 -0.223255,0.330013 -0.316407,0.507813 -0.01214,0.02431 -0.02302,0.04795 -0.03516,0.07227 -0.303625,0.608271 -0.809599,0.590195 -0.972656,0.242188 -0.105131,-0.03223 -0.215866,-0.08361 -0.332031,-0.171875 -0.151817,-0.115346 -0.282473,-0.247169 -0.388672,-0.40625 -0.14312,-0.188796 -0.293974,-0.371174 -0.414063,-0.576172 -0.111709,-0.200652 -0.210883,-0.408997 -0.333984,-0.603516 -0.09945,-0.176349 -0.215189,-0.338204 -0.347656,-0.492187 -0.132496,-0.176538 -0.256887,-0.356932 -0.419922,-0.507813 -0.188422,-0.193534 -0.369224,-0.3962 -0.546875,-0.599609 -0.178505,-0.227483 -0.362543,-0.448747 -0.539063,-0.677734 -0.175916,-0.206017 -0.345002,-0.419192 -0.503906,-0.638672 -0.124289,-0.183179 -0.264566,-0.356018 -0.357422,-0.558594 -0.10046,-0.174214 -0.2132,-0.341429 -0.310547,-0.517578 -0.03558,-0.06993 -0.07781,-0.136143 -0.115234,-0.205078 -0.0152,-0.01276 -0.02917,-0.02693 -0.04492,-0.03906 C 9.660696,16.381197 9.463642,16.244861 9.289023,16.08204 9.140459,15.936812 8.968042,15.816723 8.824179,15.666024 8.621704,15.47974 8.450514,15.269244 8.296835,15.041024 8.157809,14.821942 8.012668,14.60332 7.915976,14.361336 7.859856,14.22579 7.796513,14.093746 7.730429,13.962899 7.580759,13.830423 7.434338,13.694061 7.269491,13.580086 6.968268,13.371758 6.871736,13.137171 6.898432,12.947266 6.853646,12.879844 6.795535,12.821764 6.757807,12.75 6.61507,12.559183 6.465273,12.374141 6.330072,12.177735 6.211187,12.006573 6.09253,11.835677 5.958978,11.675782 5.86251,11.558612 5.762996,11.439226 5.644525,11.34375 5.293983,11.061247 5.222818,10.749397 5.318354,10.542969 3.198036,7.4872553 3.40196,5.9303067 5.455072,4.0722656 7.897216,1.862156 9.539494,1.9866985 12.312494,4.5917968 L 14.626947,6.7675781 16.9414,4.5917968 C 18.354154,3.264584 19.567209,2.5771258 20.699213,2.5214844 Z M 17.296869,18.291016 c -0.109696,0.10566 -0.194907,0.164245 -0.298828,0.259766 0.01248,0.01908 0.01759,0.04111 0.02344,0.0625 0.09276,-0.106512 0.186011,-0.212583 0.275391,-0.322266 z m -2.679687,6.59375 c 0.182507,0.05272 0.340862,0.214982 0.46875,0.447266 0.136835,0.197381 0.213786,0.421779 0.279296,0.65039 0.02185,0.09274 0.0339,0.186993 0.04688,0.28125 0.120559,0.192252 0.239062,0.385382 0.371093,0.570313 0.158218,0.238843 0.304392,0.487278 0.431641,0.74414 0.132088,0.29598 0.253831,0.59555 0.378906,0.894531 0.116907,0.304688 0.219509,0.617716 0.292969,0.935547 0.05475,0.269264 0.104903,0.540465 0.107422,0.816407 -0.0046,0.250376 -0.01052,0.500628 -0.03516,0.75 -0.03414,0.285999 -0.09048,0.569766 -0.228515,0.826172 -0.191019,0.322296 -0.441257,0.593726 -0.787109,0.753906 -0.250944,0.10968 -0.506668,0.189353 -0.783204,0.193359 -0.264891,0.0035 -0.531203,-0.02081 -0.789062,-0.08398 -0.235258,-0.06766 -0.459084,-0.162826 -0.666016,-0.294922 -0.216396,-0.143533 -0.438395,-0.286861 -0.59375,-0.5 -0.161354,-0.243087 -0.286246,-0.507915 -0.332031,-0.798828 -0.01388,-0.08355 -0.0074,-0.168148 -0.01563,-0.251953 v -0.002 c -0.02524,-0.04658 -0.04779,-0.09496 -0.07617,-0.138671 -0.149406,-0.442496 -0.07062,-0.88998 0.04492,-1.328125 8.07e-4,-0.14203 10e-4,-0.283777 0.0039,-0.425782 0.0052,-0.21644 0.01044,-0.433171 0.03516,-0.648437 0.03135,-0.238472 0.07765,-0.47528 0.173829,-0.697266 0.08707,-0.205922 0.165922,-0.415062 0.248047,-0.623047 0.08227,-0.201446 0.171884,-0.397463 0.28125,-0.585937 0.05898,-0.11973 0.114355,-0.242455 0.169921,-0.363281 0.04245,-0.0923 0.09123,-0.165318 0.140625,-0.236328 0.02568,-0.175043 0.03254,-0.355459 0.117188,-0.515626 0.02951,-0.05582 0.07019,-0.105836 0.105469,-0.158203 0.220257,-0.207934 0.426867,-0.263655 0.609375,-0.210937 z m 0.71289,3.210937 c 1.07e-4,0.0019 -1.06e-4,0.0039 0,0.0059 0.0072,0.01414 0.01273,0.02887 0.01953,0.04297 -0.007,-0.01607 -0.01249,-0.03277 -0.01953,-0.04883 z m 0.154297,0.363282 c 0.03737,0.139472 0.0504,0.290135 0.05469,0.451171 0.05349,0.03001 0.109308,0.0573 0.158203,0.0918 -0.01873,-0.0513 -0.02801,-0.106111 -0.04883,-0.15625 -0.05414,-0.129223 -0.109724,-0.257696 -0.164063,-0.386718 z m 0.474609,2.183593 c -0.03842,0.04897 -0.08751,0.09053 -0.130859,0.136719 0.04371,0.05741 0.07895,0.110498 0.103516,0.158203 0.0035,-0.02662 0.01468,-0.05138 0.01758,-0.07813 0.0066,-0.07191 0.0062,-0.144483 0.0098,-0.216797 z m -0.193359,0.3125 c 0.0019,0.0077 0.002,0.01005 0.0039,0.01758 0.01542,0.0089 0.02486,0.0199 0.03906,0.0293 -0.0153,-0.01483 -0.02769,-0.03205 -0.04297,-0.04687 z"
     inkscape:connector-curvature="0" />
</svg>
