<?xml version="1.0" encoding="UTF-8" standalone="no"?>
<!-- Created with Inkscape (http://www.inkscape.org/) -->

<svg
   xmlns:dc="http://purl.org/dc/elements/1.1/"
   xmlns:cc="http://creativecommons.org/ns#"
   xmlns:rdf="http://www.w3.org/1999/02/22-rdf-syntax-ns#"
   xmlns:svg="http://www.w3.org/2000/svg"
   xmlns="http://www.w3.org/2000/svg"
   xmlns:sodipodi="http://sodipodi.sourceforge.net/DTD/sodipodi-0.dtd"
   xmlns:inkscape="http://www.inkscape.org/namespaces/inkscape"
   version="1.1"
   id="svg10"
   width="18.96398"
   height="50.999992"
   viewBox="0 0 18.96398 50.999993"
   sodipodi:docname="bone.svg"
   inkscape:version="0.92.1 r15371">
  <metadata
     id="metadata16">
    <rdf:RDF>
      <cc:Work
         rdf:about="">
        <dc:format>image/svg+xml</dc:format>
        <dc:type
           rdf:resource="http://purl.org/dc/dcmitype/StillImage" />
        <dc:title></dc:title>
      </cc:Work>
    </rdf:RDF>
  </metadata>
  <defs
     id="defs14" />
  <sodipodi:namedview
     pagecolor="#ffffff"
     bordercolor="#666666"
     borderopacity="1"
     objecttolerance="10"
     gridtolerance="10"
     guidetolerance="10"
     inkscape:pageopacity="0"
     inkscape:pageshadow="2"
     inkscape:window-width="1600"
     inkscape:window-height="838"
     id="namedview12"
     showgrid="false"
     fit-margin-top="0"
     fit-margin-left="0"
     fit-margin-right="0"
     fit-margin-bottom="0"
     inkscape:zoom="9.8333333"
     inkscape:cx="-13.850897"
     inkscape:cy="29.018844"
     inkscape:window-x="-8"
     inkscape:window-y="-8"
     inkscape:window-maximized="1"
     inkscape:current-layer="svg10"
     inkscape:pagecheckerboard="true" />
  <path
     id="path544"
     style="fill:#fefefe"
     d="m 6.0968871,0 c -1.905978,0 -2.109375,0.56545271 -2.109375,5.8652344 0,4.3509456 -0.516337,6.5200776 -2,8.4062496 -1.58288396,2.012312 -2.30340296,6.006522 -1.85742196,8.429688 0.142822,0.03372 0.304639,0.133867 0.464844,0.322266 0.174625,0.205355 0.331053,0.425779 0.52343696,0.615234 0.195518,0.19957 0.432296,0.34514 0.681641,0.466797 0.264462,0.125646 0.531127,0.24389 0.792969,0.375 0.07693,0.03915 0.159079,0.06705 0.240234,0.0957 0.166751,0.05888 0.280397,0.141301 0.371094,0.228516 0.09884,0.04891 0.199889,0.09287 0.300781,0.136718 0.176802,0.08219 0.358072,0.15663 0.542969,0.21875 0.173906,0.07747 0.353439,0.138152 0.537109,0.1875 0.0731,0.01875 0.148595,0.02241 0.222656,0.03516 0.122346,-0.122398 0.319652,-0.21289 0.613282,-0.21289 h 0.80664 c 0.286126,0.01304 0.56925,-0.01812 0.853516,-0.04492 0.229454,-0.01726 0.456837,-0.06622 0.68164,-0.113281 0.196816,-0.04981 0.387417,-0.120198 0.558594,-0.230469 0.149152,-0.108952 0.343698,-0.192897 0.458985,-0.341797 0.1168,-0.145794 0.231505,-0.308627 0.398437,-0.402344 0.06114,-0.03432 0.127344,-0.05745 0.191406,-0.08594 0.08539,-0.02099 0.166459,-0.02557 0.244141,-0.01953 0.233047,0.01812 0.4362449,0.142133 0.6347659,0.287109 0.13268,0.117406 0.264917,0.237589 0.423828,0.318359 0.167117,0.06028 0.332664,0.125367 0.496093,0.195313 0.159746,0.09262 0.336792,0.138627 0.509766,0.197266 0.177504,0.05827 0.355007,0.115577 0.53711,0.158203 0.175558,0.03834 0.3562,0.05159 0.535156,0.0625 0.195643,0.01036 0.392021,0.0134 0.58789,0.01563 0.190599,0.0148 0.09816,0.0044 0.271485,0.02539 0.126987,0.01542 0.235,0.0458 0.326172,0.08594 0.128231,-0.02092 0.256714,-0.04028 0.384765,-0.0625 0.272482,-0.04358 0.545683,-0.08421 0.820313,-0.111328 0.120981,-0.01555 0.242327,-0.01853 0.363281,-0.02734 0.102579,-0.124693 0.263387,-0.237239 0.494141,-0.3125 0.162168,-0.05289 0.329496,-0.08911 0.492187,-0.140625 0.189469,-0.09583 0.377048,-0.193208 0.570313,-0.28125 0.227343,-0.09936 0.431628,-0.238671 0.642578,-0.367188 0.20634,-0.141673 0.413555,-0.28335 0.609375,-0.439453 0.122716,-0.103448 0.226293,-0.225966 0.330078,-0.347656 0.03046,-0.03571 0.06095,-0.06023 0.0918,-0.08984 0.602749,-2.343479 -0.04059,-6.65441 -1.615235,-8.65625 C 16.044964,13.074152 14.964721,9.5088486 14.571496,6.0332031 14.061488,1.525324 13.494433,0 12.329309,0 c -0.372375,0 -0.655888,0.3955 -0.873047,1.0234375 0.07225,0.1226853 0.125,0.2807952 0.125,0.4941406 v 0.6015625 c -0.01009,0.2890366 0.02274,0.5755764 0.04492,0.8632813 0.02667,0.2724433 0.08494,0.5403365 0.136718,0.8085937 0.04342,0.2868506 0.08186,0.5727146 0.126954,0.859375 0.04046,0.2510041 0.06129,0.5061343 0.07617,0.7597656 0.01352,0.2714631 0.0153,0.5427137 0.01758,0.8144532 0.0012,0.067844 0.01445,0.1350749 0.01758,0.203125 0.02536,0.037474 0.04673,0.070306 0.08008,0.1191406 0.02759,0.072611 0.03824,0.1504761 0.06055,0.2246094 0.07211,0.1929202 0.127979,0.3915043 0.164062,0.5976562 0.07272,0.3964044 0.172725,0.7880683 0.216797,1.1894532 0.01798,0.2060234 0.02807,0.4126821 0.04102,0.6191406 0.03441,0.2356166 0.0664,0.4711396 0.09961,0.7070312 0.02278,0.1608914 0.02922,0.3232024 0.04297,0.4843754 7.01e-4,0.0026 0.0013,0.0052 0.002,0.0078 0.03045,0.104794 0.0612,0.196327 0.06836,0.220702 0.0935,0.4014 0.24116,0.784338 0.367188,1.175782 0.03504,0.126528 0.06801,0.25399 0.101562,0.380859 0.14801,0.01762 0.23039,0.139536 0.341797,0.376953 0.121774,0.285867 0.235387,0.576062 0.34375,0.867188 0.08782,0.261994 0.192867,0.518217 0.271485,0.783203 0.018,0.05605 0.03731,0.111704 0.05469,0.167968 0.08583,0.05516 0.146971,0.180146 0.208985,0.394532 0.05247,0.199574 0.09343,0.402493 0.173828,0.59375 0.06675,0.211599 0.147075,0.419138 0.224609,0.626953 0.08462,0.241669 0.185156,0.477599 0.28125,0.714844 0.0804,0.217514 0.153304,0.438829 0.261719,0.644531 0.10471,0.228415 0.220402,0.450822 0.335937,0.673828 0.119525,0.25106 0.245908,0.499022 0.376953,0.744141 0.13303,0.266511 0.258495,0.536879 0.351563,0.820312 0.07913,0.293791 0.12563,0.597526 0.128906,0.902344 -0.0064,0.311059 -0.06368,0.609677 -0.203125,0.890625 -0.06897,0.132252 -0.148473,0.2571 -0.234375,0.376953 -0.0019,0.0029 -0.002,0.0049 -0.0039,0.0078 0,0 -0.002,0.002 -0.002,0.002 -0.09848,0.136301 -0.20573,0.265893 -0.328125,0.384765 -0.276995,0.236347 -0.594114,0.40892 -0.933594,0.541016 -0.133941,0.05213 -0.273259,0.08919 -0.408203,0.138672 -0.07365,0.03116 -0.150473,0.05388 -0.226563,0.07813 -0.07996,0.02569 -0.156616,0.06156 -0.238281,0.08203 -0.01804,0.0061 -0.03455,0.01565 -0.05273,0.02148 -0.06887,0.02027 -0.140973,0.02222 -0.210938,0.03711 -0.08549,0.02128 -0.17121,0.0416 -0.255859,0.06641 -0.06027,0.01228 -0.121379,0.0044 -0.181641,0.01172 -0.0099,9.35e-4 -0.01935,0.005 -0.0293,0.0059 -0.09585,0.0065 -0.137957,0.007 -0.193359,0.0098 -0.05683,6.59e-4 -0.112434,0.01604 -0.169922,0.01172 -4.42e-4,-0.01834 -0.0033,-0.02333 -0.0039,-0.04102 -0.0078,-0.01363 -0.01402,-0.02993 -0.01367,-0.05469 -0.254165,0.0073 -0.327458,-0.0087 -0.345703,-0.208984 -0.110344,-0.0059 -0.222131,-0.01727 -0.326172,-0.0039 -0.250737,-0.0061 -0.502633,-0.01361 -0.751953,-0.04297 -0.294774,-0.03804 -0.588209,-0.09142 -0.865234,-0.203125 -0.232842,-0.10152 -0.467411,-0.20755 -0.6601569,-0.376953 -0.171605,-0.140704 -0.310369,-0.309721 -0.439453,-0.488281 -0.01303,1.2e-5 -0.02208,0.002 -0.03516,0.002 -0.137926,0 -0.238403,-0.0103 -0.371094,-0.01172 -0.03364,0.01928 -0.06836,0.03646 -0.101562,0.05664 -0.25882,0.146703 -0.513793,0.301126 -0.777344,0.439454 -0.227814,0.126522 -0.458717,0.249149 -0.703125,0.339843 -0.01026,0.0071 -0.0252,0.01854 -0.04102,0.0293 -0.03675,0.04151 -0.07081,0.08496 -0.109375,0.125 -0.294393,0.302513 -0.656945,0.44753 -0.972656,0.05469 -0.01118,0.0021 -0.022,0.0058 -0.0332,0.0078 -0.01327,0.0026 -0.02584,-4.65e-4 -0.03906,0.002 -0.19283,0.07296 -0.387925,0.140484 -0.589843,0.183594 -0.02757,-0.08505 -0.02554,-0.06107 -0.05078,-0.130859 -0.01613,-0.0041 -0.03575,-0.0082 -0.05078,-0.01172 -0.157302,-0.04829 -0.298716,-0.127387 -0.4375,-0.212891 -0.26753,-0.05417 -0.480867,-0.195798 -0.677734,-0.365234 -0.03001,-0.01026 -0.06,-0.02049 -0.08984,-0.03125 -0.03109,-0.01292 -0.06091,-0.0277 -0.0918,-0.04102 -0.101773,-0.03561 -0.200786,-0.07964 -0.296875,-0.128906 -0.02627,0.01079 -0.04989,0.02805 -0.07813,0.0332 -0.334843,0.0611 -0.567885,-0.266579 -0.707031,-0.507812 -0.08879,-0.18846 -0.162494,-0.383265 -0.25,-0.572266 -0.10107,-0.22527 -0.17871,-0.459418 -0.244141,-0.697265 -0.02521,-0.06122 -0.03343,-0.131682 -0.04297,-0.201172 -0.008,-0.02147 -0.01537,-0.04301 -0.02344,-0.06445 -0.01319,-0.03287 -0.124026,-0.297774 -0.113281,-0.332031 0.03088,-0.09844 0.04482,-0.219477 0.07422,-0.326172 v -0.002 c -0.0088,-0.106892 -0.02628,-0.212845 -0.0293,-0.320312 0.0094,-0.237088 0.0425,-0.473297 0.0918,-0.705078 0.06387,-0.282638 0.213877,-0.528257 0.392579,-0.751954 0.154291,-0.21646 0.361612,-0.382926 0.572265,-0.541015 0.01777,-0.01403 0.03336,-0.03051 0.05078,-0.04492 0.03871,-0.178783 0.0868,-0.354738 0.169921,-0.519531 0.120737,-0.242357 0.261608,-0.469201 0.472657,-0.644532 0.03027,-0.02527 0.06474,-0.04247 0.0957,-0.06641 0.07218,-0.165852 0.148566,-0.329209 0.236328,-0.488281 0.125828,-0.248753 0.277212,-0.484162 0.464844,-0.691406 0.09845,-0.108744 0.195161,-0.17975 0.289062,-0.232422 0.03465,-0.07122 0.06837,-0.142944 0.105469,-0.212891 0.200482,-0.39877 0.359982,-0.815746 0.533203,-1.226562 0.168667,-0.357177 0.29781,-0.731254 0.439453,-1.09961 0.01411,-0.235698 0.02193,-0.471846 0.0625,-0.705078 0.07017,-0.27699 0.102422,-0.560824 0.150391,-0.841796 0.0097,-0.06035 0.0242,-0.119631 0.03516,-0.179688 V 9.9765625 9.2871094 9.1289062 8.4863281 7.8925781 7.7773438 6.9804688 6.5234375 6.0625 c 0,-0.3218895 -6e-6,-0.6449073 0,-0.9667969 10e-6,-0.3724969 -1.03e-4,-0.7446906 0,-1.1171875 1.38e-4,-0.377793 -0.0013,-0.7550212 0,-1.1328125 0.0016,-0.3366315 0.002,-0.6734255 0.01758,-1.0097656 0.002,-0.026496 0.01938,-0.3215234 0.04297,-0.328125 0.01771,-0.00495 0.02396,-0.00691 0.04102,-0.011719 v -0.316406 c 2e-6,-0.2055394 -1e-6,-0.40969496 0,-0.61523438 0,-0.037605 0.0038,-0.0397658 0.0039,-0.0664063 4.96e-4,-0.001527 -0.0049,-0.0153882 -0.0039,-0.015625 0.0022,-5.3431e-4 0.0018,5.3285e-4 0.0039,0 9.7e-5,-0.007194 0.0017,-0.009164 0.002,-0.015625 C 6.6747761,0.1713934 6.4058171,0 6.0968871,0 Z m 4.8613279,5.828125 c 0.0014,0.104077 0.0055,0.2092331 0.0078,0.3144531 -0.001,-0.1048912 -0.0055,-0.2096746 -0.0078,-0.3144531 z m 0.01172,0.4355469 c 0.0033,0.1296942 0.01084,0.2614783 0.01563,0.3925781 0.0063,-0.028032 0.002,-0.050042 0.0098,-0.076172 -0.0069,-0.1055927 -0.02174,-0.2108481 -0.02539,-0.3164062 z m 1.550781,15.3105471 c -0.0053,-0.0038 -0.0489,0.0068 -0.04687,0.0078 0.01594,0.0074 0.03519,0.0026 0.05273,0.0039 0.0039,-2.89e-4 0.0078,-0.0017 0.01172,-0.002 -0.0055,-0.0036 -0.01235,-0.0059 -0.01758,-0.0098 z m 4.923828,4.167969 c -0.137189,0.05237 -0.270463,0.115476 -0.412109,0.154296 -0.200429,0.05876 -0.388478,0.14751 -0.582032,0.22461 -0.05599,0.04292 -0.11887,0.09789 -0.158203,0.125 -0.196208,0.124987 -0.379953,0.270106 -0.560547,0.416015 -0.226165,0.183933 -0.429325,0.396757 -0.673828,0.558594 -0.288922,0.18621 -0.590395,0.325698 -0.933593,0.375 -0.267822,0.04419 -0.535428,0.08741 -0.806641,0.105469 -0.239432,0.01434 -0.478952,0.0095 -0.71875,0.0078 -0.229056,-0.0023 -0.456702,-0.0068 -0.685547,-0.01758 -0.25684,-0.01392 -0.515226,-0.03284 -0.765625,-0.0957 -0.275247,-0.07371 -0.539523,-0.175894 -0.792969,-0.306641 -0.235013,-0.130842 -0.4557899,-0.282408 -0.6542969,-0.464843 -0.03471,-0.03 -0.124557,-0.100596 -0.166015,-0.140625 0.02343,-0.0087 -0.08859,0.01462 -0.103516,0.03906 -0.153394,0.07139 -0.298173,0.151915 -0.423828,0.267578 -0.203677,0.144174 -0.403494,0.294583 -0.623047,0.414063 -0.04096,0.02037 -0.0838,0.03854 -0.125,0.05859 -0.01721,0.01095 -0.03065,0.02512 -0.04883,0.03516 -0.261931,0.13281 -0.53229,0.231049 -0.824219,0.273437 -0.152683,0.02465 -0.305789,0.02192 -0.458984,0.01758 -0.125504,0.223618 -0.477318,0.275117 -0.894531,0.189454 -0.223927,0.0036 -0.447391,-0.01387 -0.667969,-0.05664 -0.332201,-0.08416 -0.661596,-0.177636 -0.984375,-0.292969 -0.278339,-0.117432 -0.558183,-0.237024 -0.828125,-0.373047 -0.222558,-0.116231 -0.449121,-0.223986 -0.673828,-0.335937 -0.08514,-0.03894 -0.166429,-0.08466 -0.25,-0.126953 -0.02943,-0.01418 -0.06069,-0.0243 -0.08984,-0.03906 -0.01587,-0.0091 -0.02912,-0.02206 -0.04492,-0.03125 -0.08297,-0.04349 -0.167659,-0.08242 -0.25,-0.126953 -0.183754,-0.124166 -0.393246,-0.199251 -0.58789,-0.302734 -0.131451,-0.07372 -0.231008,-0.178522 -0.324219,-0.292969 -0.08076,0.102469 -0.14196,0.1986 -0.25586,0.3125 -1.71823696,1.718237 -1.26781996,7.641654 0.779297,10.244141 1.075335,1.367067 2.1556,4.932557 2.548829,8.408203 0.510007,4.507879 1.077064,6.035156 2.242187,6.035156 2.325158,0 1.522979,-14.036758 -0.958984,-16.779297 -1.717564,-1.897886 -1.675361,-1.976647 1.390625,-2.589844 7.3869909,-1.477399 9.1947859,-0.707055 6.1757809,2.628907 -2.883523,3.186258 -3.187287,16.740234 -0.375,16.740234 1.905978,0 2.109375,-0.565453 2.109375,-5.865234 0,-4.350946 0.516337,-6.522031 2,-8.408204 2.160584,-2.746737 2.677206,-8.648965 0.912109,-10.414062 -0.2095,-0.2095 -0.357708,-0.397018 -0.455078,-0.570312 z m -14.5156249,0.05273 c 0.0056,0.0034 0.01002,0.0084 0.01563,0.01172 l 0.002,-0.002 c -0.006,-0.003 -0.01159,-0.0068 -0.01758,-0.0098 z"
     inkscape:connector-curvature="0" />
</svg>
