<?xml version="1.0" encoding="UTF-8" standalone="no"?>
<!-- Created with Inkscape (http://www.inkscape.org/) -->

<svg
   xmlns:dc="http://purl.org/dc/elements/1.1/"
   xmlns:cc="http://creativecommons.org/ns#"
   xmlns:rdf="http://www.w3.org/1999/02/22-rdf-syntax-ns#"
   xmlns:svg="http://www.w3.org/2000/svg"
   xmlns="http://www.w3.org/2000/svg"
   xmlns:sodipodi="http://sodipodi.sourceforge.net/DTD/sodipodi-0.dtd"
   xmlns:inkscape="http://www.inkscape.org/namespaces/inkscape"
   width="21"
   height="21"
   viewBox="0 0 5.5562498 5.5562502"
   version="1.1"
   id="svg8"
   inkscape:version="0.92.1 r15371"
   sodipodi:docname="earth.svg">
  <defs
     id="defs2" />
  <sodipodi:namedview
     id="base"
     pagecolor="#ffffff"
     bordercolor="#666666"
     borderopacity="1.0"
     inkscape:pageopacity="0.0"
     inkscape:pageshadow="2"
     inkscape:zoom="15.839192"
     inkscape:cx="1.1762242"
     inkscape:cy="6.5112866"
     inkscape:document-units="px"
     inkscape:current-layer="layer1"
     showgrid="false"
     inkscape:pagecheckerboard="true"
     units="px"
     fit-margin-top="0"
     fit-margin-left="0"
     fit-margin-right="0"
     fit-margin-bottom="0"
     inkscape:window-width="1600"
     inkscape:window-height="838"
     inkscape:window-x="-8"
     inkscape:window-y="-8"
     inkscape:window-maximized="1" />
  <metadata
     id="metadata5">
    <rdf:RDF>
      <cc:Work
         rdf:about="">
        <dc:format>image/svg+xml</dc:format>
        <dc:type
           rdf:resource="http://purl.org/dc/dcmitype/StillImage" />
        <dc:title></dc:title>
      </cc:Work>
    </rdf:RDF>
  </metadata>
  <g
     inkscape:label="Layer 1"
     inkscape:groupmode="layer"
     id="layer1"
     transform="translate(-202.57071,-246.05084)">
    <path
       id="path423"
       transform="matrix(0.26458333,0,0,0.26458333,202.57071,246.05084)"
       style="fill:#fefefe;stroke-width:1.00000012"
       d="M 10.5,0 C 5.9701078,0 2.7154276,1.8343022 1.1171875,5.1171875 c 0.00701,0.0409 0.017578,0.078559 0.017578,0.1269531 h 0.00195 V 5.5957031 5.984375 6.3671875 6.7460938 7.125 7.5039062 c 0.00496,0.073005 -0.0032,0.1453968 -0.013672,0.2167969 0.1321354,0.0687 0.2085552,0.2662757 0.1054687,0.5449219 -0.026457,0.072189 -0.040326,0.1470703 -0.054687,0.2226562 -0.045474,0.2351343 -0.164184,0.3612013 -0.28710935,0.3945313 -0.004296,0.026315 -0.002131,0.042563 -0.015625,0.083984 h 0.001953 C 0.82858187,9.1036334 0.76278039,9.2322962 0.71289062,9.3671875 0.66035566,9.5062741 0.59569158,9.640676 0.53710938,9.7773438 c -0.063874,0.1390819 -0.14618355,0.2679812 -0.21875,0.4023442 -0.0113386,0.0189 -0.0218646,0.03894 -0.0332031,0.05859 -0.0835125,0.1524 -0.18618749,0.2337 -0.28515625,0.267578 5.8755448e-4,3.805563 0.53184613,5.178328 2.9238281,7.570313 0.1029947,0.102994 0.1964284,0.185407 0.2949219,0.279297 0.027984,0.009 0.051811,0.01241 0.082031,0.02539 v 0.002 c 0.1224567,0.05254 0.2227418,0.141015 0.3417969,0.199219 0.051402,0.03024 0.1056721,0.05715 0.1582031,0.08398 0.09253,0.04772 0.154895,0.102392 0.203125,0.160156 0.1642787,0.04725 0.326116,0.09969 0.4824219,0.169922 0.1727244,0.08202 0.3389677,0.177059 0.5039063,0.273437 0.1591181,0.10167 0.3266308,0.187645 0.4882812,0.285157 0.1387087,0.0926 0.2866457,0.169054 0.4335938,0.248046 0.1814173,0.08957 0.3548205,0.194262 0.5253906,0.302735 0.1375748,0.0892 0.270187,0.184304 0.40625,0.27539 0.078614,0.04989 0.1484508,0.111403 0.21875,0.171875 0.069065,0.05941 0.1126,0.120195 0.1464844,0.179688 C 8.1034723,20.925163 9.143791,21 10.5,21 14.310369,21 15.682862,20.469482 18.076172,18.076172 20.469482,15.682862 21,14.310369 21,10.5 21,3.8961501 17.103817,0 10.5,0 Z m 0.203125,0.3671875 c 0.05436,0.0108027 0.100494,0.0475075 0.138672,0.0976563 0.0054,-9.421e-4 0.01028,-0.007588 0.01563,-0.007813 0.153675,-0.004787 0.239117,0.0294048 0.314453,0.0878906 0.116344,0.0315456 0.231876,0.0676066 0.347656,0.1015625 0.220347,0.0608504 0.442592,0.12590055 0.650391,0.22265624 0.228283,0.11716536 0.489051,0.23893018 0.498047,0.53906248 0.0019,0.064252 -0.03736,0.1223654 -0.05664,0.1835938 -0.0378,0.041197 -0.07246,0.087205 -0.113281,0.125 -0.07786,0.072189 -0.193816,0.093951 -0.277344,0.1582031 -0.144378,0.091087 -0.286885,0.1831068 -0.431641,0.2734375 -0.153805,0.091465 -0.301918,0.19237 -0.451171,0.2910156 -0.13304,0.1145197 -0.268999,0.2247605 -0.384766,0.3574219 -0.096,0.1012913 -0.192746,0.2044689 -0.279297,0.3144531 -0.0255,0.032298 -0.04325,0.068363 -0.06641,0.1015625 -0.03256,0.099357 -0.06214,0.2009244 -0.111328,0.2929688 -0.183307,0.216189 -0.09298,0.1672826 -0.5976565,-0.097656 -0.04611,-0.022677 0.033459,-0.2688496 0.052734,-0.3183593 0.018508,-0.041585 0.050078,-0.074224 0.072266,-0.1132813 0.0074,-0.023993 0.01736,-0.046163 0.02344,-0.068359 0.03779,-0.1319055 0.05765,-0.2668732 0.05273,-0.4042969 2.65e-4,-0.1492892 -6.66e-4,-0.298012 0.002,-0.4472656 0.0019,-0.1458897 0.0042,-0.2919882 0.01172,-0.4375 0.01134,-0.1742362 0.02672,-0.3494903 0.06641,-0.5195312 0.03023,-0.11565399 0.07643,-0.22759181 0.107421,-0.33984378 0.08334,-0.30119034 0.267344,-0.42212458 0.416016,-0.39257812 z M 9.3144531,1.1855469 c 0.044976,0.00756 0.088592,0.021864 0.1328125,0.033203 C 9.6698798,1.3226893 9.7634273,1.5182894 9.8027344,1.7480469 9.821632,1.9997634 9.7003194,2.191236 9.5234375,2.3574219 9.3767918,2.4711857 9.205663,2.5510458 9.0332031,2.6171875 8.8763527,2.6632977 8.7238869,2.7212167 8.5683594,2.7714844 8.4262491,2.8115474 8.2846261,2.8498083 8.1464844,2.9023438 8.0126891,2.9624358 7.8633545,2.9801652 7.7304688,3.0410156 7.5936499,3.1026219 7.4549259,3.1605453 7.3164062,3.21875 c -0.042194,0.018954 -0.073083,0.052625 -0.1113281,0.076172 0.080244,0.088961 0.1499171,0.1895093 0.2128907,0.2929687 0.1073363,0.1995591 0.2036496,0.4042612 0.3125,0.6035156 0.068786,0.140976 0.1582186,0.2690399 0.2402343,0.4023438 0.066454,0.098077 0.1139309,0.2065462 0.1660157,0.3125 C 9.0301523,5.0275052 10.116674,4.5643299 11,3.5 11.70686,2.6482784 12.450755,2.1564715 13.021484,2.0566406 13.092258,2.0243184 13.175057,2 13.285156,2 v -0.00391 h 0.40625 c 0.189355,-0.00756 0.3815,-0.011599 0.56836,-0.042969 0.185196,-0.039307 0.371356,-0.076303 0.558593,-0.1035156 0.162898,-0.022677 0.326165,-0.034649 0.490235,-0.019531 0.202582,0.015118 0.349998,0.132402 0.474609,0.2832031 0.113008,0.1625197 0.148942,0.3527605 0.152344,0.546875 -0.0038,0.1882205 -0.07228,0.3555641 -0.166016,0.515625 -0.02403,0.03847 -0.0603,0.066161 -0.08789,0.1015626 -0.0092,0.069885 -0.01021,0.1405306 -0.02734,0.2089843 -0.04913,0.1553386 -0.12296,0.2961577 -0.224609,0.4238281 -0.152693,0.168189 -0.334495,0.2779141 -0.566407,0.2949219 -0.172724,0.011339 -0.346277,0.00403 -0.519531,0.00781 h -0.414062 -0.476563 -0.154297 c -0.08247,0.035335 -0.186228,0.054324 -0.320312,0.035156 -0.173481,-0.026457 -0.346752,-0.059748 -0.492188,-0.1640625 -0.02146,-0.019427 -0.02312,-0.03624 -0.04102,-0.054687 -1.21817,0.1751855 -3.4859633,2.1694265 -5.2050776,4.2226562 0.1146245,-0.039869 0.2295442,-0.079059 0.3417968,-0.125 C 7.7483305,8.0514226 7.9171827,7.9798285 8.0917969,7.9257812 8.2218126,7.8838298 8.3570427,7.8596161 8.484375,7.8085938 8.6140128,7.7685308 8.7357733,7.710175 8.8671875,7.6757812 8.9707466,7.6379873 9.0696355,7.5886332 9.1542969,7.5175781 9.2578559,7.4359403 9.3447115,7.3349738 9.4316406,7.2363281 9.5265068,7.12521 9.6257125,7.0179995 9.7285156,6.9140625 9.8604211,6.7749759 9.9928073,6.6379583 10.152344,6.5292969 10.329982,6.4125095 10.516333,6.3037982 10.728516,6.265625 c 0.08806,-0.00945 0.173861,-0.01141 0.259765,-0.00195 0.0859,0.00942 0.172275,0.029063 0.25586,0.060547 0.157228,0.067275 0.295017,0.1612533 0.40039,0.2988281 0.105827,0.1160315 0.204417,0.2373596 0.300781,0.3613281 0.08277,0.1179213 0.163635,0.2386202 0.232422,0.3652344 0.08277,0.1417323 0.151029,0.2883743 0.19336,0.4472656 0.04157,0.1636535 0.102635,0.3217308 0.111328,0.4921875 -2.65e-4,0.1625197 -0.01822,0.3254581 -0.06055,0.4824219 -0.04989,0.1727244 -0.11525,0.3421547 -0.197266,0.5019531 -0.119055,0.1976693 -0.259109,0.3823967 -0.451171,0.515625 -0.194262,0.108844 -0.381305,0.1656288 -0.605469,0.1191406 -0.115651,-0.02268 -0.230869,-0.051288 -0.347657,-0.066406 -0.14701,-0.034016 -0.288494,-0.083244 -0.416015,-0.1660157 -0.01512,-0.00756 -0.03428,-0.012226 -0.04297,-0.027344 -0.002,-0.00283 0.01171,-0.00353 0.0078,-0.00391 -0.04498,-0.018897 -0.104281,0.00743 -0.150391,-0.00391 -0.143244,3.78e-5 -0.2884721,-1.512e-4 -0.4316406,0 -0.1432441,2.268e-4 -0.2865568,0.001 -0.4296875,0.00195 -0.1882205,0.00144 -0.3745441,0.00369 -0.5625,0.00781 -0.1916221,0.00756 -0.383466,0.010526 -0.5742188,0.033203 C 8.06178,9.6988432 7.9020993,9.71875 7.7421875,9.71875 7.5808017,9.72631 7.4191861,9.7407441 7.2597656,9.7675781 c -0.199937,0.037795 -0.3959173,0.087961 -0.5957031,0.125 -0.1311496,0.030236 -0.2520399,0.083747 -0.3710937,0.1464839 -0.1137638,0.05896 -0.2331344,0.107311 -0.3359376,0.185547 -0.1179199,0.09222 -0.2274663,0.193316 -0.3359374,0.296875 -0.06085,0.06576 -0.1175712,0.131507 -0.140625,0.220704 -0.025489,0.09907 -0.066637,0.166863 -0.1113282,0.222656 C 5.1409566,11.435373 5,11.856955 5,12.181641 c 0,0.07007 0.014685,0.145234 0.023437,0.21875 v 0.002 c 2.338e-4,0.0019 -2.398e-4,0.0039 0,0.0059 0.057094,0.09971 0.1139078,0.201322 0.1777344,0.296875 0.082394,0.128126 0.1746017,0.248574 0.2675781,0.369141 0.1088504,0.136819 0.2240635,0.270464 0.3359375,0.404297 0.096378,0.120945 0.1927479,0.24032 0.2910156,0.359375 0.088441,0.08277 0.1778788,0.161808 0.2753907,0.234375 0.1027988,0.08088 0.2095089,0.157901 0.3183593,0.230468 0.1251024,0.09487 0.2553291,0.183926 0.3828125,0.275391 0.1262362,0.096 0.2578912,0.184431 0.3847656,0.279297 0.1145197,0.07975 0.2192113,0.174097 0.3261719,0.263672 0.091843,0.07143 0.1824143,0.141016 0.2753907,0.210937 0.1130035,0.07484 0.2098847,0.171893 0.3066406,0.265625 0.1046929,0.09071 0.2061663,0.183992 0.296875,0.289063 0.078992,0.11074 0.1574605,0.221481 0.2285156,0.33789 0.06463,0.108851 0.1280347,0.219843 0.1835938,0.333985 0.063118,0.122078 0.093313,0.254309 0.1152343,0.388672 0.018898,0.117921 0.021484,0.236791 0.021484,0.355468 0.018898,0.0994 0.035473,0.198714 0.044922,0.298828 0.011339,0.126615 0.013799,0.253754 0.017578,0.38086 0.00261,0.126614 0.00338,0.254396 0.00391,0.380859 -0.00756,0.0926 0.029933,0.172395 0.060547,0.257813 0.039685,0.117165 0.1158157,0.21064 0.1914063,0.30664 0.070299,0.103559 0.1785102,0.161492 0.2832031,0.22461 0.1035591,0.05102 0.202894,0.109886 0.3125,0.148437 0.102425,0.02646 0.207429,0.0339 0.3125,0.04297 0.128126,0.0038 0.256362,0.01859 0.380859,0.04883 0.119055,0.03024 0.230616,0.0804 0.339844,0.136719 0.197669,0.12737 0.233411,0.265748 0.134766,0.517578 -0.04082,0.104315 -0.211397,0.139369 -0.306641,0.160156 -0.163275,0.02646 -0.329321,0.02552 -0.49414,0.0293 -0.185575,0.0019 -0.37118,0.009 -0.5566411,0 -0.1776468,-0.0154 -0.3527296,-0.05237 -0.5273438,-0.08789 C 9.2021589,20.099306 9.0034918,20.026446 8.8105469,19.941406 8.6378225,19.847296 8.4611822,19.76126 8.2890625,19.666016 8.1465743,19.593446 8.0040075,19.521487 7.8730469,19.429688 c -0.067421,-0.04159 -0.1259364,-0.08462 -0.1796875,-0.132813 -0.076791,0.03198 -0.1687116,0.05265 -0.2890625,0.04297 -0.07748,-0.0076 -0.1553195,-0.01018 -0.2324219,-0.02148 -0.1511841,-0.0228 -0.2993605,-0.05362 -0.4492188,-0.08008 C 6.5642472,19.206307 6.4079854,19.165001 6.2558594,19.111328 6.06688,19.028081 5.8940167,18.916172 5.7714844,18.746094 5.6747285,18.592267 5.6258804,18.431531 5.6171875,18.25 5.6140505,18.140772 5.6089948,18.030347 5.5976562,17.921875 5.5825423,17.810001 5.5557536,17.701403 5.5292969,17.591797 5.5103992,17.474632 5.4791382,17.360299 5.4394531,17.248047 5.4054374,17.128614 5.3598708,17.014427 5.3164062,16.898438 5.255938,16.749902 5.1916531,16.600033 5.1640625,16.441406 5.1413853,16.308745 5.120967,16.173651 5.1171875,16.039062 5.1096514,15.789959 5.204748,15.644207 5.3222656,15.59375 4.9677971,14.967821 4.5108854,14.317893 4,13.769531 3.9139545,13.677173 3.8535977,13.598924 3.7734375,13.509766 3.7164681,13.500769 3.6586819,13.492235 3.6035156,13.476562 3.4859723,13.442597 3.390983,13.301854 3.2851562,13.242188 3.1706416,13.159794 3.0494985,13.090082 2.9296875,13.015625 2.8291521,12.955153 2.7191714,12.914242 2.6152344,12.861328 2.4946674,12.794808 2.3720154,12.731214 2.2480469,12.671875 2.1233225,12.614426 2.0004803,12.555559 1.875,12.5 1.7109685,12.410425 1.5608076,12.300062 1.4335938,12.162109 1.3224756,12.036629 1.2188612,11.90282 1.140625,11.753906 1.0510502,11.579292 0.97971506,11.40194 0.9921875,11.201172 1.0186442,11.01144 1.0731682,10.8319 1.1816406,10.671875 1.2742391,10.538836 1.3785482,10.411973 1.484375,10.289062 1.5826427,10.177994 1.6740359,10.060778 1.7734375,9.9511719 1.8751068,9.8249357 1.973491,9.6983935 2.0566406,9.5585938 2.1677587,9.3715071 2.2711875,9.1816163 2.3671875,8.9863281 2.4639434,8.8256982 2.5644191,8.6666899 2.6914062,8.5273438 2.8093275,8.3943044 2.9437406,8.2756875 3.09375,8.1796875 3.217286,8.1006705 3.3266522,8.0709217 3.4179688,8.0722656 3.6004928,7.8854154 3.7784567,7.7004908 4,7.5 4.9179603,6.6692782 5.7126623,5.4695746 5.9785156,4.5839844 5.9568815,4.5223405 5.9407065,4.452239 5.9375,4.3671875 l -0.00195,0.00195 C 5.9317128,4.2610957 5.9429806,4.1506829 5.9316406,4.0429688 5.9240858,3.9556834 5.8930762,3.8722755 5.8613281,3.7910156 5.8174856,3.6783857 5.7743135,3.5656258 5.7421875,3.4492188 5.7025025,3.2980376 5.6941175,3.1453084 5.7050781,2.9902344 5.7440073,2.7838722 5.8486222,2.5995762 5.9589844,2.4238281 6.0398663,2.288899 6.1385673,2.1651131 6.2519531,2.0566406 6.365339,1.957617 6.4824462,1.8633925 6.6113281,1.7851562 6.7409659,1.702387 6.8864941,1.647546 7.03125,1.5976562 7.1801634,1.547013 7.3336352,1.512846 7.4863281,1.4765625 7.6662336,1.4425468 7.8435064,1.408321 8.0214844,1.3652344 8.1885395,1.3349982 8.3524884,1.2850205 8.5175781,1.2460938 8.662712,1.212078 8.8107891,1.1989019 8.9589844,1.1894531 c 0.1167874,0.00317 0.2390593,-0.026491 0.3554687,-0.00391 z m 1.7871089,0.3886719 c -0.0012,0.00842 2.71e-4,0.016976 -0.002,0.025391 0.0013,0.00378 -1.49e-4,0.011845 0.0039,0.015625 0.01134,0.00756 0.0043,-0.025771 0.002,-0.037109 -5.55e-4,-0.00206 -0.0033,-0.00193 -0.0039,-0.00391 z M 3.3730469,2.828125 c 0.080162,0.00916 0.1533533,0.042043 0.2285156,0.068359 0.00649,-0.00519 0.00945,-0.015141 0.019531,-0.015625 0.031732,-0.00153 0.07872,0.01649 0.1445312,0.058594 0.039249,0.025119 0.048796,0.039232 0.058594,0.046875 0.1873486,0.1080733 0.2572256,0.2524115 0.2363281,0.375 0.00821,0.024261 0.025178,0.03182 0.03125,0.060547 0.00121,0.025407 -0.00388,0.050784 -0.00391,0.076172 0.089663,0.073164 0.1686028,0.1615309 0.2246094,0.25 0.08126,0.1738582 0.1134855,0.351649 0.083984,0.5429687 -0.01888,0.1655423 -0.044367,0.3318589 -0.109375,0.4863282 C 4.2083214,4.9519407 4.1050664,5.1093893 3.9765625,5.2519531 3.8820785,5.3577798 3.7851997,5.4598847 3.6816406,5.5566406 3.5697666,5.6772076 3.4516544,5.7930543 3.3378906,5.9121094 3.2222371,6.0500621 3.1056956,6.1888461 2.9726562,6.3105469 2.8282836,6.4284681 2.6682246,6.5228805 2.4882812,6.5761719 2.4542708,6.5837309 2.4242628,6.5957031 2.390625,6.5957031 2.3229715,6.5936622 2.251374,6.5929897 2.1875,6.5703125 2.035563,6.5147534 1.9524936,6.3531089 1.9453125,6.2011719 1.9433094,6.1595971 1.957158,6.1193219 1.9609375,6.078125 2.020654,5.9133376 2.1161369,5.7736079 2.2246094,5.6367188 2.3107826,5.5127502 2.3884339,5.3829516 2.4628906,5.2519531 2.5415048,5.1075752 2.6193515,4.9615034 2.7070312,4.8222656 2.7686375,4.7213522 2.8179881,4.6165362 2.8535156,4.5039062 2.8875316,4.4196277 2.9304435,4.3398207 2.9296875,4.2460938 2.9410265,4.1228812 2.9648438,4.0009216 2.9648438,3.8769531 V 3.484375 c -1e-7,-0.046838 0.00911,-0.08323 0.015625,-0.1230469 C 2.6988956,3.1787028 2.869416,2.7750033 3.3730469,2.828125 Z M 16.982422,3.2597656 c 0.06687,2.57e-5 0.133988,0.035456 0.189453,0.099609 0.02902,-0.013001 0.05844,-0.023512 0.08984,-0.023437 0.153179,3.638e-4 0.319783,0.1561197 0.353515,0.4667969 0.01512,0.1319055 0.04733,0.2595243 0.0957,0.3828125 0.07521,0.1466456 0.150467,0.2950146 0.222656,0.4433593 0.08628,0.177483 0.08368,0.3206212 0.03711,0.421875 0.11168,0.1316338 0.149242,0.2562233 0.138672,0.359375 C 18.649634,5.7835677 19,6.346449 19,7.0839844 c 0,0.06899 -0.0151,0.1337453 -0.03516,0.1972656 0.38252,0.029046 0.390041,0.4679834 -0.111328,0.6425781 l -0.0039,0.00586 c -0.118299,0.041197 -0.237674,0.079139 -0.359375,0.109375 -0.195779,0.043465 -0.393873,0.079202 -0.591796,0.1113281 -0.257008,0.04611 -0.514137,0.081536 -0.771485,0.125 -0.207874,0.030236 -0.414479,0.05665 -0.619141,0.1035156 -0.169312,0.026457 -0.323718,0.091496 -0.476562,0.1640626 -0.134551,0.069543 -0.261843,0.1524859 -0.386719,0.2382812 -0.119433,0.087307 -0.235916,0.1816606 -0.339843,0.2871094 -0.06463,0.08126 -0.105854,0.1798319 -0.140626,0.2773437 -0.04308,0.1050709 -0.08197,0.2103916 -0.103515,0.3222657 -0.03024,0.1390856 -0.08897,0.2688782 -0.144531,0.3984372 -0.09373,0.205985 -0.232955,0.313267 -0.449219,0.371094 -0.213543,0.03779 -0.388854,-0.05339 -0.552735,-0.177734 -0.0102,-0.0084 -0.0157,-0.02049 -0.02539,-0.0293 -0.05981,0.04778 -0.117884,0.09763 -0.179688,0.142578 -0.13833,0.09184 -0.268145,0.194764 -0.40039,0.294922 -0.111874,0.100535 -0.222298,0.203964 -0.328125,0.310547 -0.09827,0.096 -0.171071,0.210328 -0.251953,0.320312 -0.03931,0.05783 -0.07946,0.114426 -0.119141,0.171875 -0.01937,0.02804 -0.04037,0.04344 -0.06055,0.06641 0.170691,0.213554 0.258776,0.509754 0.291016,0.921875 0.101757,0.0792 0.205132,0.158402 0.285156,0.259766 0.08731,0.134929 0.132944,0.283044 0.160156,0.441406 0.02646,0.16252 0.03001,0.325497 -0.002,0.488282 -0.03024,0.166293 -0.07752,0.328708 -0.199219,0.453124 -0.05367,0.05631 -0.103522,0.115248 -0.138672,0.185547 -0.06085,0.09827 -0.112219,0.202326 -0.162109,0.306641 -0.03039,0.07735 -0.05538,0.156533 -0.08398,0.234375 -0.03474,0.232206 -0.07897,0.4511 -0.125,0.664063 0.06771,0.07757 0.11731,0.196043 0.117187,0.365234 -7.5e-5,0.135307 -0.0014,0.270867 -0.002,0.40625 -6.8e-4,0.14589 -0.0018,0.291723 -0.0039,0.4375 -0.0038,0.186709 -0.0104,0.372452 -0.0293,0.558594 -0.02268,0.211275 -0.05886,0.424154 -0.148438,0.61914 -0.08617,0.174992 -0.189923,0.340082 -0.34375,0.464844 -0.117919,0.107717 -0.236354,0.213535 -0.376953,0.291016 -0.17159,0.08806 -0.349494,0.129469 -0.542968,0.111328 -0.200693,-0.03024 -0.390005,-0.09542 -0.507813,-0.273438 -0.06425,-0.102047 -0.125953,-0.205793 -0.166016,-0.320312 -0.04762,-0.125859 -0.09747,-0.250896 -0.138671,-0.378906 -0.05594,-0.161386 -0.109952,-0.323922 -0.16211,-0.486329 -0.02646,-0.140976 -0.04631,-0.283658 -0.04101,-0.427734 0.0034,-0.09295 0.02477,-0.167133 0.05078,-0.232422 -0.02515,-0.06287 -0.05666,-0.12357 -0.07227,-0.189453 -0.03893,-0.130016 -0.0799,-0.259639 -0.121093,-0.388672 -0.0404,-0.129641 -0.07864,-0.260307 -0.117188,-0.390625 C 9.928912,15.539894 9.8739162,15.42929 9.8066406,15.324219 9.7510816,15.227085 9.7018511,15.12448 9.6289062,15.039062 9.5665446,14.961966 9.5050902,14.883177 9.4355469,14.8125 9.3421929,14.73615 9.2510528,14.656551 9.1542969,14.583984 9.0715249,14.530314 8.9901533,14.467863 8.8945312,14.441406 c -0.078236,-0.03855 -0.2091265,0.0034 -0.2949218,-0.01172 -0.1307717,-0.0018 -0.2600801,-0.0042 -0.390625,-0.01172 -0.1485355,-0.01134 -0.2979599,-0.02994 -0.4375,-0.08399 C 7.5930907,14.249363 7.4890872,14.144059 7.4199219,13.978516 7.3821266,13.857571 7.3719108,13.734855 7.3613281,13.609375 7.34621,13.489186 7.316463,13.372647 7.2832031,13.255859 7.2567464,13.134159 7.2153412,13.018243 7.1835938,12.898438 7.1571371,12.792233 7.1357639,12.682252 7.0839844,12.583984 7.0193545,12.438851 6.9593468,12.292691 6.8769531,12.15625 6.7930476,12.006959 6.7126939,11.857113 6.671875,11.689453 6.6378593,11.523154 6.6418922,11.358487 6.6796875,11.193359 6.7303332,11.006273 6.8185827,10.844754 7,10.755859 c 0.1292598,-0.0548 0.2635473,-0.105975 0.4042969,-0.121093 0.1855748,-0.01134 0.3639436,0.01312 0.5351562,0.08984 0.1481575,0.06161 0.2936379,0.128039 0.4335938,0.207032 0.096756,0.03855 0.1918041,0.08197 0.296875,0.0918 0.070952,0.0065 0.1292733,0.02333 0.1816406,0.04297 C 9.1922044,11.023398 9.5795281,11 10.015625,11 c 0.607077,0 1.074046,0.0197 1.458984,0.07031 0.105592,-0.116786 0.211293,-0.234019 0.328125,-0.339843 0.132662,-0.120189 0.262175,-0.243027 0.40625,-0.34961 0.152693,-0.11263 0.296665,-0.237294 0.451172,-0.347656 0.142866,-0.1069597 0.292744,-0.2062318 0.4375,-0.3105468 0.123969,-0.082394 0.251281,-0.1624438 0.359375,-0.265625 0.0067,-0.00636 0.01288,-0.013151 0.01953,-0.019531 -0.01168,-0.045144 -0.03021,-0.087981 -0.04297,-0.1328125 -0.04271,-0.1345512 -0.06855,-0.2745979 -0.08594,-0.4140625 -0.02268,-0.1424882 -0.01505,-0.2837098 0.002,-0.4257812 0.01134,-0.1477796 0.05798,-0.2885343 0.121094,-0.421875 0.01175,-0.020022 0.02718,-0.036913 0.03906,-0.056641 -0.103818,-0.057173 -0.193273,-0.1836201 -0.214844,-0.3964843 -0.01134,-0.1088504 -0.02577,-0.2173215 -0.03711,-0.3261719 -0.0045,-0.046356 -3.9e-4,-0.08174 0.002,-0.1210938 -0.218151,-0.2070324 -0.366361,-0.3939292 -0.371094,-0.5605469 -0.0093,-0.00486 -0.01802,-0.010778 -0.02734,-0.015625 C 12.760395,6.5074607 12.657742,6.4539354 12.550781,6.4082031 12.432104,6.3481086 12.31733,6.2796615 12.205078,6.2089844 12.076196,6.1333938 11.95657,6.044524 11.849609,5.9394531 c -0.0994,-0.085795 -0.296807,-0.235462 -0.271484,-0.3867187 0.0189,-0.1062047 0.09099,-0.195079 0.136719,-0.2929688 0.0446,-0.018898 0.08632,-0.046563 0.132812,-0.060547 0.06066,-0.018898 0.123138,-0.015864 0.185547,-0.00781 0.06241,0.00803 0.125075,0.021674 0.185547,0.027344 0.146268,0.018898 0.295554,0.014937 0.441406,0.041016 0.181796,0.030236 0.361007,0.066103 0.535156,0.1269532 0.151938,0.045732 0.297081,0.1102653 0.451172,0.1484374 0.111476,0.033347 0.221654,0.068361 0.330078,0.109375 0.189158,-0.098175 0.317826,-0.1794463 0.5625,-0.2949218 0.2631,-0.1241622 0.526838,-0.2173854 0.78711,-0.2890625 0.0446,-0.065256 0.105228,-0.1301516 0.201172,-0.1875 0.158362,-0.094488 0.313777,-0.1938818 0.470703,-0.2910157 0.142866,-0.097134 0.284059,-0.1957125 0.412109,-0.3125 0.08655,-0.091087 0.176863,-0.1823553 0.232422,-0.296875 0.04271,-0.074079 0.01783,-0.1628807 0.02539,-0.2441406 0.0189,-0.3119811 0.166756,-0.4688067 0.314453,-0.46875 z M 7.0664062,4.2773438 c 0.00191,0.034005 0.00696,0.069301 0.00195,0.099609 0.025291,0.027203 0.057465,0.043135 0.083984,0.068359 -0.029561,-0.05557 -0.057509,-0.1119202 -0.085938,-0.1679687 z m -6.91210932,4.125 c -0.002565,0.01798 -0.00727,0.0347 -0.009766,0.052734 0.008927,-0.013384 0.0163838,-0.027683 0.0253906,-0.041016 -0.00545,-0.00363 -0.010434,-0.00762 -0.015625,-0.011719 z M 11.126953,8.59375 c -0.0033,0.02212 -0.0016,0.044348 -0.0059,0.066406 -0.0017,0.00458 -0.0042,0.00903 -0.0059,0.013672 0.01097,-0.00385 0.02261,-0.00491 0.0332,-0.00977 -0.0058,-0.027211 -0.01397,-0.048106 -0.02149,-0.070312 z M 0.65820312,8.8261719 c -0.00849,0.013019 -0.0171189,0.025901 -0.0253906,0.039063 -0.0151181,0.018898 -0.0274094,0.040516 -0.0410156,0.060547 -0.009307,0.013989 -0.0197563,0.020471 -0.0292969,0.033203 0.060482,-0.038265 0.10344501,-0.060675 0.15820312,-0.095703 -0.0219448,-0.010241 -0.0433462,-0.020122 -0.0625,-0.037109 z m -0.59375,0.3085937 c -0.0044693,0.050612 -0.0037182,0.1053439 -0.0078125,0.15625 0.01975072,-0.04547 0.04055813,-0.090523 0.05859376,-0.1367187 -0.01676831,-0.00698 -0.03608995,-0.00913 -0.05078126,-0.019531 z m 11.44531288,0.03125 c -0.07758,0.04883 -0.157944,0.09122 -0.246094,0.1171875 0.0071,0.00144 0.01433,0.00254 0.02148,0.00391 0.04309,0.00756 0.128218,0.012151 0.154297,-0.033203 0.0293,-0.02425 0.04484,-0.060171 0.07031,-0.087891 z m 6.804687,1.1035154 c 0.168567,-4.15e-4 0.337548,1.14e-4 0.505859,0 0.172347,-0.0037 0.303004,0.02629 0.458985,0.09961 0.169701,0.109984 0.252218,0.289424 0.318359,0.472656 0.05556,0.174236 0.06956,0.357796 0.08203,0.539062 0.0076,0.152693 0.01187,0.305914 0.01562,0.458985 0.0017,0.134173 0.0017,0.268057 0.002,0.402344 1.89e-4,0.100506 -3.8e-5,0.202198 0,0.302734 1.38e-4,0.209246 -0.0718,0.342973 -0.166016,0.412109 0.0071,0.06391 0.01936,0.127236 0.02344,0.191407 0.0076,0.08957 0.006,0.178003 0.0098,0.267578 0.0078,0.258012 -0.09577,0.406209 -0.220703,0.455078 -0.0032,0.02659 -2.38e-4,0.05359 -0.0039,0.08008 -0.02268,0.170457 -0.09798,0.326592 -0.166016,0.482422 -0.04271,0.12359 -0.09357,0.243848 -0.146484,0.363281 -0.06161,0.110362 -0.106675,0.228916 -0.154297,0.345703 -0.05934,0.171591 -0.144296,0.331416 -0.230469,0.490234 -0.09184,0.165544 -0.181315,0.329996 -0.27539,0.494141 -0.07143,0.144756 -0.156519,0.283796 -0.246094,0.417969 -0.05719,0.08338 -0.126658,0.157067 -0.191406,0.234375 -0.08568,0.142418 -0.17183,0.284904 -0.279297,0.412109 -0.111874,0.147024 -0.236205,0.285052 -0.382813,0.398438 -0.0083,0.0067 -0.01711,0.01281 -0.02539,0.01953 -0.02398,0.07351 -0.05078,0.14664 -0.07813,0.21875 -0.05556,0.146031 -0.133692,0.241179 -0.216796,0.292969 h -0.002 c -0.01373,0.01448 -0.02651,0.02972 -0.04102,0.04297 -0.08504,0.0771 -0.185755,0.135092 -0.285156,0.191407 -0.120189,0.06274 -0.237672,0.126464 -0.347657,0.205078 -0.114519,0.0771 -0.230552,0.151352 -0.33789,0.238281 -0.08958,0.07255 -0.173356,0.106543 -0.251953,0.125 -0.09829,0.108413 -0.20355,0.20759 -0.337891,0.273438 -0.212787,0.113385 -0.433083,0.208051 -0.666016,0.273437 -0.314456,0.100536 -0.635583,0.176105 -0.96289,0.220703 -0.0317,0.0054 -0.06397,0.003 -0.0957,0.0078 -0.04783,0.02336 -0.09824,0.04334 -0.144532,0.07031 -0.0029,0.0021 -0.0024,0.0035 -0.0059,0.0059 -0.0038,0.0022 -0.01493,0.004 -0.01172,0.002 0.0054,-0.0035 0.01204,-0.0046 0.01758,-0.0078 0.0289,-0.02097 0.03508,-0.0358 0.05274,-0.06445 -0.16214,0.02142 -0.323913,0.0478 -0.488282,0.03906 -0.624116,-0.03402 -0.6237,-0.670318 0,-0.63086 v -0.0078 c 0.02049,0.0012 0.04018,-0.0044 0.06055,-0.0039 0.01867,-0.02495 0.02512,-0.04902 0.04883,-0.07422 h 0.0039 c 0.107716,-0.11452 0.211711,-0.232383 0.304687,-0.359375 0.08088,-0.115654 0.119593,-0.250717 0.179688,-0.376953 0.04838,-0.08731 0.07599,-0.181785 0.09375,-0.279297 0.0189,-0.106961 0.02357,-0.214549 0.02734,-0.322266 0.0038,-0.09978 0.0039,-0.201002 0.0039,-0.300781 6.42e-4,-0.09789 -1.14e-4,-0.195079 0,-0.292969 7.5e-5,-0.115653 0,-0.232003 0,-0.347656 0.0038,-0.139087 -0.01405,-0.275845 -0.02539,-0.414063 0.0022,-0.145511 -0.04335,-0.28241 -0.07813,-0.421875 -0.0378,-0.148535 -0.05393,-0.298896 -0.06641,-0.451171 -0.01512,-0.154205 -0.01115,-0.3088 0,-0.462891 0.0189,-0.197669 0.08325,-0.370443 0.201172,-0.529297 0.119055,-0.144756 0.274792,-0.239241 0.443359,-0.314453 0.005,-0.002 0.0106,-0.002 0.01563,-0.0039 -0.002,-0.0045 -0.0039,-0.0071 -0.0059,-0.01172 -0.04309,-0.102425 -0.07813,-0.209004 -0.113282,-0.314453 -0.0514,-0.130016 -0.113796,-0.255757 -0.175781,-0.38086 -0.06614,-0.154582 -0.128856,-0.30929 -0.197265,-0.46289 -0.0737,-0.186709 -0.139371,-0.377104 -0.171875,-0.576172 -0.01512,-0.134929 -0.01745,-0.270225 -0.01367,-0.40625 0.0057,-0.312454 0.141333,-0.465562 0.287109,-0.464844 0.0892,4.39e-4 0.179696,0.06574 0.248047,0.181641 0.03717,0.01105 0.07212,0.01794 0.113281,0.03711 0.195402,0.09109 0.369073,0.223783 0.542969,0.349609 0.152866,0.113015 0.301799,0.232873 0.449219,0.353516 0.0012,-0.09969 0.0017,-0.199561 0.002,-0.298828 3.4e-4,-0.167811 -7.6e-5,-0.334255 0,-0.501953 0.0076,-0.145512 -0.01027,-0.291207 -0.02539,-0.435547 -0.04384,-0.328063 0.06162,-0.383309 0.451172,-0.412109 0.01781,-0.0013 0.074,0.05335 0.115234,0.0918 0.01148,-0.04741 0.01056,-0.09283 0.03125,-0.142579 0.118994,-0.232974 0.31339,-0.293713 0.539063,-0.318359 0.161177,-0.08348 0.340236,-0.120358 0.523437,-0.136719 0.279686,-0.0189 0.561508,-0.02357 0.841797,-0.02734 0.207118,-0.0029 0.413938,-0.0039 0.621094,-0.0039 z M 7.703125,11.310547 c 0.00673,0.01721 0.013639,0.03419 0.021484,0.05078 0.015057,-0.007 0.0215,-0.01668 0.037109,-0.02344 -0.019746,-0.0086 -0.038883,-0.01856 -0.058594,-0.02734 z m 9.632813,0.880859 c 0.005,0.02736 0.02379,0.05664 0.02148,0.08203 0.02539,-0.02631 0.03779,-0.035 0.0625,-0.06055 -0.03063,-4.34e-4 -0.05495,-0.01563 -0.08398,-0.02149 z M 1.9882812,13.589844 c 0.1904882,-0.0189 0.3799355,0.0078 0.5585938,0.07813 0.1946457,0.102803 0.2998018,0.216961 0.3847656,0.419922 0.064252,0.144756 0.1379926,0.283456 0.2109375,0.423828 0.084661,0.164031 0.1766816,0.325042 0.2734375,0.482422 0.082394,0.144756 0.1626907,0.289418 0.2382813,0.4375 0.053669,0.102425 0.1169473,0.200119 0.1796875,0.296875 0.086929,0.113763 0.1694938,0.231185 0.2382812,0.357422 0.071055,0.120137 0.1328258,0.244667 0.203125,0.365234 0.079748,0.151937 0.1440266,0.3131 0.140625,0.488281 -0.011339,0.170835 -0.022389,0.331188 -0.1425781,0.466797 -0.085039,0.03015 -0.1631976,0.09224 -0.2539063,0.09375 -0.1799004,0.0028 -0.2895171,-0.162702 -0.3613281,-0.296875 -0.019686,-0.03567 -0.038764,-0.07181 -0.058594,-0.107422 -0.00589,-0.0076 -0.011761,-0.01152 -0.017578,-0.01953 -0.055559,-0.07636 -0.1087546,-0.15343 -0.1601562,-0.232422 -0.07937,-0.137575 -0.1446668,-0.279187 -0.1953125,-0.429688 -0.030236,-0.08277 -0.067047,-0.166028 -0.1210937,-0.236328 -0.073323,-0.08995 -0.1456829,-0.178567 -0.2382813,-0.25 -0.095622,-0.08013 -0.1805223,-0.170317 -0.2636719,-0.263672 -0.089197,-0.08277 -0.1757989,-0.170566 -0.2695312,-0.248046 -0.073323,-0.07408 -0.1816562,-0.09975 -0.2636719,-0.16211 -0.1205669,-0.08466 -0.2393061,-0.171582 -0.328125,-0.291015 -0.092976,-0.12926 -0.1734546,-0.269625 -0.1972656,-0.429688 -0.015118,-0.151559 -0.00289,-0.302183 0.027344,-0.451172 0.058583,-0.233197 0.1680837,-0.423324 0.4160156,-0.492187 z m 0.3007813,0.642578 c -0.014459,0.01498 -0.036268,0.04043 -0.054687,0.0625 0.010508,-0.0038 0.014127,1.58e-4 0.025391,-0.0039 0.010814,-0.0036 0.022759,-0.0271 0.037109,-0.04297 -0.00323,-0.0048 -0.0043,-0.01107 -0.00781,-0.01563 z m 0.042969,0.07813 c 0.00206,0.01261 -0.00344,0.04822 0,0.0332 0.00341,-0.01324 0.00123,-0.01397 0.00391,-0.02539 -0.00121,-0.0026 -0.00267,-0.0052 -0.00391,-0.0078 z m 13.0976568,0.207031 c -0.03013,0.0042 -0.05922,0.01441 -0.08984,0.01563 -0.02622,0.0035 -0.05204,0.0093 -0.07813,0.01367 0.05264,-0.0068 0.105262,-0.01374 0.158203,-0.01758 0.0034,-0.0038 0.0064,-0.0079 0.0098,-0.01172 z m -4.425782,2.13086 c -0.01251,0.0056 -0.02575,0.0064 -0.03906,0.0098 0.01652,0.04184 0.03292,0.08371 0.05078,0.125 -0.0018,-0.0514 -0.0077,-0.09076 -0.01172,-0.134765 z m 3.388672,0.597656 c -2.25e-4,0.01824 1.6e-4,0.03645 0,0.05469 l 0.01563,-0.05273 c -0.0052,-6.8e-4 -0.01041,-0.0013 -0.01563,-0.002 z m -3.001953,0.703125 c -0.06745,0.01951 -0.134804,0.04284 -0.203125,0.03516 0.0248,0.05207 0.05059,0.102824 0.08203,0.152344 0.0025,0.0022 0.0078,0.0078 0.0078,0.0078 -0.03024,-0.05934 -0.0065,-0.0065 0.03125,-0.02539 0.05291,-0.0038 0.130992,0.0102 0.169922,-0.03516 0.0258,-0.01434 0.0447,-0.03758 0.06836,-0.05469 -0.06052,-0.0074 -0.115591,-0.03265 -0.15625,-0.08008 z m -5.1308594,0.373047 c 0.00384,0.02865 0.011355,0.05377 0.033203,0.06836 0.013079,0.01566 0.033843,0.02018 0.048828,0.0332 -0.027037,-0.03414 -0.057862,-0.06511 -0.082031,-0.101562 z m 9.0527344,0.03125 c -0.0015,0.0087 0.0025,0.0167 0,0.02539 l 0.002,-0.002 c -0.0033,-0.0068 0.001,-0.0162 -0.002,-0.02344 z m -0.251953,0.265625 c -0.01022,0.0048 -0.01448,0.01098 -0.02539,0.01563 -0.0018,7.47e-4 -0.0022,0.0031 -0.0039,0.0039 0.0044,-0.0023 0.0093,-0.0035 0.01367,-0.0059 0.0067,-0.003 0.0092,-0.01037 0.01563,-0.01367 z m -6.0566408,0.652343 c -0.00237,0.009 -0.013382,0.04341 -0.015625,0.05078 0.027779,0.01485 0.056535,0.02748 0.083984,0.04297 0.00504,0.0023 0.010567,0.0036 0.015625,0.0059 -0.016572,-0.01936 -0.037691,-0.03361 -0.052734,-0.05469 -0.011187,-0.01434 -0.020212,-0.03047 -0.03125,-0.04492 z" />
  </g>
</svg>
