<?xml version="1.0" encoding="UTF-8" standalone="no"?>
<!-- Created with Inkscape (http://www.inkscape.org/) -->

<svg
   xmlns:dc="http://purl.org/dc/elements/1.1/"
   xmlns:cc="http://creativecommons.org/ns#"
   xmlns:rdf="http://www.w3.org/1999/02/22-rdf-syntax-ns#"
   xmlns:svg="http://www.w3.org/2000/svg"
   xmlns="http://www.w3.org/2000/svg"
   xmlns:sodipodi="http://sodipodi.sourceforge.net/DTD/sodipodi-0.dtd"
   xmlns:inkscape="http://www.inkscape.org/namespaces/inkscape"
   version="1.1"
   id="svg10"
   width="43"
   height="24.961756"
   viewBox="0 0 42.999999 24.961756"
   sodipodi:docname="eye.svg"
   inkscape:version="0.92.1 r15371">
  <metadata
     id="metadata16">
    <rdf:RDF>
      <cc:Work
         rdf:about="">
        <dc:format>image/svg+xml</dc:format>
        <dc:type
           rdf:resource="http://purl.org/dc/dcmitype/StillImage" />
        <dc:title></dc:title>
      </cc:Work>
    </rdf:RDF>
  </metadata>
  <defs
     id="defs14" />
  <sodipodi:namedview
     pagecolor="#ffffff"
     bordercolor="#666666"
     borderopacity="1"
     objecttolerance="10"
     gridtolerance="10"
     guidetolerance="10"
     inkscape:pageopacity="0"
     inkscape:pageshadow="2"
     inkscape:window-width="1600"
     inkscape:window-height="838"
     id="namedview12"
     showgrid="false"
     fit-margin-top="0"
     fit-margin-left="0"
     fit-margin-right="0"
     fit-margin-bottom="0"
     inkscape:zoom="9.8333333"
     inkscape:cx="44.155115"
     inkscape:cy="1.9599083"
     inkscape:window-x="-8"
     inkscape:window-y="-8"
     inkscape:window-maximized="1"
     inkscape:current-layer="svg10"
     inkscape:pagecheckerboard="true" />
  <path
     id="path62"
     style="fill:#fefefe"
     d="M 21.5,0 C 17.428579,0 13.675607,0.6168695 11.701171,1.609375 9.940985,2.4941825 6.5875,5.0636524 4.25,7.3183594 1.9125,9.5730662 0,11.904029 0,12.5 c 0,0.595971 1.9125,2.92755 4.25,5.179687 2.3375,2.252137 5.6,4.802612 7.25,5.667969 1.842174,0.966144 5.625395,1.588691 9.800781,1.613281 4.327617,0.02548 7.963156,-0.544481 10,-1.568359 C 33.060968,22.50777 36.4125,19.9383 38.75,17.683593 41.0875,15.428887 43,13.095971 43,12.5 43,11.904029 41.0875,9.5730662 38.75,7.3183594 36.4125,5.0636524 33.060968,2.4941825 31.300781,1.609375 29.326346,0.6168695 25.571421,0 21.5,0 Z m 0,3 c 1.96033,0 5.045633,0.6188027 6.855468,1.375 1.809835,0.7561973 4.966884,2.8476664 7.015625,4.6464844 l 3.72461,3.2695316 -2.736328,2.857422 c -1.50548,1.571382 -4.593873,3.756866 -6.863282,4.855468 -2.269409,1.098602 -5.896697,1.996527 -8.060546,1.996093 -2.163853,-4.31e-4 -5.772974,-0.911388 -8.019532,-2.023437 C 11.169456,18.864513 8.111322,16.680549 6.61914,15.123047 L 3.904297,12.291016 7.630859,9.0214844 C 9.679599,7.2226664 12.836649,5.1311973 14.646484,4.375 16.456319,3.6188027 19.53967,3 21.5,3 Z m 0.242187,1 C 18.895607,4 16.916282,4.6709417 15.314453,6.1757812 13.598791,7.7875625 13,9.448809 13,12.601563 c 0,3.403629 0.526169,4.667549 2.634765,6.326171 C 17.130587,20.104348 19.745428,21 21.68164,21 23.969433,21 25.90039,20.193359 27.546875,18.546875 29.193359,16.900389 30,14.969434 30,12.681641 30,10.745429 29.104348,8.1305878 27.927734,6.6347656 26.288888,4.551311 24.994424,4 21.742187,4 Z m -2.160156,2.2949219 c 0.279121,0.00489 0.557326,0.010799 0.835937,0.029297 0.263873,0.020633 0.529837,0.047743 0.779297,0.1425781 0.173928,0.060551 0.350984,0.1109928 0.53125,0.1484375 0.216043,0.045136 0.436629,0.067002 0.654297,0.1035156 0.218176,0.031894 0.439979,0.032682 0.65625,0.080078 0.492833,0.1080045 0.690854,0.4032087 0.640625,0.6484375 0.379277,0.2547139 0.837785,0.6154969 1.314453,1.046875 C 26.097512,9.4926784 27,11.341039 27,12.599609 c 0,1.258569 -1.000279,2.987563 -2.222657,3.84375 C 23.554964,17.299546 21.825972,18 20.933593,18 c -0.892378,0 -2.440915,-0.902488 -3.439453,-2.005859 -0.681903,-0.753495 -1.168117,-1.441437 -1.351562,-1.859375 -0.242887,0.119016 -0.59185,-0.01343 -0.769531,-0.515625 -0.0088,-0.02489 -0.01658,-0.04933 -0.02539,-0.07422 -0.09451,-0.250531 -0.218478,-0.493059 -0.246094,-0.763672 -0.02713,-0.223467 -0.06113,-0.44789 -0.04883,-0.673828 9.43e-4,-0.204967 0.0013,-0.410313 0.0059,-0.615235 0.0056,-0.209759 0.0129,-0.418356 0.03711,-0.626953 0.0225,-0.173612 0.05281,-0.346224 0.09766,-0.515625 0.02939,-0.228843 0.07352,-0.4569197 0.175781,-0.6660157 0.08395,-0.1715938 0.162829,-0.3464936 0.248047,-0.5175781 0.135399,-0.2382267 0.288697,-0.4666042 0.470703,-0.671875 0.140629,-0.1535807 0.273522,-0.3165725 0.433594,-0.4511719 0.129509,-0.1256263 0.257879,-0.2532999 0.394531,-0.3710937 0.104598,-0.098559 0.203723,-0.1988893 0.292969,-0.3125 0.120001,-0.1485674 0.19855,-0.3329088 0.363281,-0.4433594 0.180999,-0.1389763 0.373848,-0.2591524 0.583985,-0.3496093 0.225255,-0.092732 0.444951,-0.2015043 0.691406,-0.2265625 0.24383,-0.027715 0.488267,-0.06084 0.734375,-0.044922 z M 19.564451,7.3125 c -0.202001,-0.015462 -0.401558,0.014357 -0.601563,0.037109 -0.148582,0.024113 -0.27863,0.098914 -0.416015,0.15625 -0.123737,0.05766 -0.24225,0.121886 -0.347657,0.2089843 -0.06425,0.072749 -0.11216,0.1648283 -0.171875,0.2480469 -0.125272,0.1615051 -0.266089,0.3069066 -0.414062,0.4472657 -0.132188,0.1142897 -0.256552,0.2365538 -0.38086,0.359375 -0.145043,0.1214452 -0.264206,0.268578 -0.390624,0.4082031 -0.12712,0.1493306 -0.244496,0.3115891 -0.337891,0.484375 -0.07466,0.1554222 -0.145031,0.3117891 -0.220703,0.466797 -0.05017,0.108672 -0.06598,0.228103 -0.08008,0.345703 -0.03554,0.172378 -0.07594,0.342765 -0.09766,0.517578 -0.01919,0.174986 -0.02466,0.351494 -0.0293,0.527344 -0.0045,0.197464 -0.005,0.396245 -0.0059,0.59375 -0.01217,0.183556 0.01894,0.363472 0.04102,0.544922 0.03014,0.183297 0.118707,0.349687 0.185547,0.521484 0.01174,0.03283 0.02342,0.06678 0.03516,0.09961 0.0383,0.107054 0.05462,0.204334 0.0625,0.294922 0.371813,-0.212956 1.113954,-0.630099 2.039062,-1.140625 0.07641,-0.04217 0.161249,-0.112446 0.240235,-0.162109 -0.111118,-0.132825 -0.128252,-0.31606 -0.0293,-0.484375 -0.0096,-0.04051 -0.01533,-0.08129 -0.02344,-0.160157 -0.02369,-0.219271 0.01958,-0.434058 0.07617,-0.644531 0.0786,-0.279981 0.229981,-0.518334 0.408203,-0.74414 0.03529,-0.04661 0.07952,-0.08445 0.119141,-0.126954 0.03145,-0.04005 0.0584,-0.08378 0.09375,-0.1210934 0.194566,-0.2193887 0.412865,-0.4178084 0.681641,-0.5429688 0.268857,-0.1273742 0.545863,-0.2297172 0.849609,-0.2070312 0.219783,0.00157 0.438537,0.00384 0.658203,0.011719 0.0085,3.911e-4 0.01685,0.00156 0.02539,0.00195 0.37707,-0.6819252 0.60821,-1.0905573 0.845703,-1.5117188 -0.04438,-0.00436 -0.08855,-0.00991 -0.132813,-0.015625 -0.241356,-0.038561 -0.4832,-0.06577 -0.722656,-0.1152344 C 21.300632,7.5649724 21.080341,7.5036198 20.865183,7.4296838 20.69773,7.3642828 20.51907,7.3530708 20.341746,7.3398398 20.083058,7.3231318 19.823535,7.3170118 19.564402,7.3124958 Z"
     inkscape:connector-curvature="0" />
</svg>
