<?xml version="1.0" encoding="UTF-8" standalone="no"?>
<!-- Created with Inkscape (http://www.inkscape.org/) -->

<svg
   xmlns:dc="http://purl.org/dc/elements/1.1/"
   xmlns:cc="http://creativecommons.org/ns#"
   xmlns:rdf="http://www.w3.org/1999/02/22-rdf-syntax-ns#"
   xmlns:svg="http://www.w3.org/2000/svg"
   xmlns="http://www.w3.org/2000/svg"
   xmlns:sodipodi="http://sodipodi.sourceforge.net/DTD/sodipodi-0.dtd"
   xmlns:inkscape="http://www.inkscape.org/namespaces/inkscape"
   version="1.1"
   id="svg10"
   width="48.30661"
   height="33.900375"
   viewBox="0 0 48.306611 33.900375"
   sodipodi:docname="flex.svg"
   inkscape:version="0.92.1 r15371">
  <metadata
     id="metadata16">
    <rdf:RDF>
      <cc:Work
         rdf:about="">
        <dc:format>image/svg+xml</dc:format>
        <dc:type
           rdf:resource="http://purl.org/dc/dcmitype/StillImage" />
        <dc:title></dc:title>
      </cc:Work>
    </rdf:RDF>
  </metadata>
  <defs
     id="defs14" />
  <sodipodi:namedview
     pagecolor="#ffffff"
     bordercolor="#666666"
     borderopacity="1"
     objecttolerance="10"
     gridtolerance="10"
     guidetolerance="10"
     inkscape:pageopacity="0"
     inkscape:pageshadow="2"
     inkscape:window-width="1600"
     inkscape:window-height="838"
     id="namedview12"
     showgrid="false"
     fit-margin-top="0"
     fit-margin-left="0"
     fit-margin-right="0"
     fit-margin-bottom="0"
     inkscape:zoom="9.8333333"
     inkscape:cx="8.8917508"
     inkscape:cy="5.856423"
     inkscape:window-x="-8"
     inkscape:window-y="-8"
     inkscape:window-maximized="1"
     inkscape:current-layer="svg10"
     inkscape:pagecheckerboard="true" />
  <path
     id="path641"
     style="fill:#fefefe"
     d="m 15.144532,0 c -9.61e-4,0.011016 0.0012,0.022196 0,0.033203 -0.0052,0.04754 -0.532242,0.1811794 -0.595704,0.1972656 -0.205906,0.043946 -0.401243,0.1179297 -0.601562,0.1816406 -0.253908,0.078648 -0.514759,0.1242927 -0.773438,0.1835938 -0.303568,0.084222 -0.601709,0.1838334 -0.904296,0.2714843 -0.306982,0.092287 -0.617229,0.1734295 -0.931641,0.2363281 -0.29559,0.069455 -0.5919,0.1356748 -0.892578,0.1796876 C 10.058399,1.358897 9.674388,1.4516956 9.279297,1.4746092 8.893425,1.5199072 8.504381,1.5482252 8.123047,1.6249998 7.720645,1.7137838 7.320375,1.8129887 6.916016,1.892578 6.347324,1.973594 5.783379,2.0795666 5.216797,2.173828 4.591864,2.2776365 3.970802,2.4074513 3.351563,2.5410154 3.276473,2.5636774 3.200723,2.5848514 3.125,2.6054684 2.788787,2.6853674 2.451827,2.7558689 2.109375,2.802734 1.917163,2.822157 1.728547,2.859625 1.539063,2.896484 1.445143,2.914453 1.351852,2.93568 1.257813,2.953125 1.044948,3.016481 0.830413,3.0771206 0.625,3.1621094 0.420879,3.2699656 0.204467,3.3541247 0,3.4609375 c 0.153163,0.060301 0.303845,0.1240134 0.464844,0.1621094 0.194931,0.036221 0.392576,0.053266 0.587891,0.087891 0.198322,0.039226 0.400142,0.053894 0.601562,0.066406 0.228607,0.00922 0.4547,0.053521 0.681641,0.080078 0.207103,0.038304 0.411861,0.080342 0.621094,0.1054687 0.231076,0.02455 0.465138,0.026791 0.697265,0.03125 0.287886,0.00467 0.575364,0.00672 0.863281,0.00781 0.232958,7.827e-4 0.46626,0.00178 0.699219,0.00195 0.231499,1.359e-4 0.461861,-2.13e-5 0.693359,0 0.237928,1.78e-5 0.476916,-3.2e-6 0.714844,0 0.228961,2.6e-6 0.456587,-3e-7 0.685547,0 h 0.660156 0.746094 0.808594 0.736328 0.658203 c 0.221834,-0.010046 0.440964,0.00669 0.660156,0.039063 0.217593,0.042781 0.429662,0.1103847 0.644532,0.1640625 0.239392,0.076873 0.485572,0.1160082 0.734375,0.1464843 0.257833,0.018988 0.513891,0.047347 0.769531,0.085938 0.221684,0.024987 0.441324,0.055778 0.660156,0.099609 0.191728,0.031659 0.380783,0.076318 0.572266,0.109375 0.03014,0.00483 0.0597,0.010795 0.08984,0.015625 0.346651,0.055598 0.545511,0.2146761 0.625,0.390625 0.01491,0.00398 0.03003,0.00555 0.04492,0.00977 0.09542,-0.028688 0.206054,-0.044922 0.333985,-0.044922 h 0.746094 c 0.328606,0.016144 0.655594,0.043776 0.978515,0.1074219 0.197146,0.038544 0.380356,0.1154912 0.5625,0.1953124 0.174697,0.039229 0.345223,0.090414 0.5,0.1875 0.0077,0.0054 0.01387,0.012097 0.02148,0.017578 0.135224,0.048682 0.268231,0.099955 0.408203,0.1347656 0.328078,0.088827 0.579483,0.2885757 0.791015,0.546875 0.179834,0.2349923 0.290615,0.5095152 0.390625,0.7851562 0.100559,0.2778611 0.144335,0.5687227 0.173828,0.8613282 0.02539,0.2939133 0.03182,0.5899513 0.03711,0.8847656 0.01374,0.2581463 -0.0014,0.5132543 -0.0293,0.7695312 0.137153,0.1173431 0.240234,0.3228864 0.240234,0.6386715 v 0.703125 0.871094 0.248047 c 0,0.003 -0.0019,0.0048 -0.002,0.0078 0.04283,0.08604 0.07888,0.187902 0.101563,0.308594 0.04581,0.243737 0.06241,0.491078 0.07617,0.738281 0.02017,0.282773 -0.0087,0.565938 -0.07031,0.841797 -0.04824,0.203472 -0.06417,0.41109 -0.07807,0.619144 -0.03391,0.281787 -0.06854,0.564742 -0.0918,0.847656 -0.02019,0.259056 -0.02464,0.517639 -0.0293,0.777344 -0.004,0.258688 -0.0068,0.518629 -0.0078,0.777344 -7.4e-4,0.221133 1.71e-4,0.440975 0,0.662109 -1.15e-4,0.228136 2.1e-5,0.457411 0,0.685547 -1.7e-5,0.211099 3e-6,0.421714 0,0.632812 -2e-6,0.204888 10e-7,0.410347 0,0.615235 v 0.667968 0.644532 0.61914 0.611328 0.609375 0.611328 c -0.0015,0.183686 -0.0054,0.364577 0.01758,0.546876 0.05206,0.221154 0.09342,0.444969 0.125,0.669921 0.03009,0.228989 0.04084,0.458828 0.04883,0.689453 0.0061,0.190015 0.0086,0.380218 0.0098,0.570313 0.0066,0.219204 -0.03427,0.437265 -0.05859,0.654297 -0.0074,0.195018 -0.05266,0.382777 -0.08594,0.574219 -0.0082,0.09923 -0.04149,0.193117 -0.06055,0.289062 0.0022,0.229402 -0.04645,0.453284 -0.105469,0.673828 -0.0441,0.212479 -0.126032,0.411544 -0.212891,0.609375 -0.0043,0.01053 -0.0093,0.02078 -0.01367,0.03125 -0.0062,0.101759 -0.0067,0.20348 -0.01953,0.304688 -0.0357,0.249103 -0.08829,0.496663 -0.189453,0.728515 -0.119824,0.279658 -0.262523,0.542687 -0.50586,0.736329 -0.194409,0.156396 -0.400919,0.289448 -0.61914,0.410156 -0.07332,0.03529 -0.149236,0.06439 -0.22461,0.09375 -0.164968,0.09406 -0.340539,0.17135 -0.511718,0.253906 -0.182129,0.09333 -0.374538,0.162893 -0.556641,0.255859 -0.190165,0.103233 -0.371755,0.221144 -0.535156,0.363282 -0.111338,0.113362 -0.198536,0.247474 -0.257813,0.394531 -0.05455,0.150736 -0.06895,0.310215 -0.08203,0.46875 -0.01493,0.21109 -0.01818,0.423236 -0.02148,0.634766 0.01283,0.140912 0.05379,0.281601 0.117187,0.408203 0.04514,0.08131 0.125512,0.134295 0.207032,0.175781 0.11847,0.05172 0.247784,0.06886 0.375,0.08398 0.183165,0.01863 0.366834,0.02335 0.550781,0.02734 0.175119,0.0032 0.350245,0.0032 0.52539,0.0039 0.0066,-0.101172 0.01604,-0.174007 0.01563,-0.310547 -3.3e-5,-0.01029 0.209609,-0.03231 0.216797,-0.0332 0.03419,-0.0042 0.06932,-0.0075 0.103516,-0.01172 0.2686,-0.03736 0.533359,-0.09464 0.792969,-0.173829 0.344264,-0.09978 0.688193,-0.197966 1.02539,-0.320312 0.19099,-0.06355 0.374169,-0.146455 0.554688,-0.234375 0.03162,-0.120029 0.05099,-0.243323 0.09961,-0.359375 0.079,-0.227169 0.16409,-0.440543 0.302735,-0.638672 0.10226,-0.199185 0.372186,-0.225615 0.511718,-0.367187 0.09816,-0.06737 0.179978,-0.149413 0.25,-0.244141 0.122198,-0.16203 0.253139,-0.314933 0.365235,-0.484375 0.14551,-0.205978 0.317639,-0.39218 0.478515,-0.585938 0.173161,-0.203739 0.341037,-0.41141 0.511719,-0.617187 0.144386,-0.145473 0.264026,-0.311397 0.386719,-0.474609 0.144012,-0.173312 0.278985,-0.353654 0.417968,-0.53125 0.105478,-0.159511 0.233454,-0.301569 0.330079,-0.466797 0.112702,-0.212517 0.241092,-0.416918 0.365234,-0.623047 0.146354,-0.224567 0.294456,-0.447417 0.455078,-0.66211 0.0902,-0.130846 0.186515,-0.257267 0.28125,-0.384765 0.185365,-0.299052 0.369234,-0.599154 0.566406,-0.890625 0.172414,-0.251991 0.354038,-0.496466 0.535157,-0.742188 0.164961,-0.215538 0.340701,-0.423384 0.505859,-0.638672 0.138933,-0.209065 0.303451,-0.398813 0.453125,-0.599609 0.183658,-0.223012 0.354172,-0.457008 0.533203,-0.683594 0.165686,-0.206504 0.324011,-0.418308 0.484375,-0.628906 0.169104,-0.225701 0.344026,-0.445652 0.517578,-0.667969 0.11972,-0.167914 0.246825,-0.32997 0.371094,-0.49414 0.02466,-0.04368 0.05095,-0.08641 0.07422,-0.13086 0.135392,-0.2513 0.28129,-0.499931 0.441406,-0.736328 0.138693,-0.220734 0.308686,-0.416851 0.476563,-0.615234 0.150874,-0.146222 0.293173,-0.294672 0.410156,-0.46875 0.05267,-0.07249 0.10546,-0.144365 0.158203,-0.216797 0.117356,-0.20954 0.234789,-0.418347 0.359315,-0.623034 0.203178,-0.349834 0.440106,-0.681529 0.636719,-1.035156 0.152061,-0.256909 0.295247,-0.517695 0.449218,-0.773437 0.135781,-0.233402 0.285594,-0.458469 0.431641,-0.685547 0.172497,-0.221737 0.310967,-0.466227 0.472656,-0.695313 0.135882,-0.190064 0.285414,-0.368841 0.431641,-0.550781 0.145126,-0.162427 0.292793,-0.321824 0.458984,-0.462891 0.150231,-0.150936 0.309308,-0.281697 0.496094,-0.384765 0.349722,-0.15168 0.682325,-0.06529 0.984375,0.136719 0.142499,0.113567 0.228867,0.271354 0.314453,0.427734 0.01152,0.02105 0.01347,0.03804 0.02344,0.05859 0.01233,0.01013 0.02268,0.01453 0.03516,0.02539 0.167628,0.145913 0.309097,0.318609 0.439453,0.498047 0.144565,0.185247 0.203895,0.417293 0.310547,0.621094 0.09013,0.195736 0.19451,0.383227 0.273437,0.583984 0.09728,0.176932 0.181345,0.359508 0.265625,0.542969 0.108941,0.230107 0.194332,0.469515 0.279297,0.708984 0.06706,0.19999 0.145801,0.396462 0.234375,0.587891 0.100234,0.20436 0.156687,0.42446 0.230469,0.638671 0.04157,0.144031 0.105959,0.283809 0.183594,0.41211 0.129524,0.172675 0.223389,0.365825 0.322265,0.556641 0.121804,0.242136 0.228072,0.490514 0.328125,0.742187 0.09309,0.227904 0.185296,0.455247 0.277344,0.683594 0.08205,0.208883 0.171224,0.415425 0.269531,0.617187 0.08962,0.207165 0.205346,0.400386 0.298829,0.605469 0.08958,0.1899 0.187622,0.376733 0.273437,0.568359 0.09921,0.202875 0.197664,0.405524 0.302734,0.605469 0.106581,0.216123 0.199149,0.44087 0.285157,0.666016 0.07539,0.145007 0.133133,0.296865 0.208984,0.441406 0.07379,0.16113 0.170518,0.311707 0.251953,0.46875 0.09551,0.186617 0.190266,0.372847 0.275391,0.564453 0.09728,0.205581 0.194454,0.411178 0.294922,0.615234 0.09231,0.223267 0.193372,0.442425 0.27539,0.669922 0.09042,0.202678 0.178801,0.411664 0.294922,0.601563 0.128681,0.218611 0.25284,0.440664 0.357422,0.671875 0.04644,0.09666 0.06891,0.201234 0.107422,0.300781 0.218996,-0.05797 0.337281,-0.05173 0.330078,0.119141 0.0034,4.45e-4 0.0044,0.0015 0.0078,0.002 0.0018,2.32e-4 0.02165,0.185908 0.03711,0.269531 0.05616,0.244501 0.155793,0.4745 0.242187,0.708984 0.09342,0.253704 0.142434,0.519832 0.199219,0.783204 0.02424,0.109999 0.02914,0.22265 0.04492,0.333984 0.03711,0.0098 0.04734,0.01307 0.08789,0.02344 -0.0034,0.189786 -0.0015,0.380532 -0.0059,0.570312 -9.39e-4,0.04952 -0.0067,0.09889 -0.0078,0.148438 0.0014,0.03903 0.0046,0.07815 0.0059,0.117187 0.003,0.09472 -0.01153,0.172593 -0.02539,0.25 -0.0046,0.06502 -0.0021,0.130533 -0.0098,0.195313 -0.01299,0.09282 -0.03556,0.182946 -0.05664,0.273437 1.773072,2.256436 3.950755,2.048312 4.041016,-0.875 -0.141394,-0.18711 -0.280113,-0.376238 -0.427735,-0.558594 -0.209839,-0.250202 -0.416067,-0.506008 -0.564453,-0.798828 -0.117277,-0.222873 -0.218318,-0.45141 -0.277343,-0.697265 -0.08576,-0.291738 -0.12116,-0.589405 -0.140625,-0.892579 -0.0076,-0.249564 -0.01892,-0.500178 -0.05078,-0.748047 -0.03238,-0.236142 -0.07538,-0.470801 -0.164062,-0.693359 -0.07431,-0.214414 -0.131619,-0.434287 -0.21875,-0.644531 -0.07305,-0.257929 -0.140279,-0.516889 -0.195313,-0.779297 -0.04523,-0.223627 -0.08272,-0.449382 -0.142578,-0.669922 -0.04184,-0.220923 -0.104908,-0.435607 -0.164062,-0.652344 -0.05155,-0.201224 -0.08481,-0.40881 -0.166016,-0.601562 -0.07043,-0.197256 -0.107476,-0.404285 -0.199219,-0.59375 -0.09806,-0.21979 -0.203913,-0.436689 -0.283203,-0.664063 -0.09839,-0.242614 -0.176304,-0.489847 -0.246094,-0.742187 -0.06998,-0.263305 -0.16951,-0.518496 -0.21875,-0.787109 -0.05344,-0.238026 -0.102334,-0.475666 -0.105468,-0.720704 -0.01814,-0.173244 -0.04387,-0.345389 -0.09766,-0.511718 -0.06853,-0.222825 -0.1294,-0.449567 -0.185547,-0.675782 -0.06591,-0.253024 -0.138884,-0.504192 -0.164063,-0.765625 -0.03728,-0.240509 -0.09234,-0.477151 -0.123047,-0.71875 -0.04831,-0.246461 -0.102102,-0.492358 -0.11325,-0.74419 -0.0023,-0.208801 -0.0056,-0.418352 -0.01563,-0.626953 -0.01232,-0.228702 -0.02965,-0.457594 -0.06836,-0.683594 -0.04091,-0.222641 -0.09794,-0.44068 -0.160157,-0.658203 C 43.744456,14.376758 43.671249,14.189691 43.607422,14 43.548756,13.825646 43.542313,13.678195 43.556641,13.546875 41.448481,7.8747411 39.199068,3.2001391 37.839844,2.3085938 35.997324,1.1000436 24.720731,0.1428711 15.144532,0 Z M 5.275391,0.2558594 C 4.428865,0.3334864 3.648827,0.4223506 3.03711,0.5371094 2.518609,0.6343804 2.056288,0.778778 1.642578,0.9492188 1.832975,0.8964868 2.025028,0.8490729 2.208985,0.7753906 2.468639,0.6914406 2.731213,0.6137694 3.00586,0.5996094 3.292971,0.5675794 3.577448,0.5203464 3.861328,0.4667969 4.152366,0.4259709 4.440695,0.3646433 4.732422,0.328125 4.912949,0.299733 5.094272,0.278548 5.275391,0.2558594 Z m 7.351562,1.6113281 h 0.298829 0.617187 0.542969 0.568359 0.626953 0.566406 c 0.02162,0 0.03595,0.00689 0.05664,0.00781 0.06838,8.28e-5 0.136918,-0.0013 0.205078,-0.00195 0.379151,-0.00305 0.759511,-0.00327 1.138672,-0.00391 0.284413,-4.293e-4 0.569102,-0.00186 0.853516,-0.00195 0.280183,-7.37e-5 0.559658,1.29e-5 0.839843,0 0.239953,-9.5e-6 0.480751,1.7e-6 0.720704,0 h 0.796875 0.867187 c 0.320271,-0.00984 0.640166,0.00882 0.958984,0.037109 0.279894,0.02852 0.559268,0.033817 0.837891,0.072266 0.364834,0.068162 0.728579,0.1453002 1.095703,0.2011719 0.119791,-0.0624 0.266394,-0.1074219 0.462891,-0.1074219 h 0.566406 0.728516 c 0.303277,-0.010086 0.604509,0.00904 0.90625,0.037109 0.259129,0.013187 0.513649,0.062443 0.769531,0.1015625 0.209481,0.032253 0.420555,0.038479 0.630859,0.0625 0.239133,0.03317 0.479574,0.060218 0.716797,0.1054688 0.225374,0.036715 0.447001,0.089483 0.671875,0.1289062 0.22823,0.021366 0.441547,0.1090953 0.660157,0.1699219 0.228487,0.076992 0.456419,0.1514414 0.683593,0.2324219 0.221247,0.074504 0.43714,0.1628998 0.658203,0.2382812 0.21869,0.067108 0.446978,0.090159 0.673828,0.109375 0.281088,0.019524 0.564055,0.024404 0.845704,0.029297 0.277991,-0.018809 0.544503,0.04966 0.8125,0.1113281 0.198482,0.03157 0.390742,0.093158 0.58789,0.1308594 0.222443,0.050076 0.432606,0.1401865 0.654297,0.1933594 0.23931,0.048605 0.454011,0.1551068 0.673828,0.2558593 0.213905,0.075019 0.413869,0.1762057 0.601563,0.3027344 0.192104,0.134777 0.366196,0.2964842 0.541015,0.453125 0.21757,0.1634575 0.427488,0.3341779 0.623047,0.5234375 0.238996,0.2433446 0.434172,0.5255321 0.619141,0.8105469 0.135992,0.2330688 0.27983,0.4606791 0.425781,0.6875 0.114833,0.209429 0.224967,0.4212003 0.324219,0.6386719 0.0976,0.1962227 0.168381,0.4048409 0.255859,0.6054687 0.07956,0.1832906 0.170013,0.3604913 0.251953,0.5429687 0.06621,0.1883701 0.173777,0.3576814 0.251953,0.5410157 0.09705,0.1678132 0.143404,0.3541071 0.201172,0.5371093 0.07612,0.1544173 0.146794,0.313946 0.208985,0.4746097 0.06724,0.180047 0.1583,0.348002 0.236328,0.523437 0.06723,0.179696 0.149235,0.355727 0.246094,0.521485 0.102269,0.16851 0.16779,0.355148 0.253906,0.53125 0.0752,0.171835 0.142984,0.347054 0.207031,0.523437 0.04532,0.167057 0.08815,0.33348 0.152344,0.494141 0.06854,0.179766 0.167039,0.34275 0.253906,0.513672 0.131921,0.197114 0.208757,0.417165 0.261719,0.646484 0.03771,0.211271 0.117941,0.413401 0.185547,0.617188 0.05981,0.256211 0.174672,0.491766 0.263672,0.738281 0.07606,0.287812 0.211713,0.553334 0.318359,0.830078 0.101083,0.264985 0.154347,0.54391 0.189453,0.824219 0.04865,0.167571 0.05558,0.345729 0.107422,0.511718 0.105599,0.276195 0.182291,0.560045 0.240234,0.84961 0.03699,0.227726 0.09248,0.452565 0.150391,0.675781 0.0496,0.229949 0.10484,0.458159 0.171875,0.683594 0.06802,0.240808 0.118062,0.486137 0.1875,0.726562 0.07878,0.216933 0.09788,0.447974 0.154297,0.669922 0.03417,0.181056 0.12263,0.342035 0.183594,0.515625 0.05718,0.201215 0.125338,0.397923 0.193359,0.595703 0.07339,0.214435 0.144019,0.428909 0.193359,0.650391 0.04256,0.196784 0.04841,0.398741 0.08789,0.595703 0.03816,0.182076 0.06208,0.36887 0.117188,0.546875 0.07168,0.233255 0.114647,0.47315 0.144531,0.714844 0.0059,0.111892 0.04161,0.218434 0.07031,0.326172 0.07062,0.151741 0.131086,0.307234 0.144531,0.476562 -0.05777,0.383221 -0.01155,0.563816 -0.722656,0.552734 -0.250274,-0.0039 -0.31501,-0.387243 -0.361328,-0.568359 -0.01192,-0.04673 -0.02457,-0.09394 -0.03711,-0.140625 -0.02071,-0.04504 -0.04675,-0.103508 -0.04883,-0.107422 -0.120657,-0.169667 -0.223989,-0.350898 -0.3125,-0.539062 -0.103774,-0.199897 -0.200089,-0.40404 -0.296875,-0.607422 -0.121606,-0.188211 -0.208583,-0.394136 -0.304688,-0.595703 -0.120188,-0.246806 -0.220834,-0.50176 -0.308594,-0.761719 -0.07385,-0.295261 -0.169362,-0.583462 -0.25,-0.876953 -0.07554,-0.236507 -0.134926,-0.477341 -0.21875,-0.710938 -0.07725,-0.194266 -0.118044,-0.399124 -0.173828,-0.599609 -0.04602,-0.102436 -0.09316,-0.205059 -0.136718,-0.308594 -0.112499,-0.211727 -0.2703,-0.395471 -0.365235,-0.617187 -0.11526,-0.213589 -0.226044,-0.431311 -0.365227,-0.63086 -0.157133,-0.264748 -0.298254,-0.537144 -0.44336,-0.808593 -0.147949,-0.305227 -0.283737,-0.616731 -0.427734,-0.923828 -0.107644,-0.245096 -0.212945,-0.490293 -0.287109,-0.748047 -0.0745,-0.249188 -0.187889,-0.48317 -0.283204,-0.72461 -0.05156,-0.171579 -0.127192,-0.333104 -0.208984,-0.492187 -0.140938,-0.246532 -0.259456,-0.504248 -0.394531,-0.753906 -0.131779,-0.255554 -0.228983,-0.526631 -0.380859,-0.771485 -0.165347,-0.273738 -0.318627,-0.554459 -0.451172,-0.845703 -0.136912,-0.286017 -0.25236,-0.58112 -0.371094,-0.875 -0.139732,-0.348091 -0.27852,-0.698721 -0.365234,-1.064453 -0.01664,-0.05985 -0.04688,-0.17178 -0.07422,-0.271484 -0.148198,-0.180209 -0.313177,-0.345032 -0.458985,-0.527344 -0.1484,-0.1870113 -0.300062,-0.3712294 -0.4375,-0.5664062 -0.05781,-0.092094 -0.117003,-0.1832178 -0.177734,-0.2734375 -1.07141,-0.2376928 -2.039438,0.6899327 -3.15625,2.8496097 -0.196957,0.380872 -0.367146,0.689871 -0.535156,0.99414 -0.0052,0.179295 -0.103337,0.389441 -0.337891,0.589844 -0.206879,0.348935 -0.386451,0.618781 -0.539062,0.816406 -0.01913,0.03772 -0.04111,0.07381 -0.06055,0.111328 -0.1187,0.207969 -0.234196,0.417138 -0.34961,0.626953 -0.09332,0.188885 -0.222032,0.35806 -0.328125,0.539063 -0.114702,0.175045 -0.221546,0.352801 -0.345703,0.521484 -0.08721,0.142615 -0.192696,0.273854 -0.277344,0.417969 -0.09086,0.178323 -0.203088,0.346701 -0.292968,0.525391 -0.0948,0.186657 -0.175272,0.377329 -0.277344,0.560547 -0.118202,0.220982 -0.257746,0.429416 -0.398438,0.636718 -0.129283,0.202817 -0.265801,0.400836 -0.412109,0.591797 -0.163136,0.184069 -0.298086,0.388997 -0.447265,0.583984 -0.144353,0.166872 -0.266368,0.351134 -0.40625,0.521485 -0.129408,0.149283 -0.248426,0.309357 -0.365235,0.46875 -0.107611,0.143307 -0.205946,0.291035 -0.296875,0.445312 -0.104879,0.149959 -0.173644,0.31925 -0.25,0.484375 -0.05119,0.247023 -0.382416,0.832455 -1.021484,1.814453 -2.15871,3.317091 -2.558594,3.409114 -2.558594,0.583985 0,-0.183635 0.01998,-0.328933 0.0332,-0.486329 -0.0063,-0.0214 -0.02067,-0.03676 -0.02344,-0.06055 -0.01319,-0.113174 0.0043,-0.197888 0.04102,-0.265625 0.01507,-0.12383 0.03157,-0.247798 0.05078,-0.371094 -2e-6,-0.203383 1.7e-5,-0.405992 0,-0.609375 -1.6e-5,-0.203342 9.9e-5,-0.406032 0,-0.609375 -1.14e-4,-0.203096 -0.0013,-0.40628 -0.002,-0.609375 -7.47e-4,-0.201847 -2.96e-4,-0.40365 -0.0039,-0.605469 -0.0042,-0.198515 -0.01058,-0.397776 -0.02734,-0.595703 -0.01979,-0.212229 -0.04959,-0.424145 -0.09375,-0.632812 -0.03986,-0.221459 -0.07053,-0.444347 -0.109375,-0.666016 -0.01995,-0.221494 -0.05426,-0.44012 -0.06836,-0.662109 5.2e-5,-0.216638 -2.65e-4,-0.433753 0,-0.650391 3.67e-4,-0.259618 -2.71e-4,-0.519682 0.002,-0.779297 0.002,-0.302605 0.0047,-0.605707 0.01367,-0.908203 0.0098,-0.285828 0.02345,-0.571034 0.05469,-0.855469 0.0025,-0.02276 0.0016,-0.04561 0.0039,-0.06836 -0.05176,-0.487931 -0.08407,-0.74365 -0.144532,-1.324219 -0.402197,-3.8620684 -1.136822,-7.5103774 -1.68164,-8.4609378 -0.159622,0.02671 -0.359775,-0.016491 -0.587891,-0.1875 C 20.91075,4.388241 20.715177,4.305009 20.527344,4.2148438 20.299935,4.1317208 20.092566,4.0075764 19.863282,3.9296875 19.657351,3.8756745 19.450388,3.8301826 19.242188,3.7851563 19.000849,3.7331003 18.766548,3.6497961 18.527344,3.5898438 18.302247,3.5461968 18.07653,3.5133658 17.853516,3.4589844 17.58237,3.3809014 17.306572,3.3246844 17.033203,3.2558594 16.799769,3.1896614 16.559089,3.1542772 16.31836,3.1289063 16.042452,3.1234863 15.776751,3.0636493 15.509766,3 15.455086,2.986244 15.13326,2.930799 15.017578,2.8847656 h -0.363281 -0.568359 -0.542969 -0.617187 -0.298829 c -1.006728,0 -1.006728,-1.0175781 0,-1.0175781 z M 17.16211,6.078125 c 0.0092,0.00907 0.01827,0.018189 0.02734,0.027344 0.01178,-0.00533 0.0168,-0.017007 0.0293,-0.021484 -0.01888,-0.00193 -0.03779,-0.00369 -0.05664,-0.00586 z m -3.695313,0.875 c -3.715142,3.081296 -0.141576,9.048793 4.136719,6.376953 0.152278,-0.0951 0.26555,-0.160541 0.402344,-0.244141 -0.0016,-0.163845 0.06439,-0.359153 0.236328,-0.564453 0.0606,-0.07236 0.12121,-0.144623 0.166015,-0.228515 0.125156,-0.210628 0.263014,-0.414025 0.367188,-0.636719 0.06762,-0.14498 0.115782,-0.293133 0.158203,-0.447266 0.02122,-0.115965 0.05173,-0.231531 0.02734,-0.349609 -0.04897,-0.237123 -0.02622,-0.426093 0.03516,-0.566406 -0.02217,-0.102639 -0.0416,-0.205964 -0.07031,-0.3066408 -0.06288,-0.17371 -0.141145,-0.3414991 -0.246094,-0.4941407 -0.09377,-0.1715969 -0.193622,-0.3400102 -0.302735,-0.5019531 -0.118141,-0.1706967 -0.235419,-0.3410018 -0.36914,-0.5 C 17.883063,8.3340118 17.762216,8.1744305 17.628906,8.0253906 17.535726,7.922145 17.442754,7.8183757 17.34961,7.7148438 17.177716,7.7944538 16.93077,7.7929698 16.634766,7.6249998 16.555206,7.5798508 16.47473,7.5369318 16.398438,7.486328 16.27797,7.417726 16.157284,7.3614634 16.017578,7.3398436 15.890976,7.3017416 15.760175,7.2781266 15.63086,7.2578126 15.332025,7.2108706 15.133917,7.0914161 15.013672,6.9531251 h -0.527344 -0.628906 z m 15.339844,0.8007813 c -0.970295,-0.015846 -2.065037,0.4828136 -3,1.609375 -0.572785,0.6901637 -1.173582,3.4253217 -1.357422,6.1191407 -0.0077,0.280909 -0.0099,0.562841 -0.01172,0.84375 -0.0015,0.257858 -0.0035,0.515576 -0.0039,0.773437 -2.64e-4,0.216239 5.2e-5,0.432199 0,0.648438 0.02358,0.190174 0.04897,0.379454 0.06641,0.570312 0.04013,0.190006 0.05941,0.383651 0.0957,0.574219 0.04995,0.237952 0.08243,0.478823 0.105469,0.720703 0.0194,0.222464 0.02647,0.444803 0.03125,0.667969 0.0038,0.207784 0.0052,0.417187 0.0059,0.625 6.33e-4,0.204158 -1.17e-4,0.40717 0,0.611328 9.2e-5,0.203508 -1.8e-5,0.40782 0,0.611328 8e-6,0.141471 2e-6,0.282605 0,0.423828 0.391961,0.0053 0.915009,-0.180695 1.429687,-0.533203 -0.122198,-0.165804 -0.144495,-0.44489 0.03906,-0.787109 0.04874,-0.09086 0.0256,-0.04622 0.07227,-0.136719 0.09058,-0.195226 0.17264,-0.395837 0.294922,-0.574219 0.108893,-0.184743 0.229405,-0.361127 0.357422,-0.533203 0.128845,-0.173097 0.255263,-0.348586 0.396484,-0.511719 0.133788,-0.160486 0.245838,-0.337603 0.384766,-0.49414 0.150601,-0.193059 0.283387,-0.399318 0.447265,-0.582031 0.134845,-0.17461 0.258067,-0.359209 0.376954,-0.544922 0.124034,-0.182525 0.249907,-0.362441 0.351562,-0.558594 0.0964,-0.172995 0.169637,-0.35578 0.261719,-0.53125 0.104168,-0.200166 0.22374,-0.392702 0.330078,-0.591797 0.105507,-0.168695 0.221986,-0.329056 0.330078,-0.496094 0.10743,-0.137918 0.189036,-0.2925 0.289063,-0.435546 0.102713,-0.168704 0.218009,-0.328564 0.30664,-0.50586 0.111619,-0.202303 0.224418,-0.405319 0.339844,-0.605469 0.09858,-0.189587 0.202208,-0.375969 0.3125,-0.558593 0.04391,-0.520327 0.120505,-1.150284 0.255859,-1.984375 C 31.69631,9.2350716 30.423847,7.780316 28.806689,7.7539063 Z M 15.203125,8.3183594 c 0.150441,-0.017879 0.301624,-0.013384 0.458985,0.021484 0.314979,0.060205 0.619316,0.156752 0.859375,0.3808594 0.266268,0.309664 0.369025,0.5676362 0.378906,0.9785156 -0.0069,0.2327998 -0.01725,0.4643022 -0.04883,0.6953122 -0.0015,0.0099 -0.0043,0.01943 -0.0059,0.0293 -0.0047,0.07269 -0.01448,0.145089 -0.02734,0.216797 -0.0056,0.03154 0.0027,0.06197 -0.0059,0.09375 -0.0091,0.03451 -0.02864,0.062 -0.03906,0.0957 -0.01256,0.04333 -0.01532,0.08794 -0.03125,0.130859 -0.03419,0.08513 -0.08067,0.16343 -0.123047,0.244141 -0.0014,0.0026 -0.0025,0.0052 -0.0039,0.0078 -0.09313,0.175723 -0.201403,0.342665 -0.351563,0.478516 -0.01443,0.01133 -0.03033,0.01848 -0.04492,0.0293 -0.05378,0.262941 -0.369137,0.458813 -0.873047,0.302734 -0.02192,-0.0068 -0.04267,-0.0163 -0.06445,-0.02344 -0.03046,-0.0032 -0.05877,-3.02e-4 -0.08984,-0.0059 -0.122543,-0.03679 -0.231221,-0.09662 -0.339843,-0.154297 -0.02993,-0.0025 -0.05716,0.003 -0.08789,-0.0019 -0.301659,-0.07753 -0.588622,-0.193556 -0.824219,-0.404297 -0.03821,-0.03768 -0.05761,-0.08362 -0.0918,-0.123046 -0.02869,-0.02051 -0.06271,-0.02885 -0.08984,-0.05273 -0.249797,-0.260387 -0.391765,-0.563965 -0.3125,-0.931641 0.06512,-0.263214 0.160652,-0.5164665 0.289062,-0.7558594 0.0117,-0.01743 0.02892,-0.027942 0.04102,-0.044922 0.0078,-0.012963 0.0094,-0.028224 0.01758,-0.041016 0.03857,-0.048525 0.08313,-0.073416 0.123047,-0.1152343 0.0219,-0.024497 0.0433,-0.049327 0.06641,-0.072266 0.0198,-0.045087 0.03032,-0.093194 0.05469,-0.1367188 0.180943,-0.2969177 0.408946,-0.5567149 0.71875,-0.7246094 0.147582,-0.059173 0.296824,-0.099309 0.447265,-0.1171875 z m 12.863281,0.9902344 c 0.116603,-0.00995 0.234627,0.00244 0.355469,0.044922 1.64e-4,0.00358 -1.67e-4,0.0023 0,0.00586 0.194734,-0.039774 0.391753,-0.066034 0.591797,-0.037109 0.314623,0.040114 0.573776,0.1349077 0.591797,0.5800781 0.07332,0.061776 0.144939,0.1324106 0.216797,0.2128906 0.211145,0.256744 0.329971,0.560402 0.410156,0.878906 0.06081,0.260346 0.07974,0.524921 0.0625,0.791016 -0.03235,0.280046 -0.144651,0.541346 -0.261719,0.794922 -0.126731,0.238041 -0.272016,0.466658 -0.417968,0.693359 -0.16137,0.255683 -0.317932,0.514491 -0.480469,0.769531 -0.158602,0.231389 -0.276738,0.482136 -0.392578,0.736328 -0.09572,0.234465 -0.211423,0.459888 -0.304688,0.695313 -0.06205,0.226288 -0.123758,0.445759 -0.234375,0.654297 -0.124564,0.169924 -0.264841,0.265362 -0.412109,0.302734 -0.0943,0.137801 -0.188469,0.274704 -0.283203,0.41211 -0.130624,0.187004 -0.256985,0.376908 -0.386719,0.564453 -0.110313,0.160699 -0.229257,0.313732 -0.349609,0.466797 -0.153151,0.191207 -0.270095,0.402365 -0.498047,0.519531 -0.107504,0.01371 -0.216183,0.06318 -0.322266,0.04102 -0.377104,-0.0788 -0.50987,-0.41296 -0.5,-0.75 1.89e-4,-0.184012 3.42e-4,-0.368724 0.002,-0.552735 0.0013,-0.220529 0.0018,-0.441647 0.0078,-0.662109 0.0077,-0.249033 0.01668,-0.498784 0.04883,-0.746094 0.03376,-0.23735 0.08154,-0.471775 0.136719,-0.705078 0.05296,-0.225594 -0.0032,-0.470093 0.03125,-0.699218 0.01296,-0.261459 0.03015,-0.524018 0.06836,-0.783204 0.02789,-0.215019 0.03254,-0.430618 0.05273,-0.646484 0.03104,-0.26972 0.07618,-0.537369 0.158204,-0.796875 0.07013,-0.22486 0.140298,-0.449134 0.197265,-0.677734 0.05182,-0.172581 0.08734,-0.348645 0.109375,-0.527344 0.05461,-0.442888 0.280887,-0.644438 0.50586,-0.658203 -0.0034,-0.05234 -0.0086,-0.107009 -0.0078,-0.152344 0.0017,-0.091903 0.117304,-0.1419728 0.175781,-0.2128906 0.03483,-0.028129 0.07499,-0.046586 0.111328,-0.072266 0.01207,-0.00993 0.02462,-0.019909 0.03711,-0.029297 0.02855,-0.021451 0.05849,-0.040276 0.08789,-0.060547 0.120207,-0.076667 0.242218,-0.1493082 0.363282,-0.2246094 0.0417,-0.027271 0.08034,-0.057059 0.125,-0.082031 0.0072,-0.00385 0.01424,-0.00786 0.02148,-0.011719 0.01741,-0.017776 0.04798,-0.054468 0.06055,-0.042969 0.01319,0.012072 0.02403,0.02683 0.03711,0.039063 0.09533,-0.032691 0.18951,-0.064106 0.285156,-0.072266 z m 1.111329,1.7070312 c 5.18e-4,0.01404 0.0039,0.02677 0.0039,0.04102 0.0048,0.0064 0.009,0.01307 0.01367,0.01953 -0.0066,-0.02 -0.01011,-0.04092 -0.01758,-0.06055 z m 16.626953,9.183593 c 0.01512,0.0817 0.01659,0.165344 0.03516,0.248047 0.04896,0.254379 0.141717,0.496287 0.208984,0.746094 0.05847,0.21211 0.12438,0.419356 0.207032,0.623047 0.02553,0.07322 0.06006,0.143103 0.08984,0.214844 -0.17629,-0.613485 -0.352464,-1.215523 -0.541016,-1.832032 z m -26.357422,7.853516 c -0.1965,0.309668 -0.422065,0.600795 -0.685547,0.878906 0.130461,-0.07784 0.265919,-0.155656 0.373047,-0.263672 0.09329,-0.120507 0.178931,-0.25201 0.242187,-0.390625 0.02458,-0.05172 0.04584,-0.105289 0.06836,-0.158203 3.9e-4,-0.02216 0.0017,-0.04425 0.002,-0.06641 z"
     inkscape:connector-curvature="0" />
</svg>
