<?xml version="1.0" encoding="UTF-8" standalone="no"?>
<!-- Created with Inkscape (http://www.inkscape.org/) -->

<svg
   xmlns:dc="http://purl.org/dc/elements/1.1/"
   xmlns:cc="http://creativecommons.org/ns#"
   xmlns:rdf="http://www.w3.org/1999/02/22-rdf-syntax-ns#"
   xmlns:svg="http://www.w3.org/2000/svg"
   xmlns="http://www.w3.org/2000/svg"
   xmlns:sodipodi="http://sodipodi.sourceforge.net/DTD/sodipodi-0.dtd"
   xmlns:inkscape="http://www.inkscape.org/namespaces/inkscape"
   width="18.754164"
   height="21.162123"
   viewBox="0 0 4.962039 5.5991452"
   version="1.1"
   id="svg8"
   inkscape:version="0.92.1 r15371"
   sodipodi:docname="google.svg">
  <defs
     id="defs2" />
  <sodipodi:namedview
     id="base"
     pagecolor="#ffffff"
     bordercolor="#666666"
     borderopacity="1.0"
     inkscape:pageopacity="0.0"
     inkscape:pageshadow="2"
     inkscape:zoom="15.839192"
     inkscape:cx="-8.4399261"
     inkscape:cy="8.5750258"
     inkscape:document-units="px"
     inkscape:current-layer="layer1"
     showgrid="false"
     inkscape:pagecheckerboard="true"
     units="px"
     fit-margin-top="0"
     fit-margin-left="0"
     fit-margin-right="0"
     fit-margin-bottom="0"
     inkscape:window-width="1600"
     inkscape:window-height="838"
     inkscape:window-x="-8"
     inkscape:window-y="-8"
     inkscape:window-maximized="1" />
  <metadata
     id="metadata5">
    <rdf:RDF>
      <cc:Work
         rdf:about="">
        <dc:format>image/svg+xml</dc:format>
        <dc:type
           rdf:resource="http://purl.org/dc/dcmitype/StillImage" />
        <dc:title></dc:title>
      </cc:Work>
    </rdf:RDF>
  </metadata>
  <g
     inkscape:label="Layer 1"
     inkscape:groupmode="layer"
     id="layer1"
     transform="translate(-205.11498,-246.55398)">
    <path
       id="path25"
       transform="matrix(0.26458333,0,0,0.26458333,205.11498,246.55398)"
       style="fill:#fefefe;stroke-width:1"
       d="M 9.6738281,0 C 6.9404128,-0.003212 4.3155331,0.55163029 2.9179688,1.8164062 0.2832978,4.2007546 0.6190349,7.8081772 3.6601562,9.8007812 l 2.5703126,1.6835938 -3.0703126,1.291016 c -3.27609423,1.377487 -4.1863947,4.872199 -1.8710937,7.1875 0.660019,0.660019 2.987686,1.199218 5.171875,1.199218 3.9526015,0 6.6667705,-1.757348 7.4062505,-4.078125 0.01032,-0.08769 0.02148,-0.175465 0.02148,-0.263672 -6.8e-4,-0.125851 -0.0016,-0.251094 -0.0039,-0.376953 -0.0038,-0.12737 -0.0083,-0.25398 -0.02344,-0.380859 -0.0189,-0.152693 -0.04531,-0.305144 -0.08008,-0.455078 -0.02268,-0.126614 -0.0656,-0.246999 -0.111328,-0.367188 -0.05707,-0.147779 -0.104027,-0.299147 -0.142578,-0.453125 -0.03402,-0.139842 -0.0845,-0.272706 -0.146485,-0.402343 -0.05064,-0.124725 -0.0932,-0.253361 -0.169921,-0.365235 -0.07484,-0.123968 -0.162123,-0.240195 -0.232422,-0.367187 -0.0669,-0.107339 -0.128481,-0.218146 -0.208985,-0.316406 -0.06954,-0.09373 -0.150908,-0.175295 -0.224609,-0.265626 -0.07219,-0.08617 -0.150345,-0.167414 -0.242188,-0.232421 -0.123212,-0.0994 -0.256792,-0.185248 -0.390625,-0.269532 -0.155338,-0.09562 -0.310035,-0.190792 -0.470703,-0.277343 -0.166299,-0.101292 -0.329122,-0.211152 -0.470703,-0.345704 -0.138331,-0.141725 -0.276854,-0.290319 -0.355469,-0.474609 -0.01134,-0.04687 -0.02955,-0.09262 -0.03711,-0.140625 -0.03024,-0.202961 0.06461,-0.392377 0.208984,-0.527344 0.0043,-0.0035 0.0075,-0.0081 0.01172,-0.01172 -0.03066,-0.102549 -0.0309,-0.228474 0.06055,-0.388672 0.03402,-0.05783 0.0678,-0.115812 0.109375,-0.167969 0.06501,-0.07937 0.10151,-0.178255 0.158203,-0.2636719 0.04693,-0.076392 0.08711,-0.1564824 0.126953,-0.2363281 4.06e-4,-0.00189 -4.06e-4,-0.00397 0,-0.00586 0.0037,-0.014148 0.0064,-0.017182 0.0098,-0.029297 0.0013,-0.00461 7.75e-4,-0.00967 0.0039,-0.013672 0.0016,-0.00161 2.7e-4,0.00442 0,0.00586 0.03047,-0.105808 0.07362,-0.122718 0.173828,-0.091797 C 11.533398,9.3813403 11.686231,9.1653366 11.914062,8.9375 12.349866,8.5016962 12.716861,7.7256537 12.919922,6.9433594 12.951922,6.8429429 12.9923,6.7441462 13,6.6386719 c 0.01134,-0.1466457 -0.0011,-0.2963736 0.002,-0.4433594 -0.0016,-0.1659213 -0.0036,-0.3303241 -0.01172,-0.4960937 -0.0076,-0.1515591 -0.01821,-0.3041238 -0.03711,-0.4550782 -0.0189,-0.1878425 -0.0177,-0.3758547 -0.02148,-0.5644531 -0.0076,-0.2022047 -0.01613,-0.4037558 -0.03125,-0.6054687 -0.01512,-0.1950237 -0.031,-0.3901958 -0.02344,-0.5859376 V 3.0117188 c 0,-0.00668 0.0018,-0.011044 0.002,-0.017578 -0.180852,-0.1300158 -0.14928,-0.4226956 0.228516,-0.5683594 l -0.002,-0.00391 c 0.116031,-0.044976 0.228538,-0.09716 0.345703,-0.140625 0.03239,-0.015367 0.06355,-0.03308 0.0957,-0.048828 0.04592,-0.041484 0.09151,-0.082874 0.138672,-0.1230469 0.118677,-0.091465 0.240824,-0.1778766 0.363281,-0.2636719 0.114142,-0.088063 0.230618,-0.1713858 0.351563,-0.25 0.11074,-0.089575 0.228033,-0.1711982 0.341797,-0.2558593 0.141351,-0.09789 0.288055,-0.1878346 0.425781,-0.2910157 0.09545,-0.0658136 0.195674,-0.12240615 0.300781,-0.16406248 C 13.774801,0.32569842 11.704937,0.00238712 9.6738281,0 Z m 2.7148439,1.0859375 c 0.05031,-4.722e-4 0.09993,0.00265 0.144531,0.023437 0.04989,0.022677 0.09653,0.054819 0.144531,0.082031 0.03402,0.071055 0.09829,0.1338986 0.105469,0.2128907 0.01512,0.184063 -0.106443,0.2987714 -0.228515,0.3984375 -0.105449,0.099402 -0.217827,0.1894075 -0.330079,0.28125 -0.130394,0.091842 -0.262033,0.181217 -0.392578,0.2734375 -0.121323,0.083906 -0.252406,0.1537421 -0.384765,0.21875 -0.117737,0.070371 -0.252058,0.09852 -0.38086,0.140625 0.02268,0.0014 0.01588,0.044107 0.02344,0.066406 0.0043,0.013517 0.01192,0.02584 0.01758,0.039063 0.0012,0.0014 0.0027,0.00251 0.0039,0.00391 0.130749,0.1368189 0.224563,0.2974351 0.316406,0.4609375 0.06954,0.1447559 0.137674,0.2911578 0.189454,0.4433594 0.05178,0.1723457 0.06401,0.3525539 0.07422,0.53125 0.0076,0.170456 0.01172,0.3407707 0.01172,0.5117187 0.0015,0.1655433 0.0017,0.3305889 0.002,0.4960937 0.0076,0.1553386 -0.0045,0.3108281 -0.02344,0.4648438 -0.02268,0.1458898 -0.08122,0.2809241 -0.115235,0.4238281 -0.03931,0.1394623 -0.07845,0.280205 -0.123047,0.4179688 -0.04498,0.1300157 -0.07227,0.2654359 -0.107421,0.3984375 -0.0081,0.02538 -0.02086,0.048961 -0.0293,0.074219 -0.0042,0.035088 -0.0067,0.070348 -0.01172,0.1054688 -0.0189,0.1424882 -0.0586,0.281869 -0.08203,0.4238281 -0.03024,0.1647874 -0.07858,0.3260006 -0.126953,0.4863281 -0.04347,0.1727244 -0.118838,0.3350497 -0.179688,0.5019531 -0.0412,0.128126 -0.0952,0.2515874 -0.126953,0.3828126 -0.02646,0.094866 -0.01531,0.04979 -0.04102,0.1367187 -0.101205,0.3255068 -0.322929,0.410374 -0.476562,0.3300781 -0.03478,0.046201 -0.06618,0.094915 -0.101563,0.140625 -0.110709,0.1314796 -0.2250114,0.2589052 -0.3535154,0.3730469 -0.117165,0.1024255 -0.2384931,0.1992995 -0.3613281,0.2949215 -0.121701,0.08957 -0.2392501,0.184619 -0.3613281,0.273438 -0.107717,0.08126 -0.2125955,0.166788 -0.3203125,0.248047 -0.06425,0.06614 -0.1665278,0.102901 -0.2050781,0.189453 -0.0076,0.05253 -0.02498,0.118079 0,0.167969 0.02268,0.09978 0.08091,0.183862 0.1289062,0.273437 0.04536,0.103181 0.1232508,0.177309 0.1992188,0.257813 0.08957,0.07899 0.1897877,0.150464 0.2929687,0.210937 0.01512,0.0076 0.029052,0.01405 0.044922,0.02539 0.215951,0.118187 0.2968252,0.274859 0.2851562,0.404297 0.391892,0.171634 0.9194014,0.590386 1.5527344,1.353515 0.289736,0.349026 0.512886,0.746689 0.673828,1.13086 0.05765,0.05599 0.109568,0.137474 0.148438,0.248046 v 0.0039 c 0.04762,0.13493 0.09174,0.271107 0.125,0.410156 0.03402,0.157228 0.04996,0.316084 0.06055,0.476563 0.0076,0.136056 0.01172,0.273867 0.01172,0.410156 -0.0028,0.172347 -0.04361,0.337518 -0.09766,0.5 -0.04422,0.14778 -0.10586,0.290499 -0.175781,0.427734 -0.09902,0.175748 -0.228981,0.331455 -0.359375,0.484375 -0.102803,0.136441 -0.228409,0.254033 -0.330078,0.390625 -0.0635,0.106204 -0.138749,0.204531 -0.210938,0.304688 -0.07975,0.09562 -0.162252,0.188972 -0.248047,0.279296 -0.09222,0.0926 -0.202389,0.165022 -0.308594,0.240235 -0.09335,0.08088 -0.201632,0.1407 -0.308593,0.201172 -0.1148994,0.07521 -0.2412025,0.131374 -0.3632815,0.193359 -0.140221,0.07899 -0.2909799,0.135157 -0.4355469,0.205078 -0.159118,0.08391 -0.3307411,0.133011 -0.5019531,0.185547 -0.14778,0.03817 -0.2944224,0.08197 -0.4433594,0.115235 -0.132284,0.02646 -0.2674646,0.03749 -0.4003906,0.06055 -0.14778,0.02646 -0.2971165,0.039 -0.4453125,0.06055 -0.1697,0.0189 -0.3372544,0.05241 -0.5058594,0.07813 -0.166677,0.02646 -0.3353772,0.03428 -0.5039062,0.04297 -0.140977,0.0076 -0.2826252,0.0078 -0.4238282,0.0078 -0.1337953,0.0011 -0.2667086,0.0018 -0.4003906,0.002 -0.12926,1.14e-4 -0.2594885,-3.8e-5 -0.3886718,0 H 4.8691406 c -0.117165,3.8e-5 -0.2344115,0 -0.3515625,0 -0.01995,-3e-6 -0.028379,-0.0055 -0.042969,-0.0078 -0.07558,0.0012 -0.1511735,0.0038 -0.2265625,0.0059 -0.06765,6.73e-4 -0.135471,0.0016 -0.203125,0.002 -0.0057,3.1e-5 -0.0081,-0.0019 -0.013672,-0.002 -0.130626,0.07106 -0.3319311,0.02984 -0.5019531,-0.208985 -0.0076,-0.01134 -0.019784,-0.02577 -0.027344,-0.03711 C 3.4157867,19.722487 3.3276062,19.60595 3.2539062,19.480469 3.1922969,19.36406 3.134062,19.246386 3.078125,19.126953 3.029745,19.042293 2.9739689,18.961741 2.9199219,18.880859 2.8059909,18.709376 2.7755059,18.553827 2.7949219,18.435547 2.6818599,18.20509 2.5674372,17.964852 2.4257812,17.595703 2.1051869,16.759724 2.2181728,15.701612 2.6679688,15.195312 c -0.02777,-0.124396 0.02853,-0.288508 0.2167968,-0.4375 0.105827,-0.08353 0.2073659,-0.171261 0.3105469,-0.257812 0.140598,-0.114898 0.2876933,-0.221603 0.4414063,-0.318359 0.1307713,-0.08013 0.2546237,-0.172141 0.3867187,-0.25 0.157984,-0.110362 0.324992,-0.206365 0.484375,-0.314453 0.172346,-0.113386 0.3437219,-0.224943 0.5292969,-0.316407 C 5.1890464,13.213091 5.341752,13.128325 5.5,13.052734 c 0.07048,-0.03369 0.1362845,-0.05472 0.1953125,-0.06445 0.127437,-0.02102 0.2121235,0.01755 0.2734375,0.07617 0.107398,-0.04034 0.2163566,-0.07673 0.3222656,-0.121094 0.130394,-0.04611 0.2583654,-0.102141 0.3808594,-0.166015 0.127748,-0.06463 0.246368,-0.14669 0.359375,-0.234375 0.07635,-0.06161 0.1412655,-0.134781 0.1953125,-0.216797 0.03931,-0.06576 0.050972,-0.147443 0.044922,-0.222656 -0.0076,-0.113764 -0.016393,-0.227592 -0.039063,-0.339844 -0.02268,-0.124707 -0.046819,-0.247945 -0.068359,-0.373047 -0.03402,-0.138709 -0.07889,-0.275392 -0.1132813,-0.414063 -0.03402,-0.130009 -0.054876,-0.261114 -0.072266,-0.394531 -0.0046,-0.03531 0.00626,-0.05787 0.00586,-0.08984 -0.02415,-0.04655 -0.045499,-0.09489 -0.074219,-0.138672 -0.0601,-0.08995 -0.1437273,-0.161745 -0.2246093,-0.232422 C 6.6031569,10.047369 6.524052,9.9715084 6.4375,9.9023438 6.329984,9.8218738 6.222134,9.740658 6.125,9.6484375 6.011315,9.5491819 5.9022609,9.447687 5.7949219,9.34375 5.6921189,9.2451044 5.5907676,9.1447036 5.4785156,9.0566406 5.4227356,9.0129808 5.3818082,8.9668514 5.3476562,8.921875 5.2764719,8.9045393 5.2054746,8.8867424 5.1347656,8.8671875 4.9979466,8.8290143 4.8586446,8.799195 4.7285156,8.7402344 4.5788466,8.6861872 4.4319916,8.6252379 4.2910156,8.5507812 4.1273616,8.4653646 3.9711281,8.3657802 3.8242188,8.2539062 3.6692578,8.1427888 3.5235346,8.0188799 3.3691406,7.90625 3.2500856,7.8072264 3.133925,7.7032952 3.015625,7.6035156 2.712681,7.3480693 2.760538,7.0678917 2.953125,6.9882812 2.940815,6.8778536 2.9259036,6.7674982 2.9316406,6.65625 c 3.8e-5,-0.1262362 -1.13e-4,-0.2526329 0,-0.3789062 1.51e-4,-0.1269922 0.00115,-0.2540185 0.00195,-0.3808594 8.683e-4,-0.1300157 -8.159e-4,-0.2604203 0.00586,-0.390625 0.0076,-0.1447559 0.015632,-0.2906142 0.039063,-0.4335938 0.03402,-0.1678084 0.07877,-0.3311151 0.15625,-0.484375 0.06992,-0.1447533 0.1385582,-0.2912322 0.2050782,-0.4375 C 3.4222451,4.0075271 3.5165259,3.8736517 3.6132812,3.7402344 3.6835812,3.6359194 3.7519025,3.5292743 3.8203125,3.4238281 3.8913725,3.2904107 3.9665,3.1605114 4.0625,3.0429688 4.15094,2.9269373 4.2477528,2.8205459 4.3554688,2.7226562 4.4809481,2.609649 4.6080909,2.499541 4.7480469,2.4042969 c 0.0809,-0.059826 0.166124,-0.1139133 0.25,-0.1699219 C 5.0176769,2.140053 5.074967,2.0358611 5.1875,1.9335938 5.27783,1.8515778 5.3667841,1.7665577 5.4707031,1.7011719 c 0.186709,-0.1058268 0.38888,-0.1767383 0.59375,-0.2402344 0.0173,-0.00432 0.035344,-0.00569 0.052734,-0.00977 0.04012,-0.1284164 0.1872004,-0.2382812 0.4492187,-0.2382813 L 6.5625,1.2109375 h 0.5039062 0.7363282 0.7070312 0.6113282 0.4609374 0.4589848 c 0.141354,0.00756 0.27955,-0.00624 0.419922,-0.017578 0.150418,-0.00378 0.299166,-0.034027 0.447265,-0.058594 0.153827,-0.026457 0.309241,-0.034901 0.464844,-0.039063 0.159496,-0.00378 0.319177,-0.00781 0.478515,-0.00781 0.130016,-8.315e-4 0.258618,2.268e-4 0.388672,0 0.04706,0.00378 0.09812,-0.00148 0.148438,-0.00195 z m -1.322266,1.6308594 c -0.01509,0.00493 -0.03003,0.010196 -0.04492,0.015625 -0.0189,0.015118 0.02772,-0.00339 0.03906,-0.00781 0.0022,-0.00261 0.0016,-0.00781 0.0059,-0.00781 z m 5.185547,-1.0332031 v 0.099609 0.3886719 0.3789062 c -0.0024,0.091465 0.01985,0.1830479 0.04102,0.2714844 0.04851,0.1966852 0.01174,0.3393714 -0.05859,0.4296875 -0.0282,0.036209 -0.05983,0.063252 -0.09766,0.080078 -0.0043,0.00235 -0.0091,0.00365 -0.01367,0.00586 -0.01572,0.00586 -0.0303,0.011197 -0.04687,0.013672 -0.08171,0.028287 -0.180322,0.041399 -0.306641,0.015625 -0.0669,-0.015118 -0.135094,-0.00781 -0.203125,-0.00781 -0.137575,4.158e-4 -0.276714,3.419e-4 -0.414062,0.00195 -0.105578,0.00147 -0.210972,0.00632 -0.316406,0.00977 0.01703,0.058227 0.02734,0.1257285 0.02734,0.203125 v 0.3515624 0.058594 c 0.03968,2.972e-4 0.07929,0.00184 0.119141,0.00195 0.134551,2.988e-4 0.269822,-7.56e-5 0.404297,0 0.111496,0.00756 0.05956,0.00308 0.158203,0.015625 0.0667,0.0097 0.121644,0.027973 0.171875,0.048828 0.04731,-0.036186 0.09863,-0.060547 0.152344,-0.060547 0.157833,0 0.316406,0.1562398 0.316406,0.46875 h 0.0039 v 0.4140625 c 0.0038,0.1738583 -0.0074,0.3481558 0.0039,0.5214843 0.0082,0.088099 0.01399,0.1769818 0.02148,0.265625 0.223113,0.0098 0.447515,0.00255 0.667968,-0.023437 V 5.4121094 4.9199219 4.5273438 c 0,-0.3125103 0.158574,-0.4687501 0.316407,-0.46875 0.100017,0 0.195787,0.069826 0.255859,0.1953124 0.0299,-0.00343 0.05441,-0.011719 0.08789,-0.011719 h 0.351562 0.402344 0.457031 c -0.0206,-0.083284 -0.04047,-0.1666154 -0.04883,-0.2519531 -0.01134,-0.1051327 -0.01963,-0.2110315 -0.03125,-0.3164063 -0.08527,2.04e-4 -0.170414,7.736e-4 -0.255859,0.00195 -0.126614,0.00231 -0.25417,0.00416 -0.38086,0.011719 -0.159874,0.011339 -0.318376,0.02709 -0.478515,0.019531 -0.220346,-0.030236 -0.411504,-0.1081565 -0.503906,-0.328125 -0.04535,-0.1617631 -0.04984,-0.3265941 -0.04492,-0.4941406 -9.07e-4,-0.1844366 0.001,-0.3684825 -0.0059,-0.5527344 -0.0038,-0.1723458 -0.01235,-0.3440345 -0.03125,-0.515625 -0.0046,-0.040321 -0.01638,-0.079278 -0.02344,-0.1191406 -0.03613,0.00477 -0.06775,0.014214 -0.109375,0.013672 -0.0669,-8.693e-4 -0.03183,0.0011 -0.107422,0 -0.12548,-0.00242 -0.251473,-0.00807 -0.376953,-0.015625 -0.03463,-0.003 -0.06892,-0.00841 -0.103516,-0.011719 z m -4.605469,0.039062 c -0.03517,4.971e-4 -0.07031,0.00155 -0.105468,0.00195 0.0074,0.017178 0.0148,0.034884 0.02148,0.054687 0.02794,-0.018963 0.05622,-0.037377 0.08398,-0.056641 z M 9.6914062,1.84375 c 0.02381,0.010449 0.048266,0.019295 0.072266,0.029297 0.0017,-0.00981 0.00677,-0.01961 0.00977,-0.029297 z m 7.9179688,0.017578 c 0.0039,0.048104 0.0048,0.096341 0.0078,0.1445313 0.026,-0.028074 0.05524,-0.049505 0.08398,-0.072266 -0.03388,-0.023033 -0.05687,-0.049584 -0.0918,-0.072266 z M 6.8164062,2.1699219 C 6.6802319,2.281172 6.5317031,2.3749765 6.3769531,2.4589844 c -0.198773,0.1050709 -0.399255,0.2049735 -0.59375,0.3183594 -0.08929,0.07011 -0.200484,0.1171163 -0.2871093,0.1914062 -0.03347,0.045923 -0.05634,0.078213 -0.09375,0.1289062 -0.01694,0.033202 -0.037521,0.064495 -0.050781,0.099609 -0.04762,0.1398426 -0.130807,0.2648574 -0.1875,0.4003906 -0.05669,0.1375748 -0.1087553,0.2761732 -0.1601563,0.4160157 -0.04346,0.1379528 -0.087149,0.273702 -0.1464843,0.40625 -0.05178,0.1243465 -0.1024565,0.2493296 -0.1640625,0.3691406 -0.0507,0.1052098 -0.08458,0.2169121 -0.1132813,0.3300781 -0.0665,0.5161343 -0.051251,1.0226893 0.099609,1.4160156 h 0.00195 c 0.13122,0.3435123 0.1954754,0.6448311 0.2246094,0.9082032 0.04348,0.033207 0.086839,0.066505 0.1289062,0.1015625 0.05556,0.037795 0.1132289,0.090353 0.1699219,0.1171875 0.08768,0.022677 0.1783818,0.029426 0.2675781,0.044922 0.127748,0.026457 0.2522282,0.068429 0.3769532,0.1054688 0.139464,0.034016 0.2749371,0.077568 0.4082031,0.1308594 0.131149,0.063874 0.2682339,0.1134802 0.4042969,0.1660156 0.147023,0.058961 0.2891292,0.1272766 0.4414062,0.171875 0.147024,0.034016 0.2889305,0.087334 0.4296875,0.140625 0.08782,0.02848 0.16773,0.073472 0.25,0.1132812 0.01642,0.00424 0.029765,0.00226 0.046875,0.00781 0.03024,0.011339 0.061557,0.019785 0.091797,0.027344 0.08315,0.011339 0.1645199,0.028917 0.2480469,0.017578 0.0771,-0.00378 0.1540586,-0.010526 0.2285156,-0.033203 C 8.4702537,8.5320155 8.5243288,8.4949485 8.5742188,8.4375 8.6396085,8.379295 8.7074814,8.3303161 8.7558594,8.2558594 8.8246494,8.1587254 8.8973756,8.0639255 8.9472656,7.9550781 9.0164356,7.8303536 9.0756784,7.7023314 9.1308594,7.5703125 c 0.06198,-0.1156535 0.08053,-0.2497716 0.1289062,-0.3710937 0.04498,-0.1152756 0.084311,-0.2321296 0.1171875,-0.3515626 0.03817,-0.1281253 0.058409,-0.2612261 0.099609,-0.3886718 0.03024,-0.092976 0.061676,-0.1876474 0.072266,-0.2851563 0.01512,-0.1141418 0.011719,-0.2268993 0.011719,-0.3417969 -8.31e-4,-0.130393 -0.00211,-0.2622251 -0.00781,-0.3925781 -0.005,-0.133379 -0.012234,-0.2657004 -0.027344,-0.3984375 -0.023,-0.131515 -0.052296,-0.2611628 -0.097656,-0.3867187 C 9.3892623,4.5193994 9.3438672,4.3885208 9.3007812,4.2558594 9.2558049,4.1133712 9.1895055,3.979863 9.1328125,3.8417969 9.0738515,3.7064898 9.0098521,3.5726304 8.9550781,3.4355469 8.8968731,3.3100666 8.8327106,3.1878558 8.7597656,3.0703125 8.7125256,2.9875405 8.6569266,2.9171406 8.5722656,2.8691406 8.4428096,2.7952207 8.3816432,2.7108873 8.3476562,2.6269531 c -0.03021,-0.00297 -0.059444,-0.011072 -0.089844,-0.013672 -0.142866,-0.00208 -0.2856164,-0.018085 -0.4277344,-0.033203 -0.17726,-0.030236 -0.354096,-0.058915 -0.53125,-0.091797 -0.02646,-0.00378 -0.056024,-0.011845 -0.083984,-0.015625 C 6.9666428,2.4273415 6.8421712,2.2993636 6.8164062,2.1699219 Z m 8.8046878,0.076172 c -0.01094,0.015236 -0.02019,0.03175 -0.03125,0.046875 -0.01173,0.021006 -0.02923,0.040183 -0.04492,0.060547 0.02909,0.00672 0.04988,0.017372 0.07617,0.025391 z m -0.978516,0.4824218 c -0.0073,0.00501 -0.01412,0.010685 -0.02148,0.015625 0.0098,-3.851e-4 0.01952,-0.00158 0.0293,-0.00195 -0.0022,-0.00473 -0.0056,-0.00893 -0.0078,-0.013672 z m -0.96875,0.1425782 c -0.0013,3.602e-4 -0.0026,0.00144 -0.0039,0.00195 5.07e-4,0.00177 -4.97e-4,0.00407 0,0.00586 0.0011,-0.00269 0.0029,-0.00509 0.0039,-0.00781 z m 3.96875,0.054687 c 4.09e-4,0.052082 -4.09e-4,0.1043126 0,0.15625 0.06975,-0.00222 0.139367,-0.00692 0.208984,-0.011719 -0.04105,-0.011717 -0.08233,-0.024749 -0.123046,-0.054687 -0.01183,-0.0092 -0.01922,-0.023462 -0.0293,-0.035156 -0.02023,-0.012512 -0.0374,-0.037132 -0.05664,-0.054688 z M 6.53125,3.4921875 c 0.0833,0.01668 0.158116,0.081634 0.203125,0.1835937 0.131762,-0.040218 0.2635621,-0.057277 0.4238281,-0.033203 0.187843,0.022677 0.3718185,0.065227 0.5390625,0.1582031 0.148157,0.097512 0.2759112,0.2173944 0.3613282,0.375 0.08806,0.1655433 0.1422677,0.3433441 0.1679687,0.5292969 0.01134,0.1356823 0.00781,0.272292 0.00781,0.4082031 -7.56e-4,0.1292598 -0.00201,0.259412 -0.00781,0.3886719 -0.0038,0.1398398 -0.010533,0.2796381 -0.033203,0.4179688 -0.02646,0.1432441 -0.0581,0.2849927 -0.1132813,0.4199219 C 8.0305679,6.4781733 7.9630016,6.6065381 7.8847656,6.7304688 7.8053145,6.8676621 7.7070081,6.9867894 7.5898438,7.09375 7.3993558,7.2328366 7.2647751,7.2599534 7.0332031,7.2539062 6.8529471,7.2387888 6.6684282,7.2184199 6.5039062,7.1386719 6.3674659,7.0611916 6.2493522,6.9631808 6.1601562,6.8320312 6.0577309,6.6971027 5.9641374,6.5543052 5.8964844,6.3984375 5.8269404,6.2158863 5.7726815,6.0298139 5.7734375,5.8320312 c 0.0017,-0.1322828 0.0042,-0.266457 0.011719,-0.3984374 0.01134,-0.1489134 0.0247,-0.2969527 0.0625,-0.4414063 C 5.8816744,4.8663293 5.9376969,4.7461328 5.9667969,4.6191406 6.0008169,4.4853481 6.043357,4.3560357 6.078125,4.2226562 6.108365,4.1145624 6.1306775,4.0036935 6.1484375,3.8925781 6.1981375,3.5840741 6.377069,3.4613135 6.53125,3.4921875 Z m 10.984375,1.3769531 v 0.027344 c 0.01863,-0.00842 0.03781,-0.015735 0.05664,-0.023437 h -0.0293 c -0.01043,0 -0.01726,-0.00356 -0.02734,-0.00391 z m -7.271484,2.8867188 c -0.0095,0.028838 -0.01027,0.060162 -0.02344,0.087891 0.01737,-0.029096 0.03368,-0.058669 0.05078,-0.087891 -0.0091,1.586e-4 -0.01823,-2.961e-4 -0.02734,0 z M 6.7382812,9.3359375 c 0.0095,0.00731 0.018184,0.015688 0.027344,0.023437 0.0011,-0.00361 0.00456,-0.00621 0.00586,-0.00977 -0.01129,-0.00395 -0.021873,-0.00994 -0.033203,-0.013672 z M 9.015625,9.6054688 c -0.03625,0.047718 -0.07408,0.094155 -0.1113281,0.140625 -0.0043,0.00625 -0.0075,0.013188 -0.011719,0.019531 0.01011,0.00207 0.01998,0.00955 0.03125,0.011719 0.05868,-0.037765 0.083147,-0.095039 0.091797,-0.171875 z m 0.027344,0.1308593 c -0.03555,0.015558 -0.07434,0.025195 -0.1074219,0.044922 0.01401,0.0023 0.010953,0.00874 0.033203,0.011719 0.02477,-0.018838 0.049149,-0.038263 0.074219,-0.056641 z M 8.9375,9.8164062 c -0.03153,0.014014 -0.065451,0.03019 -0.1035156,0.041016 -0.01462,0.024301 -0.029022,0.048781 -0.044922,0.072266 0.04968,-0.037469 0.09902,-0.075388 0.1484375,-0.1132813 z M 8.65625,13.0625 c -2.1e-4,0.0033 3.4e-4,0.0065 0,0.0098 0.01211,0.0038 0.025039,0.0039 0.037109,0.0078 -0.01212,-0.0064 -0.025029,-0.01114 -0.037109,-0.01758 z m -1.9667969,0.394531 c -0.06123,0.02555 -0.1195966,0.0577 -0.1816406,0.08008 -0.119811,0.05102 -0.2443074,0.08992 -0.3652344,0.138672 -0.11263,0.03855 -0.211226,0.10674 -0.3125,0.167969 -0.120567,0.08126 -0.2494569,0.151792 -0.3730469,0.228516 -0.1394643,0.08428 -0.2901108,0.144614 -0.4355468,0.216796 -0.08882,0.05027 -0.1756072,0.101513 -0.2519532,0.169922 -0.1028033,0.07635 -0.1992367,0.161118 -0.2929687,0.248047 -0.100158,0.08428 -0.1987304,0.172651 -0.2773437,0.277344 -0.08126,0.09146 -0.1378646,0.199303 -0.1953126,0.306641 -0.06954,0.115276 -0.1154337,0.240068 -0.1679687,0.363281 -0.03402,0.101274 -0.073529,0.202326 -0.099609,0.306641 -0.02268,0.114513 -0.03239,0.231184 -0.054687,0.345703 -0.02268,0.09827 -0.034206,0.198293 -0.041016,0.298828 -0.0076,0.116032 -0.011719,0.233199 -0.011719,0.349609 -0.0015,0.124346 -0.00165,0.249078 -0.00195,0.373047 -2.85e-4,0.153826 3.8e-5,0.307193 0,0.460937 -4.9e-5,0.01042 7.7e-5,0.02083 0,0.03125 0.0068,0.005 0.012711,0.0063 0.019531,0.01172 0.0044,0.0035 0.0093,0.0063 0.013672,0.0098 0.02413,-0.01683 0.038663,-0.03529 0.070313,-0.05078 0.1795273,-0.08806 0.3126428,0.05559 0.4042968,0.164062 0.0994,0.124724 0.2110214,0.237925 0.3183594,0.355469 0.01222,0.01304 0.026681,0.02419 0.039063,0.03711 0.07616,0.04313 0.1522154,0.08551 0.2304687,0.125 0.129259,0.06198 0.2422809,0.150403 0.3730469,0.208985 0.105827,0.0378 0.2153688,0.06339 0.3242188,0.08984 0.08164,0.02646 0.279498,0.03718 0.34375,0.08594 0.01101,0.0084 0.02072,0.01839 0.03125,0.02734 0.100558,-0.02199 0.2013992,-0.04251 0.3007812,-0.07031 0.196158,-0.0548 0.3934859,-0.104281 0.5917969,-0.150391 0.235843,-0.05896 0.4752849,-0.09451 0.7167969,-0.117187 0.199937,-0.0076 0.3945937,-0.02452 0.5898437,-0.06836 0.227906,-0.05367 0.4608054,-0.09149 0.6933594,-0.117188 0.174237,-0.0189 0.344262,-0.05274 0.515625,-0.08789 0.118678,-0.02646 0.2327565,-0.06503 0.3359375,-0.128907 0.117921,-0.0703 0.2344579,-0.140766 0.3417969,-0.226562 0.07483,-0.07975 0.1578356,-0.151165 0.2167966,-0.244141 0.06123,-0.09751 0.0862,-0.20913 0.117188,-0.318359 0.04649,-0.154582 0.114741,-0.299668 0.169922,-0.451172 0.0577,-0.136552 0.119716,-0.270697 0.183593,-0.404297 -0.07239,-0.07464 -0.126657,-0.192845 -0.132812,-0.365234 -9.82e-4,-0.02646 -0.0029,-0.05482 -0.0039,-0.08203 -0.0076,-0.153449 -0.01418,-0.307614 -0.04102,-0.458984 -0.02268,-0.118678 -0.06301,-0.233136 -0.101563,-0.347656 -0.01272,-0.03751 -0.0088,-0.06708 -0.01562,-0.101563 -0.15633,-0.173046 -0.3161759,-0.354073 -0.4804692,-0.574219 -0.155131,-0.207854 -0.2887659,-0.40406 -0.4042969,-0.58789 -0.01472,0.0046 -0.027679,0.01479 -0.042969,0.01758 -0.131896,0.02268 -0.2584637,-0.08368 -0.3710937,-0.132812 -0.144378,-0.06123 -0.2875029,-0.123625 -0.4355469,-0.175782 -0.126614,-0.04498 -0.2610013,-0.08014 -0.3945313,-0.09375 -0.1734803,-0.0189 -0.3470213,-0.0098 -0.5214843,-0.0098 H 7.0683594 c -0.180409,0 -0.3026453,-0.05585 -0.3789063,-0.13086 z m 0.015625,0.837891 c 0.161,-0.0076 0.3212629,-0.0032 0.4824219,0.002 0.171591,0.0076 0.3436309,0.01495 0.5136719,0.04102 0.194268,0.03024 0.3876095,0.07556 0.5703125,0.15039 0.156094,0.06274 0.3239061,0.09351 0.4707031,0.179688 0.149669,0.09449 0.2921924,0.202525 0.3808594,0.359375 0.106583,0.174993 0.1811353,0.36138 0.1777343,0.570312 -0.0025,0.162142 -0.0025,0.324602 -0.017578,0.486328 -0.01512,0.170835 -0.04103,0.343479 -0.1113281,0.501954 -0.07295,0.142103 -0.1676088,0.269706 -0.2617188,0.398437 -0.1315273,0.144756 -0.28282,0.26495 -0.453125,0.361328 -0.1534483,0.08655 -0.3127707,0.16004 -0.4804687,0.214844 -0.183685,0.05216 -0.3705499,0.0843 -0.5605469,0.105469 -0.176126,0.01512 -0.3519615,0.03686 -0.5292968,0.0293 -0.165543,-4.84e-4 -0.3323899,7.37e-4 -0.4980469,-0.002 -0.195779,-0.0028 -0.3924517,-0.0044 -0.5878907,-0.01953 C 5.6386393,17.658654 5.477341,17.634748 5.328125,17.564453 5.176944,17.493773 5.02455,17.424435 4.90625,17.302734 4.771699,17.165159 4.6384752,17.014353 4.5976562,16.820312 c -0.02646,-0.153442 -0.024473,-0.306317 -0.00586,-0.460937 0.0189,-0.155717 0.043419,-0.309591 0.1152343,-0.451172 0.07332,-0.130394 0.1632046,-0.252852 0.2890626,-0.337891 0.06272,-0.04766 0.1339828,-0.08021 0.2011718,-0.121093 0.03625,-0.09324 0.06718,-0.189122 0.1269532,-0.271485 0.09373,-0.125102 0.1962172,-0.245168 0.3164062,-0.345703 0.139843,-0.123969 0.2793521,-0.251719 0.4394531,-0.349609 0.193504,-0.109977 0.4001888,-0.181452 0.625,-0.1875 z m 0.3359375,0.628906 c 0.03014,0.01934 0.053117,0.04137 0.070312,0.06641 0.0014,-0.0052 0.00271,-0.0103 0.00391,-0.01563 0.01229,-0.02109 0.027816,-0.03271 0.041016,-0.05078 -0.03841,-7.77e-4 -0.07679,0.0011 -0.1152344,0 z m -3.6894531,0.267578 c -0.0093,0.0076 -0.017994,0.01592 -0.027344,0.02344 0.0031,0.0053 0.00667,0.0082 0.00977,0.01367 0.0054,-0.01259 0.012378,-0.02444 0.017578,-0.03711 z m 3.7402344,0.05664 c -0.0039,0.0057 -0.013218,0.01 -0.017578,0.01563 0.0051,-8.6e-5 0.010455,-0.002 0.015625,-0.002 0.0039,0 0.0078,0.0019 0.011719,0.002 -0.0019,-0.006 -0.00817,-0.0095 -0.00977,-0.01563 z m -3.3652344,3.384765 c 0.02723,0.06707 0.052519,0.138942 0.099609,0.195313 0.0548,0.03402 0.105417,0.07416 0.1621093,0.107422 0.03119,0.0089 0.06255,0.01923 0.09375,0.0293 -0.02533,-0.01807 -0.055315,-0.02907 -0.078125,-0.05078 -0.08077,-0.08107 -0.1584937,-0.164886 -0.2304687,-0.253906 -0.01555,-0.0092 -0.031305,-0.01815 -0.046875,-0.02734 z" />
  </g>
</svg>
