<?xml version="1.0" encoding="UTF-8" standalone="no"?>
<!-- Created with Inkscape (http://www.inkscape.org/) -->

<svg
   xmlns:dc="http://purl.org/dc/elements/1.1/"
   xmlns:cc="http://creativecommons.org/ns#"
   xmlns:rdf="http://www.w3.org/1999/02/22-rdf-syntax-ns#"
   xmlns:svg="http://www.w3.org/2000/svg"
   xmlns="http://www.w3.org/2000/svg"
   xmlns:sodipodi="http://sodipodi.sourceforge.net/DTD/sodipodi-0.dtd"
   xmlns:inkscape="http://www.inkscape.org/namespaces/inkscape"
   width="21.088257"
   height="21.09149"
   viewBox="0 0 5.5796011 5.5804569"
   version="1.1"
   id="svg8"
   inkscape:version="0.92.1 r15371"
   sodipodi:docname="phone.svg">
  <defs
     id="defs2" />
  <sodipodi:namedview
     id="base"
     pagecolor="#ffffff"
     bordercolor="#666666"
     borderopacity="1.0"
     inkscape:pageopacity="0.0"
     inkscape:pageshadow="2"
     inkscape:zoom="15.839192"
     inkscape:cx="-5.4325083"
     inkscape:cy="8.6778828"
     inkscape:document-units="px"
     inkscape:current-layer="layer1"
     showgrid="false"
     inkscape:pagecheckerboard="true"
     units="px"
     fit-margin-top="0"
     fit-margin-left="0"
     fit-margin-right="0"
     fit-margin-bottom="0"
     inkscape:window-width="1600"
     inkscape:window-height="838"
     inkscape:window-x="-8"
     inkscape:window-y="-8"
     inkscape:window-maximized="1" />
  <metadata
     id="metadata5">
    <rdf:RDF>
      <cc:Work
         rdf:about="">
        <dc:format>image/svg+xml</dc:format>
        <dc:type
           rdf:resource="http://purl.org/dc/dcmitype/StillImage" />
        <dc:title></dc:title>
      </cc:Work>
    </rdf:RDF>
  </metadata>
  <g
     inkscape:label="Layer 1"
     inkscape:groupmode="layer"
     id="layer1"
     transform="translate(-204.31926,-245.26354)">
    <path
       id="path814"
       transform="matrix(0.26458333,0,0,0.26458333,197.82147,244.93686)"
       style="fill:#fefefe;stroke-width:1.00000012"
       d="m 36.519531,1.2363281 c -0.951467,-0.023562 -1.662976,0.2051906 -1.882812,0.7285157 0.09274,0.028473 0.18529,0.057818 0.279297,0.082031 0.159874,0.030236 0.318515,0.059422 0.474609,0.1074219 0.130016,0.038551 0.260635,0.067798 0.392578,0.097656 0.161764,0.018898 0.315566,0.066669 0.46875,0.1210938 0.153449,0.052913 0.311458,0.087522 0.466797,0.1347656 0.147402,0.047622 0.293981,0.097599 0.445312,0.1308594 0.173103,0.044976 0.343908,0.1040313 0.511719,0.1660156 0.122457,0.051402 0.251335,0.080965 0.38086,0.1074219 0.136819,0.011339 0.268107,0.05042 0.40039,0.085937 0.126236,0.026457 0.253426,0.05337 0.378907,0.083984 0.145472,0.026457 0.280821,0.089477 0.416015,0.1484376 0.09373,0.038929 0.04645,0.018467 0.138672,0.056641 0.02117,0.00856 0.03372,0.019855 0.05273,0.029297 0.0026,5.667e-4 0.0052,0.00139 0.0078,0.00195 0.205606,0.052158 0.392802,0.1489599 0.580078,0.2460937 0.154205,0.06463 0.292403,0.1589134 0.431641,0.25 0.137952,0.094866 0.282486,0.1808391 0.421875,0.2734375 0.140598,0.086551 0.270966,0.1863861 0.396484,0.2929688 0.111118,0.086929 0.208122,0.1911093 0.310547,0.2871094 0.120945,0.1167832 0.237296,0.237862 0.359375,0.3535156 0.109606,0.1065827 0.217068,0.2155584 0.318359,0.3300781 0.09449,0.1130079 0.175609,0.2352164 0.263672,0.3535156 0.08882,0.1307717 0.182602,0.2569554 0.269531,0.3886719 0.08957,0.1322835 0.175987,0.2664064 0.263672,0.4003906 0.07597,0.1103622 0.115943,0.2454254 0.195313,0.3535156 0.07294,0.1035591 0.128793,0.2168802 0.195312,0.3242188 0.07748,0.1266142 0.135974,0.2629036 0.195313,0.3984375 0.04762,0.1258583 0.102956,0.247252 0.144531,0.375 0.05065,0.127748 0.08241,0.2614419 0.105469,0.3964844 0.01134,0.1492913 0.03888,0.293261 0.06836,0.4394531 0.0378,0.1799055 0.0603,0.3622951 0.07617,0.5449219 0.0025,0.1341732 0.02483,0.2657005 0.04297,0.3984375 0.03402,0.119433 9.33e-4,0.256272 0.03906,0.3730464 0.05254,0.152693 0.09174,0.309543 0.136719,0.464844 0.03024,0.151559 0.08488,0.295705 0.134766,0.441406 0.0412,0.134173 0.06843,0.270754 0.105468,0.40625 0.048,0.17915 0.07807,0.362774 0.09961,0.546875 0.01219,0.118813 0.01546,0.238113 0.01953,0.357422 1.997202,-0.13144 0.873732,-5.7766579 -1.701172,-8.3515622 C 41.296217,2.3347285 38.435534,1.2837749 36.519531,1.2363281 Z m -8.599609,0.089844 c -1.862627,0 -3.361328,3.3155094 -3.361328,7.4375 0,2.9063809 0.894466,4.4974799 4.816406,8.5664059 4.097272,4.250873 5.376485,4.996094 8.566406,4.996094 1.065299,0 2.071964,-0.09156 2.984375,-0.257813 0.0417,-0.03578 0.07557,-0.07984 0.119141,-0.113281 0.167433,-0.117165 0.360487,-0.187258 0.55664,-0.238281 0.07086,-0.01343 0.142064,-0.02421 0.212891,-0.03711 0.08395,-0.04877 0.168861,-0.09607 0.248047,-0.152344 0.130772,-0.09449 0.27006,-0.176933 0.402344,-0.269532 0.110611,-0.07321 0.225476,-0.136331 0.345703,-0.191406 0.01038,-0.05586 0.01372,-0.112983 0.03125,-0.167968 0.08769,-0.225638 0.283888,-0.314021 0.505859,-0.359376 0.163654,-0.02646 0.330815,-0.03894 0.496094,-0.03516 0.121278,0.0095 0.24213,0.0209 0.363281,0.0293 0.03786,-0.03768 0.08975,-0.06929 0.152344,-0.0957 0.02628,-0.05932 0.06137,-0.120635 0.121094,-0.183594 0.06501,-0.06879 0.02969,-0.03404 0.09961,-0.105468 0.105827,-0.109229 0.21688,-0.21455 0.324219,-0.322266 0.08882,-0.09676 0.172585,-0.198103 0.263672,-0.292969 0.106204,-0.120567 0.210455,-0.24051 0.324219,-0.353515 0.01399,-0.01404 0.02879,-0.02711 0.04297,-0.04102 0.0056,-0.05371 0.02344,-0.105744 0.02344,-0.160156 0,-0.702728 -1.289802,-2.514147 -2.867188,-4.025391 -2.598803,-2.489802 -3.013624,-2.601648 -4.427734,-1.1875 -0.137439,0.137436 -0.257112,0.239154 -0.384766,0.357422 0.04183,0.09735 0.08218,0.1959 0.09961,0.300781 0.02646,0.157606 0.02241,0.314332 -0.002,0.472656 -0.02645,0.1663 -0.06655,0.329878 -0.164062,0.470704 -0.102047,0.136047 -0.220352,0.260665 -0.361328,0.357421 -0.149669,0.09978 -0.310722,0.178244 -0.490234,0.205079 -0.169323,0.01512 -0.338906,0.0033 -0.507813,-0.01563 -0.177638,-0.02268 -0.352854,-0.06201 -0.519531,-0.128906 -0.165166,-0.0669 -0.333195,-0.126654 -0.490235,-0.210937 C 35.308767,15.495972 35.1661,15.431745 35.031209,15.353509 34.919713,15.283589 34.808594,15.21388 34.693318,15.150384 34.570363,15.084618 34.445417,15.020272 34.332031,14.9375 34.18274,14.84793 34.044306,14.745187 33.929688,14.613281 33.832178,14.508588 33.730071,14.409256 33.625,14.3125 c -0.104693,-0.102803 -0.207302,-0.210202 -0.308594,-0.316406 -0.07001,-0.07172 -0.134004,-0.148706 -0.199218,-0.22461 -0.06722,-0.03077 -0.135446,-0.07465 -0.205079,-0.148437 -0.05405,-0.05745 -0.108881,-0.115182 -0.164062,-0.171875 -0.104693,-0.102803 -0.205157,-0.211842 -0.289063,-0.332031 -0.07748,-0.115654 -0.161688,-0.228912 -0.265625,-0.322266 -0.110362,-0.102047 -0.225011,-0.194458 -0.353515,-0.273437 -0.146268,-0.09373 -0.300835,-0.174917 -0.449219,-0.265626 -0.157984,-0.110349 -0.317262,-0.221675 -0.445313,-0.367187 -0.105057,-0.11074 -0.216751,-0.217387 -0.308593,-0.339844 -0.130899,-0.174614 -0.149089,-0.327508 -0.109375,-0.439453 -0.05571,-0.09715 -0.103248,-0.198332 -0.128906,-0.30664 -0.09427,-0.05072 -0.179916,-0.157054 -0.226563,-0.333985 -0.0076,-0.02268 -0.01002,-0.04918 -0.01758,-0.07226 -0.03024,-0.1663 -0.03868,-0.334886 -0.02734,-0.5039068 0.01134,-0.1904845 0.02294,-0.3828723 0.07813,-0.5664062 0.07408,-0.1957795 0.187197,-0.3502476 0.38086,-0.4414062 0.153412,-0.058961 0.308586,-0.082595 0.472656,-0.064453 0.130771,0.00378 0.26042,0.014052 0.390625,0.025391 0.08466,0.00756 0.167669,0.018503 0.251953,-0.00195 0.02646,-0.00378 0.06169,-0.00259 0.08398,-0.021484 0.07219,-0.085417 0.133648,-0.1802689 0.216797,-0.2558594 0.09978,-0.097134 0.211277,-0.1789427 0.337891,-0.2382813 0.08844,-0.048378 0.177184,-0.0942 0.265625,-0.1425781 0.106204,-0.111874 0.219589,-0.2166289 0.326172,-0.328125 0.09789,-0.1088504 0.196147,-0.2192768 0.279297,-0.3398438 0.08315,-0.1194294 0.161491,-0.2411413 0.224609,-0.3730468 0.06803,-0.1254803 0.111151,-0.2629148 0.175781,-0.390625 0.04215,-0.083681 0.08037,-0.1689477 0.119141,-0.2539063 -0.08734,-0.060616 -0.164258,-0.1703249 -0.199219,-0.3457031 -0.02268,-0.1114961 -0.0482,-0.2213545 -0.06445,-0.3339844 -0.0047,-0.0812 -0.0051,-0.1627014 -0.0059,-0.2441406 C 32.801752,5.0523377 32.154319,4.4901475 31.634766,3.9316406 30.301386,2.4982926 28.629717,1.3261637 27.919922,1.3261721 Z m -0.511719,0.8007812 c 0.06065,-0.00736 0.13081,-0.00468 0.207031,0.00781 h 0.002 c 0.154272,0.026587 0.302823,0.081663 0.445312,0.1445313 0.17537,0.089953 0.328985,0.2135441 0.480469,0.3378906 0.117543,0.1062047 0.232822,0.215305 0.349609,0.3222656 0.112252,0.1156536 0.236163,0.2163755 0.359375,0.3203125 0.128882,0.1171654 0.274207,0.2157463 0.410156,0.3242188 0.128504,0.091843 0.235656,0.2065487 0.34375,0.3203125 0.0771,0.098646 0.167104,0.1853136 0.257813,0.2714843 0.124724,0.1266142 0.254118,0.2482981 0.376953,0.3769532 0.120945,0.1209449 0.237043,0.2460572 0.351563,0.3730468 0.03308,0.039231 0.06005,0.08286 0.0918,0.1230469 0.0038,2.151e-4 0.006,-0.00228 0.0098,-0.00195 0.101423,0.00864 0.21973,0.056593 0.339844,0.15625 v 0.00195 c 0.106582,0.088063 0.198227,0.1938206 0.285156,0.3007813 0.09978,0.1337953 0.201441,0.2651224 0.291016,0.40625 0.07106,0.103559 0.142525,0.2057294 0.199218,0.3183594 0.04536,0.078614 0.10195,0.1502794 0.148438,0.2285156 0.114142,0.2112756 0.120951,0.3705689 0.0332,0.59375 -0.04724,0.092976 -0.122494,0.1596648 -0.199219,0.2265625 -0.08728,0.075877 -0.171964,0.1216055 -0.25,0.1425781 -0.01191,0.222247 -0.278007,0.3558303 -0.605468,0.1171875 -0.0635,-0.04611 -0.0266,-0.018723 -0.109376,-0.076172 C 31.089701,7.3646469 30.943113,7.2790824 30.837891,7.1445312 30.77881,7.0689263 30.741309,6.9966257 30.71875,6.9296875 30.301073,6.5776111 29.736051,5.9870444 28.964844,5.0761719 L 27.416016,3.2480469 C 27.302313,3.1585834 27.191523,3.0659476 27.076172,2.9785156 26.702424,2.695618 26.781844,2.334592 27.0625,2.3203125 c 0.0193,-9.82e-4 0.04337,0.00733 0.06445,0.00977 0.03951,-0.097606 0.121204,-0.1837056 0.28125,-0.203125 z m 1.744141,1.8574219 c 0.04636,0.045352 0.09173,0.091795 0.140625,0.1347656 0.10885,0.075591 0.196527,0.1757356 0.291015,0.2675782 0.04865,0.055874 0.0999,0.1085838 0.150391,0.1621093 0.0027,-0.00184 0.007,-2.997e-4 0.0098,-0.00195 -0.06852,-0.066394 -0.137953,-0.1317222 -0.1973,-0.2070345 -0.08806,-0.093354 -0.175045,-0.1915488 -0.28125,-0.265625 -0.03746,-0.030419 -0.0748,-0.060868 -0.113281,-0.089844 z M 26.375,4.15625 c 0.0812,0.0052 0.162937,0.024325 0.244141,0.050781 0.164031,0.068032 0.286841,0.1957782 0.402343,0.3261719 0.09411,0.1190551 0.193565,0.2338313 0.28125,0.3574219 0.06917,0.1084724 0.136732,0.2180774 0.207032,0.3261719 0.06085,0.103937 0.126984,0.2031449 0.185546,0.3085937 0.04535,0.088819 0.09464,0.1752921 0.15625,0.2539063 0.0771,0.094488 0.15948,0.1861304 0.244141,0.2734375 0.100536,0.1031811 0.191885,0.2141711 0.287109,0.3222656 0.09449,0.1175433 0.194765,0.2307421 0.294922,0.34375 0.11641,0.1394646 0.230113,0.28144 0.347657,0.4199219 0.09524,0.1220787 0.193694,0.2417683 0.296875,0.3574219 0.10696,0.1239665 0.204023,0.2548399 0.289062,0.3945312 0.09902,0.1583622 0.128277,0.3343844 0.132813,0.5175781 -0.0038,0.1772599 -0.05224,0.3466546 -0.107422,0.5136719 -0.04913,0.1254803 -0.105729,0.247252 -0.148438,0.375 -0.04082,0.1371969 -0.07101,0.2763121 -0.0918,0.4179688 -0.02268,0.1693208 -0.02564,0.3414334 -0.0332,0.5117184 4.92e-4,0.130772 -0.0082,0.26061 -0.01953,0.390626 -0.0035,0.03579 -0.02029,0.05097 -0.02734,0.08203 0.01763,0.08563 0.03492,0.171269 0.06445,0.253906 0.0378,0.131528 0.09351,0.253236 0.15625,0.373047 0.02372,0.04957 0.05032,0.09678 0.07617,0.144531 0.04746,0.03951 0.09449,0.07469 0.140625,0.142578 l -0.002,0.002 c 0.08126,0.119811 0.138808,0.255621 0.189453,0.390625 0.05367,0.129638 0.101572,0.260371 0.148438,0.392579 0.06123,0.120928 0.130178,0.238446 0.191406,0.359374 0.04044,0.08882 0.09792,0.162879 0.164062,0.232422 0.08693,0.07295 0.174853,0.144167 0.263672,0.214844 0.117166,0.09524 0.225024,0.200877 0.330078,0.308594 0.104693,0.09184 0.202892,0.188842 0.300782,0.287109 0.09033,0.08617 0.180271,0.172522 0.267578,0.261719 0.09449,0.09676 0.199804,0.18317 0.298828,0.275391 0.122835,0.113385 0.240838,0.230366 0.351562,0.355468 0.09487,0.107339 0.199366,0.204655 0.308594,0.296875 0.09676,0.09033 0.199239,0.174537 0.304688,0.253907 0.117165,0.09713 0.223561,0.206671 0.34375,0.300781 0.108472,0.09335 0.223434,0.175041 0.339844,0.257812 0.123196,0.08542 0.241012,0.179328 0.357421,0.273438 0.108095,0.08353 0.216629,0.168299 0.328125,0.248047 0.09186,0.06744 0.184876,0.132059 0.279297,0.195312 0.0753,0.02218 0.149891,0.04688 0.226563,0.06445 0.157606,0.02268 0.311773,0.05923 0.464844,0.101563 0.144367,0.03779 0.293324,0.0516 0.441406,0.06445 0.135307,0.01134 0.270678,0.01367 0.40625,0.01367 0.127748,0.0022 0.255102,0.0035 0.382812,0.0039 0.130772,3.78e-4 0.263722,-7.5e-5 0.394532,0 0.138698,3.8e-5 0.277458,-3.8e-5 0.416015,0 0.117543,7.56e-4 0.232832,0.0052 0.349609,-0.0098 0.07899,-0.0038 0.151538,-0.03019 0.220704,-0.06836 0.08504,-0.05745 0.148136,-0.144986 0.220703,-0.216797 0.111118,-0.09392 0.217897,-0.143557 0.330078,-0.158203 0.112181,-0.01465 0.229517,0.0069 0.361328,0.05664 0.151937,0.08202 0.283376,0.194454 0.400391,0.320312 0.096,0.09638 0.168993,0.209697 0.257812,0.3125 0.0669,0.08995 0.146122,0.169306 0.228516,0.244141 0.08088,0.06009 0.148641,0.133833 0.224609,0.199219 0.07824,0.07824 0.166977,0.148397 0.253906,0.216796 0.09902,0.08126 0.209824,0.144545 0.316407,0.214844 0.141732,0.0926 0.265675,0.208249 0.396484,0.314453 0.14211,0.113764 0.257267,0.254183 0.382812,0.384766 0.08957,0.09865 0.182351,0.193882 0.273438,0.291016 0.08617,0.100535 0.173917,0.200309 0.257812,0.302734 0.08806,0.0771 0.17107,0.152047 0.240235,0.248047 0.06954,0.109228 0.09565,0.234587 0.128906,0.357422 0.03024,0.07672 0.01551,0.176046 0.07031,0.242187 0.104315,0.140599 0.125828,0.328217 0.0332,0.482422 -0.02268,0.04044 -0.06358,0.06912 -0.0957,0.103516 -0.147402,0.104315 -0.322047,0.116748 -0.496094,0.126953 -0.166299,-0.0038 -0.325497,0.03762 -0.488281,0.06445 -0.193134,0.02646 -0.386945,0.05016 -0.580079,0.07813 -0.178383,0.0189 -0.355829,0.04732 -0.533203,0.07227 -0.152315,0.03402 -0.304137,0.06194 -0.458984,0.08008 -0.180283,0.0189 -0.362081,0.02161 -0.542969,0.02539 -0.182929,0.0076 -0.364815,-0.01418 -0.546875,-0.0293 -0.135685,-0.0076 -0.268331,-0.03932 -0.402343,-0.05859 -0.123213,-0.03024 -0.246811,-0.05393 -0.373047,-0.06641 -0.16441,-0.01134 -0.329026,-0.01443 -0.492188,-0.03711 -0.155716,-0.01134 -0.303569,-0.05885 -0.453125,-0.101562 -0.126236,-0.03402 -0.248827,-0.07429 -0.376953,-0.09961 -0.149669,-0.03024 -0.29316,-0.08368 -0.4375,-0.132812 -0.14022,-0.04309 -0.285145,-0.07057 -0.425781,-0.113282 -0.147402,-0.05367 -0.299046,-0.09382 -0.451172,-0.130859 -0.158362,-0.05065 -0.31621,-0.09779 -0.47461,-0.148437 -0.138698,-0.03402 -0.278566,-0.06724 -0.414062,-0.115235 -0.170457,-0.0548 -0.328911,-0.132513 -0.486328,-0.216797 -0.150803,-0.07332 -0.293411,-0.162441 -0.433594,-0.253906 -0.113386,-0.08806 -0.232452,-0.168113 -0.33789,-0.265625 -0.0378,-0.03402 -0.07234,-0.06792 -0.109376,-0.101562 -0.161246,-0.148235 -0.203269,-0.295614 -0.18164,-0.41211 -0.03172,-0.03149 -0.0651,-0.06143 -0.0918,-0.09766 -0.09978,-0.112252 -0.194196,-0.229672 -0.289063,-0.345703 -0.09335,-0.116788 -0.212469,-0.210643 -0.316406,-0.31836 -0.07181,-0.06803 -0.142593,-0.137422 -0.224609,-0.193359 -0.141243,-0.09579 -0.202631,-0.201725 -0.232422,-0.302734 -0.05382,-0.04193 -0.107241,-0.08433 -0.164063,-0.123047 -0.133018,-0.09638 -0.261983,-0.200119 -0.394531,-0.296875 -0.108472,-0.09109 -0.212786,-0.184492 -0.326172,-0.269531 -0.127748,-0.096 -0.263644,-0.182102 -0.382812,-0.289063 -0.112252,-0.101291 -0.214737,-0.211967 -0.316406,-0.324219 -0.117166,-0.107716 -0.244414,-0.204154 -0.357422,-0.316406 -0.108095,-0.108094 -0.228409,-0.205415 -0.330078,-0.320312 -0.09789,-0.09902 -0.195899,-0.197032 -0.294922,-0.294922 -0.09411,-0.09978 -0.189725,-0.196086 -0.291016,-0.289063 -0.107716,-0.10885 -0.216941,-0.216882 -0.314453,-0.335937 -0.101291,-0.117922 -0.208119,-0.233139 -0.298828,-0.359375 -0.0926,-0.128126 -0.179703,-0.259623 -0.261719,-0.394531 -0.08164,-0.120567 -0.157587,-0.242464 -0.232422,-0.367188 -0.08504,-0.134551 -0.15116,-0.27916 -0.220703,-0.421875 -0.06841,-0.161764 -0.1293,-0.326252 -0.210937,-0.482422 -0.07143,-0.154205 -0.139629,-0.311408 -0.203125,-0.46875 -0.06123,-0.152693 -0.11329,-0.30885 -0.160157,-0.466797 -0.03024,-0.117921 -0.05797,-0.23616 -0.109375,-0.347656 -0.07521,-0.162142 -0.147566,-0.327968 -0.203125,-0.498047 -0.04077,-0.133752 -0.102073,-0.257913 -0.140625,-0.392578 -0.04082,-0.118299 -0.07756,-0.237674 -0.107422,-0.359375 C 26.094658,9.9817118 26.048756,9.8701891 26,9.7617188 25.958047,9.655514 25.924763,9.5462259 25.871094,9.4453125 25.821204,9.3262574 25.782694,9.2024081 25.755859,9.0761719 25.713151,8.923101 25.680887,8.7699293 25.693359,8.609375 c 0,-0.151937 -3.7e-5,-0.3028766 0,-0.4550781 0,-0.1530709 -1.51e-4,-0.3059513 0,-0.4589844 1.52e-4,-0.1341732 0.0011,-0.2683616 0.002,-0.4023437 0.0012,-0.152315 0.0031,-0.3046785 0.0078,-0.4570313 0.0076,-0.176126 0.01053,-0.3540024 0.0332,-0.5292969 0.02268,-0.1538267 0.04914,-0.3055989 0.05859,-0.4609375 0.0036,-0.030884 0.01122,-0.061283 0.01758,-0.091797 -0.06086,-0.088853 -0.05718,-0.1963227 0.0098,-0.2890624 -0.0032,-0.1264353 -0.0039,-0.2524243 -0.0039,-0.3789063 -2.64e-4,-0.136063 -0.0035,-0.2721401 0.0078,-0.4082031 0.01512,-0.1542047 0.06851,-0.3126333 0.189453,-0.4179688 0.03402,-0.030236 0.07511,-0.045682 0.113281,-0.068359 0.08258,-0.032126 0.164896,-0.040353 0.246094,-0.035156 z m 9.732422,0.1757812 c -0.900453,0.041913 -1.548828,0.3560478 -1.548828,0.9941407 0,0.027418 0.01167,0.0532 0.01563,0.080078 h 0.246093 c 0.204851,9.827e-4 0.41046,-0.00353 0.615235,0.00781 0.202961,0.015118 0.406301,0.030055 0.609375,0.041016 0.227149,0.00756 0.448694,0.056018 0.671875,0.095703 0.257008,0.047244 0.512637,0.1035879 0.769531,0.1523438 0.209008,0.054803 0.416067,0.1200365 0.619141,0.1933594 0.161386,0.063496 0.315039,0.1443522 0.480469,0.1972656 0.145851,0.043087 0.293537,0.077819 0.4375,0.1269531 0.174954,0.054803 0.32911,0.1542535 0.478515,0.2578125 0.167811,0.1186772 0.318601,0.2565174 0.460938,0.4042969 0.129259,0.1364409 0.241576,0.2855519 0.339843,0.4453125 0.08769,0.1424882 0.163069,0.2899728 0.238282,0.4394531 0.08277,0.1757481 0.160676,0.353032 0.246093,0.5273438 0.07597,0.1549606 0.149583,0.3117533 0.207032,0.4746093 0.0378,0.1118741 0.06459,0.2289769 0.115234,0.3359376 0.06916,0.1398387 0.109506,0.2885621 0.136719,0.4414062 0.01134,0.1723465 0.0436,0.3399363 0.07422,0.5097663 0.0446,0.201448 0.08418,0.403063 0.113282,0.607421 0.02268,0.165166 0.02955,0.331484 0.03711,0.498047 -0.0027,0.138331 0.01223,0.275366 0.02734,0.41211 0.01512,0.139842 0.04795,0.276853 0.06836,0.416015 0.02868,0.106461 0.04882,0.21528 0.06641,0.324219 1.50388,-0.136124 1.051335,-4.1934293 -0.728515,-6.1601564 C 39.81252,4.9483221 37.608176,4.2621768 36.107422,4.3320312 Z M 34.25,6.8886719 c -0.0015,0.00316 -0.0024,0.0066 -0.0039,0.00977 0.0047,-0.00168 0.009,-0.00411 0.01367,-0.00586 -0.0038,-0.00126 -0.006,-0.00261 -0.0098,-0.00391 z m 1.679688,0.4746093 c -0.138331,2.646e-4 -0.275506,8.429e-4 -0.414063,0.00195 -0.164031,0.00159 -0.328112,0.00397 -0.492187,0.011719 -0.127371,0.00756 -0.256891,0.010843 -0.38086,0.042969 -0.122079,0.034016 -0.242397,0.072403 -0.353516,0.1347656 -0.161291,0.090643 -0.2979,0.1008265 -0.402343,0.070312 -0.01733,0.026682 -0.0318,0.055171 -0.04883,0.082031 0.07357,0.076499 0.127208,0.1981577 0.128906,0.3769532 9.07e-4,0.095244 0.02584,0.1917385 0.05078,0.2832031 0.04762,0.1364409 0.103022,0.2690053 0.158203,0.4023437 0.01652,0.033511 0.03417,0.066292 0.05078,0.099609 0.224282,0.015816 0.44702,0.088975 0.673829,0.1894532 0.118299,-0.06085 0.246118,-0.097095 0.375,-0.1269532 0.154204,-0.034016 0.31171,-0.042841 0.46875,-0.039063 0.149291,0.0037 0.293525,0.041147 0.439453,0.068359 0.166299,0.034016 0.3245,0.090235 0.478515,0.1601563 0.135685,0.05896 0.258693,0.1448613 0.382813,0.2246093 0.119433,0.082772 0.218075,0.1907367 0.314453,0.2988281 0.09373,0.1213229 0.180079,0.2498999 0.25,0.3867185 0.07106,0.14778 0.09949,0.307515 0.119141,0.46875 0.01512,0.139843 0.01966,0.281541 0.02344,0.421875 -0.006,0.133676 -0.02499,0.266174 -0.04492,0.398437 0.690646,0.514694 1.28214,0.795722 1.513672,0.652344 -0.006,-0.03827 -0.01561,-0.07254 -0.01563,-0.117187 v -0.05859 c -7.5e-5,-0.126614 3.4e-4,-0.252141 0,-0.378906 -4.53e-4,-0.128504 -0.0017,-0.258328 -0.0039,-0.386719 -0.0026,-0.132283 -0.0061,-0.264352 -0.01367,-0.396484 -0.01134,-0.116788 -0.02748,-0.234207 -0.06641,-0.345704 -0.04724,-0.138676 -0.09867,-0.275266 -0.140625,-0.4160148 -0.06009,-0.1477796 -0.124633,-0.2935134 -0.183594,-0.4414063 -0.02911,-0.078547 -0.06039,-0.1561133 -0.08984,-0.234375 -0.591064,-0.7368381 -1.424275,-1.4148105 -2.373047,-1.78125 -0.02884,-0.01114 -0.06786,-0.036333 -0.09766,-0.048828 -0.101831,-0.00607 -0.204762,2.72e-4 -0.30664,-0.00391 z m -7.738282,5.9863278 c -0.01404,0.0022 -0.04333,0.0148 -0.05859,0.01758 0.03687,0.05927 0.07193,0.119561 0.111329,0.177734 0.04913,0.08025 0.103591,0.156683 0.15625,0.234375 -0.03586,-0.06838 -0.07615,-0.134429 -0.107422,-0.205078 -0.0367,-0.0736 -0.0681,-0.149787 -0.101563,-0.22461 z m 11.794922,0.451172 c 0.129683,0.0083 0.220415,0.101178 0.222656,0.244141 0.02343,0.02418 0.04767,0.04173 0.07031,0.07227 0.03402,0.04762 0.01796,0.02269 0.05273,0.07031 0.07937,0.0892 0.163639,0.1717 0.25586,0.248047 0.12359,0.09411 0.255261,0.172961 0.388671,0.251953 0.126993,0.07975 0.253551,0.161749 0.371094,0.255859 0.151559,0.111496 0.294995,0.233811 0.416016,0.378907 0.105827,0.122834 0.216624,0.241822 0.304687,0.378906 0.08474,0.132574 0.170122,0.266502 0.25,0.402344 0.170857,-0.07213 0.323137,0.06119 0.427735,0.167968 0.115653,0.136441 0.213411,0.284065 0.298828,0.441407 0.05018,0.09739 0.10262,0.19399 0.154297,0.291015 0.105693,0.06032 0.21275,0.118292 0.314453,0.185547 0.139464,0.09411 0.274847,0.196405 0.398437,0.310547 0.123969,0.120567 0.228346,0.255886 0.328125,0.396484 0.117544,0.164788 0.228722,0.334732 0.316407,0.517578 0.08957,0.213544 0.175455,0.431005 0.11914,0.666016 -0.05594,0.192756 -0.143175,0.378654 -0.300781,0.509766 -0.178016,0.109984 -0.369962,0.174394 -0.582031,0.167968 -0.222992,0.0017 -0.44618,-0.0082 -0.632813,-0.146484 -0.115653,-0.104693 -0.206352,-0.228857 -0.279297,-0.367187 -0.04702,-0.09373 -0.08803,-0.189919 -0.126953,-0.28711 -0.202544,-0.167642 -0.430017,-0.373421 -0.716797,-0.675781 -0.06148,-0.04161 -0.124384,-0.08126 -0.18164,-0.128906 -0.111496,-0.09865 -0.220155,-0.19861 -0.320313,-0.308594 -0.108094,-0.126992 -0.226202,-0.248048 -0.320312,-0.386719 -0.07937,-0.116409 -0.165151,-0.228599 -0.25586,-0.335937 -0.08844,-0.109607 -0.164204,-0.226773 -0.25,-0.337891 -0.09411,-0.11074 -0.185754,-0.223873 -0.285156,-0.330078 -0.103559,-0.08428 -0.211084,-0.161179 -0.320312,-0.238281 -0.126993,-0.08731 -0.257394,-0.170635 -0.373047,-0.273438 -0.123591,-0.09751 -0.263377,-0.175054 -0.371094,-0.292968 -0.123969,-0.122079 -0.245412,-0.251557 -0.306641,-0.417969 -0.07068,-0.19767 -0.107406,-0.399925 -0.02539,-0.601563 0.08353,-0.154582 0.172531,-0.240505 0.308594,-0.341797 0.07446,-0.0771 0.145237,-0.154753 0.21289,-0.238281 0.146891,-0.182636 0.309998,-0.256183 0.4375,-0.248047 z m -1.433594,4.263672 c -0.01472,9.66e-4 -0.03039,2.85e-4 -0.04492,0.002 -0.02211,9.21e-4 -0.04428,-6.74e-4 -0.06641,0 0.03987,0.01523 0.07967,0.03171 0.119141,0.04883 7.08e-4,-0.01738 -0.01035,-0.03319 -0.0078,-0.05078 z m -3.121093,1.251953 c -0.0016,0.0026 -0.0022,0.0052 -0.0039,0.0078 0.01617,0.0055 0.0326,0.01036 0.04883,0.01563 -0.01483,-0.0074 -0.03009,-0.01599 -0.04492,-0.02344 z"
       inkscape:connector-curvature="0" />
  </g>
</svg>
