<?xml version="1.0" encoding="UTF-8" standalone="no"?>
<!-- Created with Inkscape (http://www.inkscape.org/) -->

<svg
   xmlns:dc="http://purl.org/dc/elements/1.1/"
   xmlns:cc="http://creativecommons.org/ns#"
   xmlns:rdf="http://www.w3.org/1999/02/22-rdf-syntax-ns#"
   xmlns:svg="http://www.w3.org/2000/svg"
   xmlns="http://www.w3.org/2000/svg"
   xmlns:sodipodi="http://sodipodi.sourceforge.net/DTD/sodipodi-0.dtd"
   xmlns:inkscape="http://www.inkscape.org/namespaces/inkscape"
   version="1.1"
   id="svg10"
   width="21.824516"
   height="21.914068"
   viewBox="0 0 21.824516 21.914068"
   sodipodi:docname="search.svg"
   inkscape:version="0.92.1 r15371">
  <metadata
     id="metadata16">
    <rdf:RDF>
      <cc:Work
         rdf:about="">
        <dc:format>image/svg+xml</dc:format>
        <dc:type
           rdf:resource="http://purl.org/dc/dcmitype/StillImage" />
        <dc:title></dc:title>
      </cc:Work>
    </rdf:RDF>
  </metadata>
  <defs
     id="defs14" />
  <sodipodi:namedview
     pagecolor="#ffffff"
     bordercolor="#666666"
     borderopacity="1"
     objecttolerance="10"
     gridtolerance="10"
     guidetolerance="10"
     inkscape:pageopacity="0"
     inkscape:pageshadow="2"
     inkscape:window-width="1600"
     inkscape:window-height="838"
     id="namedview12"
     showgrid="false"
     fit-margin-top="0"
     fit-margin-left="0"
     fit-margin-right="0"
     fit-margin-bottom="0"
     inkscape:zoom="9.8333333"
     inkscape:cx="-17.997989"
     inkscape:cy="12.439491"
     inkscape:window-x="-8"
     inkscape:window-y="-8"
     inkscape:window-maximized="1"
     inkscape:current-layer="svg10" />
  <g
     id="g20"
     transform="translate(-0.81154835,-1)">
    <path
       style="fill:#5a6bea"
       d="M 17.97107,20.469205 C 15.922099,18.288176 15.024513,18.023738 11.476404,18.555809 7.9653364,19.082326 6.8912506,18.779373 4.1796481,16.49771 -2.3920533,10.967988 1.2651333,1 9.8656518,1 c 3.2237952,0 4.4554192,0.5928599 6.6501452,3.2011426 2.257936,2.6834049 2.605235,3.8559855 2.147328,7.2500004 -0.458832,3.400866 -0.138018,4.47597 2.004548,6.717597 1.402942,1.467806 2.250089,3.155306 1.882549,3.75 -1.00911,1.632773 -1.968901,1.32895 -4.579152,-1.449535 z M 14.428571,14.428571 C 15.292857,13.564286 16,11.339803 16,9.4852754 16,3.6571714 9.1400067,0.85999326 5,5 0.85999326,9.1400067 3.6571714,16 9.4852754,16 11.339803,16 13.564286,15.292857 14.428571,14.428571 Z"
       id="path22"
       inkscape:connector-curvature="0" />
  </g>
</svg>
