<?xml version="1.0" encoding="UTF-8" standalone="no"?>
<!-- Created with Inkscape (http://www.inkscape.org/) -->

<svg
   xmlns:dc="http://purl.org/dc/elements/1.1/"
   xmlns:cc="http://creativecommons.org/ns#"
   xmlns:rdf="http://www.w3.org/1999/02/22-rdf-syntax-ns#"
   xmlns:svg="http://www.w3.org/2000/svg"
   xmlns="http://www.w3.org/2000/svg"
   xmlns:sodipodi="http://sodipodi.sourceforge.net/DTD/sodipodi-0.dtd"
   xmlns:inkscape="http://www.inkscape.org/namespaces/inkscape"
   version="1.1"
   id="svg10"
   width="33.263714"
   height="33.263763"
   viewBox="0 0 33.263713 33.263764"
   sodipodi:docname="sleep.svg"
   inkscape:version="0.92.1 r15371">
  <metadata
     id="metadata16">
    <rdf:RDF>
      <cc:Work
         rdf:about="">
        <dc:format>image/svg+xml</dc:format>
        <dc:type
           rdf:resource="http://purl.org/dc/dcmitype/StillImage" />
        <dc:title></dc:title>
      </cc:Work>
    </rdf:RDF>
  </metadata>
  <defs
     id="defs14" />
  <sodipodi:namedview
     pagecolor="#ffffff"
     bordercolor="#666666"
     borderopacity="1"
     objecttolerance="10"
     gridtolerance="10"
     guidetolerance="10"
     inkscape:pageopacity="0"
     inkscape:pageshadow="2"
     inkscape:window-width="1600"
     inkscape:window-height="838"
     id="namedview12"
     showgrid="false"
     fit-margin-top="0"
     fit-margin-left="0"
     fit-margin-right="0"
     fit-margin-bottom="0"
     inkscape:zoom="9.8333333"
     inkscape:cx="-9.6768259"
     inkscape:cy="13.874619"
     inkscape:window-x="-8"
     inkscape:window-y="-8"
     inkscape:window-maximized="1"
     inkscape:current-layer="svg10"
     inkscape:pagecheckerboard="true" />
  <path
     id="path125"
     style="fill:#fefefe"
     d="m 16.763672,0 c -1.290803,0 -2.472617,0.04549769 -3.574219,0.13476562 -0.0061,0.23873845 -0.222959,0.48560711 -0.691406,0.53320313 -0.242073,0.0245956 -0.482751,0.0605945 -0.724609,0.0859375 -0.170114,0.0178938 -0.341105,0.0409348 -0.503907,0.0957031 -0.209321,0.0699741 -0.419467,0.13799634 -0.625,0.21875002 -0.19464,0.056879 -0.389594,0.1066428 -0.574219,0.1933594 -0.2006979,0.06848 -0.4042143,0.130299 -0.6132808,0.1679687 -0.2109696,0.049451 -0.4240515,0.076416 -0.6347656,0.1269531 -0.1450202,0.036906 -0.2884565,0.079613 -0.4316406,0.1230469 -0.00777,0.00397 -0.015697,0.0077 -0.023437,0.011719 -0.015244,0.010868 -0.034702,0.014107 -0.050781,0.023438 -0.025183,0.042583 -0.047275,0.07943 -0.09375,0.1503906 C 8.0407569,2.0549485 7.8325938,2.2094514 7.6171875,2.359375 7.4429709,2.4849874 7.264137,2.6045967 7.0859375,2.7246094 6.8456563,2.909242 6.6130485,3.1026384 6.3789062,3.2949219 6.1310689,3.5078954 5.8937705,3.7343532 5.6640625,3.9667969 5.4790951,4.161174 5.281538,4.3436555 5.0976562,4.5390625 4.9734372,4.7055442 4.840593,4.8677205 4.7285156,5.0429688 4.6140045,5.2369395 4.5046229,5.4335522 4.3789062,5.6210938 4.2343768,5.8112591 4.1011622,6.0092505 3.9589844,6.2011719 3.8233302,6.3661706 3.6877353,6.5321725 3.5410156,6.6875 3.4068912,6.8303742 3.2698826,6.971227 3.1289062,7.1074219 3.0732188,7.1644254 3.0143252,7.2182626 2.9550781,7.2714844 2.9179932,7.3408884 2.8811449,7.4102013 2.8417969,7.4785156 2.7146063,7.7159758 2.5566106,7.936505 2.4257812,8.171875 2.2741847,8.4193012 2.1324741,8.6715564 2,8.9296875 1.8697844,9.2091963 1.7345346,9.487784 1.6132812,9.7714844 1.53261,9.999764 1.4568202,10.22782 1.3730469,10.455078 c -0.031224,0.103094 -0.061445,0.207166 -0.091797,0.310547 -0.00152,0.01452 -0.00445,0.0284 -0.00586,0.04297 -0.004,0.02168 -0.00642,0.02318 -0.00977,0.04101 -0.00101,0.0069 -0.00339,0.01922 -0.00586,0.03516 -0.00128,-1.99e-4 -0.00263,1.97e-4 -0.00391,0 -0.0101,0.04805 -0.026814,0.09542 -0.042969,0.111328 -0.00205,0.0071 -0.00381,0.01436 -0.00586,0.02148 -0.077552,0.202413 -0.1569919,0.404394 -0.2382812,0.605469 -0.0763086,0.182228 -0.16430553,0.358524 -0.23046875,0.544922 -0.0128387,0.04036 -0.0262328,0.08067 -0.0390625,0.121093 -0.0848754,0.605744 -0.15698773,1.247868 -0.22070313,1.910157 0.0493097,0.270093 0.0790046,0.542657 0.0976563,0.816406 0.0265096,0.274727 0.006674,0.553882 0.0351562,0.828125 0.0295104,0.209949 0.0533924,0.419518 0.0703125,0.630859 0.0154684,0.211677 0.0216339,0.424574 0.0253906,0.636719 0.003246,0.212465 0.003326,0.424234 0.003906,0.636719 -0.0102345,0.204786 0.006309,0.406609 0.03125,0.609375 l 0.0117188,0.0957 C 0.78354794,18.685337 0.74770823,18.865274 0.6796875,19 c 0.0521276,0.214762 0.11440178,0.426625 0.16210938,0.642578 0.04413,0.23701 0.0470856,0.474196 0.0410156,0.714844 8.6e-5,0.203299 -4.78e-4,0.406076 0,0.609375 5.7e-4,0.202895 0.001006,0.406496 0.003906,0.609375 0.0034,0.201817 0.007404,0.404057 0.0214844,0.605469 4.09e-4,0.0052 0.001453,0.01041 0.001953,0.01563 0.05508,0.100693 0.11121375,0.200777 0.15234375,0.308593 0.09041,0.227915 0.1835206,0.457314 0.2441406,0.695313 0.03331,0.186184 0.057048,0.374736 0.080078,0.5625 0.09659,0.199418 0.1679919,0.406867 0.203125,0.626953 0.0572,0.214808 0.1215197,0.426916 0.1679687,0.644531 0.04383,0.251382 0.045573,0.503101 0.039063,0.757813 -0.0011,0.227097 -0.00357,0.454614 -0.00977,0.68164 -0.0075,0.224567 -0.017091,0.449419 -0.050781,0.671875 -0.04212,0.248242 -0.1030592,0.492245 -0.2070312,0.722657 -0.09488,0.22614 -0.1831309,0.45403 -0.2792969,0.679687 -0.08896,0.236972 -0.1643368,0.479167 -0.26171875,0.712891 -0.02423,0.05671 -0.0465494,0.114155 -0.0683594,0.171875 -0.01537,0.03454 -0.0156161,0.0637 -0.0351563,0.09961 -0.07735,0.142187 -0.10903512,0.302284 -0.15820312,0.455078 -0.06808,0.185774 -0.0982699,0.381234 -0.13867188,0.574219 -0.0408,0.216946 -0.11087749,0.426881 -0.1484375,0.644531 -0.06915,0.246253 -0.14958837,0.489318 -0.24023437,0.728516 -0.0542,0.193414 -0.12577725,0.380469 -0.19140625,0.570312 v 0.002 L 0,33.263672 l 0.3359375,-0.0039 c 0.01061,-0.05905 0.006103,-0.11029 0.0332031,-0.177735 0.02973,-0.0741 0.10511313,-0.120056 0.15820313,-0.179687 0.186657,-0.122001 0.38982565,-0.199826 0.60156245,-0.267578 0.180693,-0.07195 0.3585194,-0.149747 0.5371094,-0.226563 0.220671,-0.08303 0.4453914,-0.151484 0.6777344,-0.193359 0.161257,-0.0202 0.3237771,-0.02706 0.4863281,-0.0293 0.0066,-0.0081 0.00869,-0.01739 0.015625,-0.02539 0.08348,-0.09574 0.2218824,-0.133477 0.3339844,-0.175781 0.167098,-0.05215 0.3359656,-0.06439 0.5097656,-0.06055 0.06927,0.0015 0.1124359,0.02496 0.1699219,0.03711 0.08893,-0.0019 0.188189,0.01274 0.296875,0.04102 0.0204,-0.0025 0.056291,-0.0065 0.056641,-0.0059 0.0045,0.0087 0.0075,0.01342 0.011719,0.02148 0.01533,0.0048 0.027299,0.0043 0.042969,0.0098 0.08666,0.03035 0.176424,0.05181 0.265625,0.07422 0.139305,-0.04482 0.2786148,-0.08967 0.4179688,-0.134765 0.0022,-0.001 0.00161,-6.73e-4 0.00391,-0.002 0.02465,-0.01147 0.044549,-0.01197 0.068359,-0.02148 0.08642,-0.0346 0.1717689,-0.06672 0.2480469,-0.07813 0.0029,-4.28e-4 0.00501,3.98e-4 0.00781,0 0.149762,-0.04349 0.3002356,-0.08472 0.4472656,-0.136718 0.255474,-0.07449 0.5167561,-0.122513 0.7832031,-0.121094 0.0351,-0.03496 0.068391,-0.0722 0.109375,-0.09961 0.147608,-0.09872 0.3155418,-0.140682 0.4804688,-0.132812 0.164927,0.0079 0.327537,0.06645 0.46875,0.166016 0.04874,0.04621 0.1056144,0.08537 0.1464844,0.138672 0.03326,0.04338 0.050109,0.09474 0.074219,0.142578 0.06601,0.01562 0.1315026,0.03412 0.1972656,0.05078 0.0095,-0.01096 0.015651,-0.02442 0.025391,-0.03516 0.03069,-0.03384 0.07691,0.03283 0.1152343,0.06836 0.01233,0.0034 0.024799,0.0063 0.037109,0.0098 0.384674,0.08757 0.7610386,0.202156 1.1347656,0.328125 0.433145,0.158093 0.8720459,0.308909 1.2929689,0.498047 0.03478,0.01463 0.314544,0.143397 0.457031,0.21875 0.03376,0.0028 0.06235,0.0072 0.05664,0.02734 l 0.002,0.002 c 0.01179,0.0077 0.06749,0.02837 0.06641,0.03125 -0.01575,0.04203 -0.04053,0.08011 -0.05859,0.121094 l 1.015625,-0.01172 c 4.010501,-0.04369 7.278605,-0.262481 9.96875,-0.728515 0.229033,-0.102163 0.459673,-0.201485 0.691407,-0.296875 0.289968,-0.136617 0.599475,-0.219993 0.896484,-0.337891 0,0 0.002,-0.002 0.002,-0.002 0.215865,-0.133777 0.416833,-0.289887 0.632813,-0.423828 0.275383,-0.156768 0.558407,-0.302006 0.845703,-0.435547 0.342759,-0.14975 0.674343,-0.321293 1.009765,-0.486328 0.389514,-0.169076 0.75644,-0.382822 1.128907,-0.585938 0.227033,-0.132741 0.457032,-0.262789 0.669921,-0.417968 0.133487,-0.110627 0.265662,-0.220928 0.386719,-0.345704 0.133942,-0.117035 0.254305,-0.246357 0.361328,-0.388671 0.14779,-0.162542 0.291893,-0.328386 0.431641,-0.498047 0.125342,-0.157917 0.253821,-0.311875 0.353516,-0.488282 0.125545,-0.180447 0.265121,-0.35056 0.410156,-0.515624 0.15604,-0.171493 0.31106,-0.342242 0.46289,-0.517579 0.194907,-0.212061 0.383391,-0.431567 0.597657,-0.625 0.224941,-0.225264 0.468528,-0.42841 0.708984,-0.636718 0.053,-0.04327 0.105883,-0.08676 0.158203,-0.13086 0.01027,-0.02325 0.01906,-0.04705 0.0293,-0.07031 0.08121,-0.182529 0.142852,-0.373809 0.212891,-0.560547 0.0921,-0.142522 0.12575,-0.329874 0.240234,-0.458984 0.04529,-0.05108 0.09712,-0.09347 0.146484,-0.140626 0.0122,7.95e-4 0.02484,-5.04e-4 0.03711,0 0.523977,-2.055813 0.75,-4.525772 0.75,-7.539062 0,-1.634036 -0.09325,-3.116304 -0.269531,-4.480469 -0.026,-0.03607 -0.04836,-0.06574 -0.08398,-0.115234 -0.08336,-0.19519 -0.137863,-0.400698 -0.240234,-0.587891 C 32.579497,11.103185 32.475488,10.895949 32.375,10.6875 32.271993,10.494835 32.174356,10.298804 32.058594,10.113281 31.972905,9.9560828 31.899767,9.7929231 31.792969,9.6484375 31.693017,9.4724187 31.597835,9.293664 31.509766,9.1113281 31.429139,8.9340951 31.354496,8.7541735 31.285156,8.5722656 31.251036,8.4922611 31.212269,8.4139594 31.173828,8.3359375 31.158595,8.3105531 31.139935,8.2872853 31.125,8.2617188 30.996405,8.0475641 30.88294,7.8238775 30.777344,7.5976562 30.68245,7.4494198 30.592852,7.2979404 30.5,7.1484375 30.374022,6.950407 30.268214,6.7400169 30.150391,6.5371094 30.034384,6.3251123 29.931893,6.1074941 29.810547,5.8984375 29.717376,5.7179832 29.617989,5.5425599 29.490234,5.3828125 29.355476,5.179299 29.223023,4.9757762 29.052734,4.7988281 28.863292,4.5745246 28.676909,4.3466156 28.503906,4.109375 28.388096,3.9514305 28.262018,3.8094024 28.111328,3.6835938 27.961042,3.5619129 27.813615,3.4365987 27.662109,3.3164062 27.523475,3.1924063 27.389771,3.0651513 27.244141,2.9492188 27.065349,2.823232 26.877771,2.7099207 26.691406,2.5957031 26.461224,2.4555737 26.230146,2.3155541 26.005859,2.1660156 25.783994,2.0370636 25.547238,1.9390502 25.314453,1.8320312 25.076263,1.7176251 24.82812,1.6282499 24.583984,1.5273438 24.344426,1.4235946 24.090591,1.3547499 23.849609,1.2539062 23.632932,1.1611547 23.410146,1.0847658 23.203125,0.97070312 22.990289,0.86550514 22.782405,0.75162815 22.558594,0.66992188 22.287387,0.56603572 22.009741,0.49522875 21.730469,0.41601562 21.54733,0.36290845 21.364357,0.30789281 21.179688,0.25976562 19.833427,0.08925729 18.371251,0 16.763672,0 Z m 0.152344,2.5429688 c 3.289051,0.03392 6.679991,1.3206162 9.582031,4.2226562 10.318365,10.318364 0.228862,26.806381 -14.068359,22.990234 -2.211207,-0.590205 -5.1248039,-0.697903 -6.6933599,-0.248047 -2.666881,0.764853 -2.7453197,0.68446 -1.9804687,-1.982421 0.449856,-1.568557 0.3421581,-4.4802 -0.2480469,-6.691407 C 0.7649575,10.557859 8.5106604,2.4562854 16.916016,2.5429688 Z M 30.931641,5.609375 c 0.126054,0.2780385 0.256243,0.5549899 0.396484,0.8261719 0.104157,0.2242803 0.23492,0.4340531 0.333984,0.6601562 0.0021,0.0032 0.0038,0.00657 0.0059,0.00977 0.08625,0.1339461 0.160592,0.2742752 0.232422,0.4160156 C 31.625544,6.8281905 31.296774,6.1982673 30.931641,5.609375 Z M 21.179688,9.5 c -3.619266,0 -5.666606,0.853435 -5.376954,1.662109 0.08374,-0.02077 0.177484,-0.03516 0.285157,-0.03516 h 0.757812 0.833985 c 0.299285,-0.01069 0.596914,0.02292 0.894531,0.04883 0.252882,0.01178 0.502532,0.03974 0.751953,0.08203 0.213715,0.03552 0.42943,0.04383 0.642578,0.08203 0.07709,0.02239 0.156511,0.03054 0.234375,0.04883 0.13772,-0.02323 0.275726,-0.04007 0.414063,-0.05859 0.427219,-0.04782 0.857678,-0.06789 1.287109,-0.08203 0.366845,-0.01061 0.734588,-0.013 1.101562,-0.01563 0.08015,0.0123 0.606351,-0.05513 0.640625,0.05859 0.0856,0.284041 0.02478,0.59422 0.03711,0.890625 -0.163434,0.103799 -0.337242,0.18694 -0.503906,0.285156 -0.219713,0.138606 -0.46417,0.229728 -0.695313,0.345703 -0.218416,0.120662 -0.407715,0.284847 -0.595703,0.447266 -0.235475,0.227654 -0.454067,0.472679 -0.669922,0.71875 -0.01098,0.01313 -0.02223,0.02594 -0.0332,0.03906 -0.01458,0.02497 -0.02742,0.05075 -0.04102,0.07617 -0.101285,0.189398 -0.210022,0.372331 -0.320312,0.556641 -0.257618,0.434924 -0.549121,0.849738 -0.857422,1.25 -0.02345,0.02989 -0.05194,0.05484 -0.07617,0.08398 -0.01838,0.03284 -0.03865,0.06458 -0.05664,0.09766 -0.172237,0.318208 -0.370659,0.621837 -0.578125,0.917969 -0.167809,0.27373 -0.357123,0.531145 -0.544921,0.791016 -0.183041,0.238372 -0.386127,0.374495 -0.63086,0.353515 -0.02858,0.0681 -0.0556,0.136887 -0.08398,0.205078 -0.119601,0.272616 -0.222023,0.550939 -0.361328,0.814453 -0.05158,0.07747 -0.102246,0.190972 -0.16211,0.296876 0.0102,0.01988 0.0078,0.04513 0.02344,0.0625 0.01556,0.01504 0.03299,0.02823 0.04883,0.04297 0.134814,0.03953 0.266244,0.09015 0.402344,0.125 0.302492,0.07873 0.613118,0.113299 0.923828,0.138672 0.2807,0.02138 0.562379,0.02965 0.84375,0.03516 0.238924,0.0042 0.477845,0.0051 0.716797,0.0059 0.267106,7.32e-4 0.533678,-1.3e-4 0.800781,0 0.255885,10e-5 0.511693,0.0019 0.767578,0.002 0.229109,1.4e-5 0.458391,-2e-6 0.6875,0 h 0.746094 0.478515 c 0.07472,-0.01026 0.149929,-0.01682 0.22461,-0.02734 0.709992,-0.092 1.418483,-0.200891 2.125,-0.316406 0.03991,-0.0021 0.116266,0.0022 0.175781,0 0.19819,-0.160493 0.326172,-0.334613 0.326172,-0.529297 0,-0.961184 -0.965641,-1.5 -2.6875,-1.5 h -2.685547 l 2.685547,-2.804688 C 28.117606,10.476382 27.572842,9.5 21.179688,9.5 Z m -10.47461,5 c -2.8364286,0 -3.9414061,0.42041 -3.9414061,1.5 0,0.11746 0.018395,0.22998 0.046875,0.339844 0.06905,-0.01258 0.1341866,-0.02734 0.2167969,-0.02734 H 7.6875 8.4003906 c 0.27578,0.02194 0.5517999,0.04413 0.8261719,0.08008 0.297374,0.04466 0.5906191,0.111128 0.8886715,0.152344 0.273675,0.02866 0.54348,0.08157 0.808594,0.154297 0.238992,0.06174 0.493876,0.13608 0.658203,0.335937 0.05131,0.06241 0.08502,0.137969 0.126953,0.207032 0.129723,0.434795 -0.02871,0.71012 -0.30664,1.027343 -0.196589,0.217458 -0.427824,0.401586 -0.664063,0.574219 -0.0099,0.0062 -0.01937,0.0133 -0.0293,0.01953 -0.04441,0.14092 -0.101642,0.276784 -0.189453,0.400391 -0.16725,0.216323 -0.367278,0.394425 -0.5839841,0.560547 -0.220569,0.171248 -0.4349085,0.35335 -0.6484375,0.533203 -0.204422,0.169671 -0.4138858,0.331888 -0.6210938,0.498047 -0.07505,0.05388 -0.1518605,0.105797 -0.2265625,0.160156 -0.107771,0.175035 -0.2078683,0.355098 -0.2871093,0.544922 -0.101483,0.21079 -0.2128969,0.416274 -0.3261719,0.621094 0.355125,0.019 0.7128193,0.02233 1.0683593,0.02539 0.4011251,0.0028 0.8019928,0.0033 1.2031248,0.0039 0.274917,3.85e-4 0.549301,-9.1e-5 0.824219,0 0.217865,6e-5 0.436431,-1.1e-5 0.654297,0 0.2173,8e-6 0.433092,-2e-6 0.65039,0 h 0.664063 0.746094 0.818359 0.607422 0.554688 c 0.05409,0.01237 0.108445,0.02375 0.162109,0.03711 0.112817,-0.44374 -0.362643,-0.945367 -1.558594,-1.404297 -1.374424,-0.527415 -1.36408,-0.789168 0.09766,-2.404297 C 16.61293,15.90398 15.325535,14.5 10.705078,14.5 Z m -0.367187,3.121094 c 0.0087,0.0059 0.01663,0.0075 0.02539,0.01367 0.04165,0.0337 0.07469,0.06903 0.111328,0.103515 0.02876,-0.02592 0.06039,-0.04905 0.08789,-0.07617 -0.07385,-0.01866 -0.149892,-0.02642 -0.224609,-0.04102 z M 16.341797,18.25 c -0.06676,0.161612 -0.117973,0.313454 -0.152344,0.453125 0.0046,-0.01119 0.009,-0.02199 0.01367,-0.0332 0.03818,-0.09006 0.0875,-0.197272 0.140625,-0.314453 -2.64e-4,-0.03509 -0.0014,-0.0703 -0.002,-0.105469 z m -9.3828126,3.341797 c -0.03105,0.07746 -0.068377,0.156661 -0.091797,0.228515 0.0057,-0.01114 0.012188,-0.02418 0.017578,-0.03516 0.03309,-0.05907 0.063253,-0.120257 0.095703,-0.179687 -0.0082,-0.0033 -0.013534,-0.01003 -0.021484,-0.01367 z m 19.3124996,0.396484 c -0.093,-0.0036 -0.194081,0.0076 -0.296875,0.02148 -0.104269,0.27791 -0.255847,0.537572 -0.417968,0.785156 -0.100182,0.146023 -0.213344,0.282453 -0.320313,0.423828 0.0068,0.06075 0.02239,0.1173 0.02734,0.179688 0.03102,0.28536 -0.02145,0.554961 -0.138672,0.814453 -0.143379,0.260923 -0.386052,0.426243 -0.623047,0.59375 -0.193927,0.155353 -0.3991,0.29652 -0.607422,0.43164 -0.195914,0.144259 -0.405542,0.272043 -0.613281,0.398438 -0.214179,0.150863 -0.473252,0.208891 -0.703125,0.326172 -0.216085,0.118437 -0.449466,0.189938 -0.689453,0.240234 -0.03292,0.0061 -0.06654,0.0048 -0.09961,0.0098 -0.0429,0.02278 -0.08244,0.05024 -0.126953,0.07031 -0.161886,0.06354 -0.477302,0.187504 -0.630859,0.03125 -0.01973,-0.02008 -0.02736,-0.03704 -0.04492,-0.05664 -0.002,-1.43e-4 -0.0039,1.81e-4 -0.0059,0 -0.133859,0.321509 -0.216797,0.631678 -0.216797,0.916016 0,2.064977 1.846538,1.569479 4.667969,-1.251953 1.887732,-1.887731 2.281397,-2.874855 1.46875,-3.6875 -0.158559,-0.158633 -0.374389,-0.236245 -0.628907,-0.246094 z M 8.9980469,23.222656 c 0.08717,0.0013 0.1742297,0.004 0.2617187,0.0039 0.0781,-2.49e-4 0.156278,-0.0016 0.234375,-0.002 -0.165312,-4.96e-4 -0.3307347,-0.0012 -0.4960937,-0.002 z m -8.25976565,1.923828 c 0.0057,0.07163 0.0154612,0.143079 0.0195313,0.214844 -3.32e-4,0.06357 0.0154306,0.125405 0.0253906,0.1875 0.0043,-0.107469 0.004202,-0.215107 -0.0234375,-0.318359 -0.0063,-0.02831 -0.0146744,-0.05583 -0.0214844,-0.08398 z m -0.6875,3.304688 -0.0019531,0.248047 c 0.02936002,-0.08132 0.05198813,-0.164555 0.08007813,-0.246094 -0.02608,1.95e-4 -0.052025,-0.0023 -0.078125,-0.002 z m 6.64257815,4.583984 c 0.07424,0.04625 0.1343503,0.09559 0.1777344,0.152344 l 0.4023437,-0.0039 c -0.03572,-0.02738 -0.071301,-0.05487 -0.1074219,-0.08203 -0.0023,-0.01435 -0.0087,-0.02859 -0.011719,-0.04297 -0.112593,-0.0057 -0.2253047,-0.0052 -0.3378907,-0.01367 -0.0408,-0.0034 -0.08198,-0.0059 -0.1230468,-0.0098 z" />
</svg>
