<?xml version="1.0" encoding="UTF-8" standalone="no"?>
<!-- Created with Inkscape (http://www.inkscape.org/) -->

<svg
   xmlns:dc="http://purl.org/dc/elements/1.1/"
   xmlns:cc="http://creativecommons.org/ns#"
   xmlns:rdf="http://www.w3.org/1999/02/22-rdf-syntax-ns#"
   xmlns:svg="http://www.w3.org/2000/svg"
   xmlns="http://www.w3.org/2000/svg"
   xmlns:sodipodi="http://sodipodi.sourceforge.net/DTD/sodipodi-0.dtd"
   xmlns:inkscape="http://www.inkscape.org/namespaces/inkscape"
   width="15"
   height="20.794977"
   viewBox="0 0 3.9687499 5.5020046"
   version="1.1"
   id="svg8"
   inkscape:version="0.92.1 r15371"
   sodipodi:docname="target.svg">
  <defs
     id="defs2" />
  <sodipodi:namedview
     id="base"
     pagecolor="#ffffff"
     bordercolor="#666666"
     borderopacity="1.0"
     inkscape:pageopacity="0.0"
     inkscape:pageshadow="2"
     inkscape:zoom="15.839192"
     inkscape:cx="-5.6971362"
     inkscape:cy="9.0023097"
     inkscape:document-units="px"
     inkscape:current-layer="layer1"
     showgrid="false"
     inkscape:pagecheckerboard="true"
     units="px"
     fit-margin-top="0"
     fit-margin-left="0"
     fit-margin-right="0"
     fit-margin-bottom="0"
     inkscape:window-width="1600"
     inkscape:window-height="838"
     inkscape:window-x="-8"
     inkscape:window-y="-8"
     inkscape:window-maximized="1" />
  <metadata
     id="metadata5">
    <rdf:RDF>
      <cc:Work
         rdf:about="">
        <dc:format>image/svg+xml</dc:format>
        <dc:type
           rdf:resource="http://purl.org/dc/dcmitype/StillImage" />
        <dc:title></dc:title>
      </cc:Work>
    </rdf:RDF>
  </metadata>
  <g
     inkscape:label="Layer 1"
     inkscape:groupmode="layer"
     id="layer1"
     transform="translate(-204.38927,-245.42783)">
    <path
       id="path1191"
       transform="matrix(0.26458333,0,0,0.26458333,198.76016,245.24283)"
       style="fill:#fefefe;stroke-width:1"
       d="m 29.275391,0.69921875 c -2.174438,0 -4.346988,0.78125555 -5.441407,2.34375005 -1.831559,2.6149006 -2.008321,6.0851162 -0.435546,8.6035152 0.865592,1.386067 0.75099,2.516347 -0.5,4.935547 -0.892649,1.726186 -1.623047,3.555288 -1.623047,4.0625 0,0.166668 0.391915,0.318015 1.027343,0.449219 0.08259,-0.08743 0.234383,-0.135495 0.451172,-0.08398 v 0.002 c 0.09978,0.02268 0.201443,0.01938 0.302735,0.01563 0.153448,-0.0076 0.299939,-0.0615 0.447265,-0.101563 0.178016,-0.04573 0.362005,-0.06748 0.542969,-0.09961 0.14211,-0.02268 0.276474,-0.07051 0.410156,-0.123047 0.150047,-0.05329 0.299083,-0.113041 0.445313,-0.175781 0.157606,-0.07143 0.325283,-0.109635 0.492187,-0.152344 0.172347,-0.05632 0.342965,-0.109253 0.523438,-0.128906 0.220724,-0.0076 0.410606,0.09056 0.591797,0.205078 0.106582,0.09524 0.233768,0.15828 0.355468,0.230469 0.108095,0.07332 0.230996,0.11247 0.351563,0.158203 0.159496,0.05669 0.316385,0.116003 0.470703,0.185547 0.117165,0.0635 0.246433,0.09659 0.373047,0.134765 0.122457,0.03855 0.24662,0.06944 0.367187,0.113282 0.112252,0.03968 0.225324,0.07725 0.339844,0.109374 0.11641,0.02268 0.231625,0.0552 0.347656,0.08203 0.09487,0.0189 0.190732,0.02552 0.28711,0.0293 0.120189,-0.0019 0.241517,-0.03818 0.361328,-0.05859 0.11074,-0.02268 0.214044,-0.06547 0.318359,-0.107422 0.121323,-0.048 0.236351,-0.108567 0.353516,-0.166016 0.130394,-0.05329 0.260169,-0.106862 0.394531,-0.148437 0.119433,-0.06198 0.245992,-0.105919 0.371094,-0.154297 0.15874,-0.05934 0.316235,-0.122553 0.476562,-0.177734 0.119433,-0.04044 0.243281,-0.07486 0.357422,-0.128907 0.115654,-0.06009 0.243785,-0.08859 0.361328,-0.144531 0.111874,-0.05027 0.228475,-0.09244 0.34375,-0.134765 0.09222,-0.03553 0.185284,-0.04443 0.277344,-0.03711 0.09206,0.0073 0.181814,0.03176 0.271484,0.06445 0.126615,0.05594 0.241834,0.134901 0.371094,0.185547 0.124725,0.04157 0.247252,0.08777 0.375,0.119141 0.174992,0.03893 0.349971,0.07391 0.527344,0.09961 0.136441,0.02646 0.271901,0.05961 0.410156,0.07813 0.114142,0.01512 0.228853,0.0177 0.34375,0.02148 0.123213,0.0032 0.247503,0.0039 0.371094,0.0039 0.04969,-0.0021 0.09904,0.0045 0.148438,0.0098 0.382558,-0.337263 0.439453,-0.838489 0.439453,-1.597656 0,-1.241159 -0.70296,-2.96081 -1.5625,-3.820312 -1.417021,-1.417021 -1.417021,-1.769901 0,-3.792969 C 36.698919,8.7726546 36.69926,5.8705056 34.71875,3.0429688 33.624331,1.4804743 31.449828,0.69921875 29.275391,0.69921875 Z M 28.947266,1.7460938 c 0.131905,-0.00144 0.264616,-0.00365 0.396484,0.00391 0.141732,0.00756 0.278769,0.049652 0.417969,0.074219 0.147401,0.015118 0.291686,0.043037 0.4375,0.068359 0.125858,0.018898 0.248386,0.054061 0.375,0.070312 0.158362,0.015118 0.317671,0.021611 0.476562,0.025391 0.142866,-0.00231 0.284736,0.012352 0.425781,0.03125 0.157229,0.034016 0.299498,0.1076253 0.439454,0.1835938 0.148157,0.066142 0.282207,0.154 0.412109,0.25 0.01016,0.00813 0.02067,0.015738 0.03125,0.023437 0.05199,0.019373 0.108528,0.025152 0.158203,0.050781 0.0607,0.028213 0.116196,0.066497 0.175781,0.097656 0.03928,-0.020035 0.07719,-0.043814 0.128907,-0.044922 0.09922,-0.00212 0.219542,0.034714 0.345703,0.1269531 0.119433,0.087307 0.214734,0.196091 0.304687,0.3125 0.09902,0.128126 0.194701,0.2600546 0.292969,0.3886719 0.06841,0.078992 0.135408,0.1573994 0.201172,0.2382813 0.06836,0.083876 0.100375,0.1609185 0.119141,0.234375 0.0058,0.00171 0.01183,0.00212 0.01758,0.00391 0.183364,0.05817 0.179493,0.1226721 0.103515,0.1875 0.02549,0.01215 0.05212,0.022326 0.07617,0.037109 0.14799,0.09154 0.20788,0.1935673 0.234375,0.2929688 0.07478,0.06253 0.147519,0.1494947 0.203125,0.2753906 l 0.002,-0.00195 c 0.0071,0.016111 0.0075,0.037369 0.01367,0.054688 0.129091,0.042286 0.242188,0.1871351 0.242188,0.4492187 h -0.002 v 0.3222656 c 0.01512,0.1107402 0.03081,0.2224883 0.04102,0.3339844 0.01134,0.1326614 0.0138,0.2654359 0.01758,0.3984375 0.0076,0.1186772 -0.0073,0.2395006 0.0078,0.3574219 0.0189,0.1273701 0.03503,0.2544975 0.04297,0.3828125 0.0076,0.1322834 0.0099,0.2661162 0.01367,0.3984375 0.0016,0.1028031 0.0034,0.2038375 0.0039,0.3066406 0.0011,0.229549 -0.08401,0.3739525 -0.191407,0.4355469 0.0021,0.1558685 0.0054,0.3115596 -0.01172,0.4667968 -0.01134,0.1719686 -0.06276,0.3374067 -0.117188,0.5 -0.06274,0.1659213 -0.127973,0.3292021 -0.193359,0.4941407 -0.07597,0.167433 -0.151665,0.3351144 -0.22461,0.5039056 -0.06501,0.147024 -0.121314,0.297835 -0.185546,0.445314 -0.03855,0.09411 -0.07593,0.189093 -0.115235,0.283203 -0.09518,0.228036 -0.243073,0.324596 -0.373047,0.326172 -0.04099,0.09016 -0.08211,0.180324 -0.128906,0.267578 -0.0703,0.118677 -0.142401,0.235343 -0.207031,0.357422 -0.08428,0.151559 -0.172839,0.298501 -0.271485,0.441406 -0.09184,0.14211 -0.191802,0.279059 -0.285156,0.419922 -0.09638,0.137575 -0.204906,0.266723 -0.292969,0.410156 -0.08769,0.117543 -0.176616,0.234524 -0.259765,0.355469 -0.01168,0.01505 -0.02358,0.02982 -0.03516,0.04492 -0.01041,0.0155 -0.01682,0.0334 -0.02734,0.04883 -0.06198,0.09676 -0.123877,0.193126 -0.183594,0.291015 -0.06765,0.113386 -0.156578,0.213164 -0.224609,0.326172 -0.06954,0.119811 -0.138495,0.238872 -0.203125,0.361328 -0.09411,0.153071 -0.190417,0.305019 -0.289063,0.455078 -0.09524,0.126237 -0.18109,0.25775 -0.269531,0.388672 -0.07446,0.101292 -0.13881,0.211085 -0.201172,0.320313 -0.05972,0.12359 -0.103339,0.251346 -0.167969,0.373047 -0.05367,0.122077 -0.146495,0.220787 -0.205078,0.339843 -0.03817,0.07294 -0.01765,0.03826 -0.05469,0.107421 -0.113262,0.217064 -0.267311,0.300662 -0.396485,0.292969 -0.06675,0.09063 -0.128104,0.1853 -0.203125,0.269531 -0.189732,0.199937 -0.369039,0.416728 -0.632812,0.519532 -0.04573,0.0038 -0.09256,0.01938 -0.138672,0.01563 -0.205984,-0.01512 -0.349294,-0.151247 -0.41211,-0.339844 -0.03401,-0.07786 -0.08286,-0.144481 -0.130859,-0.212891 -0.125858,-0.109228 -0.256384,-0.217136 -0.365234,-0.34375 -0.112252,-0.134929 -0.21751,-0.27417 -0.320313,-0.416015 -0.100535,-0.153827 -0.194072,-0.312605 -0.296875,-0.464844 -0.06917,-0.115276 -0.132638,-0.234963 -0.208984,-0.345703 -0.06198,-0.100158 -0.121985,-0.19968 -0.171875,-0.306641 -0.05821,-0.09298 -0.123816,-0.180963 -0.19336,-0.265625 -0.09108,-0.115653 -0.174533,-0.23566 -0.242187,-0.367187 -0.06387,-0.125481 -0.137642,-0.245046 -0.210937,-0.365235 -0.07975,-0.127748 -0.162881,-0.252405 -0.244141,-0.378906 -0.05144,-0.08984 -0.102527,-0.17987 -0.154297,-0.269531 -0.0988,-0.02258 -0.206653,-0.08909 -0.306641,-0.220703 -0.07861,-0.10356 -0.161305,-0.204217 -0.242187,-0.306642 -0.08844,-0.124345 -0.175414,-0.253404 -0.234375,-0.394531 -0.06841,-0.134929 -0.129128,-0.271309 -0.193359,-0.408203 -0.06312,-0.148158 -0.135345,-0.293476 -0.199219,-0.441407 -0.05821,-0.128126 -0.120915,-0.252456 -0.173828,-0.382812 -0.05858,-0.119811 -0.117511,-0.238998 -0.16211,-0.365235 -0.0446,-0.128105 -0.110895,-0.247251 -0.15625,-0.375 -0.04687,-0.104294 -0.104285,-0.199929 -0.173828,-0.291015 -0.06954,-0.106961 -0.139756,-0.213793 -0.207031,-0.3222653 -0.08088,-0.1455098 -0.168356,-0.2878329 -0.214844,-0.4492187 -0.03402,-0.1345512 -0.0729,-0.2683717 -0.115234,-0.4003906 -0.0412,-0.151937 -0.05526,-0.3065816 -0.08398,-0.4609375 -0.02268,-0.1481575 -0.03755,-0.2995495 -0.05078,-0.4492188 3.8e-5,-0.1262362 -1.51e-4,-0.2525188 0,-0.3789062 1.51e-4,-0.1269922 -9.07e-4,-0.2537539 0,-0.3808594 0.0011,-0.1311496 0.0027,-0.2631947 0.0078,-0.3945312 0.0076,-0.1466457 0.015,-0.2928217 0.04297,-0.4375 0.03024,-0.1455119 0.06686,-0.2892781 0.115235,-0.4296876 0.02646,-0.1190531 0.04398,-0.2396273 0.05078,-0.3613281 0.01134,-0.1062047 0.03138,-0.2117787 0.03516,-0.3183593 0.01144,-0.2699502 0.132764,-0.4164561 0.265625,-0.453125 0.01386,-0.050891 0.02525,-0.1023882 0.04102,-0.1523438 0.04346,-0.1194331 0.08519,-0.2385546 0.144531,-0.3515625 0.0548,-0.1345512 0.117574,-0.2664575 0.164063,-0.4042969 0.06463,-0.1538267 0.126402,-0.3087237 0.214843,-0.4511718 0.08882,-0.1489134 0.189098,-0.2898806 0.306641,-0.4179688 0.113386,-0.1334173 0.232258,-0.262748 0.367188,-0.375 0.101269,-0.089197 0.205036,-0.1785669 0.320312,-0.25 0.08957,-0.061984 0.180524,-0.1205368 0.275391,-0.1738281 0.104693,-0.072189 0.207304,-0.1484486 0.320312,-0.2070313 0.150803,-0.074835 0.310199,-0.1307459 0.46875,-0.1855468 0.170079,-0.050268 0.341944,-0.099677 0.517578,-0.125 0.147402,-0.015118 0.295164,-0.019405 0.44336,-0.015625 h 0.33789 c 0.05773,-0.037898 0.117586,-0.072399 0.181641,-0.099609 0.138331,-0.050646 0.28587,-0.065589 0.43164,-0.076172 0.115276,-0.00756 0.23005,-0.011719 0.345704,-0.011719 z m 2.595703,1.4980468 c 0.05012,0.025814 0.10131,0.050328 0.15039,0.078125 0.016,-0.0173 0.01499,-0.021225 0.0332,-0.041016 -0.01855,-0.00559 -0.03596,-0.0143 -0.05469,-0.019531 -0.04235,-0.010233 -0.0864,-0.00814 -0.128906,-0.017578 z m -2.517578,1.71875 C 26.680606,4.9379117 25.612929,7.316378 27.269531,9.3125 c 0.918728,1.106986 1.69563,1.209957 3.171875,0.4199219 C 32.977583,8.3750802 32.395536,5.4113638 29.511719,5 29.344484,4.9761441 29.18171,4.9645559 29.025391,4.9628906 Z m -0.296875,1.015625 c 0.154204,0.00204 0.306846,0.0023 0.460937,0.013672 0.165165,0.015118 0.331041,0.034409 0.490235,0.082031 0.182139,0.058205 0.357977,0.1364874 0.515624,0.2460937 0.141355,0.1050709 0.271756,0.2212977 0.373047,0.3671875 0.0994,0.1341732 0.178563,0.2804774 0.226563,0.4414062 0.05027,0.1700788 0.07572,0.341679 0.03906,0.5175782 -0.03024,0.1655433 -0.07033,0.328744 -0.164062,0.4707031 -0.08126,0.1175433 -0.171707,0.2280287 -0.283203,0.3183594 -0.10167,0.093354 -0.208061,0.1812148 -0.320313,0.2617187 -0.14022,0.1092284 -0.285605,0.21397 -0.460937,0.2578125 -0.207118,0.055559 -0.418699,0.072309 -0.615235,-0.03125 C 28.873887,8.8667631 28.756847,8.8136839 28.646484,8.7441406 28.528741,8.6717876 28.409958,8.599317 28.314453,8.4980469 h -0.002 c -0.0181,-0.011339 -0.03971,-0.023818 -0.0605,-0.035156 C 28.134886,8.3906969 28.027641,8.3044797 27.931641,8.2050781 27.82468,8.0845112 27.736,7.9511442 27.667969,7.8046875 27.597292,7.6414119 27.538617,7.4719171 27.513672,7.2949219 c -0.02268,-0.1742362 -0.01555,-0.344159 0.05664,-0.5078125 0.01977,-0.03992 0.04811,-0.07029 0.07227,-0.1054688 -0.139335,-0.1447745 -0.0822,-0.4149152 0.275391,-0.5429687 0.07559,-0.026457 0.151854,-0.053241 0.230469,-0.068359 0.09434,-0.017799 0.189858,-0.019001 0.285156,-0.023437 0.07498,-0.040701 0.167441,-0.070066 0.294922,-0.068359 z m 0.113281,0.6347656 c -0.0065,0.00285 -0.0127,0.00518 -0.01953,0.00781 0.01848,0.010718 0.0384,0.019262 0.05469,0.033203 0.02133,-0.012071 0.04251,-0.024644 0.0625,-0.039063 -0.03251,-5.176e-4 -0.06508,-0.001 -0.09766,-0.00195 z m -4.273438,1.8847657 c 0.0042,0.011969 0.003,0.02536 0.0078,0.037109 0.01796,0.060387 0.04406,0.1173854 0.06641,0.1757813 -0.02308,-0.069797 -0.05326,-0.1450843 -0.07422,-0.2128906 z m 6.890625,4.8066411 c -0.03778,0.06627 -0.07567,0.143606 -0.113281,0.208984 0.02608,-0.03179 0.05499,-0.06106 0.08008,-0.09375 0.02093,-0.02737 0.04176,-0.0546 0.0625,-0.08203 -0.0095,-0.0088 -0.01978,-0.02331 -0.0293,-0.0332 z m 1.300782,1.460937 c 0.02498,-3.05e-4 0.05469,0.01078 0.08203,0.01563 0.01459,-7.42e-4 0.03106,-0.0135 0.04492,-0.01172 0.05274,0.0068 0.09585,0.03657 0.130859,0.07617 0.029,0.01576 0.05584,0.0252 0.08594,0.04687 0.125858,0.09071 0.217758,0.217514 0.304687,0.34375 0.09411,0.108095 0.167163,0.228413 0.236328,0.353516 0.08277,0.12548 0.140068,0.26453 0.19336,0.404297 0.06236,0.12548 0.121795,0.249735 0.166015,0.382812 0.03024,0.121323 0.08021,0.235853 0.13086,0.349609 0.04422,0.108851 0.106613,0.206925 0.164062,0.308594 0.07181,0.122079 0.144796,0.243661 0.210938,0.369141 0.07824,0.14589 0.135532,0.298467 0.193359,0.453125 0.01028,0.02992 0.01214,0.0312 0.01563,0.04102 0.02778,0.0386 0.05628,0.07675 0.08398,0.115234 0.07786,0.125858 0.148576,0.254196 0.210938,0.388672 0.06765,0.173102 0.123873,0.350916 0.160156,0.533203 0.03024,0.185197 0.06099,0.374166 0.05078,0.5625 -0.100535,0.09071 -0.179458,0.211768 -0.300781,0.271484 -0.121323,0.05934 -0.311924,-0.128668 -0.398437,-0.203125 -0.08353,-0.06728 -0.17479,-0.126713 -0.261719,-0.189453 -0.111118,-0.07635 -0.212596,-0.164834 -0.320313,-0.246094 -0.117165,-0.100535 -0.235596,-0.198163 -0.365234,-0.283203 -0.101669,-0.0771 -0.205666,-0.151725 -0.316406,-0.214844 -0.02429,-0.01387 -0.03773,-0.03021 -0.05859,-0.04492 -0.18249,0.155323 -0.417284,0.294799 -0.712891,0.412109 -0.942349,0.373795 -2.389848,0.679687 -3.214843,0.679688 -1.849667,0 -3.235882,-0.467944 -3.871094,-1.164063 -0.01742,0.01844 -0.03745,0.03392 -0.05469,0.05273 -0.14211,0.149292 -0.297585,0.287185 -0.455078,0.419922 -0.141732,0.121323 -0.286558,0.235405 -0.435547,0.347657 -0.141732,0.105433 -0.286913,0.207112 -0.435546,0.302734 -0.133796,0.07937 -0.258493,0.173844 -0.390626,0.255859 -0.128866,0.09071 -0.259213,0.179196 -0.402343,0.246094 -0.117166,0.06236 -0.307611,0.172882 -0.441407,0.167969 -0.06387,-0.0022 -0.126712,-0.02369 -0.189453,-0.03125 -0.06387,-0.096 -0.158146,-0.178701 -0.191406,-0.289063 -0.04422,-0.146267 0.139819,-0.324188 0.208985,-0.43164 0.102788,-0.131906 0.195522,-0.27142 0.30664,-0.396485 0.01104,-0.01388 0.02027,-0.02905 0.03125,-0.04297 -0.01861,-0.09555 -0.0043,-0.216285 0.0625,-0.355469 0.01134,-0.02268 0.01991,-0.04329 0.03125,-0.06445 0.05934,-0.124347 0.11291,-0.248829 0.148438,-0.382813 0.04233,-0.119433 0.09987,-0.231561 0.154296,-0.345703 0.05594,-0.110362 0.126967,-0.208878 0.197266,-0.310547 0.03777,-0.06056 0.08536,-0.113654 0.128906,-0.169922 -7.66e-4,-0.148111 0.03227,-0.292841 0.07422,-0.433593 0.05367,-0.153827 0.144298,-0.28755 0.242188,-0.416016 0.07839,-0.111283 0.181449,-0.19858 0.283203,-0.28711 0.04508,-0.13825 0.08866,-0.276929 0.152344,-0.408203 0.06992,-0.150047 0.140262,-0.299775 0.222656,-0.443359 0.05722,-0.09972 0.122133,-0.169109 0.1875,-0.214844 0.0038,-0.0085 0.0079,-0.01688 0.01172,-0.02539 0.05858,-0.13304 0.132776,-0.275656 0.271485,-0.341797 0.04611,-0.02268 0.09735,-0.0259 0.146484,-0.04102 0.222614,-0.01134 0.365611,0.119311 0.488281,0.287109 0.07484,0.109229 0.14486,0.222552 0.212891,0.335938 0.05102,0.09676 0.0983,0.195518 0.164063,0.283203 0.04271,0.05254 0.02294,0.02679 0.06641,0.08008 0.06592,0.07809 0.100403,0.151881 0.123047,0.222657 0.152869,0.170051 0.30829,0.498805 0.505859,1.013671 0.820725,2.138722 2.792571,2.214665 4.486328,0.173829 0.111431,-0.134266 0.192773,-0.200274 0.291016,-0.306641 -0.02031,-0.1 -0.0025,-0.226765 0.07813,-0.373047 0.06387,-0.116031 0.131943,-0.22923 0.199219,-0.34375 0.08655,-0.145134 0.181595,-0.2842 0.273437,-0.425781 0.02912,-0.03793 0.06507,-0.07048 0.0957,-0.107422 v -0.002 c -0.02043,-0.09543 -0.0069,-0.216637 0.05859,-0.357422 0.05367,-0.115276 0.116759,-0.227032 0.185547,-0.333984 -6.9e-5,-0.144174 0.09759,-0.255808 0.261719,-0.257813 z m -7.748047,3.251953 c -0.0435,0.02648 -0.08555,0.05532 -0.128907,0.08203 -0.0097,0.02256 -0.01707,0.04608 -0.02734,0.06836 0.0106,-0.0109 0.02281,-0.02013 0.0332,-0.03125 0.03859,-0.04228 0.0815,-0.08 0.123047,-0.119141 z m 8.5625,0.04492 c -0.0026,0.0075 -0.0011,0.01596 -0.0039,0.02344 0.0054,0.003 0.0102,0.0027 0.01563,0.0059 l 0.002,0.002 c 0.0094,0.0055 0.01803,0.01199 0.02734,0.01758 -0.01316,-0.01671 -0.02775,-0.03219 -0.04102,-0.04883 z m -7.373047,2.939453 c -0.0041,0.02043 -3.3e-4,0.04006 -0.0098,0.06055 h 0.06445 0.03906 c -0.0309,-0.02072 -0.06499,-0.03671 -0.09375,-0.06055 z"
       inkscape:connector-curvature="0" />
  </g>
</svg>
