<?xml version="1.0" encoding="UTF-8" standalone="no"?>
<!-- Created with Inkscape (http://www.inkscape.org/) -->

<svg
   xmlns:dc="http://purl.org/dc/elements/1.1/"
   xmlns:cc="http://creativecommons.org/ns#"
   xmlns:rdf="http://www.w3.org/1999/02/22-rdf-syntax-ns#"
   xmlns:svg="http://www.w3.org/2000/svg"
   xmlns="http://www.w3.org/2000/svg"
   xmlns:sodipodi="http://sodipodi.sourceforge.net/DTD/sodipodi-0.dtd"
   xmlns:inkscape="http://www.inkscape.org/namespaces/inkscape"
   version="1.1"
   id="svg10"
   width="39.999985"
   height="34"
   viewBox="0 0 39.999984 34.000001"
   sodipodi:docname="weight.svg"
   inkscape:version="0.92.1 r15371">
  <metadata
     id="metadata16">
    <rdf:RDF>
      <cc:Work
         rdf:about="">
        <dc:format>image/svg+xml</dc:format>
        <dc:type
           rdf:resource="http://purl.org/dc/dcmitype/StillImage" />
        <dc:title></dc:title>
      </cc:Work>
    </rdf:RDF>
  </metadata>
  <defs
     id="defs14" />
  <sodipodi:namedview
     pagecolor="#ffffff"
     bordercolor="#666666"
     borderopacity="1"
     objecttolerance="10"
     gridtolerance="10"
     guidetolerance="10"
     inkscape:pageopacity="0"
     inkscape:pageshadow="2"
     inkscape:window-width="1600"
     inkscape:window-height="838"
     id="namedview12"
     showgrid="false"
     fit-margin-top="0"
     fit-margin-left="0"
     fit-margin-right="0"
     fit-margin-bottom="0"
     inkscape:zoom="9.8333333"
     inkscape:cx="-4.6266433"
     inkscape:cy="9.6200173"
     inkscape:window-x="-8"
     inkscape:window-y="-8"
     inkscape:window-maximized="1"
     inkscape:current-layer="svg10"
     inkscape:pagecheckerboard="true" />
  <path
     id="path261"
     style="fill:#fefefe"
     d="M 10.851525,0 C 9.223664,0 9.059286,0.5279351 9.613243,3.9921871 10.083455,6.9327311 9.691353,9.2865521 8.124962,12.927734 5.595444,18.807759 5.483089,21.895273 7.539025,28.818359 8.749419,32.894198 9.517581,34 11.144493,34 c 1.575643,0 1.898555,-0.416807 1.353516,-1.75 -1.429569,-3.496793 -2.63246,-8.447619 -2.166016,-8.914063 1.548686,-1.548687 7.642647,4.354016 7.654297,7.414063 0.0098,2.579207 0.426468,3.25 2.013672,3.25 1.587204,0 2.001919,-0.670793 2.011719,-3.25 0.01166,-3.060047 6.107564,-8.96275 7.65625,-7.414063 0.466444,0.466444 -0.7384,5.41727 -2.167969,8.914063 -0.545039,1.333193 -0.222127,1.75 1.353516,1.75 4.524357,0 6.41351,-13.182748 3.019531,-21.072266 -0.603743,-1.403441 -1.030034,-2.613937 -1.302734,-3.7421869 -0.09625,-0.146841 -0.1164,-0.29233 -0.08594,-0.416016 -0.343542,-1.629426 -0.365911,-3.111973 -0.09961,-4.777344 C 30.938682,0.5279351 30.774304,0 29.146443,0 26.130683,0 25.448299,7.9976251 28.031209,13.060547 L 30.039022,17 H 19.999962 9.958946 l 2.009766,-3.939453 C 14.551622,7.9976251 13.867288,0 10.851525,0 Z M 5.341759,4.0371091 c 0.02039,0.163319 0.03246,0.327966 0.03711,0.492188 0.0052,0.216622 0.0066,0.433715 0.0078,0.65039 5.38e-4,0.136836 0.0015,0.06883 0.002,0.199219 6.51e-4,0.204857 -0.04854,0.356817 -0.115234,0.478516 0.02593,0.07408 0.05172,0.148108 0.07227,0.224609 0.131861,0.33821 -0.07306,0.644343 -0.320312,0.84961 -0.220819,0.150593 -0.480324,0.199609 -0.740235,0.232421 -0.212922,0.02285 -0.426691,0.02868 -0.640625,0.0332 -0.189607,0.0034 -0.38068,0.0052 -0.570312,0.0059 -0.211936,5.87e-4 -0.422829,-9.8e-5 -0.634766,0 -0.235478,0.0048 -0.468863,0.0014 -0.703125,-0.02344 -0.112269,-0.0149 -0.246735,-0.03994 -0.371094,-0.08203 -0.004,1.09e-4 -0.0077,0.0019 -0.01172,0.002 -0.190908,-0.0022 -0.381698,-0.005 -0.572266,-0.01758 C 0.576163,7.0645521 0.374164,7.0156221 0.234375,6.8848461 0.081747,7.1850711 0,7.5539801 0,8.0000811 c 0,0.70048 0.188636,1.212446 0.556641,1.544922 0.06212,-0.01134 0.121147,-0.03573 0.183593,-0.04492 0.226605,-0.03046 0.455293,-0.04115 0.683594,-0.04883 0.209626,-0.0061 0.419207,-0.0065 0.628906,-0.0078 0.20455,-10e-4 0.408731,-0.0018 0.613282,-0.002 0.203575,-1.57e-4 0.407754,2.8e-5 0.611328,0 0.203417,-2.2e-5 0.405958,3e-6 0.609375,0 0.187013,0.0071 0.369336,0.04898 0.554687,0.07031 0.141133,0.01565 0.283216,0.02095 0.423828,0.04102 0.349272,0.08187 0.53457,0.342123 0.636719,0.6660159 0.0556,0.215836 0.06795,0.438491 0.07813,0.660156 0.0079,0.205694 0.0083,0.411369 0.0098,0.617188 2.3e-4,0.03907 -2.1e-4,0.07813 0,0.117187 0.06306,-0.03959 0.124617,-0.08152 0.189453,-0.11914 0.172304,-0.09874 0.340834,-0.203997 0.501953,-0.320313 0.09672,-0.06692 0.169526,-0.151327 0.236328,-0.248047 0.01781,-0.01357 0.195244,-0.37396 0.230469,-0.425781 0.02203,-0.0324 0.04523,-0.06409 0.06836,-0.0957 0.142917,-0.181457 0.287557,-0.362333 0.423828,-0.5488279 0.138172,-0.185225 0.255704,-0.385162 0.402344,-0.564454 0.137666,-0.19547 0.279341,-0.388655 0.419922,-0.582031 0.09281,-0.111138 0.184731,-0.222321 0.271484,-0.33789 -0.119407,-0.08651 -0.233339,-0.220375 -0.316406,-0.429688 -0.04543,-0.114467 -0.08977,-0.22899 -0.138672,-0.341797 -0.02563,-0.03492 -0.05387,-0.0507 -0.07813,-0.0918 C 7.722616,7.3753661 7.642911,7.2449021 7.566441,7.1113771 7.474501,6.9483961 7.385668,6.7823411 7.277379,6.6289551 7.190029,6.4749371 7.087097,6.3310331 6.986363,6.1855961 6.879669,6.0084201 6.768577,5.8338371 6.656285,5.6602051 6.540485,5.4846461 6.430577,5.3068011 6.291051,5.1484861 6.178303,5.0223381 6.073669,4.8871301 5.933629,4.7891111 5.615416,4.5663841 5.51388,4.3092141 5.552769,4.1094241 5.484879,4.0884641 5.403326,4.0493341 5.341832,4.0371541 Z m 29.03125,0.248047 c -0.02278,0.02726 -0.0478,0.0525 -0.07031,0.08008 -0.116596,0.138409 -0.232035,0.282247 -0.308593,0.447266 -0.10566,0.192114 -0.221098,0.379198 -0.332031,0.568359 -0.112437,0.191336 -0.244481,0.371517 -0.339844,0.572266 -0.102633,0.192258 -0.193129,0.3903 -0.296875,0.582031 -0.114785,0.197387 -0.23726,0.389201 -0.378907,0.568359 -0.132227,0.165825 -0.278234,0.322333 -0.427734,0.472657 -0.09318,0.09814 -0.179965,0.199921 -0.251953,0.314453 -0.01355,0.02713 -0.03651,0.0488 -0.04687,0.07813 -0.05207,0.12422 -0.110594,0.245334 -0.171875,0.365234 -0.0798,0.156141 -0.174044,0.257547 -0.271484,0.335938 0.171669,0.116145 0.327117,0.251157 0.474609,0.396484 0.160424,0.137744 0.271133,0.318599 0.40625,0.478516 0.09843,0.149647 0.225893,0.272902 0.347656,0.402343 0.114349,0.1256449 0.260751,0.2101639 0.394532,0.3124999 0.143302,0.08623 0.254242,0.217999 0.396484,0.304688 0.132593,0.08528 0.276731,0.152521 0.417969,0.222656 0.213045,0.105405 0.398754,0.253067 0.591797,0.388672 0.01502,0.0094 0.02613,0.02362 0.04102,0.0332 -0.0052,-0.0951 -0.0067,-0.190401 -0.01563,-0.285156 -0.02261,-0.250293 -0.05169,-0.503282 0.01563,-0.75 0.01629,-0.04732 0.04183,-0.08056 0.0625,-0.121094 -0.260427,-0.2458359 -0.173168,-0.6419909 0.277344,-0.7714839 0.08799,-0.08959 0.19167,-0.144531 0.298828,-0.144531 0.08735,0 0.170168,0.04269 0.246094,0.103515 0.0325,2.33e-4 0.06494,-4.12e-4 0.09766,0 0.186562,0.0022 0.374165,0.0067 0.560547,0.01563 0.207092,0.01142 0.414717,0.02789 0.61914,0.06445 0.17747,0.031 0.35258,0.04998 0.533204,0.05469 0.18839,0.01721 0.376789,0.04074 0.564453,0.06445 0.202704,-6.02e-4 0.404734,-10e-4 0.607422,-0.0039 0.199824,-0.0033 0.400134,-0.0065 0.599609,-0.01953 0.168429,-0.01209 0.337694,-0.02771 0.503906,-0.05859 0.03619,-0.0067 0.0636,-0.0022 0.09766,-0.0059 0.251228,-0.327538 0.384766,-0.772796 0.384766,-1.351562 0,-0.257955 -0.0324,-0.485644 -0.08398,-0.695313 H 39.796862 39.082018 38.40819 c -0.21909,-1e-6 -0.43716,8e-6 -0.65625,0 -0.203847,-8e-6 -0.407481,5.1e-5 -0.611328,0 -0.205993,-6.3e-5 -0.413148,3.59e-4 -0.619141,0 -0.214808,-4.48e-4 -0.429734,-0.0016 -0.644531,-0.0039 -0.221759,-0.0029 -0.442917,-0.0033 -0.664062,-0.02148 -0.108995,-0.0122 -0.295345,-0.01703 -0.382813,-0.08789 -0.247877,-0.20079 -0.405025,-0.376253 -0.267578,-0.712891 v -0.002 c -0.0032,-0.0417 -0.0067,-0.08345 -0.0078,-0.125 -0.0152,-0.183044 -0.03438,-0.366821 -0.07227,-0.546875 -0.05216,-0.291325 -0.101217,-0.582216 -0.109375,-0.878906 z M 7.812462,5.5878911 c 0.01485,0.02418 0.0302,0.048 0.04492,0.07226 0.109358,0.147868 0.208165,0.302121 0.300781,0.460938 0.0045,0.0062 0.0073,0.01332 0.01172,0.01953 0.03027,0.01965 0.06017,0.04052 0.08984,0.06641 C 8.13121,5.9926821 7.985305,5.7843041 7.812457,5.5878891 Z m 31.22461,0.617187 c -0.0052,0.02774 -0.0056,0.05108 -0.01172,0.08398 h 0.05664 0.15625 c -0.05856,-0.03723 -0.136083,-0.05386 -0.20117,-0.08398 z M 36.51754,10.318359 c -0.0075,0.01232 -0.01469,0.02442 -0.02148,0.03711 0.01702,-0.01094 0.02597,-0.02498 0.04492,-0.03516 -0.0026,-4.44e-4 -0.0053,4.47e-4 -0.0078,0 -0.0052,-9.22e-4 -0.01045,-0.0011 -0.01563,-0.002 z M 4.511681,10.539062 c 0.0062,0.0065 0.01336,0.01077 0.01953,0.01758 -7.96e-4,-0.0052 -0.0011,-0.01037 -0.002,-0.01563 -0.006,-4.16e-4 -0.0116,-0.0015 -0.01758,-0.002 z M 13.777306,20 h 6.246094 6.246093 l -2.542968,2 c -3.150397,2.478102 -4.58087,2.471861 -7.587891,-0.0332 z"
     inkscape:connector-curvature="0" />
</svg>
