<?xml version="1.0" encoding="UTF-8" standalone="no"?>
<!-- Created with Inkscape (http://www.inkscape.org/) -->

<svg
   xmlns:dc="http://purl.org/dc/elements/1.1/"
   xmlns:cc="http://creativecommons.org/ns#"
   xmlns:rdf="http://www.w3.org/1999/02/22-rdf-syntax-ns#"
   xmlns:svg="http://www.w3.org/2000/svg"
   xmlns="http://www.w3.org/2000/svg"
   xmlns:sodipodi="http://sodipodi.sourceforge.net/DTD/sodipodi-0.dtd"
   xmlns:inkscape="http://www.inkscape.org/namespaces/inkscape"
   width="65.259186"
   height="40.868931"
   viewBox="0 0 17.266493 10.813238"
   version="1.1"
   id="svg8"
   inkscape:version="0.92.1 r15371"
   sodipodi:docname="yoga.svg">
  <defs
     id="defs2" />
  <sodipodi:namedview
     id="base"
     pagecolor="#ffffff"
     bordercolor="#666666"
     borderopacity="1.0"
     inkscape:pageopacity="0.0"
     inkscape:pageshadow="2"
     inkscape:zoom="0.24748737"
     inkscape:cx="-706.49218"
     inkscape:cy="-193.8269"
     inkscape:document-units="px"
     inkscape:current-layer="layer1"
     showgrid="false"
     units="px"
     fit-margin-top="0"
     fit-margin-left="0"
     fit-margin-right="0"
     fit-margin-bottom="0"
     inkscape:window-width="1600"
     inkscape:window-height="838"
     inkscape:window-x="-8"
     inkscape:window-y="-8"
     inkscape:window-maximized="1" />
  <metadata
     id="metadata5">
    <rdf:RDF>
      <cc:Work
         rdf:about="">
        <dc:format>image/svg+xml</dc:format>
        <dc:type
           rdf:resource="http://purl.org/dc/dcmitype/StillImage" />
        <dc:title></dc:title>
      </cc:Work>
    </rdf:RDF>
  </metadata>
  <g
     inkscape:label="Layer 1"
     inkscape:groupmode="layer"
     id="layer1"
     transform="translate(-121.38076,-137.23215)">
    <g
       id="g21"
       transform="translate(45.357143,3.5907738)">
      <path
         style="fill:#ccccfe;stroke-width:0.26458335"
         d="m 81.364656,144.30615 c -0.09577,-0.15496 -0.287914,-0.21143 -0.426986,-0.12547 -0.139071,0.0859 -0.220141,0.0581 -0.180155,-0.0618 0.03999,-0.11996 -0.04636,-0.23597 -0.191882,-0.2578 -0.145521,-0.0218 -0.241432,0.0476 -0.213136,0.15434 0.02829,0.10672 -0.113918,0.19403 -0.31603,0.19403 -0.202113,0 -0.344326,-0.12898 -0.31603,-0.28663 0.02829,-0.15765 -0.09738,-0.25687 -0.279283,-0.22049 -0.181901,0.0364 -0.300964,-0.0232 -0.264583,-0.13229 0.03638,-0.10914 -0.05292,-0.21629 -0.198438,-0.23812 -0.145521,-0.0218 -0.226608,0.0972 -0.180193,0.26458 0.04641,0.16735 -0.459601,-0.22653 -1.124479,-0.8753 -1.213754,-1.18433 -1.377926,-1.39032 -1.010432,-1.26782 0.109141,0.0364 0.216297,-0.0529 0.238125,-0.19844 0.02183,-0.14552 -0.06747,-0.23482 -0.198438,-0.19844 -0.130968,0.0364 -0.208359,-0.0827 -0.171979,-0.26458 0.03638,-0.1819 -0.06284,-0.30758 -0.220486,-0.27929 -0.157647,0.0283 -0.286632,-0.11391 -0.286632,-0.31602 0,-0.20212 0.06945,-0.34433 0.154341,-0.31603 0.08489,0.0283 0.15434,-0.0676 0.15434,-0.21314 0,-0.14552 -0.06945,-0.24143 -0.15434,-0.21314 -0.08489,0.0283 -0.154341,-0.11392 -0.154341,-0.31603 0,-0.20211 0.128985,-0.34432 0.286632,-0.31603 0.157648,0.0283 0.253917,-0.10623 0.213931,-0.29895 -0.03999,-0.19271 0.04108,-0.28007 0.180155,-0.19412 0.139071,0.0859 0.331215,0.0295 0.426986,-0.12547 0.12132,-0.1963 0.275167,-0.1979 0.507287,-0.005 0.240515,0.19961 0.454849,0.14203 0.770772,-0.20706 0.240688,-0.26596 0.348057,-0.57312 0.238599,-0.68257 -0.109458,-0.10946 -0.07995,-0.175 0.06557,-0.14564 0.563339,0.11366 0.71366,-0.0245 0.416424,-0.3826 -0.215451,-0.2596 -0.224005,-0.42636 -0.02808,-0.54745 0.154961,-0.0958 0.211424,-0.28792 0.125473,-0.42699 -0.08595,-0.13907 0.0014,-0.22014 0.194122,-0.18015 0.192717,0.04 0.327244,-0.0563 0.298949,-0.21393 -0.0283,-0.15765 0.113917,-0.28663 0.31603,-0.28663 0.202112,0 0.344325,0.0694 0.31603,0.15434 -0.0283,0.0849 0.06762,0.17219 0.213136,0.19402 0.145521,0.0218 0.241433,-0.0476 0.213137,-0.15434 -0.0283,-0.10671 0.113918,-0.19403 0.31603,-0.19403 0.202112,0 0.344326,0.12899 0.31603,0.28664 -0.0283,0.15764 0.07754,0.26348 0.235185,0.23518 0.157648,-0.0283 0.286632,0.11392 0.286632,0.31603 0,0.20211 -0.06945,0.35999 -0.15434,0.35085 -0.478639,-0.0516 -0.580846,0.0884 -0.306181,0.41935 0.215451,0.2596 0.224005,0.42636 0.02808,0.54745 -0.154961,0.0958 -0.225511,0.26512 -0.156778,0.37633 0.06873,0.11121 -0.04177,0.2022 -0.245569,0.2022 -0.203795,0 -0.347386,-0.0873 -0.31909,-0.19403 0.0283,-0.10671 -0.06762,-0.19402 -0.213137,-0.19402 -0.145521,0 -0.241432,0.0873 -0.213136,0.19402 0.02829,0.10672 -0.113918,0.19403 -0.31603,0.19403 -0.202113,0 -0.359992,-0.0694 -0.350844,-0.15434 0.0628,-0.58274 -0.144425,-0.55595 -0.837751,0.1083 -0.754423,0.72278 -0.770353,0.78212 -0.338154,1.2597 0.249461,0.27565 0.337844,0.46261 0.196407,0.41546 -0.141437,-0.0471 -0.275018,0.0334 -0.296846,0.17887 -0.02183,0.14552 0.07632,0.23187 0.218104,0.19188 0.141785,-0.04 0.195143,0.0287 0.118572,0.15256 -0.165449,0.2677 3.21552,3.68409 3.455813,3.49202 0.09103,-0.0728 0.197685,0.087 0.237019,0.35497 0.03933,0.268 0.0021,0.41786 -0.08273,0.33302 -0.08483,-0.0848 -0.303424,-0.0304 -0.485759,0.1209 -0.230049,0.19092 -0.384814,0.1889 -0.505647,-0.007 z m 0.689935,-0.4562 c 0.199719,-0.24621 0.235219,-0.37118 0.07889,-0.2777 -0.15633,0.0935 -1.159517,-0.7112 -2.229305,-1.78818 -1.069788,-1.07697 -2.045152,-1.89628 -2.167475,-1.82068 -0.122324,0.0756 -0.152706,0.25024 -0.06752,0.38807 0.08519,0.13784 0.268675,0.1803 0.407746,0.0943 0.139071,-0.0859 0.220141,0.001 0.180156,0.19412 -0.03999,0.19272 0.07613,0.32063 0.258027,0.28425 0.181901,-0.0364 0.300964,0.0827 0.264584,0.26458 -0.03638,0.1819 0.08268,0.30097 0.264583,0.26459 0.181901,-0.0364 0.300964,0.0827 0.264583,0.26458 -0.03638,0.1819 0.08268,0.30096 0.264584,0.26458 0.181901,-0.0364 0.300963,0.0827 0.264583,0.26459 -0.03638,0.1819 0.08268,0.30096 0.264583,0.26458 0.181901,-0.0364 0.300964,0.0827 0.264584,0.26458 -0.03638,0.1819 0.112448,0.29104 0.330729,0.24254 0.218281,-0.0485 0.307318,10e-4 0.19786,0.11082 -0.109458,0.10946 -0.0017,0.41703 0.239445,0.6835 0.530903,0.58665 0.475186,0.58441 0.919361,0.0368 z m -3.095634,-1.95296 c -0.83986,-0.84872 -1.628558,-1.48037 -1.752664,-1.40366 -0.124105,0.0767 -0.208596,0.0413 -0.187758,-0.0786 0.08008,-0.46102 -0.03578,-0.63941 -0.306596,-0.47204 -0.184784,0.11421 -0.127059,0.34519 0.167652,0.67084 0.24721,0.27316 0.555572,0.43108 0.68525,0.35094 0.129678,-0.0802 0.203063,0.012 0.163077,0.20468 -0.03999,0.19271 0.07613,0.32063 0.258028,0.28425 0.181901,-0.0364 0.300963,0.0827 0.264583,0.26458 -0.03638,0.1819 0.08268,0.30096 0.264583,0.26458 0.181901,-0.0364 0.300964,0.0827 0.264584,0.26459 -0.03638,0.1819 0.112448,0.29104 0.330729,0.24253 0.218281,-0.0485 0.307318,0.001 0.19786,0.11082 -0.266068,0.26607 0.596295,1.19898 0.922151,0.99759 0.140546,-0.0869 -0.431619,-0.85234 -1.271479,-1.70105 z m -0.793366,0.26434 c -0.398003,-0.41542 -0.834248,-0.68696 -0.969432,-0.60341 -0.135185,0.0836 0.07985,0.4918 0.47785,0.90723 0.398003,0.41542 0.834247,0.68696 0.969432,0.60341 0.135185,-0.0836 -0.07985,-0.4918 -0.47785,-0.90723 z m -0.286595,-3.46505 c -0.41377,-0.45721 -0.473115,-0.46017 -0.930325,-0.0464 -0.457211,0.41377 -0.460171,0.47311 -0.0464,0.93032 0.41377,0.45721 0.473115,0.46017 0.930326,0.0464 0.45721,-0.41377 0.46017,-0.47311 0.0464,-0.93032 z m -0.797044,0.44196 c 0,-0.16977 0.138907,-0.30868 0.308681,-0.30868 0.169775,0 0.308681,0.13891 0.308681,0.30868 0,0.16978 -0.138906,0.30868 -0.308681,0.30868 -0.169774,0 -0.308681,-0.1389 -0.308681,-0.30868 z m 3.205132,-2.27155 c -0.08519,-0.13784 -0.245882,-0.19439 -0.357094,-0.12565 -0.111212,0.0687 -0.202204,-0.0418 -0.202204,-0.24557 0,-0.2038 0.06945,-0.36305 0.15434,-0.35391 0.418868,0.0452 0.565848,-0.0729 0.408272,-0.32785 -0.113952,-0.18437 -0.348796,-0.12378 -0.679216,0.17524 -0.469804,0.42517 -0.474734,0.49055 -0.07066,0.93704 0.429298,0.47437 1.046111,0.42537 0.746565,-0.0593 z m 1.058333,0 c -0.08519,-0.13784 -0.245882,-0.19439 -0.357094,-0.12565 -0.111212,0.0687 -0.202204,-0.0418 -0.202204,-0.24557 0,-0.2038 0.06945,-0.36305 0.154341,-0.35391 0.418867,0.0452 0.565847,-0.0729 0.408271,-0.32785 -0.113952,-0.18437 -0.348796,-0.12378 -0.679215,0.17524 -0.469804,0.42517 -0.474734,0.49055 -0.07066,0.93704 0.429298,0.47437 1.046111,0.42537 0.746565,-0.0593 z m 1.557369,6.99416 c 0,-0.26049 0.08916,-0.27459 0.352778,-0.0558 0.194028,0.16103 0.352778,0.31789 0.352778,0.34857 0,0.0307 -0.15875,0.0558 -0.352778,0.0558 -0.194028,0 -0.352778,-0.15686 -0.352778,-0.34857 z m 3.175,-0.004 c 0,-0.19402 0.05979,-0.29298 0.132869,-0.21991 0.07308,0.0731 0.359699,-0.0724 0.636935,-0.3233 0.277236,-0.25089 0.465492,-0.32259 0.418346,-0.15933 -0.04715,0.16327 0.03334,0.27899 0.178864,0.25716 0.145521,-0.0218 0.234818,-0.12898 0.198438,-0.23812 -0.03638,-0.10914 0.08268,-0.16867 0.264583,-0.13229 0.181901,0.0364 0.300963,-0.0827 0.264583,-0.26459 -0.03638,-0.1819 0.08268,-0.30096 0.264584,-0.26458 0.181901,0.0364 0.300963,-0.0827 0.264583,-0.26458 -0.03638,-0.18191 0.08268,-0.30097 0.264583,-0.26459 0.181901,0.0364 0.300964,-0.0827 0.264584,-0.26458 -0.03638,-0.1819 0.08268,-0.30096 0.264583,-0.26458 0.181901,0.0364 0.300964,-0.0827 0.264583,-0.26459 -0.03638,-0.1819 0.02315,-0.30096 0.132292,-0.26458 0.109141,0.0364 0.198437,-0.0529 0.198437,-0.19844 0,-0.14552 -0.115721,-0.22601 -0.257158,-0.17886 -0.141437,0.0471 -0.05188,-0.14111 0.199015,-0.41835 0.250895,-0.27723 0.366616,-0.59362 0.257158,-0.70308 -0.109458,-0.10946 -0.07995,-0.17499 0.06557,-0.14563 0.563338,0.11365 0.71366,-0.0245 0.416424,-0.38261 -0.215451,-0.2596 -0.224005,-0.42636 -0.02808,-0.54745 0.154961,-0.0958 0.225511,-0.26512 0.156778,-0.37633 -0.06873,-0.11121 0.04177,-0.2022 0.245568,-0.2022 0.203796,0 0.363053,0.0694 0.353904,0.15434 -0.05158,0.47864 0.0884,0.58084 0.419352,0.30618 0.259602,-0.21545 0.426361,-0.22401 0.547449,-0.0281 0.09577,0.15496 0.30336,0.20188 0.46131,0.10426 0.16488,-0.1019 0.211595,-0.0552 0.109694,0.10969 -0.09762,0.15795 -0.0507,0.36554 0.104259,0.46131 0.195511,0.12083 0.197535,0.2756 0.0066,0.50565 -0.151325,0.18233 -0.186872,0.41978 -0.07899,0.52766 0.107878,0.10788 0.07708,0.15645 -0.06844,0.10795 -0.145521,-0.0485 -0.264583,0.0309 -0.264583,0.17639 0,0.14552 0.115721,0.226 0.257158,0.17886 0.141438,-0.0471 0.05188,0.14111 -0.199014,0.41835 -0.250896,0.27723 -0.366617,0.59362 -0.257159,0.70308 0.109458,0.10945 0.02042,0.15932 -0.19786,0.11082 -0.218281,-0.0485 -0.36711,0.0606 -0.330729,0.24253 0.03638,0.1819 -0.08268,0.30096 -0.264584,0.26458 -0.181901,-0.0364 -0.300963,0.0827 -0.264583,0.26459 0.03638,0.1819 -0.08268,0.30096 -0.264583,0.26458 -0.181901,-0.0364 -0.300964,0.0827 -0.264584,0.26458 0.03638,0.18191 -0.08268,0.30097 -0.264583,0.26459 -0.181901,-0.0364 -0.291042,0.11245 -0.242535,0.33073 0.04851,0.21828 -0.0013,0.30731 -0.11082,0.19786 -0.109458,-0.10946 -0.425845,0.006 -0.703081,0.25716 -0.277236,0.25089 -0.465492,0.32259 -0.418346,0.15932 0.04715,-0.16326 -0.03334,-0.29684 -0.178864,-0.29684 -0.145521,0 -0.241432,0.0873 -0.213137,0.19402 0.0283,0.10672 -0.113917,0.19403 -0.31603,0.19403 -0.202112,0 -0.344325,-0.0873 -0.31603,-0.19403 0.0283,-0.10671 -0.06761,-0.17616 -0.213136,-0.15434 -0.145521,0.0218 -0.241433,0.10914 -0.213137,0.19403 0.0283,0.0849 -0.113918,0.15434 -0.31603,0.15434 -0.202112,0 -0.344326,-0.0694 -0.31603,-0.15434 0.0283,-0.0849 -0.06762,-0.15434 -0.213137,-0.15434 -0.14552,0 -0.241432,0.0694 -0.213136,0.15434 0.0283,0.0849 -0.100689,0.15434 -0.286632,0.15434 -0.185944,0 -0.338079,-0.15875 -0.338079,-0.35278 z m 2.67458,-0.6422 c -0.08595,-0.13907 0.0014,-0.22014 0.194122,-0.18015 0.192718,0.04 0.32063,-0.0761 0.28425,-0.25803 -0.03638,-0.1819 0.08268,-0.30096 0.264583,-0.26458 0.181901,0.0364 0.300964,-0.0827 0.264583,-0.26458 -0.03638,-0.18191 0.08268,-0.30097 0.264584,-0.26459 0.181901,0.0364 0.300963,-0.0827 0.264583,-0.26458 -0.03638,-0.1819 0.02315,-0.31663 0.132292,-0.2994 0.450123,0.0711 0.616139,-0.0482 0.447339,-0.32129 -0.110294,-0.17846 -0.671305,0.19475 -1.458939,0.97054 -0.703855,0.69327 -1.217326,1.36147 -1.141047,1.4849 0.07628,0.12342 0.251468,0.1547 0.389307,0.0695 0.13784,-0.0852 0.180294,-0.26867 0.09434,-0.40774 z m 3.688734,-2.6708 c -0.07594,-0.12287 -0.25085,-0.1537 -0.38869,-0.0685 -0.137839,0.0852 -0.180293,0.26868 -0.09434,0.40775 0.08595,0.13907 -0.0014,0.22014 -0.194121,0.18016 -0.192718,-0.04 -0.31768,0.085 -0.277694,0.27769 0.03999,0.19272 -0.02996,0.28695 -0.155442,0.2094 -0.301124,-0.18611 -2.232469,1.7993 -1.98806,2.04371 0.241799,0.2418 3.282727,-2.75186 3.09835,-3.05019 z m 0.255978,-1.8458 c -0.424823,-0.46942 -1.037561,-0.4147 -0.740395,0.0661 0.08519,0.13784 0.245882,0.19439 0.357094,0.12565 0.111212,-0.0687 0.202204,0.0418 0.202204,0.24557 0,0.2038 -0.128985,0.34739 -0.286632,0.31909 -0.157648,-0.0283 -0.256867,0.0974 -0.220486,0.27928 0.03638,0.18191 -0.08268,0.30097 -0.264584,0.26459 -0.181901,-0.0364 -0.307578,0.0628 -0.279282,0.22048 0.0283,0.15765 -0.100689,0.28664 -0.286632,0.28664 -0.185943,0 -0.338079,-0.15214 -0.338079,-0.33808 0,-0.18595 0.06945,-0.3306 0.154341,-0.32145 0.418867,0.0451 0.565847,-0.0729 0.408271,-0.32785 -0.113952,-0.18438 -0.348796,-0.12379 -0.679215,0.17524 -0.475117,0.42997 -0.47858,0.48629 -0.05846,0.95052 0.4319,0.47725 0.479687,0.46115 1.453323,-0.48958 0.939638,-0.91753 0.978198,-1.01459 0.57853,-1.45622 z m -1.03707,0.0235 c -0.247209,-0.27316 -0.560377,-0.42812 -0.695929,-0.34434 -0.135552,0.0838 -0.0442,0.37582 0.203013,0.64898 0.247209,0.27316 0.560378,0.42812 0.69593,0.34434 0.135552,-0.0838 0.0442,-0.37582 -0.203014,-0.64898 z m -3.946736,-0.76743 c -0.09653,-0.15619 -0.07737,-0.25127 0.04259,-0.21129 0.119957,0.04 0.247869,-0.0464 0.28425,-0.19188 0.03638,-0.14552 -0.08268,-0.26458 -0.264584,-0.26458 -0.181901,0 -0.332552,-0.11906 -0.33478,-0.26458 -0.0022,-0.14553 -0.100375,-0.41637 -0.218104,-0.60187 -0.117729,-0.18551 -0.115906,-0.30457 0.0041,-0.26459 0.119958,0.04 0.235964,-0.0464 0.257793,-0.19188 0.02183,-0.14552 -0.08762,-0.2281 -0.243225,-0.18351 -0.158271,0.0454 -0.132342,-0.10035 0.05885,-0.33073 0.365185,-0.44002 0.583644,-0.53806 0.475411,-0.21336 -0.03638,0.10914 0.05292,0.19843 0.198438,0.19843 0.145521,0 0.224896,-0.11906 0.176389,-0.26458 -0.04851,-0.14552 6.9e-5,-0.17632 0.107947,-0.0684 0.107878,0.10788 0.345325,0.0723 0.52766,-0.079 0.230049,-0.19093 0.384815,-0.1889 0.505648,0.007 0.09577,0.15496 0.31473,0.20118 0.486575,0.10272 0.171846,-0.0985 0.224184,-0.0816 0.116305,0.0375 -0.107878,0.11909 -0.07233,0.3657 0.07899,0.54804 0.191773,0.23107 0.185855,0.38669 -0.01953,0.51363 -0.201705,0.12466 -0.143156,0.35511 0.18559,0.73049 0.264141,0.30161 0.339655,0.46644 0.16781,0.36629 -0.171846,-0.10014 -0.390805,-0.0553 -0.486576,0.0997 -0.121088,0.19593 -0.287847,0.18737 -0.547449,-0.0281 -0.358147,-0.29723 -0.49626,-0.14691 -0.382604,0.41643 0.02936,0.14552 -0.03488,0.17631 -0.142761,0.0684 -0.107878,-0.10788 -0.345325,-0.0723 -0.52766,0.079 -0.230233,0.19108 -0.385141,0.18837 -0.507031,-0.009 z m 1.040478,-1.08722 c -0.08519,-0.13784 -0.267667,-0.18092 -0.405506,-0.0957 -0.13784,0.0852 -0.180917,0.26767 -0.09573,0.4055 0.08519,0.13784 0.267668,0.18092 0.405507,0.0957 0.13784,-0.0852 0.180917,-0.26767 0.09573,-0.4055 z m 1.058334,0 c -0.08519,-0.13784 -0.268676,-0.1803 -0.407747,-0.0943 -0.139071,0.0859 -0.235807,0.0581 -0.214969,-0.0618 0.08008,-0.46101 -0.03578,-0.6394 -0.306595,-0.47203 -0.184785,0.1142 -0.12706,0.34518 0.167652,0.67083 0.440256,0.48648 1.066985,0.4514 0.761659,-0.0426 z m -1.040883,-1.0301 c -0.06187,-0.10012 0.05562,-0.18203 0.261099,-0.18203 0.205479,0 0.317362,0.091 0.248629,0.2022 -0.06873,0.11122 -0.01219,0.27191 0.125648,0.3571 0.483095,0.29857 0.534444,-0.31657 0.06211,-0.74403 -0.444857,-0.40259 -0.519606,-0.38668 -1.103561,0.23491 -0.871982,0.92819 -0.971701,1.71392 -0.115424,0.90949 0.348699,-0.32759 0.583375,-0.67753 0.521501,-0.77764 z m -4.309519,1.2708 c 0.03999,-0.19272 -0.07613,-0.32063 -0.258028,-0.28425 -0.181901,0.0364 -0.300963,-0.0827 -0.264583,-0.26459 0.03638,-0.1819 -0.08268,-0.30096 -0.264584,-0.26458 -0.181901,0.0364 -0.300963,-0.0827 -0.264583,-0.26458 0.03638,-0.1819 -0.06284,-0.30758 -0.220486,-0.27929 -0.157648,0.0283 -0.286632,-0.11391 -0.286632,-0.31603 0,-0.20211 0.128984,-0.34432 0.286632,-0.31602 0.157648,0.0283 0.256866,-0.0974 0.220486,-0.27929 -0.03638,-0.1819 0.08268,-0.30096 0.264583,-0.26458 0.181902,0.0364 0.300964,-0.0827 0.264584,-0.26458 -0.03638,-0.18191 0.08268,-0.30097 0.264583,-0.26459 0.181901,0.0364 0.292513,-0.11245 0.245805,-0.33073 -0.04671,-0.21828 0.394845,0.069 0.981229,0.63831 0.586385,0.56935 1.004527,1.1349 0.929206,1.25677 -0.170141,0.2753 -0.393881,0.29233 -0.304156,0.0231 0.03638,-0.10914 -0.05292,-0.21629 -0.198438,-0.23812 -0.145521,-0.0218 -0.234818,0.0675 -0.198437,0.19844 0.03638,0.13097 -0.08268,0.20836 -0.264584,0.17198 -0.181901,-0.0364 -0.300963,0.0827 -0.264583,0.26458 0.03638,0.1819 -0.02315,0.31663 -0.132292,0.2994 -0.509743,-0.0805 -0.633885,0.0629 -0.350278,0.40465 0.217301,0.26183 0.225019,0.42573 0.02584,0.54883 -0.156193,0.0965 -0.251271,0.0178 -0.211286,-0.17488 z m 0.818463,-2.65238 c -0.42563,-0.47032 -0.466472,-0.46249 -1.186564,0.2274 -0.70214,0.67269 -0.719978,0.74298 -0.304959,1.20157 0.42563,0.47031 0.466472,0.46248 1.186564,-0.22741 0.702139,-0.67269 0.719977,-0.74297 0.304959,-1.20156 z m -1.319026,0.94967 c 0,-0.18595 0.128985,-0.31493 0.286632,-0.28663 0.157648,0.0283 0.263481,-0.0775 0.235186,-0.23519 -0.0283,-0.15765 0.100688,-0.28663 0.286632,-0.28663 0.185943,0 0.338078,0.15213 0.338078,0.33808 0,0.18594 -0.128984,0.31492 -0.286632,0.28663 -0.157647,-0.0283 -0.263481,0.0775 -0.235185,0.23518 0.0283,0.15765 -0.100689,0.28664 -0.286632,0.28664 -0.185943,0 -0.338079,-0.15214 -0.338079,-0.33808 z"
         id="path29"
         inkscape:connector-curvature="0" />
      <path
         style="fill:#9999fe;stroke-width:0.26458335"
         d="m 83.248746,143.58524 c -0.100764,-0.10076 -0.447273,-0.2235 -0.770019,-0.27276 -1.147554,-0.17513 -3.245944,-2.60621 -3.537974,-4.09891 -0.04883,-0.24961 -0.119931,-0.59752 -0.157995,-0.77315 -0.0974,-0.44939 1.853723,-0.48877 2.222149,-0.0448 0.441124,0.53152 0.96292,-0.0455 0.883643,-0.97713 -0.03667,-0.43088 0.09585,-0.9183 0.294484,-1.08315 0.198631,-0.16485 0.285434,-0.43506 0.192896,-0.60047 -0.09254,-0.16542 0.325491,0.16989 0.928955,0.74513 1.103753,1.05212 1.33507,1.46766 0.817008,1.46766 -0.154109,0 -0.20479,-0.12202 -0.112625,-0.27114 0.09216,-0.14913 0.0099,-0.23843 -0.182822,-0.19844 -0.192718,0.04 -0.32063,-0.0761 -0.28425,-0.25803 0.03638,-0.1819 -0.08268,-0.30096 -0.264584,-0.26458 -0.181901,0.0364 -0.307578,-0.0628 -0.279282,-0.22049 0.0283,-0.15764 -0.120532,-0.28663 -0.330729,-0.28663 -0.210197,0 -0.323678,0.0585 -0.25218,0.13 0.0715,0.0715 0.0062,0.27918 -0.145139,0.46151 -0.191493,0.23074 -0.186889,0.38606 0.01514,0.51092 0.205303,0.12689 0.208109,0.27841 0.0096,0.51762 -0.202393,0.24387 -0.175644,0.4254 0.09589,0.65075 0.269863,0.22397 0.427421,0.23027 0.555983,0.0223 0.222729,-0.36039 0.926042,0.15473 0.926042,0.67824 0,0.66727 -0.430011,0.60667 -1.270778,-0.1791 -0.465239,-0.4348 -0.859377,-0.69522 -0.875863,-0.5787 -0.112024,0.79175 0.03503,2.01581 0.277239,2.30765 0.212339,0.25585 0.189083,0.42998 -0.08816,0.66007 -0.236616,0.19637 -0.436111,0.21621 -0.536745,0.0534 -0.08809,-0.14253 -0.03338,-0.3375 0.121584,-0.43327 0.195511,-0.12084 0.197535,-0.2756 0.0066,-0.50565 -0.151325,-0.18234 -0.186872,-0.41978 -0.07899,-0.52766 0.107878,-0.10788 0.07708,-0.15646 -0.06844,-0.10795 -0.145521,0.0485 -0.264583,-0.0309 -0.264583,-0.17639 0,-0.14552 0.06945,-0.24143 0.15434,-0.21314 0.08489,0.0283 0.154341,-0.11391 0.154341,-0.31603 0,-0.20211 -0.128985,-0.34432 -0.286633,-0.31602 -0.157647,0.0283 -0.246944,-0.12715 -0.198437,-0.34543 0.04851,-0.21828 -6.9e-5,-0.30861 -0.107947,-0.20074 -0.107879,0.10788 -0.345326,0.0723 -0.527661,-0.079 -0.230734,-0.19149 -0.386057,-0.18689 -0.51092,0.0151 -0.126783,0.20514 -0.308297,0.18951 -0.618868,-0.0533 -0.383579,-0.29989 -0.397699,-0.29002 -0.111032,0.0776 0.180639,0.23167 0.24017,0.50948 0.132292,0.61736 -0.107878,0.10788 -0.07708,0.17212 0.06844,0.14276 0.563338,-0.11366 0.713659,0.0245 0.416424,0.3826 -0.215451,0.25961 -0.224005,0.42636 -0.02808,0.54745 0.15496,0.0958 0.211423,0.28792 0.125473,0.42699 -0.08595,0.13907 0.0014,0.22014 0.194121,0.18015 0.192718,-0.04 0.32063,0.0761 0.28425,0.25803 -0.03638,0.1819 0.08268,0.30096 0.264583,0.26458 0.181901,-0.0364 0.300964,0.0827 0.264584,0.26459 -0.03638,0.1819 0.08268,0.30096 0.264583,0.26458 0.181901,-0.0364 0.300964,0.0827 0.264583,0.26458 -0.03638,0.18191 0.08268,0.30097 0.264584,0.26459 0.181901,-0.0364 0.291041,0.11245 0.242535,0.33073 -0.04851,0.21828 6.9e-5,0.30861 0.107947,0.20073 0.107878,-0.10788 0.345325,-0.0723 0.52766,0.079 0.230233,0.19108 0.385141,0.18838 0.507031,-0.009 0.09653,-0.15619 0.01784,-0.25127 -0.174882,-0.21128 -0.192717,0.04 -0.32063,-0.0761 -0.28425,-0.25803 0.03638,-0.1819 -0.02315,-0.30096 -0.132291,-0.26458 -0.109141,0.0364 -0.228203,-0.0232 -0.264584,-0.1323 -0.132648,-0.39794 0.353033,-0.12034 1.323679,0.75658 0.759631,0.68628 0.878792,0.89707 0.507118,0.89707 -0.267207,0 -0.568274,-0.0824 -0.669038,-0.18321 z m 0.271401,-4.13832 c 0,-0.19403 -0.15686,-0.35278 -0.348577,-0.35278 -0.260482,0 -0.274583,0.0892 -0.0558,0.35278 0.161029,0.19403 0.317889,0.35278 0.348578,0.35278 0.03069,0 0.0558,-0.15875 0.0558,-0.35278 z m 2.517815,3.00671 c 0.482719,-0.5619 0.981547,-1.03172 1.108506,-1.04403 0.126959,-0.0123 0.09573,0.1404 -0.06941,0.33937 -0.230404,0.27762 -0.191782,0.44687 0.166041,0.7276 0.413292,0.32426 0.428958,0.31797 0.13785,-0.0554 -0.425698,-0.54596 -0.109581,-0.86208 0.436381,-0.43638 0.363405,0.28335 0.37614,0.27062 0.09279,-0.0928 -0.180638,-0.23167 -0.251124,-0.49853 -0.156635,-0.59301 0.09449,-0.0945 0.361346,-0.024 0.593017,0.15663 0.363404,0.28336 0.37614,0.27062 0.09279,-0.0928 -0.425698,-0.54597 -0.109581,-0.86208 0.436381,-0.43639 0.367654,0.28667 0.377527,0.27255 0.07764,-0.11103 -0.409483,-0.52376 0.01471,-0.90995 0.438547,-0.39925 0.219091,0.26399 0.0065,0.62154 -0.896063,1.50738 -0.650805,0.63872 -1.183283,1.06241 -1.183283,0.94153 0,-0.12088 -0.152526,-0.0932 -0.338947,0.0615 -0.186421,0.15472 -0.67067,0.34146 -1.076109,0.41498 l -0.737162,0.13367 z m 0.527189,0.39107 c 0.0715,0.0715 0.129996,-0.0486 0.129996,-0.26687 0,-0.50709 -4.76e-4,-0.50693 -0.598402,0.19387 -0.308827,0.36197 -0.340897,0.46532 -0.08281,0.26688 0.23167,-0.17813 0.479717,-0.26537 0.551216,-0.19388 z m -6.245309,-2.23163 c -0.457047,-0.47706 -0.618174,-0.82051 -0.437362,-0.93225 0.274761,-0.16982 0.391484,0.006 0.311055,0.46928 -0.02084,0.11995 0.06821,0.15253 0.19789,0.0724 0.129678,-0.0801 0.438041,0.0778 0.68525,0.35094 0.741376,0.81921 0.02595,0.85669 -0.756833,0.0396 z m 6.873783,0.53124 c -0.176196,-0.28509 0.01234,-0.39428 0.515758,-0.29871 0.145521,0.0276 0.115756,-0.10115 -0.06615,-0.28617 -0.40435,-0.41128 -0.427526,-0.75973 -0.05053,-0.75973 0.154109,0 0.218877,0.0992 0.14393,0.22049 -0.07495,0.12126 0.03185,0.22048 0.23733,0.22048 0.205478,0 0.317361,-0.091 0.248628,-0.2022 -0.06873,-0.11121 -0.01219,-0.27191 0.125649,-0.3571 0.621754,-0.38426 0.457243,0.37447 -0.22237,1.02558 -0.477056,0.45705 -0.820501,0.61817 -0.932249,0.43736 z m 1.8699,-1.31011 c -0.302162,-0.33388 -0.364843,-0.57153 -0.180752,-0.68531 0.254963,-0.15757 0.372991,-0.0106 0.32785,0.40828 -0.0091,0.0849 0.135502,0.15434 0.321446,0.15434 0.185943,0 0.338078,-0.15214 0.338078,-0.33808 0,-0.18595 -0.06945,-0.31493 -0.15434,-0.28663 -0.213291,0.0711 -0.327227,-0.3296 -0.11703,-0.41158 0.09328,-0.0364 0.299622,0.13998 0.458536,0.39191 0.220654,0.34981 0.192026,0.55497 -0.121141,0.86813 -0.370379,0.37038 -0.454855,0.3606 -0.872647,-0.10106 z m -3.685913,0.0591 c -0.09997,-0.1 -0.18177,-0.43974 -0.18177,-0.75504 0,-0.31529 -0.08244,-0.65571 -0.183207,-0.75647 -0.302351,-0.30235 -0.362439,-1.2279 -0.07972,-1.2279 0.144607,0 0.262923,-0.18562 0.262923,-0.41249 0,-0.22687 0.126818,-0.33412 0.281819,-0.23832 0.183573,0.11346 0.116983,0.35632 -0.191013,0.69665 -0.260058,0.28736 -0.357111,0.49956 -0.215673,0.47156 0.557079,-0.11027 0.704733,0.0288 0.408999,0.38508 -0.215451,0.25961 -0.224005,0.42636 -0.02808,0.54745 0.154961,0.0958 0.225511,0.26512 0.156778,0.37634 -0.06873,0.11121 0.04177,0.2022 0.245569,0.2022 0.203795,0 0.347386,-0.12899 0.31909,-0.28663 -0.0283,-0.15765 0.09738,-0.25687 0.279283,-0.22049 0.181901,0.0364 0.300963,-0.0827 0.264583,-0.26458 -0.03638,-0.1819 0.06284,-0.30758 0.220486,-0.27929 0.157648,0.0283 0.286632,-0.11529 0.286632,-0.31909 0,-0.20379 -0.09099,-0.3143 -0.202204,-0.24556 -0.111212,0.0687 -0.271904,0.0122 -0.357094,-0.12565 -0.08519,-0.13784 -0.0281,-0.32898 0.126857,-0.42475 0.195633,-0.12091 0.186223,-0.28923 -0.03079,-0.55071 -0.236852,-0.28539 -0.400142,-0.30387 -0.674306,-0.0763 -0.198974,0.16513 -0.361771,0.19524 -0.361771,0.0669 0,-0.12834 0.240827,-0.38374 0.535171,-0.56756 0.567887,-0.35465 0.705697,-0.21778 0.920173,0.91388 0.05042,0.26602 0.115662,0.51344 0.144986,0.54982 0.02932,0.0364 0.06868,0.21498 0.08746,0.39688 0.03469,0.33604 1.136741,0.49006 1.6195,0.22635 0.606037,-0.33106 1.39505,-0.20314 1.31352,0.21297 -0.04532,0.23131 -0.09152,0.47415 -0.102651,0.53964 -0.01113,0.0655 -0.163259,-0.024 -0.338056,-0.19875 -0.247359,-0.24736 -0.511294,-0.13028 -1.190625,0.52815 -0.480047,0.46528 -0.887696,0.76308 -0.905886,0.66177 -0.01819,-0.10131 -0.06284,-0.42232 -0.09922,-0.71336 -0.03638,-0.29104 -0.08103,-0.61286 -0.09922,-0.71515 -0.01819,-0.1023 -0.487058,0.25731 -1.041928,0.79913 -0.55487,0.54181 -1.090651,0.90332 -1.190625,0.80335 z m 2.927084,-0.95348 c -0.03638,-0.1819 0.09153,-0.29801 0.28425,-0.25802 0.192717,0.04 0.271414,-0.0551 0.174882,-0.21129 -0.123263,-0.19944 -0.285783,-0.19247 -0.54592,0.0234 -0.203724,0.16908 -0.305159,0.41299 -0.225413,0.54202 0.211162,0.34167 0.388819,0.28697 0.312201,-0.0961 z m -8.250104,0.35076 c -0.24721,-0.27316 -0.338566,-0.5652 -0.203014,-0.64898 0.135552,-0.0838 0.448721,0.0712 0.69593,0.34434 0.247209,0.27317 0.338565,0.56521 0.203013,0.64898 -0.135552,0.0838 -0.44872,-0.0712 -0.695929,-0.34434 z m 2.377091,-0.79118 c -0.08519,-0.13784 -0.04211,-0.32032 0.09573,-0.40551 0.137839,-0.0852 0.320318,-0.0421 0.405507,0.0957 0.08519,0.13784 0.04211,0.32032 -0.09573,0.40551 -0.13784,0.0852 -0.320318,0.0421 -0.405507,-0.0957 z m 0.533993,-0.53215 c -0.398003,-0.41542 -0.613036,-0.82367 -0.477851,-0.90722 0.135185,-0.0836 0.571429,0.18798 0.969432,0.60341 0.398003,0.41542 0.613036,0.82367 0.477851,0.90722 -0.135185,0.0836 -0.571429,-0.18798 -0.969432,-0.60341 z m 2.637693,0.52679 c -0.167371,-0.27081 0.01102,-0.38668 0.472035,-0.3066 0.119957,0.0208 0.147781,-0.0759 0.06183,-0.21497 -0.08595,-0.13907 -0.0435,-0.32255 0.09434,-0.40774 0.494029,-0.30533 0.529104,0.3214 0.04263,0.76166 -0.325653,0.29471 -0.556631,0.35243 -0.670834,0.16765 z m 0.02185,-1.02297 c -0.08378,-0.13556 0.07118,-0.44872 0.344341,-0.69593 0.273163,-0.24721 0.565204,-0.33857 0.64898,-0.20302 0.08378,0.13556 -0.07118,0.44872 -0.344341,0.69593 -0.273163,0.24721 -0.565204,0.33857 -0.64898,0.20302 z"
         id="path27"
         inkscape:connector-curvature="0" />
      <path
         style="fill:#4299ce;stroke-width:0.26458335"
         d="m 83.336022,142.68684 c -0.214026,-0.30384 -0.356423,-0.66988 -0.316437,-0.81341 0.03998,-0.14354 -0.04334,-0.18926 -0.185163,-0.10161 -0.365855,0.22611 -0.792721,-0.68725 -0.916748,-1.96156 -0.08789,-0.90301 -0.04371,-1.036 0.260327,-0.78367 0.2014,0.16715 0.299111,0.41242 0.217136,0.54506 -0.08197,0.13264 0.0086,0.20845 0.201351,0.16846 0.192717,-0.04 0.329053,0.0509 0.302969,0.20187 -0.02608,0.15101 0.22702,0.29728 0.562454,0.32505 0.517911,0.0429 0.600275,-0.0624 0.546178,-0.69816 -0.03504,-0.41174 0.09285,-1.03427 0.284201,-1.38338 l 0.347904,-0.63475 0.205291,0.92604 c 0.11291,0.50933 0.193909,1.1344 0.179998,1.38907 -0.0353,0.64614 0.344546,0.57747 1.12551,-0.2035 0.366583,-0.36658 0.796287,-0.58631 0.954896,-0.48828 0.166023,0.1026 0.213074,0.0564 0.110892,-0.10896 -0.09762,-0.15795 -0.05648,-0.36196 0.09141,-0.45337 0.148887,-0.092 0.268899,0.077 0.268899,0.3786 0,0.29962 -0.108528,0.54478 -0.241172,0.54478 -0.132645,0 -0.207878,0.20836 -0.167185,0.46302 0.09459,0.59194 -0.527155,1.81946 -1.326359,2.61866 -0.78345,0.78345 -0.867627,0.77884 -0.711291,-0.039 0.06955,-0.36381 0.201862,-0.66146 0.294039,-0.66146 0.09218,0 0.167593,-0.29766 0.167593,-0.66146 0,-0.3638 -0.148828,-0.66146 -0.330729,-0.66146 -0.181902,0 -0.33073,0.23813 -0.33073,0.52917 0,0.29398 -0.176389,0.52916 -0.396875,0.52916 -0.345891,0 -0.500194,-0.28421 -0.442906,-0.8158 0.0091,-0.0849 -0.12558,-0.15434 -0.299397,-0.15434 -0.173816,0 -0.31603,0.26645 -0.31603,0.5921 0,0.32565 0.07596,0.54515 0.168804,0.48777 0.09284,-0.0574 0.221049,0.25165 0.284905,0.68672 0.13634,0.92895 -0.05368,1.00531 -0.593737,0.23861 z"
         id="path25"
         inkscape:connector-curvature="0" />
      <path
         style="fill:#6565cf;stroke-width:0.26458335"
         d="m 84.117265,143.17314 c -0.02085,-0.34072 -0.08887,-0.64712 -0.396419,-1.78594 -0.174035,-0.64442 -0.16778,-0.64783 0.24289,-0.13229 0.23184,0.29104 0.43286,0.70776 0.446712,0.92604 0.02175,0.34276 0.563454,-0.60575 0.629608,-1.10243 0.07223,-0.54231 0.420369,-0.46927 0.420369,0.0882 0,0.36381 -0.0893,0.75076 -0.198437,0.8599 -0.198183,0.19818 -0.235396,0.33325 -0.297657,1.08038 -0.03977,0.47718 -0.818187,0.53796 -0.847066,0.0661 z"
         id="path23"
         inkscape:connector-curvature="0" />
    </g>
  </g>
</svg>
